<?xml version="1.0"?>
    
<!--********* Copyright (c) 2024 Pareto Softare, LLC DBA Simplemaps.com ***************************************
************* Free for Commercial Use, full terms at  https://simplemaps.com/resources/svg-license ************
************* Attribution is appreciated! https://simplemaps.com *******************************************-->

<svg baseprofile="tiny" fill="#cbd5e1" height="800" stroke="#94a3b8" stroke-linecap="round" stroke-linejoin="round" stroke-width=".3" version="1.2" viewBox="380 20 580 460" width="1000" xmlns="http://www.w3.org/2000/svg">
 
<style>
/* ── Base ── */
path { transition: fill 0.8s ease-out, opacity 0.8s ease-out; }

/* ── University regions: subtle highlight ── */
#ESMD, #ESCT, #ESVC, #ESAN, #ESCL, #ESPV, #ESGA, #ESAR, #ESMC {
  fill: #2D7FF9;
  fill-opacity: 0.12;
  stroke: #2D7FF9;
  stroke-opacity: 0.25;
  stroke-width: 0.5;
  animation: regionFadeIn 1.2s ease-out both;
}

/* ── Madrid: hero region ── */
#ESMD {
  fill: #E8453C;
  fill-opacity: 0.20;
  stroke: #E8453C;
  stroke-opacity: 0.35;
  stroke-width: 0.7;
  animation: regionFadeIn 1.2s ease-out both, regionPulse 4s ease-in-out 2s infinite;
}

/* ── Wave delays (from Madrid outward) ── */
#ESMD { animation-delay: 0s, 2s; }
#ESCL { animation-delay: 0.2s; }
#ESCM { animation-delay: 0.3s; }
#ESAR { animation-delay: 0.4s; }
#ESVC { animation-delay: 0.5s; }
#ESCT { animation-delay: 0.6s; }
#ESAN { animation-delay: 0.7s; }
#ESPV { animation-delay: 0.8s; }
#ESGA { animation-delay: 1.0s; }
#ESMC { animation-delay: 0.6s; }

/* ── Connection lines ── */
.uni-connection {
  stroke: #2D7FF9;
  stroke-opacity: 0.15;
  stroke-width: 0.8;
  fill: none;
  stroke-dasharray: 4 3;
  animation: dashFlow 20s linear infinite, connectionFadeIn 2s ease-out both;
}

/* ── City markers ── */
.uni-dot {
  fill: #2D7FF9;
  opacity: 0;
  animation: dotAppear 0.6s ease-out both;
}
.uni-dot-primary {
  fill: #E8453C;
  opacity: 0;
  animation: dotAppear 0.6s ease-out both;
}
.uni-ring {
  fill: none;
  stroke: #2D7FF9;
  stroke-width: 1;
  opacity: 0;
  animation: ringPulse 3s ease-out 2.5s infinite;
}
.uni-ring-primary {
  fill: none;
  stroke: #E8453C;
  stroke-width: 1.2;
  opacity: 0;
  animation: ringPulse 2.5s ease-out 2s infinite;
}

/* ── City labels ── */
.uni-label {
  font-family: system-ui, -apple-system, sans-serif;
  font-size: 11px;
  font-weight: 600;
  fill: #334155;
  opacity: 0;
  animation: labelFadeIn 0.8s ease-out both;
}
.uni-label-sub {
  font-family: system-ui, -apple-system, sans-serif;
  font-size: 8px;
  font-weight: 500;
  fill: #2D7FF9;
  opacity: 0;
  animation: labelFadeIn 0.8s ease-out both;
}

/* ── Keyframes ── */
@keyframes regionFadeIn {
  0%   { fill-opacity: 0; stroke-opacity: 0; }
  100% { fill-opacity: 0.12; stroke-opacity: 0.25; }
}
@keyframes regionPulse {
  0%, 100% { fill-opacity: 0.15; }
  50%      { fill-opacity: 0.28; }
}
@keyframes dotAppear {
  0%   { opacity: 0; r: 0; }
  60%  { opacity: 1; r: 5; }
  100% { opacity: 1; }
}
@keyframes ringPulse {
  0%   { opacity: 0.6; r: 5; }
  100% { opacity: 0; r: 18; }
}
@keyframes dashFlow {
  0%   { stroke-dashoffset: 0; }
  100% { stroke-dashoffset: -200; }
}
@keyframes connectionFadeIn {
  0%   { stroke-opacity: 0; }
  100% { stroke-opacity: 0.15; }
}
@keyframes labelFadeIn {
  0%   { opacity: 0; transform: translateY(3px); }
  100% { opacity: 1; transform: translateY(0); }
}
</style>

<g id="features">
  <path d="M708.7 68.2l0.1 0.3 0.4-0.1 0.5-0.3 0.8-0.1 0.9-0.3 0.3 0 0.8 0.4 0.4 0.3 0 0.2-0.1 0.4 0 0.5 0.3 0.9 0.2 0.3 0.5 0.2 0.5 0.1 0.5-0.1 0.4-0.3 0.2-0.4 0.4-1 0.6-0.4 0.8 0.1 1.2 0.3 1.7 0.9 0.5 0 0.4-0.2 0.5 0 1.1 1.2 0.2 2-0.4 2.2-0.7 1.8-0.5 0.7-1.6 1.8-0.4 0.4 0.5 1.2 0.8 0.9 0.9 0.5 1 0.3 1.1 0.1 0.7-0.3 0.3-0.7 0.1-1.5 0.3-1.1 0.7-0.8 0.9-0.3 0.9 0.2-0.9 0.8-0.3 0.7 0.2 0.7 0.7 0.8 0.7 0.5 2.4 0.4 1.4 0.8 1.3 1.1 1.5-0.2 0.4 0.1 0.6 0.5 0.3 0.2 1.4 0.2 0.7 0.2 0.5 0.6 1.4 1 1.5 0.5 3.3 0.3 3.1-0.6 1.1 0.4 0.5 1.6-1 0-1.4 0.7-0.3 0.5-0.1 0.4 0 0.4-0.1 0.3-1.1 1.5-0.2 0.5-0.1 0.4 0.1 0.9-0.3 1.6-0.4 1-0.4 0.3-0.5 0.3-0.3 0.2-0.3 0.7-0.8 0.3-1.1 1.1-0.5 0.3-0.5 0.3-1.9 0.5-0.3 0.3-0.1 0.4 0 0.4-0.1 0.4-0.2 0.7-0.1 0.3-0.5 0.3-0.8 0-0.4-0.1-2.4 0.3-0.3 0.3-0.1 0.4 0 0.3 0 0.3-0.4 0.2-0.3 0.1 0.1 0.1 0.7 0.3-0.1 0.2-0.2 0.3-1 0.6-0.5 0.5-0.3 0.5 0 0.5-0.3 0.2-0.3 0.2-0.4 0.1-0.7-0.3-0.5 0.1-0.3 0.2-0.2 0.4-0.3 0.5-0.2 0.4 0 0.5 0 0.3 0.1 0.3 0.2 0.4 0.1 0.2 0 0.4-0.2 0.5-0.6 1-1.1 1-0.9 1.4-0.2 1-0.1 0.6 0 0.4 0.2 0.3 0.3 0.2 0.2 0.3 0.1 0.3-0.2 0.5-1.2 1.4-0.8 1.3-0.2 0.7-0.2 0.6 0 0.4-0.2 0.8-0.2 0.6-0.3 0.7-0.2 0.5 0 0.5 0.1 0.4 0.1 0.4 0.3 0.3 0.2 0.4 0.1 0.4 0.1 0.4 0 1.1 0 0.5 0 0.7 0.1 0.4 0.2 0.3 0.6 0.6 0.2 0.3 0.1 0.3 0.1 0.4 0.2 0.4 0.3 0.3 0.3 0.2 0.4 0.1 0.4 0 0.3 0.2 0.1 0.5-0.1 0.9-0.3 0.6-0.8 1.1-0.7 1.2-0.6 1.3-0.2 0.4-0.1 0.5-0.5 0.6-0.3 0.4-0.3 0.5-0.2 0.3-0.2 0.1-0.3-0.1-0.7-0.2-0.4 0-1.2-0.4-0.3 0-0.3 0-0.2 0.1-0.6 0.4-0.8 0.1-0.3 0-0.4 0-0.7-0.3-0.7-0.5-0.2-0.2-0.5-0.7-0.3-0.3-0.3-0.2-0.7-0.3-0.7-0.3-0.4 0.1-0.7 0.4-0.4 0-0.4-0.1-0.8-0.3-0.3-0.2-0.3-0.3-0.5-0.6-0.3-0.3-0.4-0.2-0.3-0.2-1.6-0.1-0.3 0.1-0.5-0.3 0-0.1-0.1 0-0.1 0-0.5 0-1.5-1.3-0.3-0.6-0.2-0.5 0-0.5 0-0.4 0.1-0.4 0.1-0.4 1.7-1.9 0.5-0.6 0.3-0.3 0.1-0.4 0.2-0.3 0.2-0.3 0.3 0 0.5 0 0.4 0.3 0.4 0.1 0.4-0.1 0.8-0.3 0.4 0 0.4 0.1 0.8 0.5 0.4-0.1 0.4-0.1 0.2-0.2 0.1-0.4-0.1-0.4-0.1-0.5 0-0.3 0.1-0.1 0-0.2 0-0.2-0.1-0.3-0.2-0.4 0-1.2-1.2-0.8-0.8-0.3-2-1.1-1-0.9-0.4-0.3-0.2 0-0.6 0.1-0.3-0.1-0.2-0.3 0-0.4 0-0.5 0-0.3-1.6-1.1-3-3.7-2.3 0-0.9-0.3-0.6-0.9 0.2-0.1 0.2-0.3 0.2-0.3-0.8-0.8-1.2-0.1-2.7 0.2-0.8-0.1-0.6-0.2-0.5-0.4-0.5-0.6-0.3-0.4-1.2-0.8-0.4-0.2-2.6 0.4-1.7-0.6-0.9-0.2 0.2-0.8 0.3-2.9-0.1-1-0.1-0.4-0.2-0.3-0.3-0.1-0.4 0-0.8 1-0.3 0.2-0.4-0.1-0.6-0.4-0.3 0-0.3-0.3-0.2-0.3 0-0.3 0-0.4 0.6-0.6 0.4-0.2 0.7-0.6 0.6-0.6 0.8-0.7 0.3-0.1 0.4 0 0.4 0.1 0.2 0.1 0.2 0.2 0.3 0.6 0.3 0.2 0.7 0 0.4-0.1 0.4-0.2 1.2-0.8 0.2-0.3 0-0.5-0.1-0.3-0.4-0.1-0.3-0.2-0.3-2.1 0-0.4 0.3-0.5 1.1-0.4 0.3-0.3 0.1-0.5 0-0.9 0.1-0.8 0.4-1.3 0.9-1.4 0.1-0.5 0-0.5-0.6-2.3 0.7-1.3 0-0.3 0.2-0.4 0.2-0.3 0.5-0.5 0.5-0.1 0.8 0.4 0.3 0.1 0.8-0.1 0.4 0 0.5-0.1 0.4-0.2 0.4-0.3 0.7-1.1 0.4-0.2 1.1-0.2 0.4-0.3 0.2-0.3 0.2-0.6 0-0.4-0.1-0.4 0-0.5 0.2-0.4 0.3-0.7 0.6-1 2-1.5 0.5-0.3 0.6-0.4 0.4-0.5 0.6-1.1 0-0.6 0-0.5-0.2-0.4 0-0.4-0.1-0.8 0-0.5 0.3-1.1 0.1-0.3 0.3 0.1 0.5 0.3 0.2-0.1 0.2-0.1 0-0.3 0.1-0.3 0.2-0.1 0.3 0.1 0.3 0.1 0.4 0 0.6-0.3 0.5-0.5 0.6-1.1 0.6-1.1 0.4-0.4 0.3-0.3 1-0.3z m22.6 49.2l-0.3-0.5 0.1-0.7 0.3-0.3 0.6-0.3 0.3-0.3 0.3 0.2 0 0.6-0.3 0.8-0.5 0.4-0.5 0.1z m4.6-1.6l-0.5-0.1-0.8-0.2-0.6-0.1-0.5-0.4 0.1-0.5 0.2-0.6 0.1-0.4 0.5-0.5 0.3 0 0.3 0 0.1 0.5 0 0.6 0.4 0.2 0.4 0.5 0.3 0.2 0 0.5-0.3 0.3z" id="ESNC" name="Navarra, Comunidad Foral de">
  </path>
  <path d="M708.7 68.2l-1 0.3-0.3 0.3-0.4 0.4-0.6 1.1-0.6 1.1-0.5 0.5-0.6 0.3-0.4 0-0.3-0.1-0.3-0.1-0.2 0.1-0.1 0.3 0 0.3-0.2 0.1-0.2 0.1-0.5-0.3-0.3-0.1-0.1 0.3-0.3 1.1 0 0.5 0.1 0.8 0 0.4 0.2 0.4 0 0.5 0 0.6-0.6 1.1-0.4 0.5-0.6 0.4-0.5 0.3-2 1.5-0.6 1-0.3 0.7-0.2 0.4 0 0.5 0.1 0.4 0 0.4-0.2 0.6-0.2 0.3-0.4 0.3-1.1 0.2-0.4 0.2-0.7 1.1-0.4 0.3-0.4 0.2-0.5 0.1-0.4 0-0.8 0.1-0.3-0.1-0.8-0.4-0.5 0.1-0.5 0.5-0.2 0.3-0.2 0.4 0 0.3-0.7 1.3 0.6 2.3 0 0.5-0.1 0.5-0.9 1.4-0.4 1.3-0.1 0.8 0 0.9-0.1 0.5-0.3 0.3-1.1 0.4-0.3 0.5 0 0.4 0.3 2.1 0.3 0.2 0.4 0.1 0.1 0.3 0 0.5-0.2 0.3-1.2 0.8-0.4 0.2-0.4 0.1-0.7 0-0.3-0.2-0.3-0.6-0.2-0.2-0.2-0.1-0.4-0.1-0.4 0-0.3 0.1-0.8 0.7-0.6 0.6-0.7 0.6-0.4 0.2-0.6 0.6 0 0.4 0 0.3 0.2 0.3 0.3 0.3 0.3 0 0.6 0.4 0.4 0.1 0.3-0.2 0.8-1 0.4 0 0.3 0.1 0.2 0.3 0.1 0.4 0.1 1-0.3 2.9-0.2 0.8-0.8-0.1-1.4-0.4-1.2-0.7-0.4-1-0.4 0.1-0.3 0.3-0.2 0.3-0.2 0.4 0.1 0.1 0 0.1 0.1 0 0.1 0.2-0.8-0.1-0.7 0.1-0.5 0.3-0.5 0.5-0.1-0.9-0.4-0.3-0.4 0-0.2 0.2-0.3 0.4-0.6-0.3-1.4-1.1-0.4-0.2-0.3-0.1-0.1-0.9 0-0.8 0.1-0.3 0-0.4-0.2-0.4-0.4-0.5-1.4-1-0.5-0.1-0.6 0.2-0.3 0.3-0.2 0.4-0.3 0.9-0.5-0.1-0.5 0.3-0.3 0-0.3-0.1-0.3-0.4 0.1-0.3 0.4-0.5 0.1-0.3-0.1-0.5-0.6 0.3-0.2-0.4-0.1-0.7 0-0.5-0.2-0.7-0.4-0.5-2.6-2.2-1.1-0.5-1-1.3-0.6-0.3-0.8-0.5-1.1-1.1-1.3-0.7-1.2 0.6-1.1 0.3-0.1-0.1-0.6 0.1 0.2-0.5 0.1-0.4-0.2-0.4-0.3-0.3-0.2-0.3-0.2-0.4 0-0.4 0.2-0.4 0.2-0.5 0.5-0.6 0.4-0.7 0.3-0.6 0.1-0.6-0.2-0.4-0.2-0.2-0.4 0.1-0.6 0.8-0.3 0.3-0.3 0.2-0.7 0-0.4 0.1-0.4 0.2-0.2 0.3-0.2 0.3-0.2 0.3 0.1 0.3-0.1 0.3-0.2 0.2-0.3-0.2-0.3-0.2-1.2-1.6-0.6-0.5-0.2-0.3 0.1-0.4 0.1-0.4 0.2-0.4 0.6-0.6 0.5-0.7 0.2-0.4 0.2-0.3 0.4-0.3 1.4-0.2 0.5 0.1 0.4 0.1 0.4 0.2 0.2 0.3 0.2 0.7 0.3 0.3 0.3 0.2 0.3 0.1 0.8 0.1 0.4 0.1 0.4 0.1 0.4 0 0.7-0.2 0.8 0 0.4-0.1 0.3-0.2 0.5-0.5 0.3 0 0.6-0.2 0.2-0.1 0.1-0.3 0.1-0.3-0.1-0.3-0.2-0.3-1.1-0.4-0.6-0.4-0.3-0.4-0.2-0.3 0-0.5 0.5 0 0.7-0.1 0.3 0 0.1-0.1 0.1 0 0.1-0.2 0.2-0.4 0.1-0.4-0.1-0.3-0.3-0.4-0.8-0.2-0.3-0.4 0-0.3 0-0.3-0.2-0.2-0.3-0.2-0.8 0.4-0.7 1.6-0.5 0.2-0.3-0.1-1.2-0.1-1.2-0.3-0.3-0.2-0.2-0.2 0.2-0.4 0.2-0.3 0.3-0.6 0-1.3 0.2-1 0-0.7-0.2-0.4-0.7-0.3-0.2-0.3-0.1-0.5 0.3-0.9 0.2-0.4 0.7-0.6 0-0.5-0.1-0.2-0.3-0.2-0.9-0.1-1.3 0-0.9-0.2-0.7-0.6-0.2-0.1-0.3-0.1-0.4 0.1-0.4 0.2-3.4 2.1-2.5 1 0-0.7-0.3-1.2-0.2-0.4-0.2-0.3 0-0.4 0.1-0.4 0-0.4-0.1-0.5-0.1-0.3 0.1-0.5 0.4-0.6 3.4-2.5 0.5-0.4 0.5-0.2 2.5 0.1 1.1-0.1 0.9 0.3 0.3 0.1 1.8-0.9 0.2-0.4 0.2-0.5 0-1.6 0-0.4 0.7 0.3 0.8 0.1 0.9-0.8 1.3 0.8 2 1.8 0-0.4-0.5-1.4-0.1-0.7-0.2-0.4 0-0.2 0.2-0.2 0.5-0.2 0.5-0.6 1.7-1.1 0.7-0.2 0-0.4-0.3 0 0-0.3 0.7-0.4 1-0.1 2 0.1 2-0.2 0.8-0.4 0.7-0.2 0.5 0.1 0.9 0.6 0.8 0.8 0.3 0.6 0.5 1.4 0.1 1.2 0.2-0.2 0.3-1 0-0.3 0-0.3 0.1-0.3 0.2-0.3 0.4-0.1 0.5 0.2 0.5 0.2 1.2 0.2 2.4 1 1.7 0.4 0.9 0.3 0.8 1.2 2.3 1.1 1.6 0.8 1.6 0.5 1.8 0.2 1.7-0.2 1.4-0.4 0.4-0.1 0.3 0.2 0.2 0.4 0.4 0.4 0.5 0.2 0.1-0.1 0.1-0.1 0.2-0.1 0.3-0.1 0.2 0.1 0.1 0.3 0.1 0.2 0.3 0.2 1.2-1 0.5-0.1 0.8-0.2 2.9-1 0.9-0.6 0.5-0.2 0.5 0 0.5 0.4 0.3 0.5 0.3 0.3 0.6-0.4-0.2-0.2-0.4-0.4-0.2-0.2 1.6-0.8 1.5-1.3 1.5-0.8 0.7 0.5-0.1 0.6-0.1 1.2 0.1 0.7 1.1 0.5 0.5 0.7 0.2 1.1 0.1 0.2z m-61.4 3.2l-0.7-1-0.7-0.3 0 2.2 0.2 0.3 1.3-0.6-0.1-0.6z m25.4 25.6l-2.4-0.7-0.6-0.3-0.5-0.1-1.1-0.1-2.5 0.1-0.5 0.1-0.2 0.3-0.8 1.3-0.6 0.7-0.1 0.3 0.2 0.5 1 1 1.1 0.8 2.5 1.2 2.7 0.6 2 0.9 3.2 0.1 0.2 0 0.2 0.1 0.1 0.3 0.2 0.1 0.5-0.1 0.4-0.2 0.1-0.2 0-0.7-0.2-0.5 0-0.4-0.2-0.3-0.1-0.1-0.3 0-0.2 0.2-0.4 0.4-0.2 0.2-0.3 0.1-0.2-0.1-0.3-0.2-0.4-0.6-0.2-0.2-0.2-0.2-0.2-0.2-0.1-0.2 0-0.3 0.1-0.2 0.2-0.2 0.5-0.1 0.2-0.2 0.2-0.2 0.4-0.8 0-0.2 0.1-0.3 0.1-0.4-0.1-0.2-0.5 0-0.3 0-0.4-0.3-0.2-0.2-0.1-0.3-0.2-0.1-0.3 0-0.4 0.1-0.3 0.1-0.6-0.1z" id="ESPV" name="País Vasco">
  </path>
  <path d="M682.1 112.2l0.9 0.2 1.7 0.6 2.6-0.4 0.4 0.2 1.2 0.8 0.3 0.4 0.5 0.6 0.5 0.4 0.6 0.2 0.8 0.1 2.7-0.2 1.2 0.1 0.8 0.8-0.2 0.3-0.2 0.3-0.2 0.1 0.6 0.9 0.9 0.3 2.3 0 3 3.7 1.6 1.1 0 0.3 0 0.5 0 0.4 0.2 0.3 0.3 0.1 0.6-0.1 0.2 0 0.4 0.3 1 0.9 2 1.1 0.8 0.3 1.2 0.8 0 1.2 0.2 0.4 0.1 0.3 0 0.2 0 0.2-0.1 0.1 0 0.3 0.1 0.5 0.1 0.4-0.1 0.4-0.2 0.2-0.4 0.1-0.4 0.1-0.8-0.5-0.4-0.1-0.4 0-0.8 0.3-0.4 0.1-0.4-0.1-0.4-0.3-0.5 0-0.3 0-0.2 0.3-0.2 0.3-0.1 0.4-0.3 0.3-0.5 0.6-1.7 1.9-0.1 0.4-0.1 0.4 0 0.4 0 0.5 0.2 0.5 0.3 0.6 1.5 1.3 0.3 1-0.1 0.2-0.4 1.3-1.6 0.9-0.3 0.2-0.7 0.5-0.4 0.2-0.5 0.1-1 0.1-0.4-0.1-0.4-0.4-0.4-0.3-1-0.5-0.7 0-2.2-0.6-0.4-0.2-0.2-0.4-0.2-0.8-0.1-0.3 0.1-0.4 0.2-0.2 0.1-0.2 0.1 0 0-0.1 0-0.1-0.1-0.3-0.4-0.7-0.9-0.8-0.3-0.4-0.1-0.4 0-0.4 0-0.4 0.3-0.2 0.3-0.2 0.3-0.3 0.2-0.3 0-0.4-0.2-0.3-0.4-0.3-0.6-0.1-0.8-0.1-0.7 0.1-2.3 0.8-0.4 0-0.4-0.3-0.2-0.4-0.2-0.4 0-0.4-0.1-0.4-0.1-0.3-0.2-0.2-0.4-0.2-2.1-0.3-2.5 0.2-1.1 0.4-0.5 0.5-0.9 0.6-0.4 0.2-0.8-0.2-0.3 0.1-0.1 0.2-0.1 0.4 0 0.9-0.1 0.7-0.1 0.3-0.3 0.2-0.2 0.2-0.2 0.2-0.2 0.3-0.2 0.5-0.4 0.8-0.5 0.7-0.1 0.3-0.1 0.2 0 0.1-0.7 0-1.2-0.2-1.4 0.1-0.2 0.1-0.2 0-0.3-0.1-0.7-0.6-0.5-0.2-0.5-0.1-0.6 0-0.6-0.3-0.2-0.3 0.1-0.4 0.1-0.4 0.1-0.4 0.1-0.4 0.2-0.3 0.5-0.5 0.2-0.4 0.2-0.8 0-0.3-0.1-0.4-0.1-0.4-0.3-0.1-0.5-0.2-1 0.1-0.5 0.3-0.5 0.7-0.2 0.4-0.2 0.4-0.1 0.4 0 0.4 0.1 0.4 0 0.4-0.2 0.5-0.5 0.5-1.1 0.7-1.2 0.6-1.6-0.5-0.3-1.8-0.2-0.4-0.1-0.4-0.2-0.3-0.2-0.3-0.3-0.2-0.4 0-0.3 0.1-0.6 0.1-0.6 0-0.4 0-0.5 0-0.6-0.3-0.4-0.7-0.2-0.3-0.1-0.4-0.5-0.7-0.6-0.4-0.3-0.2-0.3-0.8-0.1-0.4-1.3-2 0-0.3 0.5-0.4 0.2-0.5 0.5-1.7 0.1-0.6 0-0.5 0-0.5-0.1-0.4-0.1-0.3-0.1-0.5-0.1-0.4 0-1-0.1-0.4-0.2-0.2-0.2-0.4 0.1-0.3 0.4-0.2 0.8-0.1 0.2-0.2 0.7-1.2 0-0.4-0.1-0.4 0-0.4 0-1.3 0.4-1.1 0-0.3-0.1-0.4-0.3-0.3-0.1-0.4-0.2-0.3-0.6-0.4-0.1-0.4 0.1-0.4 0.3-0.7 0.1-0.5 0-0.4-0.1-0.4-0.2-0.2-0.3 0-0.4 0-0.3 0.2-0.3 0-0.2-0.3 0.1-0.4 1.2-1.3 0.1-0.4 0.3-0.3 0.3-0.3 0.2-0.5 0-0.4-0.2-0.4-0.4-0.6 0.1-0.4 0.7-0.3 1.7-0.2 2.6 0.4 0.6 0.2 1.1 0.2 2.8-0.9 0 0.5 0.1 0.7 0.2 0.4 0.6-0.3 0.1 0.5-0.1 0.3-0.4 0.5-0.1 0.3 0.3 0.4 0.3 0.1 0.3 0 0.5-0.3 0.5 0.1 0.3-0.9 0.2-0.4 0.3-0.3 0.6-0.2 0.5 0.1 1.4 1 0.4 0.5 0.2 0.4 0 0.4-0.1 0.3 0 0.8 0.1 0.9 0.3 0.1 0.4 0.2 1.4 1.1 0.6 0.3 0.3-0.4 0.2-0.2 0.4 0 0.4 0.3 0.1 0.9 0.5-0.5 0.5-0.3 0.7-0.1 0.8 0.1-0.1-0.2-0.1 0 0-0.1-0.1-0.1 0.2-0.4 0.2-0.3 0.3-0.3 0.4-0.1 0.4 1 1.2 0.7 1.4 0.4 0.8 0.1z" id="ESRI" name="La Rioja">
  </path>
  <path d="M800.5 218.6l-0.2-0.2-2.5-1.1-0.4-0.2-0.3-0.5-0.1-0.4 0-0.4-0.3-0.3-0.5-0.4-1.2-0.7-2.9-1-0.9-0.5-0.4-0.4-0.3-0.7 0-0.5 0.2-0.5 0.2-0.3 0.1-0.3-0.4-0.4-0.5-0.4-0.9-0.2-0.5-0.5-0.2-0.4-0.1-0.4-0.2-0.2-0.8 0.2-1.1-0.2-0.2-0.7 0.2-0.2 2.2-1.3 0.3-0.3 0.3-0.7 0.8-0.9 0.2-0.4 0.2-0.4 0-0.4-0.4-0.9-0.1-0.5-0.1-0.5 0-0.4-0.3-0.8 0.1-0.6 0.1-0.4 0.2-0.4 0.1-0.4 0.1-0.4 0.5-0.7 0.2-0.5 0.2-0.4 0.1-1.3-0.6-1.9-0.6-0.5-0.6-0.3-0.7-0.5-0.4-1.5-0.2-0.7-0.1-0.3-0.2-0.4 0-0.4 0.1-0.4 0.1-0.4 0.2-0.3 0.4-0.3 0.4 0 0.3-0.1 0.3-0.2 0.1-0.3 0.3-0.2 0.7-0.2 0.4-0.2 0.3-0.3 0.2-0.3 0.3-1 0-0.5 0.1-0.4 0.2-0.4 0.3-0.4 0.6-0.4 0.5-0.2 0.4-0.3 0.1-0.1-0.2-1.2-0.1-1.3 1-2.2-0.1-1-0.4-0.7-0.5-0.6-0.7-0.3-0.3-0.1-0.2-1 0.6-0.9 0.4-1.5 0.1-1-0.1-1.1 0.1-0.3 0.4-0.3 1.2-0.4 0.3-0.2 0.1-0.1 0.1-0.1 0-0.1 0.1-0.2 0.1-0.3 0.2-0.3 0.8-1 0.2-0.3 0.2-0.4-0.2-0.4-0.2-0.4-0.1-0.4 0-0.4 0-0.4-0.2-0.5-0.4-0.1-0.4-0.1-0.4 0.1-1.2-0.2-0.4-0.2-0.2-0.3-0.1-0.4-0.2-1.2-0.5-1.3-0.1-0.4 0-0.4 0.6-0.9 0.9-0.9 0.6-0.9 0.3-0.3 0.3-0.3 0-0.3 0.3-0.3 0.1-0.2 0.3-0.2 0.3-0.1 1.4-0.3 0.4-0.2 0.4-0.5 0.4-0.9 0.5-0.9 0.2-0.2 0.2-0.2 0.3-0.1 0.8-0.2 0.3-0.2 0.3-0.4 0.4-0.6 0.6-0.4 0.3-0.2 0.3-0.3 0.2-0.3 0.2-0.4-0.1-1.8-0.1-0.4-0.1-0.2-0.4-0.3-0.5-0.5-0.1-0.3 0.2-0.3 0.2-0.4 0.3-0.3 0.4-0.2 0.3-0.1 0.3-0.1 0.2-0.2 0.3-0.6 0.2-0.3 0.2-0.2 0.5-0.2 0.2-0.2 0.2-0.3 0.1-0.6 0-0.5 0-0.3 0.5-1.2 0.7-2.2 0-0.3 0.4-0.3 0.2-0.5 0.1-0.6 0.2-1.1 0.1-0.6-0.1-0.6-0.1-0.3 0-0.5 0.2-0.6 0.1-0.4 0.3-1.7 0.1-0.2 0.2-0.3 0.3-0.5 0.3-1 0.1-0.4 0.1-1 0-0.7-0.1-0.2 0.2-0.7 0.1-0.6 0-1-0.2-2.3-0.3-1.4-0.3-0.6-0.2-0.4-0.2-0.2-0.1-0.1-0.2-0.2-0.1-0.4 0-0.6-0.1-0.4-0.2-0.5-0.1-0.4 0.1-0.4 0.3-0.2 0.3 0 0.1-0.1 0.2 0 0.1-0.2 0.1-0.1 0.1-0.3-0.1-0.6 0.1-0.5 0.1-0.3 0.2-0.2 0.2-0.5 0.2-0.4 0.2-0.3 0.1-0.3 0.1-0.2 0.1-0.4 0-0.7 0.1-0.3 0.1-0.4 0-0.2-0.1-0.3-0.5-0.2-0.8-0.2-0.4-0.1-0.3-0.3-0.3-0.5-0.6-1.5-0.8-1.5-0.5-0.4 0.1-0.1 0.1-0.9-0.3-0.8-0.5-0.7-0.6-0.2 0.3-0.5 0.1-0.3 0.3-0.2-0.4-0.6 0.6-1.6-0.1-1.1 0.2-0.8 0.9-0.4 1.1-0.1 0.7 0.1 1.4 0.6 0.7 0.1 0.8-0.1 0.7 0.2 1.7 1 1.2 0.5 0.4 0.2 0.6 0.7 0.5 0.2 0.3-0.2 0.4-0.4 0.4-0.1 0.4 0.1 0.6 0.6 0.3 0.2 3.5 0.2 0.8 0.3 0.8 0.6 0.3 0.8 0.4 0.9 0.4 0.7 0.7 0.5 0.4 0.1 1.4-0.5 4.9 0.1 1 0.2-0.2 0.8 0.2 0.2 0.4 0 0.3 0.2 0.7 1.3 0.8 1.1 0.7 1.9 0.6 0.7-0.2 0.4-0.2 0.5-0.1 0.5 0.4 0.3 0 0.2-0.7 1.1-0.1 0.7 0.9-0.2 0.7 0.7 0.1 0.8-0.8 0.6-0.2 0.1-0.7 0.3 1.2 1.8 0 0.7 0.4 0.4 2.5 0.3 0.3-0.1 0.5-0.2 0.2-0.3 0.2-0.4 0.2-0.2 1.2-0.2 1.4-0.1 1.3-0.6 0.4-1.5 0.2-0.1 0.1-0.1 0.1 0 0.1 0.2 0.5 0.2 0.5 0 0.4-0.2 0.4-0.5 0.1 0.1 0.1 0.1 0 0.1 0 0.2 0.8 0.3 2.5 0.4 0.8 0.3 2.3 1.6 0.9 0.2 0.8 0.1 0.6 0.2 0.6 0.9 0.5 2.1 0.4 0.8 0.8 0.7 0.5 0.4 0.5 0 1.1-0.1 0.6-0.1 0.5-0.4 0.7-0.7 0.9-0.7 0.2-0.3 0.3-0.8 0.2-0.3 0.7-0.3 1.9 0.2 2.5-0.8 1.2-0.1 1.2 0.6 0.5 0.4 2.3 1.1 1.3 0.3 0.6 0 0.3 0.9 0.6 0.9 0.8 0.6 0.8 0.2 0.8 0.5 0.4 0.1 0.5 0 0.2-0.3 0.4-0.9 0.3-0.2 0.8-0.1 1.8 0.7 0.9 0.1 1.1 0 0-0.3-0.5-0.5-0.4-1.1 0.3-0.4 1.7-1.4 0.7-0.4 0.9 0 1.5 0.2 0.9-0.1 0.6-0.4 1.3-1.2 0.6-0.4 0.7-0.1 0.6 0.1 0.7-0.2 1.4-1 1.3 0.5 0.6-0.4 0.5 0 1.2 0.1 0.2 0.1 0.3 0.6 0.3 0.5 0.4 0.4 0.5 0.3 0.8 0.3 1 0.1 1.1-0.1 1.7-0.3 0 0.8-0.4 1.1 0.2 0.9 0 0.9 0.5 0.8 0.7 0.6 0.9-0.2 0.9 0 0.6 0.7 0.2 0 0.5-0.4 0.5 0.1 1 0.7-1 1.9-0.1 0.5-0.2 0.8-0.3 0.4-0.3 0.3-0.3 0.6-0.7-0.3-1.5 0.3-1.2-0.5-0.4-0.6-0.7 0.2-0.9 0.9-0.5 1.2 0 1.9-0.1 1.3 0.3 1 0.6 0.7 1.4 0.9 0.8 1 0.9 1.3-0.1 0.7-0.5 0.5-0.2 0.8 0.3 0.8 0.2 1.1 0 0.4 0.2 0.3 0.7 0.6 0.3 0.4-0.2 1.1-1 1.7-0.5 1.4-0.7 0.7-1.1 1.7-1.3-0.2-1.6 1.2-0.4 1.5-1.1 0.6-3.6 2.9-0.8 1.2-1.3 0.3-0.9 0.2-1.1 0.3-0.4 0.1-0.2 0.1-0.6 0.6-0.2 0.2-0.1 0.4-0.4 0.1-0.5 0-0.5 1.3-5.1 2.1-8.2 3.8-0.8 0.9-2.4 1.6-3 1.3-1.2 0.9-1.1 1.5-1.9 3.5-1.2 1.6-1.3 1.2-2.8 1.6-1.7 0.4-2.7 0.3-2.7 0.7-0.9 0.5-0.4 0.1-1.3 0-7.9 2.4-3.5 0.3-10.1 3.8-2.9 0.6-0.3 0.2-0.7 1.3-0.1 0.4-0.2 0.3-0.5 0.3-0.9-0.6-0.3-0.1-1.8 0-1.7 0.3-1.6 0.7-1 0.7-4.6 4.5-2.2 3-4.4 4.5-0.8 1.5 1.1 0.7 1.1 0.4 0.5 0 0.2-0.3-0.1-0.4-0.6-0.4 0.7 0.1 0.6 0.3 0.4 0.4 1 1.2 1 0.9 0.5 0 0.8 0.2 0 1.1-0.6 1.2-0.4 0.5-2.6 0.8-1.1 1-2 3.1-1.2 1-1.2 0.4-1.3 0.2-0.9-1.5 1.9-0.3 0.9 0.7 1.4-0.8 1.4-2.4-0.8-0.1-1.2 0.1-3.3 1.1-0.8 0.5-0.7 0.8-0.6 0.9-1 2.5z m57.5-103.9l-0.1-0.6 0.5-1 0.4-0.2 0.5 0.5 0.4 1 0.4 0.7-0.1 0.1-0.4 0.1-0.1 0-1-0.1-0.5-0.5z" id="ESCT" name="Cataluña">
  </path>
  <path d="M704.5 139.3l0.5 0 0.1 0 0.1 0 0 0.1 0.5 0.3 0.3-0.1 1.6 0.1 0.3 0.2 0.4 0.2 0.3 0.3 0.5 0.6 0.3 0.3 0.3 0.2 0.8 0.3 0.4 0.1 0.4 0 0.7-0.4 0.4-0.1 0.7 0.3 0.7 0.3 0.3 0.2 0.3 0.3 0.5 0.7 0.2 0.2 0.7 0.5 0.7 0.3 0.4 0 0.3 0 0.8-0.1 0.6-0.4 0.2-0.1 0.3 0 0.3 0 1.2 0.4 0.4 0 0.7 0.2 0.3 0.1 0.2-0.1 0.2-0.3 0.3-0.5 0.3-0.4 0.5-0.6 0.1-0.5 0.2-0.4 0.6-1.3 0.7-1.2 0.8-1.1 0.3-0.6 0.1-0.9-0.1-0.5-0.3-0.2-0.4 0-0.4-0.1-0.3-0.2-0.3-0.3-0.2-0.4-0.1-0.4-0.1-0.3-0.2-0.3-0.6-0.6-0.2-0.3-0.1-0.4 0-0.7 0-0.5 0-1.1-0.1-0.4-0.1-0.4-0.2-0.4-0.3-0.3-0.1-0.4-0.1-0.4 0-0.5 0.2-0.5 0.3-0.7 0.2-0.6 0.2-0.8 0-0.4 0.2-0.6 0.2-0.7 0.8-1.3 1.2-1.4 0.2-0.5-0.1-0.3-0.2-0.3-0.3-0.2-0.2-0.3 0-0.4 0.1-0.6 0.2-1 0.9-1.4 1.1-1 0.6-1 0.2-0.5 0-0.4-0.1-0.2-0.2-0.4-0.1-0.3 0-0.3 0-0.5 0.2-0.4 0.3-0.5 0.2-0.4 0.3-0.2 0.5-0.1 0.7 0.3 0.4-0.1 0.3-0.2 0.3-0.2 0-0.5 0.3-0.5 0.5-0.5 1-0.6 0.2-0.3 0.1-0.2-0.7-0.3-0.1-0.1 0.3-0.1 0.4-0.2 0-0.3 0-0.3 0.1-0.4 0.3-0.3 2.4-0.3 0.4 0.1 0.8 0 0.5-0.3 0.1-0.3 0.2-0.7 0.1-0.4 0-0.4 0.1-0.4 0.3-0.3 1.9-0.5 0.5-0.3 0.5-0.3 1.1-1.1 0.8-0.3 0.3-0.7 0.3-0.2 0.5-0.3 0.4-0.3 0.4-1 0.3-1.6-0.1-0.9 0.1-0.4 0.2-0.5 1.1-1.5 0.1-0.3 0-0.4 0.1-0.4 0.3-0.5 1.4-0.7 1 0 0.2 0.4 0 0.4-0.1 0.2-0.1 0.3 0.2 0.5 0.4 0.4 0.4 0.1 0.4-0.1 0.4 0.1 1.4 0.9 0.8 0.6 1.5 2.1 0.1 0.2-0.1 0.2 0 0.2 0.3 0.2 0.6 0 0.2 0 0.2 0.4 0 0.3 0 0.3 0.4 0.3 0.3 0 0.7-0.5 0.3-0.1 0.1-1.3 1 0 2.2 1 1.2-0.1 1-0.6 1.9-1.5 0.4 0.3 0.3-0.1 0.3-0.4 0.2-0.5 0.6 0.5 0.1 0.1 2.4 1.4 0.4 1.1 1.1 0.1 1.2-0.3 0.7-0.3-0.1 0.9 0.3 1 0.5 0.8 0.6 0.5 0.3 0.3 0 0.4 0.1 0.4 0.5 0.2 0.5 0.1 0.3 0.3 0.1 0.2 0.3 0.3 1.6 0.6 1.4-0.1 3.1-1.2 2.5-0.3 0.7-0.6 0.7-0.1 2.1 0.6 0.7 0.3 0.8 1.6 0.7 0.7 0.6-0.1 1.1-1.6 0.7-0.7 0.8-0.3 1.1 1 0.1 0.2-0.1 0.2 0.1 0.2 0.2 0.2 0.8 0.2 0.8-0.1 1.5-0.4 0.7 0.3 5-0.1 1.4 0.2 0.6-0.2 0.2-0.5 0.5 0.4 0.8 1.5 0.6 1.5 0.3 0.5 0.3 0.3 0.4 0.1 0.8 0.2 0.5 0.2 0.1 0.3 0 0.2-0.1 0.4-0.1 0.3 0 0.7-0.1 0.4-0.1 0.2-0.1 0.3-0.2 0.3-0.2 0.4-0.2 0.5-0.2 0.2-0.1 0.3-0.1 0.5 0.1 0.6-0.1 0.3-0.1 0.1-0.1 0.2-0.2 0-0.1 0.1-0.3 0-0.3 0.2-0.1 0.4 0.1 0.4 0.2 0.5 0.1 0.4 0 0.6 0.1 0.4 0.2 0.2 0.1 0.1 0.2 0.2 0.2 0.4 0.3 0.6 0.3 1.4 0.2 2.3 0 1-0.1 0.6-0.2 0.7 0.1 0.2 0 0.7-0.1 1-0.1 0.4-0.3 1-0.3 0.5-0.2 0.3-0.1 0.2-0.3 1.7-0.1 0.4-0.2 0.6 0 0.5 0.1 0.3 0.1 0.6-0.1 0.6-0.2 1.1-0.1 0.6-0.2 0.5-0.4 0.3 0 0.3-0.7 2.2-0.5 1.2 0 0.3 0 0.5-0.1 0.6-0.2 0.3-0.2 0.2-0.5 0.2-0.2 0.2-0.2 0.3-0.3 0.6-0.2 0.2-0.3 0.1-0.3 0.1-0.4 0.2-0.3 0.3-0.2 0.4-0.2 0.3 0.1 0.3 0.5 0.5 0.4 0.3 0.1 0.2 0.1 0.4 0.1 1.8-0.2 0.4-0.2 0.3-0.3 0.3-0.3 0.2-0.6 0.4-0.4 0.6-0.3 0.4-0.3 0.2-0.8 0.2-0.3 0.1-0.2 0.2-0.2 0.2-0.5 0.9-0.4 0.9-0.4 0.5-0.4 0.2-1.4 0.3-0.3 0.1-0.3 0.2-0.1 0.2-0.3 0.3 0 0.3-0.3 0.3-0.3 0.3-0.6 0.9-0.9 0.9-0.6 0.9 0 0.4 0.1 0.4 0.5 1.3 0.2 1.2 0.1 0.4 0.2 0.3 0.4 0.2 1.2 0.2 0.4-0.1 0.4 0.1 0.4 0.1 0.2 0.5 0 0.4 0 0.4 0.1 0.4 0.2 0.4 0.2 0.4-0.2 0.4-0.2 0.3-0.8 1-0.2 0.3-0.1 0.3-0.1 0.2 0 0.1-0.1 0.1-0.1 0.1-0.3 0.2-1.2 0.4-0.4 0.3-0.1 0.3 0.1 1.1-0.1 1-0.4 1.5-0.6 0.9 0.2 1 0.3 0.1 0.7 0.3 0.5 0.6 0.4 0.7 0.1 1-1 2.2 0.1 1.3 0.2 1.2-0.1 0.1-0.4 0.3-0.5 0.2-0.6 0.4-0.3 0.4-0.2 0.4-0.1 0.4 0 0.5-0.3 1-0.2 0.3-0.3 0.3-0.4 0.2-0.7 0.2-0.3 0.2-0.1 0.3-0.3 0.2-0.3 0.1-0.4 0-0.4 0.3-0.2 0.3-0.1 0.4-0.1 0.4 0 0.4 0.2 0.4 0.1 0.3 0.2 0.7 0.4 1.5 0.7 0.5 0.6 0.3 0.6 0.5 0.6 1.9-0.1 1.3-0.2 0.4-0.2 0.5-0.5 0.7-0.1 0.4-0.1 0.4-0.2 0.4-0.1 0.4-0.1 0.6 0.3 0.8 0 0.4 0.1 0.5 0.1 0.5 0.4 0.9 0 0.4-0.2 0.4-0.2 0.4-0.8 0.9-0.3 0.7-0.3 0.3-2.2 1.3-0.2 0.2 0.2 0.7-1.1 0.4-1.5 0.1-0.6 0.1-0.5 0.1-0.3 0.2-0.4 0.3-0.3 0.3-0.4 0.3-0.4 0-0.3-0.2 0-0.3 0-0.4-0.2-0.4-0.2-0.3-0.7-0.2-2 0.2-1.1-0.2-1.8-1.2-0.6-0.6-0.3-0.3-0.4-0.3-0.6-0.2-0.7 0-0.4 0.2-0.8 0.9-0.2 0.4-0.2 0.3-0.2 0.8 0 0.8 0 0.4 0 0.4-0.2 0.3-2.1 1.1-0.3 0.3-0.5 0.3-0.3 0-0.7-0.5-0.6-0.1-0.5 0.1-0.5 0.3-0.3 0.3-0.1 0.4 0.1 0.4 0 0.4 0 0.8 0.1 0.3 0.3 0.2 0.4 0.1 0.3 0.1 0.3 0.2 0.4 0.1 0.3 0 0.7-0.2 0.3 0 0.3 0.1-0.1 0.8-0.1 0.4 0 0.4 0.1 0.7 0.1 0.4 0 0.4 0 0.8-0.1 0.3-0.1 0.4 0 0.3 0.1 0.3 0.6 0.4 0 0.1 0.2 0.6 0.1 0.3 0 0.4-0.2 0.2-1.8 0.7-0.4 0.4-0.3 0.4 0.1 0.4 0.1 0.4 0.2 0.3 0.7 0.5 0.2 0.2 0.5 0.7 0.3 0.3 0.1 0.4 0 0.6-0.3 0.3-1.6 1.1-0.3 0.4-0.7 1-0.5 0.5-0.8 0.7-0.1 0.3 0.1 0.4 0 0.4-0.1 0.6-0.2 0.4-0.4 0.3-1.4 0.7-0.4 0.1-0.8 0-0.3 0.1-0.4 0.1-0.3 0.1-0.2 0-0.6-0.2-0.4-0.2-0.3-0.2-0.4 0-0.3 0.3 0 0.4 0 0.7-0.1 0.4 0 0.3-0.1 0.8-0.3 0.5-0.2 0.4-0.1 0.8-0.2 0.5-0.3 0.5-0.6 0.4-0.6 0.7-0.2 0.4-0.1 0.4 0.1 0.4 0.2 0.7-0.1 0.3-2.8 1.5-1.5 0.2-0.7 0-0.3-0.1-0.3 0.1-0.2 0.3-0.1 0.8-0.2 0.5-0.4 0.5-0.1 0-0.5 0.4-0.4 0.1-1 0.5-0.2 0.4-0.2 0.3-0.1 0.8-0.1 0.4 0.2 0.3 0 0.3 0.1 0.8 0.4 0.7 0.2 0.2 0.4 0.2 0.4 0.6 0.3 0.5-2.3 1.1-0.5 0.2-0.7 0-0.4-0.1-0.4-0.3-0.2-0.3-0.1-0.4 0.1-0.4 0-0.4-0.1-0.3-0.2-0.3-0.1-0.3 0-0.4 0.1-0.4 0.1-0.3 0.1-0.4-0.2-0.5-0.5-0.7-2-0.9-0.7-0.2-0.5-0.1-0.7 0.1-1.4-0.1-1 0.2-0.8 0.3-0.3 0-1 0.3-0.6-0.4-0.7-2.1 0.9-0.2 1.9-1 0.3-0.2 0.3-0.4 0.1-0.3-0.1-0.4-0.1-0.3-0.5-0.6-1.3-1.1-1.1-0.7-2.5-0.3-0.8-0.4-0.3-0.3-0.2-0.3 0-0.3 0-0.2-0.2-0.2-0.3-0.2-0.3-0.2-0.2-0.4-0.2-0.3-0.4-0.7-0.2-0.8-0.2-0.2-0.2-0.1-0.5 0.4-0.3 0.4-0.1 0.5 0.2 0.8-0.1 0.4-0.2 0.3-0.7 0.4-0.9 0.2-1.2-0.1-2.2-0.5 0.3-0.5 0.1-0.6 0.1-0.4 0-0.4-0.1-0.3-0.2-0.3-1 0.2-0.5 0-0.6-0.3-0.5-0.1-0.5 0-0.5 0.3-0.3-0.1-0.6-0.4-4.2-4.1-1-0.6-0.6-0.1-0.4 0.2-0.2 0.2-0.2-0.1-0.1-0.7 0.2-0.4 0-0.6-0.2-0.7-1.6-2.3-0.7-0.7-1.2-0.5 0.5-0.7 0.2-0.1 0.3-0.2 1.3-2.1 0.4-0.4 0.4-0.3 0.7-0.4 0.3-0.3 0.3-0.4 0-1.9 0-0.7 0.7-1.9 0.2-0.4 0.2-0.2 1.1 0.3 0.3 0 0.7 0.3 0.3 0.2 0.3 0.2 0.4 0.1 0.3-0.1 0.7-0.4 0.4-0.2 0.2-0.4 0.2-0.3-0.2-1 0.1-0.6 0.2-0.9 0.3-0.7 0.1-0.4 0.1-1.1-0.2-0.6-0.2-0.7-0.3-0.5-0.2-0.4 0.1-0.6 0-0.4 0.2-0.5 0.4-0.8 0.1-0.5-0.1-1.3 0-0.4-0.2-0.4-0.3-0.5-1.1-0.7-0.5-0.6-0.3-0.4-0.3-0.7-0.3-0.8 0.1-1.8 0.1-0.4-0.5-1.1-1.4-1.2-0.2-0.3-0.4-0.5-0.3-0.3-2.2-1.9-0.5-0.7-0.3-0.3-0.1-0.4-0.2-0.3-0.3-0.4-2-1.7-1.3-0.8-1.7-1.2-1-0.5-0.5-0.3-0.4-0.4-0.2-0.4-1.1-0.3-3.3 1-0.3-0.4-0.9-0.7-0.4-0.2-0.4-0.1-0.3 0-0.8-0.1-0.3-0.1-0.3-0.3-0.2-0.4-0.1-2-0.3-2-0.1-0.4-0.1-0.3-0.4-0.7 0.1-1.8 0.2-1 0.3-0.4 0.2-0.2 0.3-0.1 0.3-0.2 0.2-0.3 0.3-0.4 0.2-1.2 0.1-0.5 0-0.4 0-0.5 0.2-0.4 0.2-0.3 0.4-0.3 1.2 0.2 0.7 0.2 0.3 0.3 0.2 0.3 0.1 0.4 0 0.4-0.1 0.4 0 0.4 0.1 0.3 0.3 0.2 0.4 0 0.3-0.1 0.7-0.6 0.7-0.3 0.4-0.2 0.4-0.1 0.3-0.1 0.2-0.2-0.2-2.3-0.2-0.5-0.2-0.4-0.3-0.3-0.3-0.6-0.1-0.9 0.1-1.9-0.2-1.5-0.3-0.2-0.1-0.4 0-0.3 0.1-0.4 0.3-0.4 0.3-0.1 0.2-0.2 0.2 0 0.2 0 0.3 0.1 0.8 0.3 0.3-0.1 0.3-0.3 0.2-0.3 0.7-0.9 0.8-0.4 0.4-0.3 0.4-0.5 0.4-0.2 0.4-0.1 0.4 0 0.4-0.2 0.3-0.5 0.4-0.9 0.2-0.5 0.2-0.5 0.1-0.7-0.4-0.5-0.3-0.2-0.2-0.3-0.1-0.4-0.3-0.7-0.7-1-0.3-0.4-0.1-0.4 0.1-0.5 0.4-0.8 0.3-0.3 0.2-0.4 0.1-0.4 0.1-0.5 0-0.4-0.9-1.2-0.6-1.7-0.2-2.7 0.4-1.3 0.1-0.2-0.3-1z m26.8-21.9l0.5-0.1 0.5-0.4 0.3-0.8 0-0.6-0.3-0.2-0.3 0.3-0.6 0.3-0.3 0.3-0.1 0.7 0.3 0.5z m4.6-1.6l0.3-0.3 0-0.5-0.3-0.2-0.4-0.5-0.4-0.2 0-0.6-0.1-0.5-0.3 0-0.3 0-0.5 0.5-0.1 0.4-0.2 0.6-0.1 0.5 0.5 0.4 0.6 0.1 0.8 0.2 0.5 0.1z" id="ESAR" name="Aragon">
  </path>
  <path d="M501.6 231.7l0.5 0.4 0.8 0.8 0.3 0.3 0.5 0.2 0.4 0.1 0.4 0 0.4-0.2 0.3 0 0.3 0.1 0.8 0.1 1.3-0.7 0.4-0.1 0.7 0.5 0.4 0 0.5-0.2 0.4-0.2 0.5-0.2 2.8-0.5 0.6-0.3 0.4-0.3 0.2-0.2 0.1-0.4 0-0.4-0.2-0.7 0-0.4 0.2-0.3 0.3-0.3 1.2-1 0.4-0.2 0.8-0.3 0.3-0.2 1.5-0.6 0.8-0.9 0.4-0.2 0.4-0.2 1.2-0.2 0.4-0.3 0.2-0.4 0.1-0.3 0.2-0.4 0.3-0.2 0.4-0.3 0.4-0.3 0.7-0.1 0.5-0.2 0.5-0.2 1.4-1 0.4-0.2 0.5-0.1 0.7 0.2 1.4 0.8 0.4 0.4 0.6 0.7 0.4 0.2 0.8 0.2 0.1 0.3 0 0.3 0.3 0.3 0.5 0.3 0.9 0.3 0.2 0.3 0 0.2-0.3 0.4 0 0.2-0.1 0.2-0.2 0.2 0 0.2-0.1 0.4-0.2 0.2-0.2 0.2 0.1 0.2 0.5 0.3 1.4 0.6 0.9 0.5 0.6 0.5 0.3 0.4 0.6 0.4 1.4 0.7 1.1 0.4 0.5 0.1 0.4-0.2 0.2-0.3 0.2-0.4 0.2-0.4 0.1-0.3 0.1-0.4 0.3-0.2 0.3-0.2 1.4-0.3 0.8-0.5 0.4-0.1 0.3 0.1 0.4 0.5 0.2 0.4 0 0.5-0.1 0.3-0.3 0.7 0.1 0.3 0.2 0.2 0.9 0.1 1.4-0.5 1.6 0.6 1.2 0.9 1.2 1.1 1 1.3 1 0.7 1.6 0.5 1.5-0.1 0.3 0 0.3-0.1 0.3-0.2 0.6-0.5 0.3-0.4 1.4-1.1 2-0.6 0.7-0.1 0.2 0.3 0 0.3-0.4 1-0.1 0.4-0.1 0.5 0.2 2.3 0.3 0.7 0.2 0.4 0.1 0.4 0.7 1.1-1.2 0.6-0.1 0.2-0.2 0.4-0.2 1.3 0 0.6 0.1 0.5-0.3 2.8-0.6 3.9 0 1.4 0.2 0.7 0.3-0.2 0.8-0.1 1.1-0.1 0.4 0.1 0.3 0.1 0.3 0.3 0.3 0.3 0.2 0.3 0.2 0.3 0 0.4-0.1 0.3-0.5 0.7-0.2 0.4-0.1 0.7 0 0.6-0.1 0.5-0.1 1.1 0.1 0.5 0.2 0.2 1.4 0.3 0.5 0.1 0.3-0.1 0.2-0.2 0.5-0.7 0.3-0.5 0.8-0.7 0.3-0.1 0.8-0.1 0.3 0 0.3 0.2 0.1 0.4 0.2 0.7 0 0.5-0.2 0.8 0.1 0.3 0.5 0.7 0.3 0.4 0.1 0.5-0.1 0.4-0.1 0.3-0.2 0.7-0.1 1.2-0.1 0.3-0.1 0.4-0.1 0.3-0.5 0.6-0.1 0.4-0.3 0.3-0.2 0.4-0.4 0.6-0.1 0.3 0.1 0.3 0.3 0.3 0.3 0.3 0.6 0.4 0.3 0.2 1.5 2 0.9 0.9 0.6 0.5 0.3 0.4 0.6 0.4 0.7 0.1 0.3 0.2 0.6 1 1.2 1.4 0.4 0.6 0.5 0.6 0.2 0.2 0.4 0.3 0.5 0.5 2.6 1.3 1-0.6 0.2-0.1 0.3-0.1 0.3-0.1 0.9-0.5 1.4-0.4 0.5-0.2 0.5-0.7 2-1.1 0.5-0.6 0.6 1.7-0.2 0.9-0.6 1.2-0.6 1.7-0.3 0.5-0.4 0.3-0.5 0.1-0.3 0.2-0.3 0.4 0 0.5 0.1 0.5 0.8 1.9 0.7 1.3 0 0.2 0.3 0.3 0.4 0.4 1.2 1.4 0.5 0.9-0.6 0-0.2-0.1-1.4-0.7-0.3-0.2-0.3-0.1-0.7-0.2-0.7 0.2-0.4 0-0.4 0-0.7-0.2-0.3 0-0.3 0.3-0.3 0.3-0.2 0.3-0.6 0.6-0.3 0.3-0.1 0.3-0.2 0.6-0.5 2.2 0 0.7 0.2 0.5 0.2 0.3 0.7 0.4 0.3 0.3 0.1 0.5-0.2 0.3-0.9 0.6-0.4 0.1-0.4 0.1-0.7-0.3-1-0.6-0.4-0.1-0.3-0.1-0.4 0.1-0.3 0.3 0 0.4 0.1 0.3 0.2 0.4 0 0.4 0.1 0.4 0.2 0.2 0.2 0.2 0.1 0.1 0.1 0 0 0.4 0 0.4 0.1 0.3 0.1 0.4 0.2 0.3 0.2 0.3 1.4 0.4 0.3 0.1 1.1 0.2 0.2 0.3 0.2 0.6-0.2 0.7-0.2 1.2-0.2 0.3-0.3 0-1.1-0.2-0.4 0.1-0.4 0.1-0.3 0.2-0.3 0.3-0.3 0.3-0.6 1.1-0.2 0.5-1 3.7-0.4 1-0.4 0.5-0.3 0.2-0.2 0-0.2 0-0.5 0.1-0.6 0.3-1.1 0.1-0.7 0.3-3.2 0.1-0.4 0.2-0.1 0.3 0.1 0.4 0.1 0.4-0.1 0.5-0.2 0.4-0.1 0.2-0.1 0.3-1.2 0.4-1.9 1.2-1.3 1.2-0.2 0.2-0.2 0.2-0.1 0.3-0.1 0.2 0 0.2-0.1 0.3-0.2 0-0.2 0.1-0.5-0.2-0.9 0-0.5 0.1-0.7 0.7-0.2 0.3-0.4 0.5-0.2 0.3-0.2 0.3-0.1 0.3 0 0.3-0.2 0.4-0.3 0.5-1.2 0.8-0.6 0.5-0.2 0.4-0.5 0.7-0.3 0.2-0.6 0.2-1.8 1-0.5 0.5-0.3 0.3-0.3 1.1 0 0.3 0 0.2 0.1 0.3 0.4 0.4 0.1 0.2 0 0.3 0 0.2-0.1 0.6-0.1 0.3 0 0.5 0 0.2 0.1 0.2 0.1 0.2 0.3 0.2 0.1 0.2 0.2 0.3 0.1 0.2 0.1 0.6 0.1 0.2 0.1 0.3 0.2 0.3 0.3 0.7 0.1 0.2 0 0.4 0 0.3 0.1 0.4 0 0.4 0.1 0.4 0 0.4-0.1 0.7-0.3 0.3-0.1 0.4-0.2 0.7 0 0.4 0 0.3-0.2 0.3-1.7 1.4-1.7-0.1-0.8 0.5-0.3 0.3-0.9 0.9-0.9 0.6-0.7 0.1-0.4 0-0.3-0.3-0.2-1.1 0-0.3 0-0.4 0.2-0.2 0.3-0.2 0.4-0.1 0.6-0.4 0.2-0.3-0.1-0.3-0.1-0.3-0.7-0.7-0.5-0.5-0.5-0.1-2.7 0.4-1.3 0.5-0.3 0.2-0.3 0.4-0.3 0.6-0.3 0.3-0.3 0.2-1 0.6-0.4 0.4-0.2 0.3-0.2 0.4-0.1 0.4 0 0.3 0.1 0.4 0.2 0.3 0.2 0.3 0 0.4-0.1 0.3-0.7 0.9-0.2 0.3 0 0.3-0.1 0.3-0.2 0.4-0.4 0.5-0.4 0.3-0.6 0.2-1.7 0.3-0.8 0.1-3 0.6-1 0.5-1.3 1-0.5 0.5-0.7-0.6-5.3-2.2-1-0.3-0.2-0.3 0-0.4-0.2-0.4-0.3-0.5-1.6-1.2-0.5-0.1-0.4 0-0.3 0.1-0.3 0.2-0.2 0.3-0.2 0.3-0.6 0.5-0.2 0.2-0.1 0.3-0.1 0.2-0.6 0-1-0.3-1.9-0.1-0.3-0.3-0.1-0.3 0.1-0.4-0.1-0.4-0.1-0.3-0.8-1.1-0.6-0.5-0.5-0.2-0.6-0.1-1.3-0.1-1 0.1-1.9 0-1.1-0.4-0.5-0.2-0.5-0.2-0.4-0.2-0.1-0.3 0.1-0.4 0.2-0.6 0.2-0.4 0.2-0.3 0.2-0.3-0.1-0.4-0.2-0.4-5.5-1.8-0.6 0.5-0.6-0.4-1.1 0.1-1.1 0.3-0.1 0-0.2-0.1-0.5 0.7-1 0.5-1 0.2-0.6 0-0.6-0.5-0.4-0.4-1.6-4.2-0.2-0.2-0.7-0.5-0.3-0.3-0.1-0.3-0.3-0.7-0.2-0.3-4.2-5.5-1.2-0.9-0.5-0.3 0.5-0.6 0.4-0.5 0.1-0.6-0.5-0.7 0.4-0.6 0.7-2.6 1.7-2.5 0.2-0.7-0.1-0.4-0.2-0.2-0.3-0.1-0.2-0.4 0-0.4-0.1-0.5 0.1-1.2 0.3-1.7 0.1-0.4 0.4-0.7 0-0.2 1.8-1.5 0.6-0.5 0.6-0.2 0.7-0.6 0.6-0.6 0.2-0.5 0.4-0.3 1.8-0.4 0.7-0.4 0.5-0.5 0.5-0.4 0.3-0.2 0-0.7 0.2-0.8-0.6-1.1 0.9-0.7 0.9-1.3 1.3-2.6 0.4-0.5 0.2-0.5 0-0.5-0.5-0.4 0.3-0.9-0.3-1-0.5-0.9-0.7-0.7-0.9-0.6-1.1-0.3-1 0.1-1 0.6-0.5 0.2-0.6-0.1-0.6-0.3-0.4-0.4-0.1-0.5 0.5-1 0.1-0.5-0.5-1-1-0.4-1.1-0.3-1-0.6-0.6-0.8-0.3-1.1 0.1-1.1 0.5-0.9-2-2.5-0.7-0.6-0.3-0.6-0.2-1.1 0-1.2 0.2-0.7 0.3-0.8 0.2-1.2 0-1.1-0.3-0.5-1.7-0.5-0.8-0.4-0.7-0.5-0.3-1.1-0.4-0.5-1.4-0.7-0.6-0.6-1.2-1.6-0.8-0.7-1.3-3.7-0.3-0.7 0-0.1 8.7 0.4 0.5-0.2 0.7-0.3 0.7-0.1 1.7 0 0.6-0.2 0.9 0.6 1.3 0 5.9-0.7 0.6-0.3 0.5-1.1-0.1-0.4-0.1-0.3 0-0.5 0.2-0.5 0.5-0.9 0.2-0.5-0.1-0.4-0.2-0.5 0-0.6 0.3-0.7 0.3-0.3 0.9-0.3 0.4-0.3 1-1.5 0.1-0.5 0.1-0.9 0-0.5 0-0.2-0.1-0.6 0-0.2 0.1-0.3 0.4-0.3 0.1-0.2 0.3-1.3 0.1-0.5-0.1-0.5 0.2-0.6 0.7-1.2-1.6-2.9-0.9-1.1-0.5-0.9-0.5-0.4-0.4-0.2-1.1-0.1-0.5-0.2-0.4-0.7-0.3-1.8-0.4-0.8 0.4-0.6 0.4-1.2 0.3-0.5 0.8-0.3 1.7-1.2 0.5 0 0.3-0.1 0.8 0.1 0.8-0.1 0.7-0.5 0.1-0.3 0-0.4z" id="ESEX" name="Extremadura">
  </path>
  <path d="M494.7 57.7l-0.1 0.4-0.1 0.1-1.2 1.1-0.6 0.9-0.4 0.4-0.3 0.2-0.3 0-0.3 0-0.4-0.1-0.4 0-0.5 0.1-0.3 0.3-0.1 0.4-0.1 1.1 0.1 0.3 0.1 0.3 0.6 0.2 0.7 0 0.2 0.2 0.2 0.3 0 0.4 0 0.5 0 0.5 0.2 0.6 0.2 0.6 0.3 0.4 0.5 0.6 0.4 0.1 0.3 0.2 0.3 0.3 0.3 2.4 0.3 0.5 0.2 0.4 0.3 0.3 0.9 0.8 0.3 0 0.3 0.1 0.4 0.6 0.7 0.3 0.3 0.1 0.3 0.2 0 0.3-0.1 0.3-0.2 0.8-0.1 0.6 0.1 0.4 0.3 0.4 0.2 0.3 0.3 0.2 0.4 0.1 0.6-0.3 0.8-0.4 0.4-0.2 0.3-0.2 0.2-0.3 0-0.3 0.2-0.4 0.3-0.2 0.3 0 0.3 0.3 0.4 0.6 0.6 1 0.2 0.6-0.1 0.5-1.5 1.4-0.4 0.2-1.4 0.6-0.4 0-0.4 0-0.3 0.1-0.2 0.1-0.2 0.3-0.1 0.3-0.1 0.4-0.1 0.5-0.3 0.4-0.3 0.2-0.3 0.1-0.3 0.4-0.1 0.6 0.2 0.6 0.3 0.6 0.4 0.2 0.2-0.1 0.2-0.1 0-0.1 0.1-0.1 0-0.2 0-1 0.1-0.1 0.3 0 0.8 1.2 0.1 0.2 0.4 0.3 0.3 0.1 0.4 0.1 0.7-0.1 0.4 0.2 0.9 0.9 0.4 0.5 0.1 0.6 0.2 2.1-0.4 0.5 0 0.5-0.2 0.4-0.7 0.8-0.1 0.7 0.4 1.3 0 0.5-0.2 0.6-0.2 0.5-1.3 1.6-0.9 1.2-0.4 0.4-0.5 0.2-0.3 0-0.3-0.1-0.4 0.1-1 0.9-1.1 0.6-0.2 0.1-0.5 0.7-0.2 0.4 0 0.5 0.1 0.7 0.2 0.5 0.3 0.4 0.3 0.3 0.1 0.4 0 0.3-0.4 0.3-0.3 0.3-0.3 0.3-0.2 0.5 0.1 1.5-0.1 0.6-0.7 1.6-0.1 0.4 0.1 1.1-0.4 1 1.8 0.1 1.8 0.4 0.4-0.1 0.1-0.1 0.1-0.2 0.2-0.1 0.4-0.3 0.8-0.2 0.5 0 0.4 0.2 0.5 0.4 0.2 0.1 2.9 0.8 0.5 1.1-0.1 0.5-0.1 0.9-0.1 0.5-0.2 0.4-0.3 0.4-0.1 0.2-0.3 0.1 2 1.7 1.3 0.9 0.7 0.7 0.1 0.5 0 0.4-0.1 0.4 0.1 0.8-0.1 0.3-0.1 0.4-0.1 0.4-0.5 0.6-0.5 1-0.6 0.5-0.6 0.8-0.1 0.4-0.2 0.7-0.2 0.1-0.8-0.3-0.6 0-0.8 0.2-0.7 0.4-0.6 0.6-1.4 1.4-0.3 0.5-0.2 0.3-0.4 1.5-0.3 0.3-0.4 0.2-0.3 0.2-0.3 0.3-1 1.5-0.5 0.5-0.2 0.5 0.1 0.3 0.3 0.3 0.3 0.2 0.3 0.1 0.8 0 0.3 0.2 0.4 0.6 0 0.2 0.1 0.2-0.7 1.7-0.2 0.4 0 0.4 0.2 0.5-0.1 0.6-0.3-0.2-1 0.7-1.4 0.6-1.3-0.6-1.2-1-1.3-0.9-0.6 0.1-0.7 0.4-0.6 0.5-0.3 0.3-0.1 0.8 0.3 1.7-0.1 0.9-0.5 0.7-0.4 0.5-1.3 0.9-2.9 1-0.7 0.1-1.5-0.1-0.6 0.1-0.5 0.4-1 1.1-0.5 0.5-0.2-0.9-0.4-0.9-0.5-0.7-0.6-0.2-0.3-0.1-0.7-0.4-0.3 0-0.3 0.3 0 0.3-0.1 0.3-0.2 0.4-0.6 0.5-0.8 0.3-0.9 0.1-0.7-0.1-0.7-0.3 0-0.5 0.6-1.8-2.1 0-0.7-0.4-1.2-0.8-0.6-0.2-1.1 0.6-2.5 0.6-1.1 0-0.5 0.1-0.1 0.3-0.2 0.4-0.3 0.3-1.2 0-0.3-1.6-0.1-1.5-0.8 0.3-0.2 0.7-0.2 0.9-0.4 0.7-0.7 0-0.7-0.1-0.6 0.3-0.5 0.5-0.4 0.6-1.3 1.4-0.1 0-1.7 0.6-3.5-0.3 0-0.1 0.2-1.3-0.1-0.7-0.3-0.4-1.4-0.6-0.5-1 0.1-1 0.4-0.9 1.5-2.4 1.2-1.1 1.2-0.8 0.6-0.5 0.4-0.7 0.1-1-0.3-0.8-0.6-0.6-0.8-0.3-0.8 0.1-0.7 0.3-0.7 0.2-0.5-0.4-0.1-0.9 0.1-2.3-0.3-0.9-0.4-0.5-1.2 0.9-0.8 0.3-0.7 0-0.3 0.1-0.3 0.2-1.1 1-0.6 0.3-6.3 1-0.7 0.3-1.4 1-0.8 0.3-1.4 0-0.8 0.2-0.6 0.5-0.4 0.6-0.4 1.1-0.3 0.6-0.9 0.5-1 0.3-0.9 0.5-0.5 0.3-0.4 0.9-0.6 0.9-0.8 0.6-0.8 0.2-0.7 0.4-0.6 0.8-0.7 0.6-0.6-0.2 0.1-0.8-0.8-10.6 0.1-0.9 0.4-0.4 1.6 0 0.8-0.2 0.3-0.5-0.2-0.5-0.8-0.3-0.1-0.4 0.2-0.2 1-0.5 0.1-0.3 0.1-0.5 0.2-0.5 0.4-0.2 0.2-0.2 0.8-0.9 2.1-1.7 0.5-0.2 0.2-0.1 1.3-1.2 0.7-0.3 0.9-0.6 0.2-0.3 0.2-0.4 0-1.7-0.1-0.4-0.1 0-0.4 0.1-0.6 0.6-0.4 1-0.6 1-1 0.4-0.8 0.2-2.2 1-0.4 0.5-0.5 0.1-2.1-0.2-0.8 0.3 0.2-0.7 0.4-1.2 0-0.8 0.3 0 0.5 0.9 0.3-0.4 0-1.8-0.1-0.4-0.1-0.3 0.2-0.1 0.5-0.1 1.5 0.3 0.2-0.1 0.3-0.7 1.5-1.8 0.7-0.7 1.3-0.9 0.6-0.5 0.3-0.8-0.4 0.2-0.3-0.1-0.4-0.1-0.4 0-0.1 0.1-0.1 0.1-0.9 0.5-1 0.8-0.5 0.4-0.9 0.2-1.3 0.1-1.3-0.2-1-0.6-0.3-0.6-0.2-1-0.3-0.6-0.5-0.3-1.4-0.2-0.3-0.2 0.3-0.6 0.7-0.4 0.9-0.4 0.6-0.1 0.5 0.1 0.3 0.5 0 0.5-0.5 0.4 0.3 0.2 0.6 0.2 0.6 0.1 0.4-0.1 0.1-0.6-0.1-0.7 0-0.5 0.5-0.5-0.5-1.9 0-0.9 0.1-0.8 0.4-0.7 0.5-0.4 0.5-0.2 0.5-0.7 1.5-3.3 0.3-1.3-0.2 0-0.3 0.9-0.4 0.9-0.5 0.6-0.7 0.3-0.8-0.3-0.5-0.7-0.4-0.9-0.5-0.4-0.7 1.1 0 0.7 0.4 0.5-0.9 1.2-0.5 0.3-0.6-0.4 0.2-0.6-0.5 0.3-1.4 1 0.6 0.7-0.5 0.4-1.4 0.4-0.1 0.3-0.3 1.3-0.4 0.1-0.3 0.3-0.6 0.7-0.6-0.7-0.1-1-0.2-0.9-0.9-0.4-0.6-0.6 0.2-1.3 0.6-1.4 0.5-0.9 0-0.6 0.1-0.8 0.3-1.1 0.4-0.7 0.2-0.4 0.3-0.4 0.5-0.1 0.1-0.2 1.2-0.6 1-1.5 0.6-0.5 1-0.3 0.3-0.4 0.2-0.8-0.1-0.9-0.8-0.5-0.2 1.3-0.6 0.8-0.9 0.4-1.1 0.1-2.1-0.3-0.8 0.2 0.1 0.9-0.9 1-0.5 0.3-0.8-0.2-0.5-0.4-0.3-0.7-0.2-0.9-0.4-1 0.5 0 0.4-0.2 0.3-0.4 0.2-0.5-0.3-0.7-0.6-0.4-0.7-0.3-0.1-0.4-0.2-0.7 0-0.4 0.1-0.2 0.3-0.4 0.1-0.3 0.1-0.5-0.1-0.4-0.2-0.2-0.7-0.1-0.4-0.2-0.6-1-0.5-0.2 0 0.3 0.2 0.6-0.2 0.3-0.4 0.1-0.2 0-0.2-0.8-0.4 0-0.4 0.3-0.4 0.3-0.3 0.5-0.4 1.1-0.3 0.5-0.2-0.1-0.4-1.3-0.3-0.4 0-0.3 0.2-0.5 0.9-2.3 0-0.4 0.1-0.4 0.1-0.5 0.2-0.3 0.1-0.5-0.2-0.3-0.6-0.5-0.3-1.3 0.3-0.3 0.6 0 0.2-0.5 0.3-1 0.4-0.5 0.5-0.3 0.2-0.7 0.6 0.6 0.5 0.1 0.5-0.2 0.6-0.5 0.2-0.3 0.1-0.2 0.2-0.3 0.4-0.3 0.3-0.2 0.3-0.1 0.7 0 0-0.4-0.7 0.3-0.9 0.2-0.6-0.1 0-0.4-1.3 0.6-0.5-0.1-0.4-0.9 1.9-1.9 1.3-0.7 1.5 0.7 0.7 0 0.7-0.2 0.6-0.2 0.5-0.4 0.5-0.4 0.4-0.7 0.2-0.8 0.3 0 0.8 0.6 1 0 1.1-0.5 0.7-0.5-0.9 0.1-0.4-0.4-0.6-1.2-0.2 0-0.5-0.3-0.3-0.3 0.3-0.2 0.4 0 1.6-0.7 1.7-1.2 1.3-0.3 0.3-0.4 0.3-0.3 0.4-0.1 0.6 0.3 1.2 1.3 0.7 0.3 0.8 0.1 1.5 0.5 0.8 0.1 1.1-0.4 1.4-0.8 1.5-0.5 1.4 0.6 2.1-1 0.4-0.3 0.1-0.5 0.3-0.5 0.4-0.3 0.9-0.2 0.1-0.2 0.1-0.2 0.3-0.2 2.2-0.6 0.1 0.7 0.4 0.6 0.9 0.8 0.5-0.7 0.1-0.5-0.1-1.3 0.4-0.7 0.8 0.1 1.2 0.8 0.6 0.2 0.2 0.5 0.2 0.6 0.3 0.6 0.9 0.9 0.4 0.6 0.3 0.8 0.3-0.9 0-0.8-0.3-1.7 0-0.9 0.2-0.5 0.4-0.4 0.8-0.5-0.8-0.4-0.7-0.1-1.4 0.1-0.7-0.2-1-1.1-0.7-0.2 0.8-0.6 4.1-0.6 0.3-0.1 0.2-0.2 0.2-0.4 0-0.4-0.2-0.1-1 0.5-2.4 0.4 0.1-0.2 0.1-0.1 0.3-0.1-0.1-0.2-0.4-0.2-0.5 0.7-0.8 0.3-1.8 0.1 0.3-0.8 0.2-1.2 0.2-0.8 0.4 0.2 0.6-0.8-0.4-0.3-0.3-0.4-0.2-0.6 0-0.6 0.2 0 0.7 0.1 0.3-0.1 0.9 0.1 1.2-0.6 5.9-4.5 0.1 0.6 0.4 0.4 0.4 0 0.5-0.2-0.4 0-0.2 0 0-0.4 0.2-0.1 0.2-0.2 0.2-0.1-0.8-0.6-0.1-0.6 0.2-0.6 0.1-0.7 0.3-0.4 0.6-0.2 1.3 0 1.2-0.3 1.2-0.7 1-0.9 0.8-1.1 1.1 0.1 0.5 0.8 0.3 1 0.6 0.8 0 0.3-0.3-0.1-0.4-0.1-0.2-0.1-0.3 0.5-0.1 0.5-0.1 0.4 0.3 0.4-0.4 0.4-0.2-0.1-0.3-0.3-0.2 0.3-0.1 0.1-0.2 0.1 0 0.3 2 0.2 0.4-0.5-0.8-1.2 0.5-0.3 0.5 0 1 0.3-0.1-0.2-0.1-0.4-0.1-0.2 0.6-0.6 0.7-0.6 0.8-0.5 1.6-0.4 0.9-0.6 0.7-0.8 0.2-0.9 0.2-0.1 0.3 0.1 0.3 0.4 0.1 0.6-0.2 0.4-0.9 1.1-0.1 0.8 0.2 0.3 0.3-0.1 0.4-0.2 0.1-0.1-0.1-0.3 0.1-0.3 0.3-0.1 0.3 0 0.7-0.4 0.1 0.8 1 1.9-0.1 0.9 0.3-0.1 0.5-0.7 0.4-0.8 0.5 0.2 0.3-0.3 0.4-0.5 0.6-0.2 1.6 0.2 0.5 0.2 3.3 1.9 1.6 0.6 2.6 4.5 1.9 1-0.1 0.2-0.1 0.2-0.1 0.2-0.3 0.1 0 0.4 0.6 0.3 0.3-0.2 0.3-0.3 0.5-0.2 0.6 0 0.8 0.3 1.5 0.2 2.5-0.1 0.7-0.4 0.7 0.4 0.7 0.1 0.5 0.4 0 1.1-0.3 0.6-0.4 0.7-0.2 0.7 0.3 0.7z" id="ESGA" name="Galicia">
  </path>
  <path d="M501.6 231.7l0.1-0.5 0.1-0.4 0.3-0.3 1.7-1.3 0.4-0.3 0.7-1.3-1.4-1.3-0.9-1.5-0.3-1.8 0.8-1.8 0.9-1.4 0.1-0.6-0.2-0.9-0.4-0.8-0.5-0.4-0.3-0.6-0.1-0.9 0.3-0.8 0.9-1.8 0.3-0.9 0-0.6-0.1-1-0.3-1.7-0.5-1.8-0.1-0.7 0-1.1 0-0.5 0.2-0.3 0-0.3-0.1-0.6-0.1-0.3 0.1-1.4 0.6-0.2 0.2-0.6-0.2-0.8-0.4-0.3-0.7-0.1-0.3-0.5-0.3-1.1-0.9-2.2-0.6-0.9-1.2-1.4-0.4-0.6-0.1-0.7 0.4-0.7 0.2-1 0.8-0.4 2.5 0.2 1.1-0.1 0.6-0.6 1.6-2.3 0.3-1-0.1-1.3 0.2-0.4 0.5-0.7 1.4-1.2 0.2-0.5 0.3-0.8 1.5-2.1 0.4-0.6 0.8-0.1 2.6 0 0.4-0.3 2.3-1 0.6-0.5 0.8-0.6 1.3-1.3 1.2-2.1 0.2 0 0.5 0.1 0.1-0.1 0.1-0.3 0.1-0.4 0-0.3-0.2 0 0.6-0.5 0.5-0.2 1.3-0.1 0-0.4 1.5-2.5 0.1-0.4-0.2-0.3 0-0.5 0.3-0.5 1-1.1 1.9-2.9-0.4-0.5-0.5-0.8-1.7-1.8-1.8-1.2-2-0.7-3.3-0.7-0.5 0-0.3 0.2-0.3 0.4-0.5 0.4-0.7 0.3-0.4 0.1-1.1-0.4-0.6-0.9-0.2-1.1-0.1-1-0.2-0.5-0.2-0.5-0.2-0.4 0.3-0.5 0.3-0.5 0.1-0.5 1-4.4 0.5-1-1.1-0.4-0.7-0.1-0.3-0.4 0.3-2.3-0.1-0.9-0.6-0.7-1-0.4-0.5 1.2-1.4 0.4-2.8 0.1-1.3-0.3-1.4-2.3-1.3-0.3-0.2 1.7-1 0.6-2.5 0.2-1.1-0.3-1-0.7-0.6-0.3 0.1-0.6-0.2-0.5 0-0.4 0.2-0.4 0.7-1.7-0.1-0.2 0-0.2-0.4-0.6-0.3-0.2-0.8 0-0.3-0.1-0.3-0.2-0.3-0.3-0.1-0.3 0.2-0.5 0.5-0.5 1-1.5 0.3-0.3 0.3-0.2 0.4-0.2 0.3-0.3 0.4-1.5 0.2-0.3 0.3-0.5 1.4-1.4 0.6-0.6 0.7-0.4 0.8-0.2 0.6 0 0.8 0.3 0.2-0.1 0.2-0.7 0.1-0.4 0.6-0.8 0.6-0.5 0.5-1 0.5-0.6 0.1-0.4 0.1-0.4 0.1-0.3-0.1-0.8 0.1-0.4 0-0.4-0.1-0.5-0.7-0.7-1.3-0.9-2-1.7 0.3-0.1 0.1-0.2 0.3-0.4 0.2-0.4 0.1-0.5 0.1-0.9 0.1-0.5-0.5-1.1-2.9-0.8-0.2-0.1-0.5-0.4-0.4-0.2-0.5 0-0.8 0.2-0.4 0.3-0.2 0.1-0.1 0.2-0.1 0.1-0.4 0.1-1.8-0.4-1.8-0.1 0.4-1-0.1-1.1 0.1-0.4 0.7-1.6 0.1-0.6-0.1-1.5 0.2-0.5 0.3-0.3 0.3-0.3 0.4-0.3 0-0.3-0.1-0.4-0.3-0.3-0.3-0.4-0.2-0.5-0.1-0.7 0-0.5 0.2-0.4 0.5-0.7 0.2-0.1 1.1-0.6 1-0.9 0.4-0.1 0.3 0.1 0.3 0 0.5-0.2 0.4-0.4 0.9-1.2 1.3-1.6 0.2-0.5 0.2-0.6 0-0.5-0.4-1.3 0.1-0.7 0.7-0.8 0.2-0.4 0-0.5 0.4-0.5 1.3 0.2 0.8 0.4 0.2 0.5 0.3 0.1 0.5-0.3 0.3-0.3 0.3-0.3 0.3-0.4 0.4-0.2 0.7-0.3 0.8-0.1 1.9 0 0.5 0.1 0.3 0.1 0.3 0.2 1.9 0.2 0.4-0.1 1.4-0.6 0.6-0.1 2.1-1.1 0.2-0.4 0-0.3-0.2-0.3-0.7-0.2-0.4-0.3-0.2-0.3 0.1-0.3 0.2-0.2 1.1 0 0.9-0.3 0.3-0.2 0.1-0.2 0-0.3 0.1-0.3 0.2-0.4 0.2-0.3 0.2-0.4 0.2-0.4 1.1-0.5 0.7 0.2 0.4 0.3 0.3 0.3 0.8 0.2 0.6 0 1.7 0.9 0.8 0.2 0.3-0.1 0.2-0.2 0.1-0.8 0.3-0.3 0.5-0.1 1 0.2 1.1 0.4 0.5 0.2 0.5-0.1 0.8-0.4 0.3-0.3 0.1-0.5 0.1-0.4 0.1-0.3 0.4-0.1 2 0.4 0.5 0 1.2-0.3 0.4 0.3 0.2 0.3 0.2 0.8 0.1 0.4 0.2 0.4 0.2 0.3 1 0.6 0.5 0.4 0.5 0.4 0.5 0.1 0.1 0.3 1.1 0.4 0.3 0.2 0.4 0.1 1.6 0.1 0.7-0.1 0.4-0.1 0.4-0.4 0.1-0.4 0.2-0.3 0.1-0.3 0-0.1 0-0.2 0.1-0.3 0.2-0.3 0.3-0.3 0.2-0.4 0.2-0.3 0.2-0.4 0.4-0.2 0.6-0.2 1-0.1 0.6 0.1 1.1 0.6 0.9 0.2 0.6 0 0.9 0.1 0.3 0.3 0.4 0.2 0.4 0.1 0.4 0 1-0.4 0.7 0 0.3 0 0.2-0.3 0.2-0.3 0.1-0.4 0.2-0.3 2.2 0 0.5-0.1 0.4-0.2 0.3-0.4 0.3-1.1 0.4-0.3 0.5-0.1 2.1 0.3 3.9-0.4 2.1-1.1 0.4 0 0.4 0.2 0.4 0.1 0.5 0 0.6-0.6 0.3-0.5 0.3-0.9 0.1-0.4 0.1-0.4 0.4-0.8 0.4-0.3 0.7-0.4 1.5-0.4 1.3-0.7 0.6-0.6 2.2-1.2 0.4 0 0.4 0 0.3 0.2 0.8 0.6 1.2 1.9-0.2 3 0.1 0.6 0.2 0.9 0.3 0.4 0.4 0.3 1.6 0.9 0.3 0.4 0.2 0.5 0.8 0.8 0.2 0.4 0.3 1.4 0.8 0 0.7-0.2 2 0 1.6-0.3 1.4 0.1 0.5-0.1 1.4-0.7 0.5-0.1 0.6 0 0.4-0.2 0.8-0.4 0.6 0 0.5 0.1 1 0.5 0.4 0.3 0.8 1.4 0.1 0.4 0.1 0.1 0.2 0.4 0.6 0.4 4.1 1.5 0.6 0.4 0.1 0.4-0.1 0.4 0 0.4 0.1 0.7 0.2 0.8 0.1 0.4 0 0.4 0.1 0.4 0 0.4 0.1 0.4 0 0.3 0 0.2 0.1 0.3 0.2 0.3 0.3 0.1 0.3 0.1 0.2-0.1 0.5-0.5 0.4-0.2 1-0.3 0.4 0.2 0.2 0.2 0.1 0.5-0.1 0.3-0.3 0.3-0.3 0.2-0.4 0-0.7 0.2-0.3 0.2-0.1 0.3 0.1 0.3 0.3 0.4 0.8 0.7 0.4 0.1 1.1 0.1 0.4 0.2 0.4 0.2 0.2 0.3 0.4 0.7 1.6-0.4 1.1-2.5 0.3-0.2 0.3-0.2 0.1 0.1 0.1 0.3 0 1.3 0.1 0.4-0.1 0.9 1.4 0.4 0.6-0.1 0.8-0.3 0.5-0.2 1.4-1.3 0.7-0.2 1.4 0 0.4-0.2 0.2-0.4 0-0.3 0-0.4-0.1-0.3-0.3-0.6-0.1-0.4 0.1-0.6-0.1-0.4-0.1-0.4-0.4-0.2-0.4 0-0.5 0.2-0.3 0.4-0.3 0.6-0.3 0.2-0.4 0-0.2-0.3-0.2-0.3 0-0.4-0.2-0.6 0.1-0.3 0.3-0.2 0-0.3 0.1-0.2 1.1-0.1 1.2-0.8 0.3-0.4-0.1-0.4-0.2-0.3-0.3-0.4-0.3-0.2-0.4-0.2-0.3 0.1-0.3 0.2-0.2 0.3-0.4 0.7-0.3 0.3-1 0.6-0.8 0.2-0.4 0-0.4-0.1-0.3-0.3-0.3-0.3-0.1-0.4 0-0.4 0-0.4 0.9-2.6 0.4-0.7 0-0.1 0.3-0.2 0.4-0.2 0.7-0.4 0.9-1 0.6-0.3 0.6-0.2 0.4-0.3 0.5-0.5 0.2-0.5 0-0.5 0-0.5 0.3-0.2 0.3-0.1 0.4-0.1 1.2 0.1 0.3 0 0.4-0.2 0.6-0.5 0.8-0.5 0.4-0.4 0.6-0.6 1-1.3 0.8-0.9 0.6-0.4 0.4 0 0.4 0.1 0.6 0.5 0.4 0.2 1.2 0.2 1.1 0.3 1.1 0.5 0.8 0.2 0.7-0.1 1.2 0.2 1.1-0.1 2.5-1 3.4-2.1 0.4-0.2 0.4-0.1 0.3 0.1 0.2 0.1 0.7 0.6 0.9 0.2 1.3 0 0.9 0.1 0.3 0.2 0.1 0.2 0 0.5-0.7 0.6-0.2 0.4-0.3 0.9 0.1 0.5 0.2 0.3 0.7 0.3 0.2 0.4 0 0.7-0.2 1 0 1.3-0.3 0.6-0.2 0.3-0.2 0.4 0.2 0.2 0.3 0.2 1.2 0.3 1.2 0.1 0.3 0.1 0.5-0.2 0.7-1.6 0.8-0.4 0.3 0.2 0.2 0.2 0 0.3 0 0.3 0.3 0.4 0.8 0.2 0.3 0.4 0.1 0.3-0.1 0.4-0.2 0.4-0.1 0.2-0.1 0-0.1 0.1-0.3 0-0.7 0.1-0.5 0 0 0.5 0.2 0.3 0.3 0.4 0.6 0.4 1.1 0.4 0.2 0.3 0.1 0.3-0.1 0.3-0.1 0.3-0.2 0.1-0.6 0.2-0.3 0-0.5 0.5-0.3 0.2-0.4 0.1-0.8 0-0.7 0.2-0.4 0-0.4-0.1-0.4-0.1-0.8-0.1-0.3-0.1-0.3-0.2-0.3-0.3-0.2-0.7-0.2-0.3-0.4-0.2-0.4-0.1-0.5-0.1-1.4 0.2-0.4 0.3-0.2 0.3-0.2 0.4-0.5 0.7-0.6 0.6-0.2 0.4-0.1 0.4-0.1 0.4 0.2 0.3 0.6 0.5 1.2 1.6 0.3 0.2 0.3 0.2 0.2-0.2 0.1-0.3-0.1-0.3 0.2-0.3 0.2-0.3 0.2-0.3 0.4-0.2 0.4-0.1 0.7 0 0.3-0.2 0.3-0.3 0.6-0.8 0.4-0.1 0.2 0.2 0.2 0.4-0.1 0.6-0.3 0.6-0.4 0.7-0.5 0.6-0.2 0.5-0.2 0.4 0 0.4 0.2 0.4 0.2 0.3 0.3 0.3 0.2 0.4-0.1 0.4-0.2 0.5 0.6-0.1 0.1 0.1 1.1-0.3 1.2-0.6 1.3 0.7 1.1 1.1 0.8 0.5 0.6 0.3 1 1.3 1.1 0.5 2.6 2.2 0.4 0.5 0.2 0.7-2.8 0.9-1.1-0.2-0.6-0.2-2.6-0.4-1.7 0.2-0.7 0.3-0.1 0.4 0.4 0.6 0.2 0.4 0 0.4-0.2 0.5-0.3 0.3-0.3 0.3-0.1 0.4-1.2 1.3-0.1 0.4 0.2 0.3 0.3 0 0.3-0.2 0.4 0 0.3 0 0.2 0.2 0.1 0.4 0 0.4-0.1 0.5-0.3 0.7-0.1 0.4 0.1 0.4 0.6 0.4 0.2 0.3 0.1 0.4 0.3 0.3 0.1 0.4 0 0.3-0.4 1.1 0 1.3 0 0.4 0.1 0.4 0 0.4-0.7 1.2-0.2 0.2-0.8 0.1-0.4 0.2-0.1 0.3 0.2 0.4 0.2 0.2 0.1 0.4 0 1 0.1 0.4 0.1 0.5 0.1 0.3 0.1 0.4 0 0.5 0 0.5-0.1 0.6-0.5 1.7-0.2 0.5-0.5 0.4 0 0.3 1.3 2 0.1 0.4 0.3 0.8 0.3 0.2 0.6 0.4 0.5 0.7 0.1 0.4 0.2 0.3 0.4 0.7 0.6 0.3 0.5 0 0.4 0 0.6 0 0.6-0.1 0.3-0.1 0.4 0 0.3 0.2 0.2 0.3 0.2 0.3 0.1 0.4 0.2 0.4 0.3 1.8 1.6 0.5 1.2-0.6 1.1-0.7 0.5-0.5 0.2-0.5 0-0.4-0.1-0.4 0-0.4 0.1-0.4 0.2-0.4 0.2-0.4 0.5-0.7 0.5-0.3 1-0.1 0.5 0.2 0.3 0.1 0.1 0.4 0.1 0.4 0 0.3-0.2 0.8-0.2 0.4-0.5 0.5-0.2 0.3-0.1 0.4-0.1 0.4-0.1 0.4-0.1 0.4 0.2 0.3 0.6 0.3 0.6 0 0.5 0.1 0.5 0.2 0.7 0.6 0.3 0.1 0.2 0 0.2-0.1 1.4-0.1 1.2 0.2 0.7 0 0-0.1 0.1-0.2 0.1-0.3 0.5-0.7 0.4-0.8 0.2-0.5 0.2-0.3 0.2-0.2 0.2-0.2 0.3-0.2 0.1-0.3 0.1-0.7 0-0.9 0.1-0.4 0.1-0.2 0.3-0.1 0.8 0.2 0.4-0.2 0.9-0.6 0.5-0.5 1.1-0.4 2.5-0.2 2.1 0.3 0.4 0.2 0.2 0.2 0.1 0.3 0.1 0.4 0 0.4 0.2 0.4 0.2 0.4 0.4 0.3 0.4 0 2.3-0.8 0.7-0.1 0.8 0.1 0.6 0.1 0.4 0.3 0.2 0.3 0 0.4-0.2 0.3-0.3 0.3-0.3 0.2-0.3 0.2 0 0.4 0 0.4 0.1 0.4 0.3 0.4 0.9 0.8 0.4 0.7 0.1 0.3 0 0.1 0 0.1-0.1 0-0.1 0.2-0.2 0.2-0.1 0.4 0.1 0.3 0.2 0.8 0.2 0.4 0.4 0.2 2.2 0.6 0.7 0 1 0.5 0.4 0.3 0.4 0.4 0.4 0.1 1-0.1 0.5-0.1 0.4-0.2 0.7-0.5 0.3-0.2 1.6-0.9 0.2 2.7 0.6 1.7 0.9 1.2 0 0.4-0.1 0.5-0.1 0.4-0.2 0.4-0.3 0.3-0.4 0.8-0.1 0.5 0.1 0.4 0.3 0.4 0.7 1 0.3 0.7 0.1 0.4 0.2 0.3 0.3 0.2 0.4 0.5-0.1 0.7-0.2 0.5-0.2 0.5-0.4 0.9-0.3 0.5-0.4 0.2-0.4 0-0.4 0.1-0.4 0.2-0.4 0.5-0.4 0.3-0.8 0.4-0.7 0.9-0.2 0.3-0.3 0.3-0.3 0.1-0.8-0.3-0.3-0.1-0.2 0-0.2 0-0.2 0.2-0.3 0.1-0.3 0.4-0.1 0.4 0 0.3 0.1 0.4 0.3 0.2 0.2 1.5-0.1 1.9 0.1 0.9 0.3 0.6 0.3 0.3 0.2 0.4 0.2 0.5 0.2 2.3-0.2 0.2-0.3 0.1-0.4 0.1-0.4 0.2-0.7 0.3-0.7 0.6-0.3 0.1-0.4 0-0.3-0.2-0.1-0.3 0-0.4 0.1-0.4 0-0.4-0.1-0.4-0.2-0.3-0.3-0.3-0.7-0.2-1.2-0.2-0.4 0.3-0.2 0.3-0.2 0.4 0 0.5 0 0.4-0.1 0.5-0.2 1.2-0.3 0.4-0.2 0.3-0.3 0.2-0.3 0.1-0.2 0.2-0.3 0.4-0.2 1-0.1 1.8 0.4 0.7 0.1 0.3 0.1 0.4 0.3 2 0.1 2 0.2 0.4 0.3 0.3 0.3 0.1 0.8 0.1 0.3 0 0.4 0.1 0.4 0.2 0.9 0.7 0.3 0.4 0 0.8-0.3 1.4 0 1 0.1 0.3 0 0.3-0.3 0.2-0.3-0.1-0.3-0.3-0.2-0.3-0.2-0.3-1-0.6-0.3-0.3-0.3-0.2-0.3-0.1-0.3 0.2-1.3 1.2-0.4 0.1-0.4 0.1-0.9-0.2-0.7 0.1-0.5 0.3-0.5 0.4-0.5 0.3-0.6 0.2-1 0.2-0.6-0.1-0.7-0.4-0.3-0.3-0.5-0.1-0.5 0.1-1.3 0.7-0.5 0-1.1-0.5-0.4-0.3-0.3-0.3-0.2-0.4-0.2-0.8-0.2-0.3-0.3-0.2-0.5-0.2-0.2-0.2-0.1-0.1-0.1-0.3-0.1-0.4-0.2-0.3-0.2-0.4-0.3-0.2-0.4 0.1-0.4 0.2-0.7 0.3-0.4 0-0.3-0.2-0.1-0.3 0.3-0.6 0-0.3-0.2-0.4-0.7-0.4-0.3-0.3 0.1-0.2 0.6-0.4 0.2-0.4 0.1-0.3-0.3-0.3-0.3 0-0.4 0-0.3 0.1-0.3-0.1-0.3-0.3-0.3-0.4-0.6-0.3-1-0.2-0.8-0.2-0.4-0.2-0.2-0.4-0.2-0.4-0.4-0.3-0.5-0.1-0.4 0-0.4 0.2-0.4 0.3-0.4 0.2-1 0.1-1.5-0.5-0.5-0.2-0.3-0.4-0.3-0.7-0.1-0.4-0.1-0.4-0.2-0.4-0.7-0.3-0.5-0.1-0.5 0.1-0.3 0.2-0.2 0.3-0.3 0.3-0.1 0.4-0.6 0.4-0.9 0.2-2.7 0.3-1.4 0-4.7-1.1-0.8 0.5-1.2 1.4-1.3 0-0.4 0.3-2 0.4-2-0.1-1.1-0.5-0.1 0.2 0.1 0.2 0.2 0.4 0.2 0.3 0 0.4-0.1 0.8-0.1 0.4-0.3 0.2-0.9 0.2-3.1 2.4-0.4 0.1-0.7-0.1-1.9 0.4-1.2 0.8-0.5 0.4-0.3 0.4-0.2 0.4-0.7 0.9-0.8 0.9-1.8 1.2-0.6 0.5-0.4 0.5-0.3 0.8-0.3 0.4-0.2 0.4-0.5 0.9-0.4 0.3-0.4 0.2-3.5 1.2-0.4 0.3-0.4 0.5-0.3 0.5-0.6 0.7-0.5 1-0.2 0.4 0 0.4 0.1 0.7 0 0.4-0.1 0.4-0.3 0.5-0.2 0.4 0 0.4-0.1 0.8-0.1 0.4-0.3 0.8-0.1 0.4-0.2 0.4-0.2 0.2-0.3 0.1-0.9 0.2-0.4 0-0.3-0.2-0.5-0.1-0.5 0-0.8 0.4-0.4 0.4-1.5 2.4-0.2 0.3-1.2 1.7-0.2 1 0 0.4-0.2 0.9 0 0.8-0.1 0.3-0.4 0.4-0.4 0.1-0.4 0.2-0.8 0.3-0.7 0.1-0.4-0.1-0.3-0.1-0.3-0.3-0.3-0.6-0.2-0.2-0.3 0-0.2 0.3 0 0.5 0.2 0.4 0.1 0.4 0 0.3 0 0.4-0.2 0.6-0.1 0.2-0.1 0.2-0.1 0.1-0.3 0.2-0.3 0.3-0.3 0.5 0 0.6 0 0.4 0 0.8 0 0.3 0.1 0.3-0.1 0.2 0 0.7 0.1 0.3 0 0.4 0 0.4-0.2 0.4-0.3 1.1 0.2 0.8-0.1 0.3-0.4 0.2-1.1 0.1-0.3 0.1-0.2 0-0.2 0-0.3-0.1-0.3-0.1-0.2 0-0.3 0-0.2 0.2-0.3 0.1-0.3 0.4-0.2 0.3-0.1 0.9 0 0.3-0.1 0.4-0.1 0.5-0.4 0.8-0.3 0.5-0.5 0.3-0.4 0.1-0.7 0.1-0.2-0.1-0.2-0.2-0.5-0.7-0.2-0.2-0.3 0-0.3 0.3 0 0.4 0.1 0.4 0.2 0.7 0.1 0.4-0.1 0.4-0.2 0.3-0.5 1.1-0.4 1.8-0.5 0.9-1.3 0.5-0.9 0.3-0.6 0-0.5-0.1-0.8-0.4-0.3-0.2-0.2-0.3-0.1-0.4-0.2-1.3-0.1-0.3-0.1-0.4 0.1-0.4-0.2-0.3-0.5-0.1-0.8 0.3-1.9 0.3-0.9 0-0.2 0.2-0.2 0.8-0.1 0.4-0.1 0.5-0.4 0.6-0.7 0.6-0.9 0.5-0.4 0.4-0.7 0.5-0.4 0.3-0.4 0.7-0.1 0.4-0.1 0.4-0.2 0.3-0.3 0.3-0.9 0.6-0.6 0.3-0.9 0.2-0.6-0.2-0.2-0.2-0.2-1.5-0.3-0.3-0.4 0.1-1.1 0.3-0.5 0.2-0.3 0.3-0.3 0.4-0.2 0.3-1.6 1.2-0.2 0.2-0.2 0.2-0.4 0.2-0.7 0.1-0.9 0-0.5-0.4-1.1-0.5-4-0.5-0.7-1.1-0.1-0.4-0.2-0.4-0.3-0.7-0.2-2.3 0.1-0.5 0.1-0.4 0.4-1 0-0.3-0.2-0.3-0.7 0.1-2 0.6-1.4 1.1-0.3 0.4-0.6 0.5-0.3 0.2-0.3 0.1-0.3 0-1.5 0.1-1.6-0.5-1-0.7-1-1.3-1.2-1.1-1.2-0.9-1.6-0.6-1.4 0.5-0.9-0.1-0.2-0.2-0.1-0.3 0.3-0.7 0.1-0.3 0-0.5-0.2-0.4-0.4-0.5-0.3-0.1-0.4 0.1-0.8 0.5-1.4 0.3-0.3 0.2-0.3 0.2-0.1 0.4-0.1 0.3-0.2 0.4-0.2 0.4-0.2 0.3-0.4 0.2-0.5-0.1-1.1-0.4-1.4-0.7-0.6-0.4-0.3-0.4-0.6-0.5-0.9-0.5-1.4-0.6-0.5-0.3-0.1-0.2 0.2-0.2 0.2-0.2 0.1-0.4 0-0.2 0.2-0.2 0.1-0.2 0-0.2 0.3-0.4 0-0.2-0.2-0.3-0.9-0.3-0.5-0.3-0.3-0.3 0-0.3-0.1-0.3-0.8-0.2-0.4-0.2-0.6-0.7-0.4-0.4-1.4-0.8-0.7-0.2-0.5 0.1-0.4 0.2-1.4 1-0.5 0.2-0.5 0.2-0.7 0.1-0.4 0.3-0.4 0.3-0.3 0.2-0.2 0.4-0.1 0.3-0.2 0.4-0.4 0.3-1.2 0.2-0.4 0.2-0.4 0.2-0.8 0.9-1.5 0.6-0.3 0.2-0.8 0.3-0.4 0.2-1.2 1-0.3 0.3-0.2 0.3 0 0.4 0.2 0.7 0 0.4-0.1 0.4-0.2 0.2-0.4 0.3-0.6 0.3-2.8 0.5-0.5 0.2-0.4 0.2-0.5 0.2-0.4 0-0.7-0.5-0.4 0.1-1.3 0.7-0.8-0.1-0.3-0.1-0.3 0-0.4 0.2-0.4 0-0.4-0.1-0.5-0.2-0.3-0.3-0.8-0.8-0.5-0.4z m105-22l-0.9-0.2-0.8 0.8-0.1 1.3 2.5-0.2-0.7-1.7z m66.1-112.7l0.6 0.1 0.3-0.1 0.4-0.1 0.3 0 0.2 0.1 0.1 0.3 0.2 0.2 0.4 0.3 0.3 0 0.5 0 0.1 0.2-0.1 0.4-0.1 0.3 0 0.2-0.4 0.8-0.2 0.2-0.2 0.2-0.5 0.1-0.2 0.2-0.1 0.2 0 0.3 0.1 0.2 0.2 0.2 0.2 0.2 0.2 0.2 0.4 0.6 0.3 0.2 0.2 0.1 0.3-0.1 0.2-0.2 0.4-0.4 0.2-0.2 0.3 0 0.1 0.1 0.2 0.3 0 0.4 0.2 0.5 0 0.7-0.1 0.2-0.4 0.2-0.5 0.1-0.2-0.1-0.1-0.3-0.2-0.1-0.2 0-3.2-0.1-2-0.9-2.7-0.6-2.5-1.2-1.1-0.8-1-1-0.2-0.5 0.1-0.3 0.6-0.7 0.8-1.3 0.2-0.3 0.5-0.1 2.5-0.1 1.1 0.1 0.5 0.1 0.6 0.3 2.4 0.7z" id="ESCL" name="Castilla y León">
  </path>
  <path d="M786.3 207.7l1.1 0.2 0.8-0.2 0.2 0.2 0.1 0.4 0.2 0.4 0.5 0.5 0.9 0.2 0.5 0.4 0.4 0.4-0.1 0.3-0.2 0.3-0.2 0.5 0 0.5 0.3 0.7 0.4 0.4 0.9 0.5 2.9 1 1.2 0.7 0.5 0.4 0.3 0.3 0 0.4 0.1 0.4 0.3 0.5 0.4 0.2 2.5 1.1 0.2 0.2-0.3 0.6-0.6 1.6-0.7 1-0.7 0.8-0.6 0.9-0.2 1.3-1.1 1.1-2.8 5.5-0.5 0.5-1 0.9-0.6 0.6-1.4 1.9-2.4 2.1-2.4 4.9-1.1 1.2-2.1 1.2-1 1.6-1.8 3.7-1 1.6-2.5 2.8-4.2 7-0.2 0.6-0.1 1.2-0.3 0.9-0.4 0.7-1 1-0.6 0.8-0.4 0.9-0.3 0.9-0.2 0.7-1.3 1.8-0.4 0.9-0.3 1.9 0.1 2.6 0.3 2.2 0.8 3.5 2.5 5.6 0.4 0.8 0.5 0.9-0.5 0.4-0.5 0.4 0.2 1 0.4 1.9 0.7 1.7 1 1.9 1.1 2.1 1.5 2.6 0.6 0.8 1.5 1.2 1.5 1.6 0.8 0.6 1.1 0.3 1.9 0.2 1.9 0.6 1.8 1 1.2 1.4-0.1 0.1-0.5 0.3 0.5 0.2 0.3 0.3 1.1 0.9 0.4-0.1 0.3 0.6 0 0.9-0.3 0.4-0.7 0-0.7 0.2-0.6 0.3-0.6 0.5-0.5 1.1 0 0.2-0.2 0.1-0.8 0.1-0.3 0.1-0.5 0.6-0.5 0.2-0.4 0.4-0.4 0.8 0.3 0.7-0.8-0.2-0.6 0.1-0.5 0.3-0.7 0.1-1.3 0.1-0.5 0.1-0.6 0.5-0.5 0.9 0 0.7 0.1 0.7-0.3 0.8-0.6 0.6-0.6 0.3-1.7 0-1.8 0.4-1 0.4-1.3 0.9-3.9 1.6-0.6 0.5-0.2 0.6-0.3 0.2-1.5 1.6-0.5 0.8-0.1 1 0 0.5-0.2 0.2-1.3 0.1-0.5 0.2-0.5 0.4-0.1 0.8-1.5-0.1-0.3 2.1 0.6 4.7-0.5 0.6-0.7 0.1-1.4-0.1-0.9 0.3-0.8 0.6-0.6 0.8-0.4 0.8-0.2 0.7-0.2 0.8-0.1 2.2-0.2 3.4-0.1 0.9-0.4 0.5-1 0.4-0.8 0.8-0.4 0.7-1.6 4.1-0.1 0.8 0 0.1-0.8 0.1-0.3 0-0.1-0.1-0.2-0.3-0.3-0.2-0.4-0.2-0.7-0.2-0.3-0.2-1.7-1.8-0.4-0.3-1.1-1.3-0.2-0.4-0.5-1-0.6-0.9-0.2-0.3-0.5-0.8-0.6-1.4-0.9-1.3-0.1-0.2-0.3-0.3-0.3-0.3-0.2-0.5-0.2-1-0.1-1 0.2-0.9 0.2-0.6 1.2-1.8 0.3-0.7 0.1-0.4 0.3-1.6 0.1-0.4 0.2-0.9 0-0.6-0.6-2.1-0.4-0.7-0.2-0.2-0.5-0.3-1.5-0.5-0.8-0.1-0.4-0.2-0.1-0.5-0.1-0.8-0.1-2.1 0.1-0.8 0.3-0.5 0.3-0.4 1.5-1.4 0.3-0.4 0.2-0.3 0.1-0.4-0.1-1.2 0.1-0.8 0.4-1.5 0-1.3-0.6-3.3 0.6-0.2 0.2 0 1 0.1 0.8-0.1 0.7-0.3 1.3-0.9 0.1-0.2 0-0.2-0.2-0.4-0.3-0.3-0.4-0.6-0.3-0.3-0.3-0.6-0.3-0.6-0.2-1 0-0.4 0.2-0.4 0.4-0.1 0.3-0.3 0.5-0.3 0-0.9 0.2-0.2 0.1-0.4 0-0.2-0.6-1.6 0-0.4 0.2-0.8 0-0.4-0.2-0.5-1.3-2.3-0.5-0.3-0.4-0.2-0.4-0.1-0.3 0.1-0.2 0-0.6 0.5-0.8 0.1-1.1 0-1.1 0.2-1.1 0.1-0.6-0.3-0.7-0.5-3.9-4.7-0.3-0.5-0.2-0.8 0-0.6 0.1-0.4 0.1-0.4 0-0.3 0.2-0.4 0.4-0.7 0.2-0.4 0.2-0.8 0.2-0.4 0.5-0.6 0.2-0.3 0.3-0.3 0.3-0.8 0.1-0.3 0.2-0.5 0.1-0.3 0.1-0.3 0.1-0.4 0.1-0.8 0-0.3 0-0.4-0.1-0.4 0.1-0.9 0.1-0.3 0.2-0.4-0.1-0.4-0.2-0.5-5.4-1.7-0.4 0-0.3 0-0.5-0.2-1.8-1.2-0.9-0.3-0.3 0-0.3 0.1-0.2 0.1-0.3-0.1-0.3 0.1-0.2 0-0.1-0.4 0-0.3-0.1-0.3 0-0.3-0.2-0.2-0.3-0.1-0.1-0.2-0.1-0.2-0.3-0.1-0.2-0.2-0.1-0.3-0.1-0.2-0.6-0.1-0.2-0.5-0.2-0.1-0.2-0.2-0.1-0.2 0-0.3 0-0.3 0.2-0.4 0.3-0.8-0.1-0.6 0.1-0.2 0.2-0.2 0.1-0.1 0-0.1 0-0.1-0.1 0-0.1-0.2 0-0.5 0-0.2 0-0.3 0.1-0.2 0.1-0.3 0-0.1 0-0.1-0.1-0.2-0.1-0.1 0-0.2 0-0.2 0-0.2 0.2-0.5 0.2-0.2 0.3-0.2 0.5-0.4 0.4-0.6 1.5-2.9 0.2-0.3 0.9-1 0.8-0.6 0.3-0.1 0.4-0.1 0.3 0.1 0.7 0.3 0.4 0.2 0.3 0.1 0.8 0 0.3-0.1 0.4-0.1 0.3-0.3 0.2-0.3 0.2-0.4 0-0.5-0.1-0.8-0.1-0.4 0-0.4 0.2-0.5 0.9-1.7 0.4-0.6 0.3-0.4 0.3-0.9 0.7-2.7 0.1-0.8 0-0.8 0.1-0.9 0-0.4-0.1-0.3-0.2-0.5-0.1-0.2 0.1-0.3 0.3-0.4 1.6-0.7 0.5-0.4 0.6 0.4 1-0.3 0.3 0 0.8-0.3 1-0.2 1.4 0.1 0.7-0.1 0.5 0.1 0.7 0.2 2 0.9 0.5 0.7 0.2 0.5-0.1 0.4-0.1 0.3-0.1 0.4 0 0.4 0.1 0.3 0.2 0.3 0.1 0.3 0 0.4-0.1 0.4 0.1 0.4 0.2 0.3 0.4 0.3 0.4 0.1 0.7 0 0.5-0.2 2.3-1.1-0.3-0.5-0.4-0.6-0.4-0.2-0.2-0.2-0.4-0.7-0.1-0.8 0-0.3-0.2-0.3 0.1-0.4 0.1-0.8 0.2-0.3 0.2-0.4 1-0.5 0.4-0.1 0.5-0.4 0.1 0 0.4-0.5 0.2-0.5 0.1-0.8 0.2-0.3 0.3-0.1 0.3 0.1 0.7 0 1.5-0.2 2.8-1.5 0.1-0.3-0.2-0.7-0.1-0.4 0.1-0.4 0.2-0.4 0.6-0.7 0.6-0.4 0.3-0.5 0.2-0.5 0.1-0.8 0.2-0.4 0.3-0.5 0.1-0.8 0-0.3 0.1-0.4 0-0.7 0-0.4 0.3-0.3 0.4 0 0.3 0.2 0.4 0.2 0.6 0.2 0.2 0 0.3-0.1 0.4-0.1 0.3-0.1 0.8 0 0.4-0.1 1.4-0.7 0.4-0.3 0.2-0.4 0.1-0.6 0-0.4-0.1-0.4 0.1-0.3 0.8-0.7 0.5-0.5 0.7-1 0.3-0.4 1.6-1.1 0.3-0.3 0-0.6-0.1-0.4-0.3-0.3-0.5-0.7-0.2-0.2-0.7-0.5-0.2-0.3-0.1-0.4-0.1-0.4 0.3-0.4 0.4-0.4 1.8-0.7 0.2-0.2 0-0.4-0.1-0.3-0.2-0.6 0-0.1-0.6-0.4-0.1-0.3 0-0.3 0.1-0.4 0.1-0.3 0-0.8 0-0.4-0.1-0.4-0.1-0.7 0-0.4 0.1-0.4 0.1-0.8-0.3-0.1-0.3 0-0.7 0.2-0.3 0-0.4-0.1-0.3-0.2-0.3-0.1-0.4-0.1-0.3-0.2-0.1-0.3 0-0.8 0-0.4-0.1-0.4 0.1-0.4 0.3-0.3 0.5-0.3 0.5-0.1 0.6 0.1 0.7 0.5 0.3 0 0.5-0.3 0.3-0.3 2.1-1.1 0.2-0.3 0-0.4 0-0.4 0-0.8 0.2-0.8 0.2-0.3 0.2-0.4 0.8-0.9 0.4-0.2 0.7 0 0.6 0.2 0.4 0.3 0.3 0.3 0.6 0.6 1.8 1.2 1.1 0.2 2-0.2 0.7 0.2 0.2 0.3 0.2 0.4 0 0.4 0 0.3 0.3 0.2 0.4 0 0.4-0.3 0.3-0.3 0.4-0.3 0.3-0.2 0.5-0.1 0.6-0.1 1.5-0.1 1.1-0.4z m-65.5 30.8l2.2 0.5 1.2 0.1 0.9-0.2 0.7-0.4 0.2-0.3 0.1-0.4-0.2-0.8 0.1-0.5 0.3-0.4 0.5-0.4 0.2 0.1 0.2 0.2 0.2 0.8 0.4 0.7 0.2 0.3 0.2 0.4 0.3 0.2 0.3 0.2 0.2 0.2 0 0.2 0 0.3 0.2 0.3 0.3 0.3 0.8 0.4 2.5 0.3 1.1 0.7 1.3 1.1 0.5 0.6 0.1 0.3 0.1 0.4-0.1 0.3-0.3 0.4-0.3 0.2-1.9 1-0.9 0.2-0.7 0.2-0.3 0.1-0.8 0.1-0.7 0.1-0.4 0.1-0.4 0.2-0.6-0.1-1.1-0.4-2.6-0.4-0.4 0-0.4-0.1-0.3-0.3-1.2-3.4-0.1-0.6-0.1-0.4-0.2-0.3-1-0.5-0.2-0.3-0.2-0.3 0.1-1z" id="ESVC" name="Comunidad Valenciana">
  </path>
  <path d="M738.1 316.7l0.6 3.3 0 1.3-0.4 1.5-0.1 0.8 0.1 1.2-0.1 0.4-0.2 0.3-0.3 0.4-1.5 1.4-0.3 0.4-0.3 0.5-0.1 0.8 0.1 2.1 0.1 0.8 0.1 0.5 0.4 0.2 0.8 0.1 1.5 0.5 0.5 0.3 0.2 0.2 0.4 0.7 0.6 2.1 0 0.6-0.2 0.9-0.1 0.4-0.3 1.6-0.1 0.4-0.3 0.7-1.2 1.8-0.2 0.6-0.2 0.9 0.1 1 0.2 1 0.2 0.5 0.3 0.3 0.3 0.3 0.1 0.2 0.9 1.3 0.6 1.4 0.5 0.8 0.2 0.3 0.6 0.9 0.5 1 0.2 0.4 1.1 1.3 0.4 0.3 1.7 1.8 0.3 0.2 0.7 0.2 0.4 0.2 0.3 0.2 0.2 0.3 0.1 0.1 0.3 0 0.8-0.1 0.2 2-0.2 0.5-1.1-1.3-1 2.7-0.5 0.4-0.9 0.3-0.3 0.7 0.1 0.9 1.3 2.4 0.4 0.5 1.3 0.9 1 0.4 0.8 0.1 0.3-0.6 0.7 0.5 0.3 0.5-0.1 0.7-0.6 0.4-0.4 0.4-0.3 0.2-0.4 0-0.3-0.3-0.4 0.3-1.1 0.4-0.7 0.1-1.1 0.7-1.6 0-0.5 0.1-0.5 0.2-1 0.7-0.4-0.3-1.6-0.7-1.3-0.3-2.6-0.1-0.7 0.1-0.6 0.3-0.5 0.3-0.2 0.5 0.1 0.5 0.5 0.9-1.3-0.3-1.2-0.3-0.3-0.6-0.2-0.4-0.8-0.1-1.2-0.5-0.6-0.2-0.6 0.6-0.1 0.5-1.2 0-1.3-0.2-1.2 0.6-0.7 0.4-1.8 1.8-0.6 0.4-0.8 0.2-0.3 0.1-0.3 0.3-0.3 0.2-0.1 0.3-0.1 0.2-0.4 1.7-0.1 0.3-0.3 0.3-0.3-0.1-0.2-0.1-0.3-0.1-0.3 0.3-0.8 0.7-0.4 0.1-0.6 0.1-2 0.9-1 0.6-3.6-2.9-0.4-0.2-2.1-0.4-0.2 0-0.2 0.2 0 0.2-0.1 0.2-0.2 0-0.3-0.2-0.3-0.2-0.5-0.5-6.1-9.3-0.3-0.5-0.2-0.3-0.1-0.5-0.1-0.9 0.1-0.4 0-0.8 0-0.4 0.2-0.5 0.1-0.7 0-0.3-0.1-0.5-0.2-1.9 0.1-0.3 0.3-0.8 0-0.3 0-0.9 0.1-0.4 0.2-0.3 0.4-0.6 0-0.3-0.3-0.3-3.8-0.5-1.4-0.7-0.5-0.2-1.9 0.1-1.5-1-0.9-0.5-1.2-1.4-0.8-1.3-0.6-1 0-0.1-0.3-0.3-1.4-1.1 0.6-1.8 0.2-0.4 1.5-1.7 1.2-1.7 1.2-2.4 0.4-0.7 1.2-1.1 0.5-0.3 0.4-0.2 0.8-0.1 0.5-0.3 1.7-1.6 1.1-1.2 0.6-0.4 0.5-0.1 0.3 0 0.3 0.2 0.7 0.7 0.2 0.1 0.4 0.1 1-0.4 1.3-0.3 0.7-0.2 1-0.5 1.5-1.2 2.1-1.3 0.1-0.3 0-0.3 0.1-0.1 0.2 0 0.5-0.1 0.3-0.3 0.2-0.1 0.4-0.2 0.3 0 0.3 0.1 0.5 0.3 0.2 0.1 0.7-0.1 0.2 0 0.2 0.2 0.2 0.2 0.2 0.2 0 0.2 0 0.3-0.1 0.3 0 0.2 0 0.3 0.1 0.3 0.2 0.2 0.1 0.2 0.3 0.2 0.5 0.2 0.3 0.2 0.4 0 0.4 0 2.4-0.8 3-2.4 0.3-0.4 0.2-0.4 0.1-0.3 0-0.5 0-0.4-0.2-1.2 0-0.9-0.1-1.6-0.1-0.8-0.2-0.7-0.2-0.3-0.1-0.2 0-0.3 0-0.3 0-0.3 0.2-0.3 0.4-0.9 0.4-0.3 0.5-0.4 0.2-0.3 0.2-0.4 0.1-0.7-0.1-0.4 0.2-0.8 0.6-1.5 1.3-1.5 0.7-0.6 0.5-0.3 0.4 0.1 0.2 0.2 0.2 0.3 0.3 0.2 0.4 0 2.3-1.3 1-1 0.4-0.3 0.4-0.2 2.4-0.7 0.4 0.1 1.5 0.5 0.3 0.2 0.2 0.2 0.1 0.4 0 0.4 0.1 0.3 0.2 0.4 1.1 1 2.3 1.7z m11.6 46.6l-0.3 1.1 0 1.2 0.6 1.9-0.8-0.9-0.2-1.5 0-1.7-0.1-1.5 0.2 0 0 0.1 0 0.1 0.1 0.2 0.1 0.2 0.2 0.5 0.2 0.3z" id="ESMC" name="Murcia">
  </path>
  <path d="M498.6 340.2l0.6-0.5 5.5 1.8 0.2 0.4 0.1 0.4-0.2 0.3-0.2 0.3-0.2 0.4-0.2 0.6-0.1 0.4 0.1 0.3 0.4 0.2 0.5 0.2 0.5 0.2 1.1 0.4 1.9 0 1-0.1 1.3 0.1 0.6 0.1 0.5 0.2 0.6 0.5 0.8 1.1 0.1 0.3 0.1 0.4-0.1 0.4 0.1 0.3 0.3 0.3 1.9 0.1 1 0.3 0.6 0 0.1-0.2 0.1-0.3 0.2-0.2 0.6-0.5 0.2-0.3 0.2-0.3 0.3-0.2 0.3-0.1 0.4 0 0.5 0.1 1.6 1.2 0.3 0.5 0.2 0.4 0 0.4 0.2 0.3 1 0.3 5.3 2.2 0.7 0.6 0.5-0.5 1.3-1 1-0.5 3-0.6 0.8-0.1 1.7-0.3 0.6-0.2 0.4-0.3 0.4-0.5 0.2-0.4 0.1-0.3 0-0.3 0.2-0.3 0.7-0.9 0.1-0.3 0-0.4-0.2-0.3-0.2-0.3-0.1-0.4 0-0.3 0.1-0.4 0.2-0.4 0.2-0.3 0.4-0.4 1-0.6 0.3-0.2 0.3-0.3 0.3-0.6 0.3-0.4 0.3-0.2 1.3-0.5 2.7-0.4 0.5 0.1 0.5 0.5 0.7 0.7 0.1 0.3 0.1 0.3-0.2 0.3-0.6 0.4-0.4 0.1-0.3 0.2-0.2 0.2 0 0.4 0 0.3 0.2 1.1 0.3 0.3 0.4 0 0.7-0.1 0.9-0.6 0.9-0.9 0.3-0.3 0.8-0.5 1.7 0.1 1.7-1.4 0.2-0.3 0-0.3 0-0.4 0.2-0.7 0.1-0.4 0.3-0.3 0.1-0.7 0-0.4-0.1-0.4 0-0.4-0.1-0.4 0-0.3 0-0.4-0.1-0.2-0.3-0.7-0.2-0.3-0.1-0.3-0.1-0.2-0.1-0.6-0.1-0.2-0.2-0.3-0.1-0.2-0.3-0.2-0.1-0.2-0.1-0.2 0-0.2 0-0.5 0.1-0.3 0.1-0.6 0-0.2 0-0.3-0.1-0.2-0.4-0.4-0.1-0.3 0-0.2 0-0.3 0.3-1.1 0.3-0.3 0.5-0.5 1.8-1 0.6-0.2 0.3-0.2 0.5-0.7 0.2-0.4 0.6-0.5 1.2-0.8 0.3-0.5 0.2-0.4 0-0.3 0.1-0.3 0.2-0.3 0.2-0.3 0.4-0.5 0.2-0.3 0.7-0.7 0.5-0.1 0.9 0 0.5 0.2 0.2-0.1 0.2 0 0.1-0.3 0-0.2 0.1-0.2 0.1-0.3 0.2-0.2 0.2-0.2 1.3-1.2 1.9-1.2 1.2-0.4 0.1-0.3 0.1-0.2 0.2-0.4 0.1-0.5-0.1-0.4-0.1-0.4 0.1-0.3 0.4-0.2 3.2-0.1 0.7-0.3 1.1-0.1 2.3 1.7 1.3 0.6 0.9 0 0.5-0.1 1.2 0 0.4 0.2 0.1 0.4 0.1 0.8 0 0.4 0.1 0.8 0.2 0.5 0.5 0.5 0.8 0.6 0.6 0.2 0.5 0.1 0.8 0.1 0.5 0.1 1.7 0.8 0.5 0.3 0.3 0.4 0.1 0.3 0.8 0.5 0.7 0.2 1.4 1.2 0.4 0.4 0.2 0.5 0.3 0.4 0.3 0.3 0.4 0.1 0.4 0 0.5 0.2 0.5 0.4 0.6 0.3 1.1 0.9 1.1 1.2 0.8 1.1 0.4 0.5 0.4 0.2 1.8 0.9 1 0.3 0.6 0.1 2.6 1.1 0.4 0.1 0.6-0.1 0.1-1.9 0.1-0.4 0.3-0.3 0.3-0.1 0.9 0 0.8 0.1 1.5 0.5 11.5 0.5 1.3-0.2 0.8-0.4 0.4-0.8 0.3-0.3 0.6-0.5 0.6-0.1 0.6-0.1 0.5 0.1 0.3 0.2 0.7 0.2 0.4-0.1 0.2-0.1 0.4 0 1 0.4 0.8 0.1 2.1 0.6 0.5-0.1 0.5-0.1 0.3-0.2 0.1-0.3 0.2-1.1 0.2-0.4 0.4-0.3 0.5-0.1 0.4 0.1 0.2 0.3 0.2 0.3 0 0.4 0.1 0.3 0.2 0.4 0.3 0.1 1.3 0.4 0.7 0.1 0.5 0 0.5-0.1 1-0.4 1-0.6 0.5-0.7 0.2-0.3 0.1-0.3 0.1-0.4 0.1-0.4 0.3-0.3 0.7-0.4 0.9-0.1 0.6 0 0.5 0.2 0.7 0.3 0.8 0.3 0.7 0.1 2.9 0.2 1.3 0.4 0.6 0 0.4-0.2 0.6-0.6 1.1-0.7 0.4 0 0.3 0.2 0.3 0.3 0.9 1.3 0.6 0.7 0.3 0.2 0.2-0.2 0.1-0.3 0-0.6 0.3-0.3 0.8-0.6 0.6-0.3 0.6-0.1 0.5 0 0.5 0.1 0.4 0.1 0.3 0.3 0.4 0.3 0.2 0 0.2-0.1 0.1-0.1 0.1-0.1 0.2-0.1 0.1 0 0-0.1 0.1-0.2 0.4-0.3 0.2-0.2 1.2-0.6 0.2-0.1 0.1-0.1 0.1 0 0.6-0.4 0.8-0.7 0.1-0.2 0.5-0.4 1.5 0.9 1.8 0.8 0.7-0.3 0.6-0.2 0.6-0.1 1.2 0.1 0.6 0.2 0.4 0.2 0.1 0.1 0 0.2-0.2 0.6 0.1 0.7 0.1 0.4 0 0.7-0.1 0.4 0 0.4 0.1 0.3 0.1 0.3 0.4 0.4 2.8 0.8 0.1 0.3-0.1 0.7 0.1 0.4 0 0.4 0.2 0.4 0.1 0.7 0 0.8 0 0.5 0.1 0.5 0.2 0.5 1.3 0.8 0.3 0.5 0.1 0.4 0 0.3-0.1 0.3 0 0.4-0.1 0.3-0.1 0.3-0.2 0.3-0.2 0.1-0.1 0.2 0 0.2 0.2 0.7 0.1 0.4-0.1 0.4-2.5 3.3-0.4 0.7-0.2 0.3-0.6 0.6-0.5 0.7 3.3 1.6 4.3 1.2 0.4 0.1 0.5-0.2 1.4 1.1 0.3 0.3 0 0.1 0.6 1 0.8 1.3 1.2 1.4 0.9 0.5 1.5 1 1.9-0.1 0.5 0.2 1.4 0.7 3.8 0.5 0.3 0.3 0 0.3-0.4 0.6-0.2 0.3-0.1 0.4 0 0.9 0 0.3-0.3 0.8-0.1 0.3 0.2 1.9 0.1 0.5 0 0.3-0.1 0.7-0.2 0.5 0 0.4 0 0.8-0.1 0.4 0.1 0.9 0.1 0.5 0.2 0.3 0.3 0.5 6.1 9.3 0.5 0.5 0.3 0.2 0.3 0.2 0.2 0 0.1-0.2 0-0.2 0.2-0.2 0.2 0 2.1 0.4 0.4 0.2 3.6 2.9-0.1 0.6-0.3 0.4-0.8-0.1-0.3 0.4-0.3 0.9-0.5 1.1-1.2 1.7-2.4 2.4-1 1.4-0.7 2.1-0.3 1.8-0.5 1.3-0.2 1.4-1.2 3.1-0.9 1.4 0 0.7 0.1 0.4 0.2 0.4 0 0.4 0 0.5-0.2 0.3-0.3 0.1-0.9 0-0.3 0.2-0.5 0.5-1.4 0.9-0.6 0.7-0.4 2.1-0.5 0.6-0.6 0.5-0.6 0.7-0.2 0.4-0.2 1-0.2 0.4-0.4 0.2-0.4 0.1-0.4 0.2-0.4 0.9-0.7 0.5-0.8 0.4-0.8 0.1-1.5-0.5-1.1-1.2-1-1.3-1.1-1.2-1.4-0.9-0.8-0.3-1-0.1-0.7 0.1-1.3 0.7-0.8 0.2-0.4-0.1-1.1-0.5-0.5-0.1-3.2 0.6-0.7 0.4-0.8 1.9-0.8 2.2-1 1.1-0.2 0.2-0.5 0.4-1 0.5-1.4 0.2-0.7-0.3-0.8 0.4-1.1-0.8-0.8-0.6-0.7-0.3-0.4 0.1-0.3 0.4-0.4 0.2-0.4-0.3-1.1-1.5-1.2-0.8-0.7 0-2.2 0.7-3.6-0.6-2.1 0.1-1.2 0.1-2.9-0.5-4.1 0.5-0.6 0.4-0.5 0.6-0.8 0.6-1.5 0.9-2.5 0-1.6-1.3-0.8 0.1-0.6 0.3-1.4-0.7-0.6-0.8-1.3 0.1-1.3 0.1-0.6 0.5-2.1 0.2-1.8-0.5-1.1-0.4-1.4-0.5-2.1 0.5-2.9 0.8-3.8-1.1-1 0.3-1.2 0.9-3.5 0.5-1.1 0.1-7.2-0.5-0.7 0.2-0.5 0.4-1.2 2-0.2 0.4-0.6 0.6-0.4 0.8-0.2 0.8-1.1 2-2.6 0.3-1.1 2.2-1.4 0.9-0.4 0.2-0.8 0.4-1.7 0.4-1.7-0.1-4.7-0.6-0.9 0-0.4 0.1-0.4 0.4-2.9 2-2.8 0.2-1.8 1.2-0.5 0.2-1.5 0.1-0.7 0.3-0.5 0.3-0.5 0.7-1.1 2 0 0.4-0.7 1.9-0.4 0.7-0.2 0.2-0.3 0.3-0.3 0.2-0.7 0.3 0.1 0.4 0.1 0.4-0.4 0.7-1.3 2.5-0.2 0.5-0.2 2.3-0.8 0-0.3-1.1-0.7-0.4-0.9-0.4-0.8 0-0.2 0.5-0.3 0.4-0.2 0.6 0 0.7 0.3 0.7-0.2 0.4 0.1 0.7 0.2 0.5 0.1 0.4-0.1 0.6-0.3 0.3-0.2 0.3-0.9 0.3-4 1.5-0.6 0.4-1.3 0.3-0.7-1.5-1.7-0.9-0.7-0.6-0.9 0.4-0.9-0.3-0.8-0.5-1.7-0.5-0.6-0.6-0.9-1.2-2.6-2.6-0.8-0.5-0.9 0-1.8 0.3-2.1-0.6-1.1-1.4-0.8-1.7-0.9-1.5-2.2-1.2-0.2-0.7-0.1-0.8-0.3-0.9-0.4-0.9-1.4-1.6-0.9-2.2-0.6-1.5-0.9-1.7-0.9-0.8-0.4-0.4 0.5-0.2 0.4 0.1 1.3 1.1 0.3 0.5-0.2 0.4 0.3 0.5 0.6 0.7 0.5-0.1 0.3-0.3 0.5-0.7 0.8-1-0.3 0-0.8 0.3-0.7-0.1-0.3-0.8 0.2-1.5-0.3-1-2-1.8-0.4-0.3-2.7-0.1-0.8-0.2-0.6-0.7-0.5-2-0.4-0.9-0.6-1-0.2-0.9 0.2-0.9 0.7-0.8 0.8-0.4 1.5-0.6 0.5-0.4 0.4-1.2-0.3-2.1 0.2-1.2 1.4-1.2 2.9 0.2 0.3 0.1 1.2-1.6-0.8 0.6-1 0.4-1 0-0.8-0.6-1.7 0.6-0.5 0.4-0.3 0.2-0.3 1.1 0.3 3-0.3 0.6-1.4 0-1.1-1.5-1.4-3.3-0.9-1.6-1.1-1.2-9.9-7.2-1.1-0.6-0.9-0.2-0.7-0.3-1.7-1.4-0.8-0.4-0.8-0.4-0.7-1.2-0.3-1.3 0.3-0.6 0.5-0.4 1.4-2.1 0.4-0.9-2 2.3-1.1 0.8-1.3 0 0 0.3 0.9 1.4 0.4 0.8 0.1 0.6-0.6 0.1-3.5-1.8-1.3-0.4-1.6-0.5-1.1 0.4 1.2 0.2 0.5 0.3-9.8 0.2-0.6 0.3-0.8 0.7-0.7 0.1-0.7-0.3-0.7-0.3-0.6-2.3-0.2-1.1 0.3-0.8-0.4-1.7-0.3-4-0.7-1.6 0.1-0.6-0.1-1.1-0.3-1.2-0.3-1-0.2-0.3-0.7-0.6-0.3-0.3-0.3-0.5-0.1-0.1 0-0.2-0.1-0.4-0.2-0.7-0.1 0-0.1 0 0-0.6 0.1-0.2 0.4-0.5 0.1-0.2 0.1-0.3 0-0.2-0.1-0.3 0.4-0.3 1-1.1 0.3-0.4 0.2-0.8 0.4-2.5 0.5-1.5 0.7-1 3.8-3.2 1.1-2 0.4-1.7 0.9-2.4 0.2-0.9 0-0.5-0.1-0.5 0-0.4 0.2-0.3 1.3-0.3 0.4-0.3 0.6 0.1 0.5 0.1 0.5 0.1 0.5-0.3 0.5-0.1 0.3-0.2 0.4-0.6 0.4-1.1 0.4-0.4 0.7 0.1 2.3 1 1-0.2 0.3-1.2 0.4-0.6 0.4-1.6 0.7-1.6 0.6-1.7 0.3-0.7 0.4-1.5-0.1-0.1z" id="ESAN" name="Andalucía">
  </path>
  <path d="M503.5 89.3l-0.2-2.1-0.1-0.6-0.4-0.5-0.9-0.9-0.4-0.2-0.7 0.1-0.4-0.1-0.3-0.1-0.4-0.3-0.1-0.2-0.8-1.2-0.3 0-0.1 0.1 0 1 0 0.2-0.1 0.1 0 0.1-0.2 0.1-0.2 0.1-0.4-0.2-0.3-0.6-0.2-0.6 0.1-0.6 0.3-0.4 0.3-0.1 0.3-0.2 0.3-0.4 0.1-0.5 0.1-0.4 0.1-0.3 0.2-0.3 0.2-0.1 0.3-0.1 0.4 0 0.4 0 1.4-0.6 0.4-0.2 1.5-1.4 0.1-0.5-0.2-0.6-0.6-1-0.4-0.6-0.3-0.3-0.3 0-0.3 0.2-0.2 0.4 0 0.3-0.2 0.3-0.3 0.2-0.4 0.2-0.8 0.4-0.6 0.3-0.4-0.1-0.3-0.2-0.2-0.3-0.3-0.4-0.1-0.4 0.1-0.6 0.2-0.8 0.1-0.3 0-0.3-0.3-0.2-0.3-0.1-0.7-0.3-0.4-0.6-0.3-0.1-0.3 0-0.9-0.8-0.3-0.3-0.2-0.4-0.3-0.5-0.3-2.4-0.3-0.3-0.3-0.2-0.4-0.1-0.5-0.6-0.3-0.4-0.2-0.6-0.2-0.6 0-0.5 0-0.5 0-0.4-0.2-0.3-0.2-0.2-0.7 0-0.6-0.2-0.1-0.3-0.1-0.3 0.1-1.1 0.1-0.4 0.3-0.3 0.5-0.1 0.4 0 0.4 0.1 0.3 0 0.3 0 0.3-0.2 0.4-0.4 0.6-0.9 1.2-1.1 0.1-0.1 0.1-0.4 0.1 0.3 0.2 0 0.2-0.9 0.2-0.9 0.2-0.8 0.6-0.4 0.3-1.3 2.3-0.5 4-0.2 0.6 0.2 2.4-0.2 1.7 0.5 1 0.1 2.3-1.2 2 0.2 2.1 0.8 1.5 0.8 0.4-0.3 0.4-0.1 1.1 0-0.1-0.3-0.1-0.6-0.1-0.3 0.6 0.1 0.9 0.6 0.6 0.1 2.1-0.4 2.1 0 0.5-0.1 1.1-0.5 1-0.2 0.2-0.3 0.3-0.3 0.6-0.1 1.3 1 0.5 0.1 3.1 0.4 0.6-0.4 0.7 0.4 0.6-0.3 0.6-0.5 0.6-0.3 4.7 0 0.2-0.5-0.3-0.4-0.1-0.5 0.5-0.5-0.1-0.2-0.1-0.4-0.1-0.2 1.3 0 0.5-0.2 0.2-0.7 0.2-0.6 0.7 0.1 1.3 0.6 0.9 0.8 2.2 2.6 0.7 1.2 0.3 0 0.2-0.8 0.3 0.3 0.5 0.9 2.1 0.4 8.1-0.4 1.3 0.4 0.1 0.7-0.5 0.9-0.7 0.7 0.2 0.4 0.5-0.3 0.8-0.3 0.4-0.2 0.3-0.4 0.1-0.3 0.2-0.3 0.6-0.1 1.7 0.1 0.7 0.3 2.9 1.9 1.4 0.5 3.5 0.2 0.9 0.3 0.5 0.7 0.4-0.3 2.9 0.8 0.3-0.1 0.6-0.5 0.4-0.1 0.5 0.1 0.9 0.5 2.9 0.6 3.3 1.6 0.8 0.2 8.9 0.8 0 0.4 0 0.7-0.3 0.7-0.5 0.9-0.1 0.4 0 0.3 0.2 0.2 0.4 1 0.1 0.8-0.1 0.6-0.1 0.4-0.2 0.4-0.3 0.2-0.4 0.1-0.2-0.2-0.2-0.6-0.3-0.2-0.7-0.2-0.5 0-0.4 0-0.6 0.4-0.3 0.3-0.1 0.3-0.2 0.2-0.4 0.2-0.9 0.1-0.4 0-0.3-0.1-0.4 0-0.5 0.1-0.5 0.3-0.2 0.3-0.1 0.4 0.1 0.8-0.1 0.4 0 0.3 0 0.5-0.1 0.5-0.3 0.6-0.3 0.2-0.4 0-0.8-0.1-0.4 0.1-0.4 0.1-1.2 0.2-0.4-0.1-1.2-1.9-0.8-0.6-0.3-0.2-0.4 0-0.4 0-2.2 1.2-0.6 0.6-1.3 0.7-1.5 0.4-0.7 0.4-0.4 0.3-0.4 0.8-0.1 0.4-0.1 0.4-0.3 0.9-0.3 0.5-0.6 0.6-0.5 0-0.4-0.1-0.4-0.2-0.4 0-2.1 1.1-3.9 0.4-2.1-0.3-0.5 0.1-0.4 0.3-0.3 1.1-0.3 0.4-0.4 0.2-0.5 0.1-2.2 0-0.2 0.3-0.1 0.4-0.2 0.3-0.2 0.3-0.3 0-0.7 0-1 0.4-0.4 0-0.4-0.1-0.4-0.2-0.3-0.3-0.9-0.1-0.6 0-0.9-0.2-1.1-0.6-0.6-0.1-1 0.1-0.6 0.2-0.4 0.2-0.2 0.4-0.2 0.3-0.2 0.4-0.3 0.3-0.2 0.3-0.1 0.3 0 0.2 0 0.1-0.1 0.3-0.2 0.3-0.1 0.4-0.4 0.4-0.4 0.1-0.7 0.1-1.6-0.1-0.4-0.1-0.3-0.2-1.1-0.4-0.1-0.3-0.5-0.1-0.5-0.4-0.5-0.4-1-0.6-0.2-0.3-0.2-0.4-0.1-0.4-0.2-0.8-0.2-0.3-0.4-0.3-1.2 0.3-0.5 0-2-0.4-0.4 0.1-0.1 0.3-0.1 0.4-0.1 0.5-0.3 0.3-0.8 0.4-0.5 0.1-0.5-0.2-1.1-0.4-1-0.2-0.5 0.1-0.3 0.3-0.1 0.8-0.2 0.2-0.3 0.1-0.8-0.2-1.7-0.9-0.6 0-0.8-0.2-0.3-0.3-0.4-0.3-0.7-0.2-1.1 0.5-0.2 0.4-0.2 0.4-0.2 0.3-0.2 0.4-0.1 0.3 0 0.3-0.1 0.2-0.3 0.2-0.9 0.3-1.1 0-0.2 0.2-0.1 0.3 0.2 0.3 0.4 0.3 0.7 0.2 0.2 0.3 0 0.3-0.2 0.4-2.1 1.1-0.6 0.1-1.4 0.6-0.4 0.1-1.9-0.2-0.3-0.2-0.3-0.1-0.5-0.1-1.9 0-0.8 0.1-0.7 0.3-0.4 0.2-0.3 0.4-0.3 0.3-0.3 0.3-0.5 0.3-0.3-0.1-0.2-0.5-0.8-0.4-1.3-0.2z" id="ESAS" name="Asturias">
  </path>
  <path d="M652.1 64.6l0 0.4 0 1.6-0.2 0.5-0.2 0.4-1.8 0.9-0.3-0.1-0.9-0.3-1.1 0.1-2.5-0.1-0.5 0.2-0.5 0.4-3.4 2.5-0.4 0.6-0.1 0.5 0.1 0.3 0.1 0.5 0 0.4-0.1 0.4 0 0.4 0.2 0.3 0.2 0.4 0.3 1.2 0 0.7-1.1 0.1-1.2-0.2-0.7 0.1-0.8-0.2-1.1-0.5-1.1-0.3-1.2-0.2-0.4-0.2-0.6-0.5-0.4-0.1-0.4 0-0.6 0.4-0.8 0.9-1 1.3-0.6 0.6-0.4 0.4-0.8 0.5-0.6 0.5-0.4 0.2-0.3 0-1.2-0.1-0.4 0.1-0.3 0.1-0.3 0.2 0 0.5 0 0.5-0.2 0.5-0.5 0.5-0.4 0.3-0.6 0.2-0.6 0.3-0.9 1-0.7 0.4-0.4 0.2-0.3 0.2 0 0.1-0.4 0.7-0.9 2.6 0 0.4 0 0.4 0.1 0.4 0.3 0.3 0.3 0.3 0.4 0.1 0.4 0 0.8-0.2 1-0.6 0.3-0.3 0.4-0.7 0.2-0.3 0.3-0.2 0.3-0.1 0.4 0.2 0.3 0.2 0.3 0.4 0.2 0.3 0.1 0.4-0.3 0.4-1.2 0.8-1.1 0.1-0.1 0.2 0 0.3-0.3 0.2-0.1 0.3 0.2 0.6 0 0.4 0.2 0.3 0.2 0.3 0.4 0 0.3-0.2 0.3-0.6 0.3-0.4 0.5-0.2 0.4 0 0.4 0.2 0.1 0.4 0.1 0.4-0.1 0.6 0.1 0.4 0.3 0.6 0.1 0.3 0 0.4 0 0.3-0.2 0.4-0.4 0.2-1.4 0-0.7 0.2-1.4 1.3-0.5 0.2-0.8 0.3-0.6 0.1-1.4-0.4 0.1-0.9-0.1-0.4 0-1.3-0.1-0.3-0.1-0.1-0.3 0.2-0.3 0.2-1.1 2.5-1.6 0.4-0.4-0.7-0.2-0.3-0.4-0.2-0.4-0.2-1.1-0.1-0.4-0.1-0.8-0.7-0.3-0.4-0.1-0.3 0.1-0.3 0.3-0.2 0.7-0.2 0.4 0 0.3-0.2 0.3-0.3 0.1-0.3-0.1-0.5-0.2-0.2-0.4-0.2-1 0.3-0.4 0.2-0.5 0.5-0.2 0.1-0.3-0.1-0.3-0.1-0.2-0.3-0.1-0.3 0-0.2 0-0.3-0.1-0.4 0-0.4-0.1-0.4 0-0.4-0.1-0.4-0.2-0.8-0.1-0.7 0-0.4 0.1-0.4-0.1-0.4-0.6-0.4-4.1-1.5-0.6-0.4-0.2-0.4-0.1-0.1-0.1-0.4-0.8-1.4-0.4-0.3-1-0.5-0.5-0.1-0.6 0-0.8 0.4-0.4 0.2-0.6 0-0.5 0.1-1.4 0.7-0.5 0.1-1.4-0.1-1.6 0.3-2 0-0.7 0.2-0.8 0-0.3-1.4-0.2-0.4-0.8-0.8-0.2-0.5-0.3-0.4-1.6-0.9-0.4-0.3-0.3-0.4-0.2-0.9-0.1-0.6 0.2-3 0.4 0.1 1.2-0.2 0.4-0.1 0.4-0.1 0.8 0.1 0.4 0 0.3-0.2 0.3-0.6 0.1-0.5 0-0.5 0-0.3 0.1-0.4-0.1-0.8 0.1-0.4 0.2-0.3 0.5-0.3 0.5-0.1 0.4 0 0.3 0.1 0.4 0 0.9-0.1 0.4-0.2 0.2-0.2 0.1-0.3 0.3-0.3 0.6-0.4 0.4 0 0.5 0 0.7 0.2 0.3 0.2 0.2 0.6 0.2 0.2 0.4-0.1 0.3-0.2 0.2-0.4 0.1-0.4 0.1-0.6-0.1-0.8-0.4-1-0.2-0.2 0-0.3 0.1-0.4 0.5-0.9 0.3-0.7 0-0.7 0-0.4 0.1 0 0.1 0.1 1.1 1 0.8-0.8 1.2-0.2 1.1 0.3 0.8 0.7 0.2 0 0.5-0.7 0.3-0.2 1.9 0.2 5-0.5 1.2-0.9 2.5-0.8 1-0.1 1.8 0 0.2-0.2 0-0.2 0.1-0.3 0.3-0.1 0.3 0.1 1 0.7 0.2-0.3 0.2-0.1 0.2 0 0.2 0-0.1-0.1-0.4-0.3 0-0.4 1.4-1 0.7-0.3 0.6 0.2 0.5-0.3 0.2 0 0.2 0.3 1.1-0.7 1.3-0.3 1.2 0.2 1.1 0.8-1.8 0.8-0.7 0.5-0.6 0.6 0.5 0.5 0.2 0.2 0.2 0.1-0.2 0-0.1 0 0 0.1 0 0.2 0.4 0.1 0.4-0.1 0.6-0.3 0.3-0.3 0.5-0.8 0.2-0.1 0.3 0.1 0.4 0.5 0.4 0.2 0.1-0.3-0.1-0.5-0.2-0.5-0.3-0.2 0-0.4 0.6 0.1 0.2 0.1 0.3 0.2 0.1-0.3 0.2-0.1-0.3-0.4 0.5-0.2 1.1-0.1 0.5-0.3 0.4-0.4 0.5-0.2 3-1 1.1 0.1-0.1 1 0.7 0 0.5 0.4 0.5 0.5 0.3 0.2 2.8 0.5 0.2 0.2 0.2 0.3 0 0.3-0.1 0.5-0.1 0.1-0.3-0.1-0.3 0.1-0.2-0.2-0.4-0.2-0.3-0.1-0.2 0.3-0.1 0.3-0.4 0.3-0.6 0.4 0.8 0.1 0.4 0.7 0.4 0.2 0.6-1 0.4 0.6 0.6 0.1 1.2-0.4 0.6 0.1 1.9 0.7 2.5 0.4 1.8 0.7 0.6 0.1 0.4 0.2 0.9 1.1 1.1 0.3z m-4.8 6.8l0.1 0.6-1.3 0.6-0.2-0.3 0-2.2 0.7 0.3 0.7 1z" id="ESCB" name="Cantabria">
  </path>
  <path d="M732.4 245.8l0.7 2.1-0.5 0.4-1.6 0.7-0.3 0.4-0.1 0.3 0.1 0.2 0.2 0.5 0.1 0.3 0 0.4-0.1 0.9 0 0.8-0.1 0.8-0.7 2.7-0.3 0.9-0.3 0.4-0.4 0.6-0.9 1.7-0.2 0.5 0 0.4 0.1 0.4 0.1 0.8 0 0.5-0.2 0.4-0.2 0.3-0.3 0.3-0.4 0.1-0.3 0.1-0.8 0-0.3-0.1-0.4-0.2-0.7-0.3-0.3-0.1-0.4 0.1-0.3 0.1-0.8 0.6-0.9 1-0.2 0.3-1.5 2.9-0.4 0.6-0.5 0.4-0.3 0.2-0.2 0.2-0.2 0.5 0 0.2 0 0.2 0 0.2 0.1 0.1 0.1 0.2 0 0.1 0 0.1-0.1 0.3-0.1 0.2 0 0.3 0 0.2 0 0.5 0.1 0.2 0.1 0 0 0.1 0 0.1-0.1 0.1-0.2 0.2-0.1 0.2 0.1 0.6-0.3 0.8-0.2 0.4 0 0.3 0 0.3 0.1 0.2 0.2 0.2 0.2 0.1 0.2 0.5 0.6 0.1 0.1 0.2 0.1 0.3 0.2 0.2 0.3 0.1 0.1 0.2 0.1 0.2 0.3 0.1 0.2 0.2 0 0.3 0.1 0.3 0 0.3 0.1 0.4 0.2 0 0.3-0.1 0.3 0.1 0.2-0.1 0.3-0.1 0.3 0 0.9 0.3 1.8 1.2 0.5 0.2 0.3 0 0.4 0 5.4 1.7 0.2 0.5 0.1 0.4-0.2 0.4-0.1 0.3-0.1 0.9 0.1 0.4 0 0.4 0 0.3-0.1 0.8-0.1 0.4-0.1 0.3-0.1 0.3-0.2 0.5-0.1 0.3-0.3 0.8-0.3 0.3-0.2 0.3-0.5 0.6-0.2 0.4-0.2 0.8-0.2 0.4-0.4 0.7-0.2 0.4 0 0.3-0.1 0.4-0.1 0.4 0 0.6 0.2 0.8 0.3 0.5 3.9 4.7 0.7 0.5 0.6 0.3 1.1-0.1 1.1-0.2 1.1 0 0.8-0.1 0.6-0.5 0.2 0 0.3-0.1 0.4 0.1 0.4 0.2 0.5 0.3 1.3 2.3 0.2 0.5 0 0.4-0.2 0.8 0 0.4 0.6 1.6 0 0.2-0.1 0.4-0.2 0.2 0 0.9-0.5 0.3-0.3 0.3-0.4 0.1-0.2 0.4 0 0.4 0.2 1 0.3 0.6 0.3 0.6 0.3 0.3 0.4 0.6 0.3 0.3 0.2 0.4 0 0.2-0.1 0.2-1.3 0.9-0.7 0.3-0.8 0.1-1-0.1-0.2 0-0.6 0.2-2.3-1.7-1.1-1-0.2-0.4-0.1-0.3 0-0.4-0.1-0.4-0.2-0.2-0.3-0.2-1.5-0.5-0.4-0.1-2.4 0.7-0.4 0.2-0.4 0.3-1 1-2.3 1.3-0.4 0-0.3-0.2-0.2-0.3-0.2-0.2-0.4-0.1-0.5 0.3-0.7 0.6-1.3 1.5-0.6 1.5-0.2 0.8 0.1 0.4-0.1 0.7-0.2 0.4-0.2 0.3-0.5 0.4-0.4 0.3-0.4 0.9-0.2 0.3 0 0.3 0 0.3 0 0.3 0.1 0.2 0.2 0.3 0.2 0.7 0.1 0.8 0.1 1.6 0 0.9 0.2 1.2 0 0.4 0 0.5-0.1 0.3-0.2 0.4-0.3 0.4-3 2.4-2.4 0.8-0.4 0-0.4 0-0.3-0.2-0.5-0.2-0.3-0.2-0.1-0.2-0.2-0.2-0.1-0.3 0-0.3 0-0.2 0.1-0.3 0-0.3 0-0.2-0.2-0.2-0.2-0.2-0.2-0.2-0.2 0-0.7 0.1-0.2-0.1-0.5-0.3-0.3-0.1-0.3 0-0.4 0.2-0.2 0.1-0.3 0.3-0.5 0.1-0.2 0-0.1 0.1 0 0.3-0.1 0.3-2.1 1.3-1.5 1.2-1 0.5-0.7 0.2-1.3 0.3-1 0.4-0.4-0.1-0.2-0.1-0.7-0.7-0.3-0.2-0.3 0-0.5 0.1-0.6 0.4-1.1 1.2-1.7 1.6-0.5 0.3-0.8 0.1-0.4 0.2-0.5 0.3-1.2 1.1-0.4 0.7-1.2 2.4-1.2 1.7-1.5 1.7-0.2 0.4-0.6 1.8-0.5 0.2-0.4-0.1-4.3-1.2-3.3-1.6 0.5-0.7 0.6-0.6 0.2-0.3 0.4-0.7 2.5-3.3 0.1-0.4-0.1-0.4-0.2-0.7 0-0.2 0.1-0.2 0.2-0.1 0.2-0.3 0.1-0.3 0.1-0.3 0-0.4 0.1-0.3 0-0.3-0.1-0.4-0.3-0.5-1.3-0.8-0.2-0.5-0.1-0.5 0-0.5 0-0.8-0.1-0.7-0.2-0.4 0-0.4-0.1-0.4 0.1-0.7-0.1-0.3-2.8-0.8-0.4-0.4-0.1-0.3-0.1-0.3 0-0.4 0.1-0.4 0-0.7-0.1-0.4-0.1-0.7 0.2-0.6 0-0.2-0.1-0.1-0.4-0.2-0.6-0.2-1.2-0.1-0.6 0.1-0.6 0.2-0.7 0.3-1.8-0.8-1.5-0.9-0.5 0.4-0.1 0.2-0.8 0.7-0.6 0.4-0.1 0-0.1 0.1-0.2 0.1-1.2 0.6-0.2 0.2-0.4 0.3-0.1 0.2 0 0.1-0.1 0-0.2 0.1-0.1 0.1-0.1 0.1-0.2 0.1-0.2 0-0.4-0.3-0.3-0.3-0.4-0.1-0.5-0.1-0.5 0-0.6 0.1-0.6 0.3-0.8 0.6-0.3 0.3 0 0.6-0.1 0.3-0.2 0.2-0.3-0.2-0.6-0.7-0.9-1.3-0.3-0.3-0.3-0.2-0.4 0-1.1 0.7-0.6 0.6-0.4 0.2-0.6 0-1.3-0.4-2.9-0.2-0.7-0.1-0.8-0.3-0.7-0.3-0.5-0.2-0.6 0-0.9 0.1-0.7 0.4-0.3 0.3-0.1 0.4-0.1 0.4-0.1 0.3-0.2 0.3-0.5 0.7-1 0.6-1 0.4-0.5 0.1-0.5 0-0.7-0.1-1.3-0.4-0.3-0.1-0.2-0.4-0.1-0.3 0-0.4-0.2-0.3-0.2-0.3-0.4-0.1-0.5 0.1-0.4 0.3-0.2 0.4-0.2 1.1-0.1 0.3-0.3 0.2-0.5 0.1-0.5 0.1-2.1-0.6-0.8-0.1-1-0.4-0.4 0-0.2 0.1-0.4 0.1-0.7-0.2-0.3-0.2-0.5-0.1-0.6 0.1-0.6 0.1-0.6 0.5-0.3 0.3-0.4 0.8-0.8 0.4-1.3 0.2-11.5-0.5-1.5-0.5-0.8-0.1-0.9 0-0.3 0.1-0.3 0.3-0.1 0.4-0.1 1.9-0.6 0.1-0.4-0.1-2.6-1.1-0.6-0.1-1-0.3-1.8-0.9-0.4-0.2-0.4-0.5-0.8-1.1-1.1-1.2-1.1-0.9-0.6-0.3-0.5-0.4-0.5-0.2-0.4 0-0.4-0.1-0.3-0.3-0.3-0.4-0.2-0.5-0.4-0.4-1.4-1.2-0.7-0.2-0.8-0.5-0.1-0.3-0.3-0.4-0.5-0.3-1.7-0.8-0.5-0.1-0.8-0.1-0.5-0.1-0.6-0.2-0.8-0.6-0.5-0.5-0.2-0.5-0.1-0.8 0-0.4-0.1-0.8-0.1-0.4-0.4-0.2-1.2 0-0.5 0.1-0.9 0-1.3-0.6-2.3-1.7 0.6-0.3 0.5-0.1 0.2 0 0.2 0 0.3-0.2 0.4-0.5 0.4-1 1-3.7 0.2-0.5 0.6-1.1 0.3-0.3 0.3-0.3 0.3-0.2 0.4-0.1 0.4-0.1 1.1 0.2 0.3 0 0.2-0.3 0.2-1.2 0.2-0.7-0.2-0.6-0.2-0.3-1.1-0.2-0.3-0.1-1.4-0.4-0.2-0.3-0.2-0.3-0.1-0.4-0.1-0.3 0-0.4 0-0.4-0.1 0-0.1-0.1-0.2-0.2-0.2-0.2-0.1-0.4 0-0.4-0.2-0.4-0.1-0.3 0-0.4 0.3-0.3 0.4-0.1 0.3 0.1 0.4 0.1 1 0.6 0.7 0.3 0.4-0.1 0.4-0.1 0.9-0.6 0.2-0.3-0.1-0.5-0.3-0.3-0.7-0.4-0.2-0.3-0.2-0.5 0-0.7 0.5-2.2 0.2-0.6 0.1-0.3 0.3-0.3 0.6-0.6 0.2-0.3 0.3-0.3 0.3-0.3 0.3 0 0.7 0.2 0.4 0 0.4 0 0.7-0.2 0.7 0.2 0.3 0.1 0.3 0.2 1.4 0.7 0.2 0.1 0.6 0-0.5-0.9-1.2-1.4-0.4-0.4-0.3-0.3 0-0.2-0.7-1.3-0.8-1.9-0.1-0.5 0-0.5 0.3-0.4 0.3-0.2 0.5-0.1 0.4-0.3 0.3-0.5 0.6-1.7 0.6-1.2 0.2-0.9-0.6-1.7-0.5 0.6-2 1.1-0.5 0.7-0.5 0.2-1.4 0.4-0.9 0.5-0.3 0.1-0.3 0.1-0.2 0.1-1 0.6-2.6-1.3-0.5-0.5-0.4-0.3-0.2-0.2-0.5-0.6-0.4-0.6-1.2-1.4-0.6-1-0.3-0.2-0.7-0.1-0.6-0.4-0.3-0.4-0.6-0.5-0.9-0.9-1.5-2-0.3-0.2-0.6-0.4-0.3-0.3-0.3-0.3-0.1-0.3 0.1-0.3 0.4-0.6 0.2-0.4 0.3-0.3 0.1-0.4 0.5-0.6 0.1-0.3 0.1-0.4 0.1-0.3 0.1-1.2 0.2-0.7 0.1-0.3 0.1-0.4-0.1-0.5-0.3-0.4-0.5-0.7-0.1-0.3 0.2-0.8 0-0.5-0.2-0.7-0.1-0.4-0.3-0.2-0.3 0-0.8 0.1-0.3 0.1-0.8 0.7-0.3 0.5-0.5 0.7-0.2 0.2-0.3 0.1-0.5-0.1-1.4-0.3-0.2-0.2-0.1-0.5 0.1-1.1 0.1-0.5 0-0.6 0.1-0.7 0.2-0.4 0.5-0.7 0.1-0.3 0-0.4-0.2-0.3-0.2-0.3-0.3-0.3-0.3-0.3-0.3-0.1-0.4-0.1-1.1 0.1-0.8 0.1-0.3 0.2-0.2-0.7 0-1.4 0.6-3.9 0.3-2.8-0.1-0.5 0-0.6 0.2-1.3 0.2-0.4 0.1-0.2 1.2-0.6 4 0.5 1.1 0.5 0.5 0.4 0.9 0 0.7-0.1 0.4-0.2 0.2-0.2 0.2-0.2 1.6-1.2 0.2-0.3 0.3-0.4 0.3-0.3 0.5-0.2 1.1-0.3 0.4-0.1 0.3 0.3 0.2 1.5 0.2 0.2 0.6 0.2 0.9-0.2 0.6-0.3 0.9-0.6 0.3-0.3 0.2-0.3 0.1-0.4 0.1-0.4 0.4-0.7 0.4-0.3 0.7-0.5 0.4-0.4 0.9-0.5 0.7-0.6 0.4-0.6 0.1-0.5 0.1-0.4 0.2-0.8 0.2-0.2 0.9 0 1.9-0.3 0.8-0.3 0.5 0.1 0.2 0.3-0.1 0.4 0.1 0.4 0.1 0.3 0.2 1.3 0.1 0.4 0.2 0.3 0.3 0.2 0.8 0.4 0.5 0.1 0.6 0 0.9-0.3 1.3-0.5 0.9 0.6 0.6 0.2 0.5-0.1 0.4-0.2 0.2-0.3 0.4-0.4 0.5-0.3 1.2-0.5 0.6-0.4 0.4-0.4 0.2-0.5 1.2-1.2 0.3-0.4 0.2-0.4 0.5-0.8 0.2 0 0.2 0 0.3 0.2 0.1 0.4 0.1 0.3-0.1 0.8 0 0.4 0.1 0.3 0.3 0.8 0.3 0.3 0.3 0.3 0.6 0.2 0.6 0.7 0.2 0 0.2-0.1 0.5-0.5 0.3-0.3 0.3-0.5 0.3-0.6 0.3-0.3 0.4-0.3 1-0.2 1-0.6 0.4 0 0.3 0.3 0.3 0.3 1.1 1.1 0.6 0.2 0.8 0.2 0.5-0.2 0.4-0.3 0.4-0.3 0.3 0.1 0.9 0.3 0.4 0.3 0.3 0.3 0.2 0.4 0.2 0.3 0.4 0.3 0.5 0.3 2.2 0.7 1.2 0.6 2 0.5 0.2 0.1 0.2 0.2 0.2 0.3 0.4 0.4 0.4 0 0.7-0.2 0.3 0.1 0.3 0.2 0.6 0.9 0.3 0.2 0.2 0.2 0.5 0.1 1-0.2 0.6 0.1 0.6 0.2 0.8 0.1 1.9 0.9 0.4 0.4 0.2 0.3 0 0.2 0 0.5-0.1 0.3-0.3 1.1-0.1 0.2-0.4 0.5 0 0.2-0.2 0.2-0.5 0.3-0.3 0.1-0.5 0.3-1.9 2-0.7 0.5-0.7 0.3-0.2 0.1-0.7 0.8-0.2 0.2-0.5 0-2.5 0.8-0.5 0.3-0.3 0.3 0.1 0.4 0.5 0.4 1.3 0.8 0.6 0.1 0.5-0.1 0.3-0.4 0.7-0.5 0.3-0.1 0.6-0.6 0.4-0.4 0.2-0.3 0.3-0.1 0.5-0.2 0.7 0 0.5-0.2 0.7-0.5 0.9-0.3 0.4-0.2 0.1-0.3-0.1-0.7 0.2-0.2 0.6-0.3 0.8-0.2 0.3-0.3 0.3-0.2 0.3-0.1 1.6-0.4 0.4-0.2 0.2-0.3 0.2-0.6 0.6-0.4 3.8 0.1 1.4-0.6 0.8 0.6 0.4 0.1 0.5-0.2 1.7-0.3 2.5-1.3 1.6-0.5 0.7 0.4 0.2 0.2 0 0.5 2.1-0.1 0.8-0.2 0.6-0.5 0.4-0.5 0.2-0.4 0-0.3-0.1-0.4-0.2-0.3-0.2-0.3-0.2-0.4-0.1-0.4-0.1-0.4-0.1-0.4 0.2-0.2 0.1-0.1 0.3 0.1-0.4-2.1 0-1.1 0-0.5-0.1-0.6-0.4-1-0.3-0.6-0.5-0.4-0.4 0.1-1 0.8-0.3 0.3-0.3 0.3-0.3 0.3-0.3 0-0.3-0.4-0.1-0.7 0.1-0.6 0.1-0.5 0.1-0.4 0.1-0.5 0.1-0.6 0.2-0.4 0.6-0.6 0.2-0.3 0-0.2 0.1-0.3 0.1-0.5 0.2-0.2 0-0.3 0-0.2 0-0.5 0-0.2 0.1-0.2 0.1-0.5-0.2-0.5-0.6-1.1-0.5-0.4-0.4-0.2-0.4-0.1-0.3-0.2-0.1-0.4 0-1.5-0.1-1.1 0-0.2 0-0.2-0.1-0.3-0.9-0.9-0.3-0.2-0.3-0.3-0.3-0.1-0.3-0.1-0.3 0.1-0.3 0.1-0.2 0.2-0.3 0.1-0.2 0-0.2-0.1-0.1-0.2 0.1-0.2 0.1-0.2 0.1-0.1 0-0.3-0.1-0.4-0.1-0.4-0.5-0.5-0.4-0.2-0.2-0.4-0.2-0.4 0.1-1.5 0.2-1.1-0.3-0.1-0.2 0.1-0.3 0.1-0.3 0-0.4-0.3-0.5-0.5-0.5-1-0.4-0.5-0.3 0-0.1 0.3-0.2 0.2-0.6 0-0.6 0.1-0.3-0.1-0.3-0.3-0.2-0.3-0.2-0.3 0.2-0.5 0.5-0.7 0.1-0.3 0-0.4-0.1-0.4-0.1-0.7-0.1-0.6-0.2-0.5-0.3-0.4-1.2-0.3-0.3-0.2-0.1-0.2 0-0.2 0.2-0.2 0.1-0.2 0.3-0.5 0.2-0.5 0-0.4 0.3-1.5 0.1-0.3 0.1-0.2 0.2-0.1 0.2-0.1 0.2-0.2 0.2-0.3 0-0.6-0.2-0.4 0-0.4 0.2-0.4 0.1-0.5 0.2-0.4 0.1-0.4 0.4-1.2 0.1-0.4 0.2-0.4 0.3-0.7 0.1-0.5 0-0.8-0.6-1.6-0.5-1.8-0.4-0.2-0.3-0.1-0.9-0.5-0.3-0.2-0.4-0.4-0.4-0.7-1.5-1.5-0.2-1 0.7 0.1 0.4-0.1 3.1-2.4 0.9-0.2 0.3-0.2 0.1-0.4 0.1-0.8 0-0.4-0.2-0.3-0.2-0.4-0.1-0.2 0.1-0.2 1.1 0.5 2 0.1 2-0.4 0.4-0.3 1.3 0 1.2-1.4 0.8-0.5 4.7 1.1 1.4 0 2.7-0.3 0.9-0.2 0.6-0.4 0.1-0.4 0.3-0.3 0.2-0.3 0.3-0.2 0.5-0.1 0.5 0.1 0.7 0.3 0.2 0.4 0.1 0.4 0.1 0.4 0.3 0.7 0.3 0.4 0.5 0.2 1.5 0.5 1-0.1 0.4-0.2 0.4-0.3 0.4-0.2 0.4 0 0.5 0.1 0.4 0.3 0.2 0.4 0.2 0.4 0.4 0.2 0.8 0.2 1 0.2 0.6 0.3 0.3 0.4 0.3 0.3 0.3 0.1 0.3-0.1 0.4 0 0.3 0 0.3 0.3-0.1 0.3-0.2 0.4-0.6 0.4-0.1 0.2 0.3 0.3 0.7 0.4 0.2 0.4 0 0.3-0.3 0.6 0.1 0.3 0.3 0.2 0.4 0 0.7-0.3 0.4-0.2 0.4-0.1 0.3 0.2 0.2 0.4 0.2 0.3 0.1 0.4 0.1 0.3 0.1 0.1 0.2 0.2 0.5 0.2 0.3 0.2 0.2 0.3 0.2 0.8 0.2 0.4 0.3 0.3 0.4 0.3 1.1 0.5 0.5 0 1.3-0.7 0.5-0.1 0.5 0.1 0.3 0.3 0.7 0.4 0.6 0.1 1-0.2 0.6-0.2 0.5-0.3 0.5-0.4 0.5-0.3 0.7-0.1 0.9 0.2 0.4-0.1 0.4-0.1 1.3-1.2 0.3-0.2 0.3 0.1 0.3 0.2 0.3 0.3 1 0.6 0.2 0.3 0.2 0.3 0.3 0.3 0.3 0.1 0.3-0.2 0-0.3-0.1-0.3 0-1 0.3-1.4 0-0.8 3.3-1 1.1 0.3 0.2 0.4 0.4 0.4 0.5 0.3 1 0.5 1.7 1.2 1.3 0.8 2 1.7 0.3 0.4 0.2 0.3 0.1 0.4 0.3 0.3 0.5 0.7 2.2 1.9 0.3 0.3 0.4 0.5 0.2 0.3 1.4 1.2 0.5 1.1-0.1 0.4-0.1 1.8 0.3 0.8 0.3 0.7 0.3 0.4 0.5 0.6 1.1 0.7 0.3 0.5 0.2 0.4 0 0.4 0.1 1.3-0.1 0.5-0.4 0.8-0.2 0.5 0 0.4-0.1 0.6 0.2 0.4 0.3 0.5 0.2 0.7 0.2 0.6-0.1 1.1-0.1 0.4-0.3 0.7-0.2 0.9-0.1 0.6 0.2 1-0.2 0.3-0.2 0.4-0.4 0.2-0.7 0.4-0.3 0.1-0.4-0.1-0.3-0.2-0.3-0.2-0.7-0.3-0.3 0-1.1-0.3-0.2 0.2-0.2 0.4-0.7 1.9 0 0.7 0 1.9-0.3 0.4-0.3 0.3-0.7 0.4-0.4 0.3-0.4 0.4-1.3 2.1-0.3 0.2-0.2 0.1-0.5 0.7 1.2 0.5 0.7 0.7 1.6 2.3 0.2 0.7 0 0.6-0.2 0.4 0.1 0.7 0.2 0.1 0.2-0.2 0.4-0.2 0.6 0.1 1 0.6 4.2 4.1 0.6 0.4 0.3 0.1 0.5-0.3 0.5 0 0.5 0.1 0.6 0.3 0.5 0 1-0.2 0.2 0.3 0.1 0.3 0 0.4-0.1 0.4-0.1 0.6-0.3 0.5-0.1 1 0.2 0.3 0.2 0.3 1 0.5 0.2 0.3 0.1 0.4 0.1 0.6 1.2 3.4 0.3 0.3 0.4 0.1 0.4 0 2.6 0.4 1.1 0.4 0.6 0.1 0.4-0.2 0.4-0.1 0.7-0.1 0.8-0.1 0.3-0.1 0.7-0.2z" id="ESCM" name="Castilla la Mancha">
  </path>
  <path d="M606.6 209.7l0.7 1.7-2.5 0.2 0.1-1.3 0.8-0.8 0.9 0.2z m-11.9 25.5l0.5-0.9 0.4-1.8 0.5-1.1 0.2-0.3 0.1-0.4-0.1-0.4-0.2-0.7-0.1-0.4 0-0.4 0.3-0.3 0.3 0 0.2 0.2 0.5 0.7 0.2 0.2 0.2 0.1 0.7-0.1 0.4-0.1 0.5-0.3 0.3-0.5 0.4-0.8 0.1-0.5 0.1-0.4 0-0.3 0.1-0.9 0.2-0.3 0.3-0.4 0.3-0.1 0.2-0.2 0.3 0 0.2 0 0.3 0.1 0.3 0.1 0.2 0 0.2 0 0.3-0.1 1.1-0.1 0.4-0.2 0.1-0.3-0.2-0.8 0.3-1.1 0.2-0.4 0-0.4 0-0.4-0.1-0.3 0-0.7 0.1-0.2-0.1-0.3 0-0.3 0-0.8 0-0.4 0-0.6 0.3-0.5 0.3-0.3 0.3-0.2 0.1-0.1 0.1-0.2 0.1-0.2 0.2-0.6 0-0.4 0-0.3-0.1-0.4-0.2-0.4 0-0.5 0.2-0.3 0.3 0 0.2 0.2 0.3 0.6 0.3 0.3 0.3 0.1 0.4 0.1 0.7-0.1 0.8-0.3 0.4-0.2 0.4-0.1 0.4-0.4 0.1-0.3 0-0.8 0.2-0.9 0-0.4 0.2-1 1.2-1.7 0.2-0.3 1.5-2.4 0.4-0.4 0.8-0.4 0.5 0 0.5 0.1 0.3 0.2 0.4 0 0.9-0.2 0.3-0.1 0.2-0.2 0.2-0.4 0.1-0.4 0.3-0.8 0.1-0.4 0.1-0.8 0-0.4 0.2-0.4 0.3-0.5 0.1-0.4 0-0.4-0.1-0.7 0-0.4 0.2-0.4 0.5-1 0.6-0.7 0.3-0.5 0.4-0.5 0.4-0.3 3.5-1.2 0.4-0.2 0.4-0.3 0.5-0.9 0.2-0.4 0.3-0.4 0.3-0.8 0.4-0.5 0.6-0.5 1.8-1.2 0.8-0.9 0.7-0.9 0.2-0.4 0.3-0.4 0.5-0.4 1.2-0.8 1.9-0.4 0.2 1 1.5 1.5 0.4 0.7 0.4 0.4 0.3 0.2 0.9 0.5 0.3 0.1 0.4 0.2 0.5 1.8 0.6 1.6 0 0.8-0.1 0.5-0.3 0.7-0.2 0.4-0.1 0.4-0.4 1.2-0.1 0.4-0.2 0.4-0.1 0.5-0.2 0.4 0 0.4 0.2 0.4 0 0.6-0.2 0.3-0.2 0.2-0.2 0.1-0.2 0.1-0.1 0.2-0.1 0.3-0.3 1.5 0 0.4-0.2 0.5-0.3 0.5-0.1 0.2-0.2 0.2 0 0.2 0.1 0.2 0.3 0.2 1.2 0.3 0.3 0.4 0.2 0.5 0.1 0.6 0.1 0.7 0.1 0.4 0 0.4-0.1 0.3-0.5 0.7-0.2 0.5 0.2 0.3 0.2 0.3 0.3 0.3 0.3 0.1 0.6-0.1 0.6 0 0.2-0.2 0.1-0.3 0.3 0 0.4 0.5 0.5 1 0.5 0.5 0.4 0.3 0.3 0 0.3-0.1 0.2-0.1 0.3 0.1-0.2 1.1-0.1 1.5 0.2 0.4 0.2 0.4 0.4 0.2 0.5 0.5 0.1 0.4 0.1 0.4 0 0.3-0.1 0.1-0.1 0.2-0.1 0.2 0.1 0.2 0.2 0.1 0.2 0 0.3-0.1 0.2-0.2 0.3-0.1 0.3-0.1 0.3 0.1 0.3 0.1 0.3 0.3 0.3 0.2 0.9 0.9 0.1 0.3 0 0.2 0 0.2 0.1 1.1 0 1.5 0.1 0.4 0.3 0.2 0.4 0.1 0.4 0.2 0.5 0.4 0.6 1.1 0.2 0.5-0.1 0.5-0.1 0.2 0 0.2 0 0.5 0 0.2 0 0.3-0.2 0.2-0.1 0.5-0.1 0.3 0 0.2-0.2 0.3-0.6 0.6-0.2 0.4-0.1 0.6-0.1 0.5-0.1 0.4-0.1 0.5-0.1 0.6 0.1 0.7 0.3 0.4 0.3 0 0.3-0.3 0.3-0.3 0.3-0.3 1-0.8 0.4-0.1 0.5 0.4 0.3 0.6 0.4 1 0.1 0.6 0 0.5 0 1.1 0.4 2.1-0.3-0.1-0.1 0.1-0.2 0.2 0.1 0.4 0.1 0.4 0.1 0.4 0.2 0.4 0.2 0.3 0.2 0.3 0.1 0.4 0 0.3-0.2 0.4-0.4 0.5-0.6 0.5-0.8 0.2-2.1 0.1 0-0.5-0.2-0.2-0.7-0.4-1.6 0.5-2.5 1.3-1.7 0.3-0.5 0.2-0.4-0.1-0.8-0.6-1.4 0.6-3.8-0.1-0.6 0.4-0.2 0.6-0.2 0.3-0.4 0.2-1.6 0.4-0.3 0.1-0.3 0.2-0.3 0.3-0.8 0.2-0.6 0.3-0.2 0.2 0.1 0.7-0.1 0.3-0.4 0.2-0.9 0.3-0.7 0.5-0.5 0.2-0.7 0-0.5 0.2-0.3 0.1-0.2 0.3-0.4 0.4-0.6 0.6-0.3 0.1-0.7 0.5-0.3 0.4-0.5 0.1-0.6-0.1-1.3-0.8-0.5-0.4-0.1-0.4 0.3-0.3 0.5-0.3 2.5-0.8 0.5 0 0.2-0.2 0.7-0.8 0.2-0.1 0.7-0.3 0.7-0.5 1.9-2 0.5-0.3 0.3-0.1 0.5-0.3 0.2-0.2 0-0.2 0.4-0.5 0.1-0.2 0.3-1.1 0.1-0.3 0-0.5 0-0.2-0.2-0.3-0.4-0.4-1.9-0.9-0.8-0.1-0.6-0.2-0.6-0.1-1 0.2-0.5-0.1-0.2-0.2-0.3-0.2-0.6-0.9-0.3-0.2-0.3-0.1-0.7 0.2-0.4 0-0.4-0.4-0.2-0.3-0.2-0.2-0.2-0.1-2-0.5-1.2-0.6-2.2-0.7-0.5-0.3-0.4-0.3-0.2-0.3-0.2-0.4-0.3-0.3-0.4-0.3-0.9-0.3-0.3-0.1-0.4 0.3-0.4 0.3-0.5 0.2-0.8-0.2-0.6-0.2-1.1-1.1-0.3-0.3-0.3-0.3-0.4 0-1 0.6-1 0.2-0.4 0.3-0.3 0.3-0.3 0.6-0.3 0.5-0.3 0.3-0.5 0.5-0.2 0.1-0.2 0-0.6-0.7-0.6-0.2-0.3-0.3-0.3-0.3-0.3-0.8-0.1-0.3 0-0.4 0.1-0.8-0.1-0.3-0.1-0.4-0.3-0.2-0.2 0-0.2 0-0.5 0.8-0.2 0.4-0.3 0.4-1.2 1.2-0.2 0.5-0.4 0.4-0.6 0.4-1.2 0.5-0.5 0.3-0.4 0.4-0.2 0.3-0.4 0.2-0.5 0.1-0.6-0.2-0.9-0.6z" id="ESMD" name="Comunidad de Madrid">
  </path>
 </g>

<!-- ── Connection lines ── -->
<g id="connections">
  <path class="uni-connection" d="M627 219 Q741 164 855 140" style="animation-delay: 1.5s, 1.5s;" />
  <path class="uni-connection" d="M627 219 Q694 232 762 275" style="animation-delay: 1.6s, 1.6s;" />
  <path class="uni-connection" d="M627 219 Q576 280 525 370" style="animation-delay: 1.8s, 1.8s;" />
  <path class="uni-connection" d="M627 219 Q568 184 510 180" style="animation-delay: 1.9s, 1.9s;" />
  <path class="uni-connection" d="M627 219 Q638 130 650 72" style="animation-delay: 2.1s, 2.1s;" />
  <path class="uni-connection" d="M627 219 Q684 172 740 155" style="animation-delay: 2.2s, 2.2s;" />
  <path class="uni-connection" d="M855 140 Q808 192 762 275" style="animation-delay: 2.4s, 2.4s;" />
  <path class="uni-connection" d="M525 370 Q578 370 630 400" style="animation-delay: 2.5s, 2.5s;" />
  <path class="uni-connection" d="M525 370 Q550 380 575 420" style="animation-delay: 2.7s, 2.7s;" />
</g>

<!-- ── University city markers ── -->
<g id="university-cities">
  <!-- Madrid -->
  <circle class="uni-ring-primary" cx="627" cy="219" r="12" style="animation-delay: 2.5s;" />
  <circle class="uni-dot-primary" cx="627" cy="219" r="4.5" style="animation-delay: 1.0s;" />
  <text class="uni-label" x="637" y="213" style="animation-delay: 1.3s;">Madrid</text>
  <text class="uni-label-sub" x="637" y="225" style="animation-delay: 1.5s;">UCM · UAM · UC3M</text>
  <!-- Barcelona -->
  <circle class="uni-ring-primary" cx="855" cy="140" r="12" style="animation-delay: 2.7s;" />
  <circle class="uni-dot-primary" cx="855" cy="140" r="4.5" style="animation-delay: 1.2s;" />
  <text class="uni-label" x="780" y="132" style="animation-delay: 1.5s;">Barcelona</text>
  <text class="uni-label-sub" x="780" y="144" style="animation-delay: 1.7s;">UB · UAB · UPF</text>
  <!-- Valencia -->
  <circle class="uni-ring" cx="762" cy="275" r="12" style="animation-delay: 2.9s;" />
  <circle class="uni-dot" cx="762" cy="275" r="3.5" style="animation-delay: 1.4s;" />
  <text class="uni-label" x="770" y="279" style="animation-delay: 1.7s;">Valencia</text>
  <text class="uni-label-sub" x="770" y="291" style="animation-delay: 1.9s;">UV · UPV</text>
  <!-- Sevilla -->
  <circle class="uni-ring" cx="525" cy="370" r="12" style="animation-delay: 3.0s;" />
  <circle class="uni-dot" cx="525" cy="370" r="3.5" style="animation-delay: 1.5s;" />
  <text class="uni-label" x="470" y="374" style="animation-delay: 1.8s;">Sevilla</text>
  <text class="uni-label-sub" x="470" y="386" style="animation-delay: 2.0s;">US</text>
  <!-- Granada -->
  <circle class="uni-ring" cx="630" cy="400" r="12" style="animation-delay: 3.1s;" />
  <circle class="uni-dot" cx="630" cy="400" r="3.5" style="animation-delay: 1.6s;" />
  <text class="uni-label" x="638" y="404" style="animation-delay: 1.9s;">Granada</text>
  <text class="uni-label-sub" x="638" y="416" style="animation-delay: 2.1s;">UGR</text>
  <!-- Salamanca -->
  <circle class="uni-ring" cx="510" cy="180" r="12" style="animation-delay: 3.2s;" />
  <circle class="uni-dot" cx="510" cy="180" r="3.5" style="animation-delay: 1.7s;" />
  <text class="uni-label" x="435" y="178" style="animation-delay: 2.0s;">Salamanca</text>
  <text class="uni-label-sub" x="435" y="190" style="animation-delay: 2.2s;">USAL</text>
  <!-- Bilbao -->
  <circle class="uni-ring" cx="650" cy="72" r="12" style="animation-delay: 3.3s;" />
  <circle class="uni-dot" cx="650" cy="72" r="3.5" style="animation-delay: 1.8s;" />
  <text class="uni-label" x="658" y="68" style="animation-delay: 2.1s;">Bilbao</text>
  <text class="uni-label-sub" x="658" y="80" style="animation-delay: 2.3s;">EHU · Deusto</text>
  <!-- Santiago -->
  <circle class="uni-ring" cx="445" cy="90" r="12" style="animation-delay: 3.4s;" />
  <circle class="uni-dot" cx="445" cy="90" r="3.5" style="animation-delay: 1.9s;" />
  <text class="uni-label" x="380" y="95" style="animation-delay: 2.2s;">Santiago</text>
  <text class="uni-label-sub" x="380" y="107" style="animation-delay: 2.4s;">USC</text>
  <!-- Málaga -->
  <circle class="uni-ring" cx="575" cy="420" r="12" style="animation-delay: 3.5s;" />
  <circle class="uni-dot" cx="575" cy="420" r="3.5" style="animation-delay: 2.0s;" />
  <text class="uni-label" x="583" y="435" style="animation-delay: 2.3s;">Málaga</text>
  <text class="uni-label-sub" x="583" y="447" style="animation-delay: 2.5s;">UMA</text>
  <!-- Zaragoza -->
  <circle class="uni-ring" cx="740" cy="155" r="12" style="animation-delay: 3.6s;" />
  <circle class="uni-dot" cx="740" cy="155" r="3.5" style="animation-delay: 2.1s;" />
  <text class="uni-label" x="748" y="151" style="animation-delay: 2.4s;">Zaragoza</text>
  <text class="uni-label-sub" x="748" y="163" style="animation-delay: 2.6s;">UNIZAR</text>
</g>
</svg>