<svg xmlns="http://www.w3.org/2000/svg" xml:space="preserve" width="1120" height="218" viewBox="0 0 1120 218"><switch><foreignObject width="1" height="1" x="0" y="0" requiredExtensions="http://ns.adobe.com/AdobeIllustrator/10.0/"/><g><path d="M105.956 73.636H86.387c-1.832 0-3.381 1.548-3.381 3.38v75.975c0 15.308-6.549 22.437-20.51 22.437s-20.511-7.129-20.511-22.437V77.016c0-1.832-1.548-3.38-3.38-3.38H19.036c-1.623 0-3.216 1.674-3.216 3.38v80.745c0 12.476 4.153 22.775 12.009 29.787 8.121 7.247 19.815 10.921 34.667 10.921s26.546-3.674 34.667-10.921c7.856-7.012 12.009-17.312 12.009-29.787V77.016c-.001-1.706-1.593-3.38-3.216-3.38M362.298 73.636h-25.132c-1.032 0-2.434.617-3.128 1.484h-.002l-30.71 36.61a1.32 1.32 0 0 1-.927.383h-.236c-.362 0-.688-.147-.927-.383l-30.71-36.61h-.002c-.694-.867-2.096-1.484-3.127-1.484h-25.133c-1.623 0-3.216 1.674-3.216 3.38v114.468c0 1.706 1.593 3.38 3.216 3.38h19.57c1.832 0 3.38-1.548 3.38-3.38v-81.302l34.965 40.784q.117.141.255.266l.014.015v-.002c.479.428 1.124.691 1.833.691s1.354-.264 1.833-.691v.002l.015-.015q.136-.125.253-.266l34.966-40.784v81.302c0 1.832 1.548 3.38 3.381 3.38h19.569c1.623 0 3.216-1.674 3.216-3.38V77.016c0-1.706-1.593-3.38-3.216-3.38M228.846 195.122h-58.102v-4.571h25.433l-4.501-14.004-7.689-23.328h-36.912l-8.221 23.349-4.44 13.983h16.61v4.571h-38.307v-4.571h15.066l5.528-14.671 36.34-102.9h1.506l.149.424 35.659 102.156 5.554 14.991h16.327zm-80.181-47.165h33.718l-16.68-49.933zM198.579 12.531 188.13 73.359l50.919-21.484V12.531zM437.934 72.721v1.551h-6.397l-.065 5.493v24.685c.065 6.398.194 12.473 12.214 12.473 12.149 0 12.925-5.3 13.118-11.051V79.765l-.064-5.493h-6.528v-1.551h14.282v1.551h-5.622l-.065 5.493v23.523c-.064 8.464-.129 15.703-16.866 15.703-2.392 0-8.078-.258-11.696-1.745-5.752-2.455-5.882-7.496-5.946-13.7V79.765l-.065-5.493h-5.558v-1.551zM499.841 116.794h5.041v1.551h-16.673v-1.551h5.106l.065-5.105V99.927c-.065-6.592-.065-8.531-1.682-10.081-1.033-.97-2.39-1.034-2.971-1.034-2.326 0-4.072 1.163-5.3 2.326-3.425 3.425-3.554 8.014-3.683 12.085v8.466l.065 5.105h5.299v1.551h-17.319v-1.551h5.687l.063-5.105V94.305l-.063-5.623h-5.687v-1.551h6.139c2.843 0 3.812-.064 6.139-.258l-.065 6.075c1.681-2.521 4.137-6.334 11.115-6.334 8.724 0 8.724 6.721 8.724 10.276 0 1.55 0 3.166-.063 4.717v10.082zM513.929 87.131c2.585-.064 3.49-.064 6.01-.258l-.065 6.785V111.3l.065 5.494h5.169v1.551h-17.189v-1.551h5.557l.065-5.494V93.658l-.065-4.976h-5.557v-1.551zm-1.228-10.21c0-2.068 1.681-3.813 3.813-3.813 2.003 0 3.749 1.745 3.749 3.813s-1.746 3.749-3.749 3.749a3.81 3.81 0 0 1-2.714-1.099 3.77 3.77 0 0 1-1.099-2.65M561.232 87.131v1.551h-4.717l-2.52 5.88-9.435 24.363h-1.681l-9.629-24.363-2.391-5.88h-4.652v-1.551h17.963v1.551h-5.815l1.552 4.459 6.333 16.738 6.463-16.802 1.614-4.395h-6.01v-1.551zM591.425 109.361c-1.874 4.459-4.587 9.629-13.7 9.629-2.778 0-6.85-.323-10.533-4.007-3.683-3.747-4.329-8.529-4.329-12.342 0-1.681.13-3.167.451-4.524.647-2.973 2.263-6.01 4.396-7.949 2.391-2.326 6.074-3.878 10.016-3.878 4.201 0 7.562 1.681 9.822 3.943 3.491 3.554 3.814 7.56 4.006 10.469h-21.518c0 3.618 0 7.56 1.355 10.857 1.941 4.975 6.205 5.492 8.145 5.492 1.68 0 3.166-.452 4.33-.971 3.747-1.938 5.169-5.491 5.881-7.301zm-7.56-10.468c-.065-2.455-.131-4.975-1.1-7.173-1.357-2.973-3.749-3.619-5.623-3.619-6.204 0-6.719 6.915-7.043 10.792zM606.096 116.794h5.49v1.551h-17.254v-1.551h5.428l.065-5.494V94.046l-.065-5.428h-5.428v-1.487h5.947c2.518-.064 3.424-.064 5.945-.323l-.066 7.497c1.617-3.425 3.75-7.82 8.917-7.82 4.267 0 5.817 3.296 5.817 6.075 0 2.391-.969 4.33-3.296 4.33-.971 0-3.231-.712-3.231-3.361 0-.452.324-2.456.324-2.908 0-1.874-1.293-1.939-1.682-1.939-.451 0-1.162.194-2.262 1.229-4.393 4.329-4.588 11.05-4.717 16.543v4.846zM626.385 106.648c.193 2.843.453 5.88 3.036 8.335 2.004 1.874 4.073 2.197 5.882 2.197 4.652 0 7.238-2.326 7.238-5.558 0-3.684-3.231-4.912-7.562-6.397-3.813-1.292-9.563-3.296-9.563-9.628 0-5.623 4.199-9.241 10.405-9.241 3.36 0 6.332 1.034 9.046 1.873l.129 8.272h-1.875c-.451-2.584-1.484-8.336-7.559-8.336-3.618 0-5.688 2.197-5.688 4.588 0 1.164.451 2.197 1.162 2.909.907.904 1.422 1.098 6.463 2.907 5.041 1.875 9.951 3.878 9.951 10.34 0 5.881-4.781 10.081-12.148 10.081-4.007 0-7.365-1.034-10.728-2.067v-10.274h1.811zM657.726 87.131c2.585-.064 3.491-.064 6.011-.258l-.065 6.785V111.3l.065 5.494h5.168v1.551h-17.188v-1.551h5.557l.065-5.494V93.658l-.065-4.976h-5.557v-1.551zm-1.228-10.21c0-2.068 1.682-3.813 3.812-3.813 2.003 0 3.749 1.745 3.749 3.813s-1.746 3.749-3.749 3.749a3.82 3.82 0 0 1-2.714-1.099 3.78 3.78 0 0 1-1.098-2.65M695.336 72.721c2.714 0 3.618-.065 5.816-.259l-.064 6.85v31.859l.064 5.623h5.169v1.551h-11.633v-4.977c-.839 1.615-2.908 5.492-8.917 5.492-6.785 0-12.342-5.75-12.342-16.089 0-8.853 4.392-16.286 12.729-16.286 5.754 0 7.305 3.103 8.53 5.494V79.312l-.063-5.04h-6.334v-1.551zm-14.799 28.951c0 5.944 0 14.862 7.107 14.862 7.044 0 7.044-9.628 7.044-13.441 0-2.585-.063-7.625-1.422-10.597-1.163-2.391-3.229-3.878-5.88-3.878-6.849.064-6.849 9.305-6.849 13.054M740.83 116.794v1.551h-4.718c-.841 0-1.552 0-2.325-.13-3.814-.452-4.459-2.844-4.849-4.329-1.228 1.744-3.554 5.104-10.21 5.104-1.098 0-4.07-.064-6.074-2.067-.971-.97-2.391-3.167-2.391-7.303 0-2.457.516-4.523 2.133-6.204 1.809-1.81 3.617-2.197 9.241-3.36 3.747-.776 5.492-1.422 7.69-2.198v-2.326c-.065-4.394-.132-7.626-5.235-7.626-5.04 0-5.105 3.167-5.169 5.171-.066 1.356-.131 3.295-3.104 3.295-1.356 0-3.166 0-3.166-2.714 0-.841.193-1.616.518-2.391 1.551-3.813 6.332-4.847 11.115-4.847 2.585 0 5.363.388 7.367 1.357 4.005 2.004 4.005 5.622 4.005 8.595v14.152c-.063 4.847.519 6.27 3.555 6.27zm-11.502-17.255-5.816 1.745c-3.361 1.034-6.205 2.262-6.205 8.66 0 1.874 0 6.851 4.395 6.851 2.262 0 3.684-1.164 4.588-2.068 2.779-2.779 2.907-6.27 3.039-9.629zM767.389 72.721c2.715 0 3.619-.065 5.815-.259l-.063 6.85v31.859l.063 5.623h5.171v1.551h-11.633v-4.977c-.839 1.615-2.908 5.492-8.918 5.492-6.786 0-12.342-5.75-12.342-16.089 0-8.853 4.393-16.286 12.73-16.286 5.751 0 7.303 3.103 8.529 5.494V79.312l-.062-5.04h-6.334v-1.551zm-14.799 28.951c0 5.944 0 14.862 7.107 14.862 7.045 0 7.045-9.628 7.045-13.441 0-2.585-.062-7.625-1.421-10.597-1.165-2.391-3.231-3.878-5.88-3.878-6.851.064-6.851 9.305-6.851 13.054M818.699 72.204h1.293l12.795 38.838 2.004 5.752h5.816v1.551h-20.615v-1.551h6.656l-1.486-5.429-2.779-8.918h-11.762l-2.971 8.918-1.617 5.429h6.721v1.551h-14.411v-1.551h5.364l2.004-5.623zm-1.937 12.084-5.492 16.349h10.598zM866.664 87.131c3.036 0 3.748-.064 6.139-.258l-.064 6.721v17.9l.064 5.3h5.364v1.55h-5.429c-2.777.065-3.877.13-6.203.259l-.322-5.751c-1.164 1.745-4.072 6.139-11.053 6.139-3.1 0-5.814-.969-7.236-2.521-2.069-2.067-2.069-5.233-2.069-6.721l.065-7.82-.193-13.247h-4.846v-1.551h5.039c2.973-.064 4.008-.064 6.334-.258l-.066 6.721v10.921c.066 6.203.129 9.305 1.875 11.05.711.711 2.004 1.292 3.619 1.292 1.809 0 3.877-.775 5.493-2.392 3.038-2.972 3.101-6.526 3.167-9.562V93.594l-.066-4.912h-5.814v-1.551zM891.932 78.602l-.129 8.53h6.914v1.809h-6.85l-.13 21.521c.065 2.197.065 6.01 3.554 6.01 2.262 0 3.619-1.616 4.588-3.812l1.358.646c-1.423 2.973-2.974 5.363-8.337 5.363-7.432 0-7.432-4.652-7.432-7.754l.193-21.973h-5.041v-1.809h4.979l.129-8.53h6.204zM932.318 102.641c0 9.694-6.397 16.285-14.861 16.285-8.209 0-14.799-6.397-14.799-16.092 0-11.05 7.365-16.543 15.057-16.607 8.4-.065 14.603 6.656 14.603 16.414m-22.357.387c0 8.918 1.162 14.218 7.496 14.218 7.365 0 7.625-6.333 7.625-14.541 0-3.876-.26-6.332-.323-7.173-.323-2.391-.905-7.755-7.237-7.625-6.721.13-7.561 6.398-7.561 15.121m6.331-18.611h-1.872l3.295-9.37c.646-1.745 1.164-2.262 2.844-2.326h2.908c.84 0 2.004.129 2.004 1.486 0 .84-.712 1.615-1.488 2.391zM968.961 116.794H974v1.551h-16.672v-1.551h5.105l.064-5.105V99.927c-.064-6.592-.064-8.531-1.68-10.081-1.033-.97-2.391-1.034-2.973-1.034-2.326 0-4.07 1.163-5.3 2.326-3.425 3.425-3.554 8.014-3.684 12.085v8.466l.065 5.105h5.301v1.551h-17.32v-1.551h5.688l.064-5.105V94.305l-.064-5.623h-5.688v-1.551h6.138c2.845 0 3.813-.064 6.142-.258l-.066 6.075c1.682-2.521 4.137-6.334 11.116-6.334 8.724 0 8.724 6.721 8.724 10.276 0 1.55 0 3.166-.064 4.717v10.082zM1008.381 102.641c0 9.694-6.398 16.284-14.864 16.284-8.206 0-14.798-6.396-14.798-16.091 0-11.05 7.367-16.543 15.059-16.607 8.398-.066 14.603 6.655 14.603 16.414m-22.36.387c0 8.918 1.162 14.218 7.495 14.218 7.366 0 7.626-6.333 7.626-14.541 0-3.877-.26-6.333-.321-7.173-.323-2.391-.905-7.755-7.239-7.626-6.72.13-7.561 6.398-7.561 15.122M1025.117 92.366c.904-1.422 1.68-2.649 3.358-3.877 1.812-1.228 4.526-2.198 7.625-2.198 1.294 0 3.038.194 4.589.906 3.361 1.55 4.007 4.199 4.459 6.203 1.293-2.391 3.877-6.979 11.114-6.979 1.746 0 4.397.193 6.463 2.068 2.522 2.326 2.522 5.429 2.522 7.949l-.195 14.862.066 5.494h5.297v1.551h-16.865v-1.551h5.104l.066-5.494c.064-4.136.129-8.271.129-12.471 0-5.299 0-9.888-4.783-9.888-2.52 0-4.264 1.099-5.492 2.262-3.23 3.167-3.359 8.142-3.488 12.408v7.689l.062 5.494h5.17v1.551h-16.736v-1.551h5.105l.064-5.494V98.829c0-3.684-.064-5.171-.389-6.527-.259-.775-.969-3.555-4.652-3.555-2.326 0-4.33.905-5.621 2.197-2.844 2.908-2.973 7.755-3.103 12.473v7.883l.065 5.494h4.975v1.551h-17.059v-1.551h5.557l.064-5.494V94.822l-.064-6.14h-5.557v-1.55h6.266c2.908 0 3.557-.064 6.012-.259zM1105.184 116.794v1.551h-4.719c-.84 0-1.552 0-2.327-.13-3.812-.452-4.458-2.844-4.846-4.329-1.228 1.744-3.554 5.104-10.21 5.104-1.098 0-4.072-.064-6.076-2.067-.969-.97-2.389-3.167-2.389-7.303 0-2.457.516-4.523 2.131-6.204 1.811-1.81 3.619-2.197 9.242-3.36 3.748-.776 5.492-1.422 7.689-2.198v-2.326c-.062-4.394-.13-7.626-5.233-7.626-5.04 0-5.106 3.167-5.169 5.171-.066 1.356-.129 3.295-3.104 3.295-1.355 0-3.168 0-3.168-2.714 0-.841.194-1.616.52-2.391 1.55-3.813 6.332-4.847 11.115-4.847 2.584 0 5.361.388 7.365 1.357 4.006 2.004 4.006 5.622 4.006 8.595v14.152c-.062 4.847.52 6.27 3.557 6.27zm-11.504-17.255-5.814 1.745c-3.361 1.034-6.205 2.262-6.205 8.66 0 1.874 0 6.851 4.395 6.851 2.262 0 3.684-1.164 4.587-2.068 2.779-2.779 2.908-6.27 3.038-9.629zM442.069 148.113c2.714 0 3.619-.065 5.816-.259l-.064 6.85v31.859l.064 5.623h5.17v1.551h-11.633v-4.977c-.839 1.616-2.907 5.492-8.918 5.492-6.785 0-12.341-5.751-12.341-16.09 0-8.853 4.393-16.286 12.73-16.286 5.751 0 7.302 3.104 8.529 5.494v-12.667l-.063-5.04h-6.334v-1.551h7.044zm-14.798 28.951c0 5.944 0 14.863 7.109 14.863 7.043 0 7.043-9.63 7.043-13.441 0-2.585-.063-7.626-1.421-10.599-1.164-2.391-3.231-3.877-5.88-3.877-6.851.065-6.851 9.305-6.851 13.054M485.949 184.754c-1.874 4.459-4.588 9.63-13.701 9.63-2.778 0-6.85-.324-10.534-4.007-3.682-3.748-4.328-8.53-4.328-12.343 0-1.682.129-3.167.452-4.524.646-2.972 2.262-6.01 4.394-7.949 2.39-2.325 6.075-3.877 10.016-3.877 4.202 0 7.562 1.681 9.824 3.943 3.489 3.553 3.812 7.559 4.005 10.468h-21.518c0 3.619 0 7.561 1.356 10.857 1.939 4.976 6.204 5.492 8.143 5.492 1.68 0 3.167-.452 4.33-.971 3.748-1.938 5.169-5.491 5.881-7.301zm-7.561-10.469c-.065-2.455-.13-4.976-1.099-7.173-1.357-2.974-3.748-3.619-5.622-3.619-6.204 0-6.721 6.915-7.045 10.792zM549.02 148.113h14.151v1.551h-5.943l-.065 5.04v30.89l.065 6.593h5.943v1.55h-20.227v-1.55h6.98l.066-6.593v-34.573l-17.384 43.556h-1.035l-17.061-43.556-.062 3.683v30.89l.062 6.593h7.045v1.55h-14.993v-1.55h5.945l.066-6.593v-30.89l-.066-5.04h-5.945v-1.551h14.541l13.829 35.35zM598.391 192.187v1.551h-4.717c-.842 0-1.553 0-2.327-.129-3.813-.452-4.459-2.844-4.847-4.33-1.229 1.744-3.554 5.105-10.211 5.105-1.098 0-4.071-.065-6.075-2.068-.97-.97-2.39-3.166-2.39-7.303 0-2.456.516-4.523 2.133-6.203 1.809-1.811 3.617-2.197 9.242-3.36 3.747-.775 5.492-1.422 7.688-2.198v-2.326c-.063-4.394-.13-7.625-5.233-7.625-5.042 0-5.107 3.166-5.17 5.17-.066 1.356-.13 3.296-3.104 3.296-1.354 0-3.166 0-3.166-2.715 0-.84.194-1.615.519-2.391 1.551-3.812 6.332-4.847 11.114-4.847 2.587 0 5.364.388 7.367 1.356 4.007 2.004 4.007 5.622 4.007 8.596v14.151c-.064 4.848.517 6.27 3.555 6.27zm-11.503-17.255-5.816 1.745c-3.36 1.034-6.204 2.262-6.204 8.659 0 1.874 0 6.851 4.395 6.851 2.264 0 3.685-1.164 4.588-2.068 2.779-2.779 2.908-6.269 3.038-9.629zM624.949 148.113c2.715 0 3.62-.065 5.816-.259l-.064 6.85v31.859l.064 5.623h5.169v1.551h-11.632v-4.977c-.84 1.616-2.908 5.492-8.919 5.492-6.784 0-12.341-5.751-12.341-16.09 0-8.853 4.393-16.286 12.73-16.286 5.752 0 7.302 3.104 8.529 5.494v-12.667l-.062-5.04h-6.335v-1.551h7.045zm-14.799 28.951c0 5.944 0 14.863 7.108 14.863 7.044 0 7.044-9.63 7.044-13.441 0-2.585-.062-7.626-1.422-10.599-1.164-2.391-3.23-3.877-5.88-3.877-6.85.065-6.85 9.305-6.85 13.054M650.153 192.187h5.491v1.551H638.39v-1.551h5.429l.063-5.493V169.44l-.063-5.429h-5.429v-1.486h5.945c2.521-.065 3.426-.065 5.947-.323l-.066 7.496c1.615-3.425 3.748-7.819 8.917-7.819 4.267 0 5.817 3.296 5.817 6.074 0 2.392-.969 4.33-3.296 4.33-.971 0-3.231-.711-3.231-3.36 0-.452.322-2.456.322-2.908 0-1.874-1.291-1.938-1.68-1.938-.451 0-1.162.193-2.262 1.229-4.393 4.329-4.588 11.05-4.717 16.543v4.847zM672.512 162.524c2.584-.064 3.489-.064 6.01-.259l-.064 6.785v17.643l.064 5.493h5.168v1.551h-17.188v-1.551h5.558l.066-5.493V169.05l-.066-4.976h-5.558v-1.551zm-1.229-10.211c0-2.068 1.681-3.813 3.812-3.813 2.004 0 3.75 1.745 3.75 3.813s-1.746 3.749-3.75 3.749c-1.033 0-2.003-.389-2.713-1.099a3.77 3.77 0 0 1-1.099-2.65M710.121 148.113c2.715 0 3.619-.065 5.816-.259l-.065 6.85v31.859l.065 5.623h5.168v1.551h-11.631v-4.977c-.84 1.616-2.908 5.492-8.919 5.492-6.784 0-12.342-5.751-12.342-16.09 0-8.853 4.394-16.286 12.73-16.286 5.752 0 7.303 3.104 8.53 5.494v-12.667l-.064-5.04h-6.334v-1.551h7.046zm-14.799 28.951c0 5.944 0 14.863 7.107 14.863 7.045 0 7.045-9.63 7.045-13.441 0-2.585-.064-7.626-1.422-10.599-1.165-2.391-3.231-3.877-5.881-3.877-6.849.065-6.849 9.305-6.849 13.054"/></g></switch></svg>