<svg xmlns="http://www.w3.org/2000/svg" width="4274" height="1025" fill="none" viewBox="0 0 4274 1025"><path fill="#040606" d="M.432 580.316v26.49l36.82 3.228 10.984 9.043v355.957l-10.983 9.046-36.82 3.226v26.494h170.543c107.886 0 169.256-45.226 169.256-124.043 0-67.185-40.049-102.711-120.805-105.945 67.191-20.674 93.674-49.098 93.674-101.424 0-67.832-49.745-102.072-147.935-102.072zm105.946 30.365c29.718-1.941 36.174-1.941 43.93-1.941 63.95 0 98.836 28.424 98.836 80.11 0 60.076-38.114 88.506-118.217 88.506-5.815 0-7.756 0-24.549-.647zm0 198.327c27.13-2.583 46.511-3.875 64.598-3.875 70.419 0 105.305 28.423 105.305 86.565 0 63.31-38.761 91.735-124.039 91.735-9.69 0-12.272 0-45.864-1.941zm506.916-233.86-151.169 404.41-37.468 7.748v26.494h126.62v-26.494l-41.989-3.226-6.462-9.046 45.864-123.39h152.463l46.511 123.39-4.522 9.046-40.049 3.226v26.494h146.642v-26.494l-38.761-7.748-155.044-404.41zm10.337 67.832 66.538 178.946H559.674zm325.139-62.664v26.49l36.827 3.228 10.984 9.043v355.957l-10.984 9.046-36.827 3.226v26.494h153.76v-26.494l-36.83-3.226-10.98-9.046V821.28c21.96-1.288 25.19-1.288 34.24-1.288 36.82 0 59.43 7.102 75.58 24.549 13.57 14.858 20.68 30.357 32.95 76.875 20.03 76.874 41.99 97.554 102.72 97.554 16.15 0 25.19-1.3 51.04-5.82v-24.549c-68.48.647-84.64-12.272-100.14-83.339-13.57-64.602-32.3-86.565-86.57-101.422 73-18.088 104.66-51.033 104.66-110.469 0-74.94-51.68-113.055-155.69-113.055zm105.95 29.718h31.01c83.34 0 118.87 27.13 118.87 90.44 0 62.664-34.89 91.095-111.76 91.095-7.76 0-16.16 0-38.12-1.295zm730.77 286.831h-34.88l-15.51 71.709-10.33 10.336c-21.32 6.462-36.18 8.396-56.2 8.396-104.66 0-168.62-72.999-168.62-192.511 0-116.282 60.08-187.989 158.28-187.989 25.84 0 43.28 3.875 73 16.793l8.4 11.631 9.69 58.788h36.17v-99.49c-56.85-16.793-88.5-21.961-127.91-21.961-133.08 0-224.17 89.793-224.17 221.582 0 62.663 20.68 118.225 59.44 160.212 42.63 45.224 94.96 67.189 162.79 67.189 43.29 0 80.76-6.46 129.85-22.611zm139.53 116.935h332.71V908.491h-33.6l-10.98 65.251-9.04 10.338h-173.14V803.192h105.94l9.05 9.691 6.46 46.516h30.36V717.274h-30.36l-6.46 47.157-9.05 9.044h-105.94V610.034h149.23l9.05 9.69 9.04 54.914h36.17v-94.322h-309.44v26.49l36.83 3.228 10.98 9.043v355.957l-10.98 9.046-36.83 3.226zm465.13 0h309.44V896.219H2666l-10.99 77.523-9.04 10.338h-145.35V619.077l10.33-9.043 36.82-3.228v-26.49h-157.62v26.49l41.34 3.228 10.98 9.043v355.957l-10.98 9.046-41.34 3.226zm610.22-443.821c-125.33 0-211.89 93.028-211.89 227.398 0 133.082 86.56 226.753 209.31 226.753 121.45 0 208.01-94.317 208.01-227.394 0-130.501-87.21-226.757-205.43-226.757m-4.53 34.24c87.86 0 142.13 74.294 142.13 193.805 0 116.283-55.56 191.87-140.18 191.87-85.92 0-141.48-76.235-141.48-193.804 0-116.284 54.91-191.871 139.53-191.871m332.12 409.581h136.31v-26.494l-38.76-5.168-11.63-12.271V646.855l246.13 366.945h42.64V623.599l11.63-11.624 38.76-5.169v-26.49h-135.66v26.49l38.76 5.169 11.62 11.624v303.632l-220.29-330.762v-16.153h-121.45v26.49l41.34 3.228 11.64 9.043v350.79l-11.64 12.271-39.4 5.168zm708.81-438.652-151.17 404.41-37.47 7.748v26.494h126.62v-26.494l-41.99-3.226-6.46-9.046 45.87-123.39h152.46l46.51 123.39-4.52 9.046-40.06 3.226v26.494h146.65v-26.494l-38.76-7.748-155.04-404.41zm10.34 67.832 66.53 178.946h-130.49zM751.657 290.517 602.155 86.064V73.059h-92.773v21.277l31.907 2.364 5.909 4.72v230.458l-6.5 5.915-30.134 3.545v21.271h103.999v-21.271l-30.134-3.545-6.5-5.915V132.152l169.592 230.457h56.139l-22.459-30.731V104.381l6.499-6.5 30.141-3.545V73.058H715.023v21.278l30.135 3.545 6.499 6.5zM1057.62 73.058H931.76v21.278l31.907 2.364 5.909 4.72v232.827l-5.909 4.727-31.907 2.364v21.271h125.86v-21.271l-32.5-2.364-5.31-4.727V101.42l5.31-4.72 32.5-2.364zm219.71 291.324h39.58l107.55-265.319 30.14-4.727V73.058h-94.55v21.278l30.73 2.364 2.95 4.72-83.91 208.005-86.86-208.005 3.54-4.72 28.96-2.364V73.058h-118.18v21.278l30.14 4.727zm489.45-291.323h-232.23v21.277l28.95 2.364 5.91 4.72v232.827l-5.91 4.727-28.95 2.364v21.271h248.78V285.79h-29.55l-8.87 48.457-8.27 4.727h-117V224.333h70.32l6.5 4.137 4.73 32.504h27.77v-97.506h-27.77l-4.73 32.504-6.5 4.727h-70.32v-104h100.46l7.09 4.721 7.68 37.822h31.91zm129.4 0v21.277l28.96 2.364 5.9 4.72v232.827l-5.9 4.727-28.96 2.364v21.271h119.96v-21.271l-28.96-2.364-5.91-4.727V235.56c8.28-.591 11.23-.591 19.5-.591 44.32 0 56.14 10.051 72.09 60.275 17.73 56.73 33.68 70.91 78.6 70.91 13 0 25.4-1.181 43.72-4.727v-19.498h-9.45c-38.41 0-49.64-8.272-60.28-44.322-14.18-52.587-24.22-65.001-61.45-75.046 49.04-11.227 72.68-34.861 72.68-72.683 0-50.815-40.18-76.82-117.59-76.82zm85.09 23.64H1999c57.31 0 80.96 17.136 80.96 57.906 0 40.185-23.05 57.32-78.01 57.32-7.68 0-12.99 0-20.68-.591zm305.68 256.456c30.14 10.636 53.18 14.181 87.46 14.181 76.82 0 127.04-34.867 127.04-88.046 0-19.498-7.68-37.224-21.86-49.639-14.18-12.408-24.23-17.726-62.05-31.316-58.5-21.271-72.68-32.504-72.68-56.729 0-28.953 23.05-46.679 60.27-46.679 13.59 0 23.64 1.772 39.01 6.493l5.9 6.506 7.69 45.497h31.31V81.331c-33.09-10.045-56.13-13.59-83.91-13.59-69.14 0-112.86 33.095-112.86 85.682 0 36.049 18.32 54.366 77.41 77.41 44.32 17.726 47.27 18.908 55.54 24.226 16.55 9.46 23.64 20.686 23.64 37.231 0 30.134-24.82 47.866-66.77 47.866-16.55 0-28.36-1.772-50.23-7.687l-4.73-6.5-6.5-53.769h-33.68zm462.14-280.096h-125.86v21.277l31.91 2.364 5.91 4.72v232.827l-5.91 4.727-31.91 2.364v21.271h125.86v-21.271l-32.5-2.364-5.31-4.727V101.42l5.31-4.72 32.5-2.364zm143.07 23.64h65.58v237.548l-5.9 4.727-33.09 2.364v21.271h128.23v-21.271l-33.69-2.364-5.32-4.727V96.7h65.6l6.5 4.72 7.68 44.913h30.72V73.059h-271.22v73.274h30.72l8.28-44.913zm412.15-27.186-109.32 267.098-27.77 4.727v21.271h92.77v-21.271l-31.91-2.364-2.95-4.727 32.5-80.955h109.31l33.69 80.955-2.37 4.727-29.55 2.364v21.271h115.24v-21.271l-28.37-4.727-112.27-267.098zm8.27 52.594 44.91 106.953h-89.23zM3567.09 96.7h65.59v237.547l-5.91 4.727-33.09 2.364v21.271h128.23v-21.271l-33.68-2.364-5.32-4.727V96.7h65.59l6.5 4.72 7.68 44.913h30.73V73.059h-271.23v73.274h30.73l8.27-44.913zM3885.81 218.78v12.657l15.53 1.151 2.88 2.307v111.071l-2.88 2.301-15.53 1.151v12.663h73.08c57.27 0 90.36-26.185 90.36-71.364 0-45.466-33.38-71.937-90.36-71.937zm55.82 14.1h11.51c36.83 0 54.67 18.702 54.67 57.258 0 39.134-17.55 57.551-54.67 57.551h-11.51zm170.98-14.1v12.657l15.83 1.151 2.59 2.307v111.071l-2.88 2.301-15.54 1.151v12.663h134.96v-39.999h-21.01l-4.61 23.305-2.01 2.302h-51.51v-52.656h27.05l2.3 1.729 2.31 16.687h19.28V262.23h-19.28l-2.31 16.688-2.3 1.729h-27.05v-47.481h43.74l2.02 1.729 3.73 19.275h21.88v-35.39zM406.117.134H281.332v25.955l37.983 5.062 12.023 11.395v224.729c0 87.996-34.184 125.979-113.316 125.979-77.865 0-112.048-37.983-112.048-125.979V38.117l10.76-8.863 39.253-3.166V.134H10.826v26.825l26.147 2.295 10.76 8.863v234.861c0 46.847 5.063 75.333 17.726 97.487 22.79 39.253 74.07 62.042 140.54 62.042 56.972 0 104.453-17.092 131.036-46.847 20.258-23.423 28.492-55.075 28.492-112.682V42.546l11.395-11.395 29.195-3.893z"/></svg>