<svg xmlns="http://www.w3.org/2000/svg" xml:space="preserve" id="Primer_plano" x="0" y="0" viewBox="0 0 842 303"><style>.st0,.st1{fill:#000e78}.st1{fill-rule:evenodd;clip-rule:evenodd}</style><path d="M462.3 165.9c-4.1 4.3-10.1 7.2-16.5 7.2-12.3 0-22.2-9.9-22.2-22.2s9.9-22.2 22.2-22.2c6.5 0 12.4 2.8 16.4 7.2l.1-17.5c-4.9-2.5-10.5-3.9-16.4-3.9-20.1 0-36.4 16.3-36.4 36.4s16.3 36.4 36.4 36.4c5.9 0 11.5-1.4 16.4-3.9z" class="st0"/><path d="M511.3 183.6c-4 2.5-8.8 3.9-13.9 3.9-14.4 0-26.1-11.7-26.1-26.1s11.7-26.1 26.1-26.1c5.1 0 9.9 1.5 13.9 4v-4h12.3v52.3h-12.3zm-27.8-22.3c0-7.7 6.2-14 14-14 7.7 0 14 6.2 14 14 0 7.7-6.2 14-14 14s-14-6.3-14-14" class="st1"/><path d="M559.9 149.4c-1.2-.7-2.7-1.1-4.2-1.1-4.7 0-8.6 3.8-8.6 8.6v30.6h-13.2l.1-52.4h13.1l.1 3.2c3.1-2 6.8-3.2 10.7-3.2h.1c.6 0 1.3 0 2 .1v14.2z" class="st0"/><path d="M588.1 161.3c0-14.5 11.7-26.2 26.2-26.2s26.2 11.7 26.2 26.2-11.7 26.2-26.2 26.2c-14.4 0-26.2-11.8-26.2-26.2m12.3 0c0-7.7 6.2-14 14-14 7.7 0 14 6.2 14 14 0 7.7-6.2 14-14 14-7.8-.1-14-6.3-14-14" class="st1"/><path d="m673.6 148.6 7-7.1c-3.9-3.9-9.3-6.3-15.3-6.3-2.1 0-4.2.3-6.1.9-7.1 2.2-12.4 8.7-12.4 16.5 0 .5 0 1 .1 1.6.6 4.4 3.9 7.9 7.9 9.3l12.1 4.6c1.9.8 2.6 2.1 2.6 3.9 0 3.7-4.3 4.8-7.3 4.8-4.6 0-8.7-2.1-11.3-5.6L644 178c4.4 5.7 11.2 9.4 19 9.4 4.7 0 9-1.3 12.6-3.6 4.3-2.8 7.1-7.6 7.1-13 0-6.4-3.8-11.9-9.4-14.2l-9.1-3.4c-1.8-.6-3.1-1.9-3.1-3.9 0-2.3 1.9-4.3 4.2-4.3 3.3 0 6.2 1.4 8.3 3.6" class="st0"/><path d="M567.9 114.6H581v72.9h-13.1zM353.3 48.5h6.7v211.4h-6.7z" class="st1"/><path d="M153.2 152.3c-3-2.9-7-4.6-11.4-4.6-7.3 0-13.2 5.9-13.2 13.2s5.9 13.2 13.2 13.2c4.5 0 8.5-1.8 11.4-4.7v15.2c-3.5 1.7-7.4 2.6-11.4 2.6-14.6 0-26.4-11.8-26.4-26.4s11.8-26.4 26.4-26.4c4.1 0 8 .9 11.4 2.6z" class="st0"/><path d="M95.5 134.4v29.8c0 5.5-4.4 9.9-9.9 9.9s-9.9-4.4-9.9-9.9v-29.8H62.6v29.8c0 12.8 10.3 23.1 23.1 23.1s23.1-10.3 23.1-23.1v-29.8zM186.3 127.8l-7.6 19.8h9.2-.2c7.3 0 13.2 5.9 13.2 13.2S195 174 187.7 174s-13.2-5.9-13.2-13.2h-13.1c0 14.6 11.8 26.3 26.4 26.3s26.4-11.8 26.4-26.4c0-11.3-7-20.9-17-24.6l8.4-21.8-40.8.1v13.2zM265.3 142.1c-3.9-4.7-9.8-7.7-16.4-7.7-4.3 0-8.3 1.3-11.7 3.5v-3.5H224v52.8h13.2l.1-29.8c0-5.5 4.4-9.9 9.9-9.9s9.9 4.5 9.9 9.9v29.7h13.2v-29.8c0-5.5 4.4-9.9 9.9-9.9s9.9 4.4 9.9 9.9v29.8h13.2v-31.5c0-11.8-9.6-21.4-21.5-21.4-6.6.2-12.5 3.2-16.5 7.9M706.4 114.4h15.9v72.9h-15.9zM763.4 114.4h15.9v72.9h-15.9zM734.9 114.4h15.9v72.9h-15.9zM409.2 80.9V48.5h5.4v32.4c0 8.3 6.8 15.1 15.1 15.1S445 89.2 445 80.9V48.5h5.4v32.4c0 11.3-9.2 20.5-20.6 20.5-11.4.1-20.6-9.1-20.6-20.5M463.2 78.6c0-5.5 4.4-10 9.9-10s10 4.5 10 10v22.9h5.4V78.2c0-8.3-6.8-15-15.1-15-4 0-7.7 1.7-10.4 4.3v-4.3h-5.4v38.3h5.4zM494.5 63.1h5.4v38.4h-5.4zm-.9-10.9c0-2 1.6-3.6 3.6-3.6s3.6 1.6 3.6 3.6-1.6 3.6-3.6 3.6-3.6-1.6-3.6-3.6M523.9 101.5l-19-38.9h6.1l12.8 26.5 12.6-26.5h6.1zM572.8 92.2c-2.5 2.4-5.9 3.9-9.6 3.9-6.7 0-12.3-4.8-13.5-11.1h32.6c.1-.9.2-1.8.2-2.7 0-10.6-8.6-19.3-19.3-19.3-10.6 0-19.3 8.6-19.3 19.3s8.6 19.3 19.3 19.3c5.3 0 10.1-2.1 13.6-5.5zm-23.2-12.7c1.3-6.3 6.8-11.1 13.5-11.1s12.2 4.7 13.5 11zM607.4 63.5c-1-.2-2.1-.4-3.2-.4-4 0-7.7 1.7-10.4 4.3v-4.3h-5.4v38.3h5.4V78.5c0-5.5 4.4-10 9.9-10 1.3 0 2.6.2 3.7.7zM729.2 95.6c-3.5 3.6-8.5 5.9-13.9 5.9-10.6 0-19.3-8.6-19.3-19.3S704.7 63 715.3 63c5.5 0 10.4 2.3 13.9 5.9V63h5.5v38.2h-5.5zm-27.7-13.4c0-7.6 6.2-13.8 13.8-13.8s13.8 6.2 13.8 13.8S722.9 96 715.3 96s-13.8-6.1-13.8-13.8M641.1 63.1h5.4v38.4h-5.4zm-.9-10.9c0-2 1.6-3.6 3.6-3.6s3.6 1.6 3.6 3.6-1.6 3.6-3.6 3.6-3.6-1.6-3.6-3.6M773.2 95.6c-3.5 3.6-8.5 5.9-13.9 5.9-10.6 0-19.3-8.6-19.3-19.3S748.6 63 759.3 63c5.5 0 10.4 2.3 13.9 5.9V48.3h5.5v52.8h-5.5zm-27.7-13.4c0-7.6 6.2-13.8 13.8-13.8s13.8 6.2 13.8 13.8S766.9 96 759.3 96s-13.8-6.1-13.8-13.8M685.3 95.6c-3.5 3.6-8.5 5.9-13.9 5.9-10.6 0-19.3-8.6-19.3-19.3S660.7 63 671.4 63c5.5 0 10.4 2.3 13.9 5.9V48.3h5.5v52.8h-5.5zm-27.8-13.4c0-7.6 6.2-13.8 13.8-13.8s13.8 6.2 13.8 13.8S678.9 96 671.3 96s-13.8-6.1-13.8-13.8M618 72.7c-.2-2.6 2-4.5 4.5-4.5 3.1.1 5.3 1.8 6.4 4.1l4.4-2.5c-2.3-4.5-6-6.9-10.4-6.9-5.8 0-10.5 4.1-10.7 9.9 0 5 3 7 7 9.2l7.8 4.2c1.9 1.3 2.7 2.3 2.7 4.6-.1 2.7-2.7 5.3-6.1 5.3-3.9 0-6.4-2.2-8.1-5.4l-5 2.5c2 5.5 7.2 8.4 12.5 8.4 6.6 0 12.3-4.9 12.5-11.6 0-5.7-4.1-8.3-8.3-10.4-4.4-2.5-9.2-4.4-9.2-6.9M442.4 254.2c-3.5 3.6-8.5 5.9-13.9 5.9-10.6 0-19.3-8.6-19.3-19.3 0-10.6 8.6-19.3 19.3-19.3 5.5 0 10.4 2.3 13.9 5.9v-20.5h5.5v52.8h-5.5zm-27.7-13.4c0-7.6 6.2-13.8 13.8-13.8s13.8 6.2 13.8 13.8-6.2 13.8-13.8 13.8-13.8-6.2-13.8-13.8M485.5 250.7c-2.5 2.4-5.9 3.9-9.6 3.9-6.7 0-12.3-4.8-13.5-11.1H495c.1-.9.2-1.8.2-2.7 0-10.6-8.6-19.3-19.3-19.3-10.6 0-19.3 8.6-19.3 19.3 0 10.6 8.6 19.3 19.3 19.3 5.3 0 10.1-2.1 13.6-5.5zm-23.1-12.6c1.3-6.3 6.8-11.1 13.5-11.1s12.2 4.7 13.5 11zM631.8 254.2c-3.5 3.6-8.5 5.9-13.9 5.9-10.6 0-19.3-8.6-19.3-19.3 0-10.6 8.6-19.3 19.3-19.3 5.5 0 10.4 2.3 13.9 5.9v-5.9h5.5v38.2h-5.5zM604 240.8c0-7.6 6.2-13.8 13.8-13.8s13.8 6.2 13.8 13.8-6.2 13.8-13.8 13.8-13.8-6.2-13.8-13.8M679.1 254.2c-3.5 3.6-8.5 5.9-13.9 5.9-10.6 0-19.3-8.6-19.3-19.3 0-10.6 8.6-19.3 19.3-19.3 5.5 0 10.4 2.3 13.9 5.9v-20.5h5.5v52.8h-5.5zm-27.7-13.4c0-7.6 6.2-13.8 13.8-13.8s13.8 6.2 13.8 13.8-6.2 13.8-13.8 13.8-13.8-6.2-13.8-13.8M715.3 222.1c-1-.2-2.1-.4-3.2-.4-4 0-7.7 1.7-10.4 4.3v-4.3h-5.4V260h5.4v-22.9c0-5.5 4.4-10 9.9-10 1.3 0 2.6.2 3.7.7zM724.9 221.6h5.4V260h-5.4zm-.9-10.9c0-2 1.6-3.6 3.6-3.6s3.6 1.6 3.6 3.6-1.6 3.6-3.6 3.6-3.6-1.6-3.6-3.6M773.2 254.2c-3.5 3.6-8.5 5.9-13.9 5.9-10.6 0-19.3-8.6-19.3-19.3 0-10.6 8.6-19.3 19.3-19.3 5.5 0 10.4 2.3 13.9 5.9v-20.5h5.5v52.8h-5.5zm-27.8-13.4c0-7.6 6.2-13.8 13.8-13.8s13.8 6.2 13.8 13.8-6.2 13.8-13.8 13.8-13.8-6.2-13.8-13.8M555.4 248l20.6-42 13.8 53.4h-5.7l-9.7-37.8-19 38.8-18.9-38.8-9.7 37.8h-5.7l13.8-53.4z" class="st1"/></svg>