<svg xmlns="http://www.w3.org/2000/svg" xml:space="preserve" width="1052.362" height="744.1"><defs><clipPath id="a" clipPathUnits="userSpaceOnUse"><path d="M0-595.28h841.89V0H0z"/></clipPath></defs><g clip-path="url(#a)" transform="translate(0 744.1)scale(1.25)"><path d="M369.518-306.76c-2.874-.905-6.133-1.924-12.407.517v2.903l.827-.327c5.5-2.175 8.059-1.372 10.768-.516 2.602.82 5.306 1.648 10.018-.044v-2.874l-.666.25c-4.027 1.51-6.119.854-8.54.09M369.518-300.586c-2.87-.904-6.128-1.923-12.407.52v2.903l.827-.325c5.5-2.181 8.062-1.373 10.768-.52 2.607.82 5.306 1.65 10.018-.037v-2.872l-.661.248c-4.032 1.503-6.119.847-8.545.083M472.291-306.76c-2.428.763-4.52 1.42-8.547-.09l-.666-.25v2.873c4.713 1.692 7.418.863 10.024.044 2.705-.856 5.267-1.659 10.763.515l.826.328v-2.903c-6.279-2.44-9.53-1.422-12.4-.518M472.28-300.586c-2.423.764-4.509 1.42-8.536-.083l-.666-.248v2.872c4.713 1.688 7.412.857 10.02.037 2.709-.853 5.265-1.661 10.767.52l.826.325v-2.903c-6.283-2.443-9.537-1.424-12.412-.52" style="fill:#231f20;fill-opacity:1;fill-rule:nonzero;stroke:none"/><path d="M451.299-371.79a1.228 1.228 0 1 1 .256-2.443 1.228 1.228 0 0 1-.256 2.443m0 4.42a1.229 1.229 0 1 1 .256-2.444 1.229 1.229 0 0 1-.256 2.445m0 4.421a1.23 1.23 0 0 1-1.094-1.35 1.23 1.23 0 0 1 2.445.256 1.234 1.234 0 0 1-1.351 1.094m0 4.421a1.233 1.233 0 0 1-1.094-1.352 1.227 1.227 0 0 1 1.352-1.092 1.233 1.233 0 0 1 1.093 1.35 1.234 1.234 0 0 1-1.351 1.094m0 4.42a1.23 1.23 0 0 1 .258-2.446 1.236 1.236 0 0 1 1.093 1.352 1.233 1.233 0 0 1-1.351 1.093m0 4.388a1.227 1.227 0 1 1 .258-2.441 1.23 1.23 0 0 1 1.093 1.35 1.23 1.23 0 0 1-1.351 1.091m.574 3.293a1.22 1.22 0 0 1-1.484.895 1.227 1.227 0 1 1 .594-2.383c.656.166 1.056.832.89 1.488m-1.371 4.236a1.236 1.236 0 0 1-1.602.681 1.23 1.23 0 0 1-.68-1.6 1.23 1.23 0 0 1 2.282.92m-1.955 4.002a1.23 1.23 0 0 1-1.678.45 1.23 1.23 0 0 1-.45-1.676 1.227 1.227 0 0 1 2.127 1.226m-2.49 3.693a1.229 1.229 0 0 1-1.935-1.512 1.227 1.227 0 0 1 1.936 1.512m-2.983 3.31a1.226 1.226 0 1 1-1.701-1.765 1.22 1.22 0 0 1 1.73.03 1.22 1.22 0 0 1-.029 1.735m-3.412 2.865a1.23 1.23 0 0 1-1.441-1.99 1.23 1.23 0 0 1 1.718.273c.393.55.272 1.318-.277 1.717m-3.775 2.358a1.228 1.228 0 1 1 .51-1.66c.322.6.087 1.345-.51 1.66m-14.969-1.765h-.039c-14.812-.012-26.82-12.022-26.825-26.836v-37.384h53.694v37.384c-.004 14.814-12.013 26.824-26.83 26.836m10.898 3.577a1.23 1.23 0 0 1-1.572-.737 1.226 1.226 0 0 1 .736-1.571 1.228 1.228 0 1 1 .836 2.308m-4.275 1.228a1.234 1.234 0 0 1-1.463-.948 1.23 1.23 0 0 1 .953-1.454c.66-.144 1.313.279 1.453.946a1.23 1.23 0 0 1-.943 1.456m-3.298 20.442v.11l-.714.31.32.991-1.613.699c-.128-.18-.22-.39-.22-.63v-5.487c.562-.365.933-.996.933-1.721q-.002-.02-.005-.042.003-.02.005-.041l-.02-.102a2 2 0 0 0-.065-.37l-.404-2.143c2.032.679 3.366 2.602 3.366 4.533 0 1.99-1.583 1.494-1.583 3.893m-3.346-4.64a1.2 1.2 0 0 1-1.201-1.198l.46-2.8h1.48l.46 2.8c0 .662-.537 1.199-1.199 1.199m-1.107 4.747-.72.312.319.991-1.607.697a1.08 1.08 0 0 1-.218-.628v-3.846a2.85 2.85 0 0 0 1.522-2.438c.164.324.404.6.704.797zm-1.114-19.927a1.24 1.24 0 0 1-1.143-1.314 1.23 1.23 0 1 1 1.143 1.314m3.444 2.636a1.227 1.227 0 1 1-2.453 0 1.227 1.227 0 1 1 2.453 0m-.307-3.779a1.233 1.233 0 0 1 1.142-1.308c.676-.049 1.26.46 1.309 1.137a1.23 1.23 0 0 1-1.139 1.314 1.24 1.24 0 0 1-1.312-1.143m-2.471 12.548-.422 2.203c-.015.06-.022.12-.032.181l-.012.06a2.85 2.85 0 0 0-1.278-1.409 5.2 5.2 0 0 1 1.744-1.035m-.421-3.91a1.974 1.974 0 1 1 3.945 0 1.97 1.97 0 0 1-1.973 1.978 1.97 1.97 0 0 1-1.972-1.978m-5.602-9.574a1.227 1.227 0 0 1 2.402.508 1.223 1.223 0 0 1-1.454.948 1.226 1.226 0 0 1-.948-1.456m3.794 18.9c-.428.148-.871.1-1.213-.064a1.7 1.7 0 0 1-.441-.31c-.085-.092-.1-.122-.15-.183a2 2 0 0 1-.124-.23 1.3 1.3 0 0 1-.057-.782c.094-.457.41-.666.62-.666a.93.93 0 0 0-.236.608c0 .519.422.94.94.94a.9.9 0 0 0 .437-.12q.013-.007.03-.013a1 1 0 0 0 .068-.054.92.92 0 0 0 .407-.753q-.002-.014-.005-.027a1.1 1.1 0 0 0-.053-.45c-.016-.076-.05-.12-.073-.168-.006-.041-.068-.12-.144-.203-.074-.11-.233-.203-.354-.29-.271-.168-.6-.197-.907-.197-.297 0-.655.169-.825.333a1.9 1.9 0 0 0-.54.724 2.1 2.1 0 0 0-.175.795c.006.252.034.487.113.678.026.12.068.205.111.278.438.808 1.333 1.113 1.759 1.113v1.01a.72.72 0 0 1-.212.489.69.69 0 0 1-.97.022l-1.093-1.098.014-.01c-.012-.014-.03-.017-.04-.031q-.01-.012-.02-.026s-.035-.041-.094-.118c-.065-.092-.141-.161-.271-.366-.128-.231-.324-.541-.39-.855-.108-.317-.146-.698-.135-1.1.023-.404.118-.84.322-1.251s.494-.81.887-1.104c.106-.104.455-.294.688-.39.252-.08.506-.148.773-.153.522-.021 1.065.096 1.506.389.214.155.422.295.59.523.105.115.319.467.37.696a2.04 2.04 0 0 1-.11 1.477 2.1 2.1 0 0 1-.434.598c-.08.059-.138.113-.234.174-.11.06-.226.134-.335.165m-5.555-19.41a1.234 1.234 0 0 1-1.576.738 1.234 1.234 0 0 1-.735-1.576 1.23 1.23 0 0 1 2.311.84m-3.984-1.581a1.224 1.224 0 0 1-1.658.505 1.23 1.23 0 0 1 1.153-2.169c.598.317.827 1.063.505 1.664m-3.72-2.126c-.4.548-1.167.672-1.722.273a1.23 1.23 0 0 1-.263-1.717 1.226 1.226 0 1 1 1.985 1.444m-3.39-2.623a1.226 1.226 0 0 1-1.736.03 1.23 1.23 0 0 1-.034-1.733 1.23 1.23 0 0 1 1.74-.031 1.23 1.23 0 0 1 .03 1.734m-2.996-3.067a1.223 1.223 0 0 1-1.722-.212 1.227 1.227 0 1 1 1.722.212m-2.533-3.453a1.24 1.24 0 0 1-1.684-.452 1.23 1.23 0 0 1 .452-1.676 1.23 1.23 0 0 1 1.68.45c.339.586.14 1.337-.448 1.678m-3.634-4.455a1.23 1.23 0 0 1 .681-1.595 1.22 1.22 0 0 1 1.595.676 1.223 1.223 0 0 1-.675 1.6 1.235 1.235 0 0 1-1.601-.681m-1.371-4.236a1.227 1.227 0 0 1 .89-1.488 1.229 1.229 0 0 1 .598 2.383 1.223 1.223 0 0 1-1.488-.895m-.778-4.386a1.229 1.229 0 0 1 2.446-.253 1.23 1.23 0 0 1-2.446.253m1.094-5.74c.676-.068 1.28.42 1.352 1.095a1.233 1.233 0 0 1-1.095 1.35 1.233 1.233 0 0 1-1.35-1.093 1.23 1.23 0 0 1 1.093-1.352m0-4.418c.676-.07 1.28.416 1.352 1.092a1.236 1.236 0 0 1-1.095 1.352 1.23 1.23 0 0 1-.257-2.444m0-4.42a1.227 1.227 0 0 1 1.352 1.093 1.235 1.235 0 0 1-1.095 1.35 1.234 1.234 0 0 1-1.35-1.094 1.226 1.226 0 0 1 1.093-1.348m0-4.423a1.23 1.23 0 0 1 1.352 1.092 1.235 1.235 0 0 1-1.095 1.352 1.233 1.233 0 0 1-1.35-1.094 1.23 1.23 0 0 1 1.093-1.35m0-4.418a1.227 1.227 0 1 1 .257 2.44 1.227 1.227 0 1 1-.257-2.44m-5.856-64.373c-.676 0-1.226-.55-1.226-1.226a1.227 1.227 0 0 1 2.452 0 1.23 1.23 0 0 1-1.226 1.226m73.022-2.451c.682 0 1.227.549 1.227 1.225s-.545 1.226-1.227 1.226a1.226 1.226 0 0 1 0-2.451m42.475 55.282-1.425.839-.75.44-.908.415c-.644.3-1.36.647-2.21.903l-1.298.444-1.427.335c-.967.28-2.037.328-3.112.5-1.094.02-2.217.137-3.358.017-1.144-.02-2.285-.254-3.425-.422-1.118-.298-2.25-.532-3.3-.966-1.084-.337-2.06-.885-3.037-1.326-.556-.354-1.118-.664-1.65-.993.07-.471.153-.937.21-1.411.52.185 1.036.36 1.567.513a27.2 27.2 0 0 0 7.142 1.082c4.66.081 9.276-1.055 13.463-3.361a27 27 0 0 0 3.493-2.28c.072-.06.14-.118.218-.175.51-.467.836-1.131.852-1.883a2.6 2.6 0 0 0-3.342-2.54q-.151.061-.297.114c-.17.072-.32.167-.467.272-.082.063-.156.126-.232.182-.857.649-1.762 1.24-2.725 1.768a21.74 21.74 0 0 1-16.662 1.838 21.5 21.5 0 0 1-2.611-.943q.016-.611.018-1.23c0-.068-.004-.134-.004-.203.63.117 1.28.213 1.935.342 1.18.078 2.39.247 3.629.174 1.237.028 2.48-.166 3.722-.301 1.223-.265 2.455-.473 3.612-.89 1.186-.32 2.271-.86 3.346-1.297 1.011-.578 2.043-1.033 2.897-1.672q.659-.449 1.278-.868l1.11-.922c.73-.564 1.321-1.187 1.847-1.731l.738-.756q.298-.372.546-.68l1.03-1.293a.417.417 0 0 0-.637-.54l-1.103 1.232-.583.647-.74.669c-.523.48-1.101 1.028-1.835 1.529q-.529.393-1.101.815l-1.26.752c-.837.559-1.842.928-2.814 1.418-1.036.35-2.073.8-3.198 1.03-1.095.329-2.253.45-3.391.635-1.156.054-2.305.173-3.438.078-1.134.007-2.232-.22-3.296-.346-.815-.216-1.623-.357-2.375-.584-.025-.48-.048-.958-.085-1.433a26.9 26.9 0 0 0 6.912-.401c7.027-1.321 13.132-5.268 17.213-11.126.046-.06.091-.118.134-.182a2.64 2.64 0 0 0 .399-1.663 2.61 2.61 0 0 0-2.86-2.326c-.267.03-.529.098-.761.203q-.147.072-.284.144a2.7 2.7 0 0 0-.726.639 2 2 0 0 0-.158.23 21.76 21.76 0 0 1-13.914 8.984 21.9 21.9 0 0 1-6.62.229c-.08-.45-.181-.891-.272-1.336.944-.066 1.913-.272 2.914-.408 1.143-.309 2.342-.54 3.49-1.01 1.181-.373 2.294-.96 3.425-1.488 1.071-.647 2.169-1.242 3.13-2.01 1.019-.686 1.871-1.55 2.746-2.311.77-.873 1.598-1.637 2.2-2.52l.929-1.234.752-1.232c.507-.77.865-1.55 1.186-2.235q.244-.512.454-.954.163-.449.294-.821l.56-1.556a.418.418 0 0 0-.777-.305c-.001 0-.237.553-.648 1.523l-.343.8-.481.873c-.34.624-.71 1.33-1.24 2.04l-.78 1.128-.949 1.119c-.61.8-1.441 1.475-2.204 2.252-.867.667-1.701 1.428-2.69 2.01-.932.664-1.989 1.156-3.005 1.698-1.076.424-2.125.909-3.228 1.186-1.07.373-2.183.513-3.23.738-1.071.076-2.094.269-3.077.217-.116-.45-.219-.901-.343-1.344a27.1 27.1 0 0 0 8.225-3.541c5.695-3.67 9.726-9.21 11.476-15.704.078-.282.16-.565.203-.856a1.7 1.7 0 0 0-.008-.55c-.199-1.425-1.527-2.415-2.963-2.213-.267.04-.529.122-.761.232q-.14.076-.278.157c-.506.322-.912.8-1.076 1.372-.043.15-.072.306-.111.457a21.74 21.74 0 0 1-9.295 12.747 21.9 21.9 0 0 1-7.076 2.967c-.161-.414-.34-.821-.511-1.231l.031-.011 1.425-.697c.999-.435 1.93-1.12 2.945-1.72.932-.728 1.947-1.41 2.822-2.29.941-.803 1.739-1.776 2.573-2.704.734-1.013 1.513-1.99 2.1-3.072.67-1.028 1.119-2.155 1.627-3.198.37-1.104.834-2.13 1.044-3.177q.195-.773.374-1.5.113-.741.212-1.428c.168-.906.194-1.764.223-2.52l.046-1.055-.047-.871-.093-1.651a.42.42 0 0 0-.836.022l-.002 1.655q0 .394-.002.87l-.104.992c-.07.706-.136 1.501-.348 2.363l-.278 1.342-.437 1.4c-.25.975-.754 1.92-1.152 2.933-.54.952-1.01 1.978-1.695 2.9-.598.975-1.38 1.838-2.106 2.734-.825.81-1.603 1.665-2.51 2.35-.842.76-1.811 1.323-2.687 1.939-.958.487-1.825 1.064-2.752 1.398l-.665.28c.272-1.542.975-2.494 1.601-3.171a27.3 27.3 0 0 0 4.23-4.827c4.1-5.962 5.634-13.165 4.32-20.28l-.184-.958a2 2 0 0 0-.094-.343 2.605 2.605 0 0 0-2.947-1.732 2.607 2.607 0 0 0-2.077 3.033v.007c.004.012.004.02.01.032.063.296.135.598.19.902a21.76 21.76 0 0 1-3.488 16.399q-.575.835-1.215 1.603a22 22 0 0 1-8.777 6.275c.135-.34.244-.686.352-1.01.09-.442.21-.848.24-1.253q.085-.597.072-1.117c.017-.342-.017-.655-.043-.928a4 4 0 0 0-.098-.7l-.118-.594s-.033.217-.087.597c-.02.188-.067.414-.139.667-.062.254-.13.537-.252.833q-.148.45-.4.926c-.139.323-.368.628-.557.948-.24.299-.451.616-.733.888-.252.291-.563.535-.846.785-.318.22-.611.45-.941.618-.307.194-.65.316-.952.458-.222.064-.426.135-.629.194-.921.119-1.859.187-2.813.187q-.029.001-.056.004l-.035-.002a2.6 2.6 0 0 0-.542.046l-.033.003c-.14.02-.281.049-.412.081l-.069.018q-.196.053-.394.125l-.049.016c-.14.057-.273.115-.414.183l-.004.005a4.3 4.3 0 0 0-2.334 3.813c0 .747.203 1.442.535 2.053a9.2 9.2 0 0 1 1.537 4.347v.005q.038.409.04.829c0 5.076-4.116 9.147-9.188 9.147h-.881c-1.031 0-8.516-.638-8.516-12.257 0-.264.01-.526.02-.79l.363.285c.332.209.643.418.988.573.32.18.67.295.99.421.339.086.645.197.96.236.156.024.297.048.443.075.147.008.283.017.418.028.264.026.512.014.719.004q.16-.005.297-.012.137-.02.25-.033c.3-.042.464-.067.464-.067l-.455-.092c-.074-.015-.157-.03-.24-.05q-.127-.036-.271-.081c-.2-.06-.414-.122-.633-.23-.121-.048-.233-.1-.354-.15q-.166-.093-.357-.195c-.242-.12-.47-.31-.713-.471-.215-.195-.457-.372-.658-.603-.217-.204-.393-.455-.574-.682-.164-.257-.33-.495-.446-.756-.142-.245-.224-.517-.32-.758-.06-.258-.152-.49-.176-.727-.02-.114-.035-.224-.054-.33a6 6 0 0 0-.02-.317c-.023-.207 0-.36.01-.49a2 2 0 0 0 .01-.181q.017-.133.023-.243l.023-.226c1.695-6.899 6.318-12.63 12.465-15.841-.006.029-.016.057-.02.086-.093.357-.118.724-.157 1.064 0 .35-.03.676.014.988.015.155.025.303.04.45q.042.21.077.41c.045.263.117.497.18.696l.084.287c.039.082.068.16.095.231.117.275.186.433.186.433l-.03-.465c-.003-.078-.01-.155-.01-.243 0-.09.007-.185.01-.287.007-.201.016-.428.06-.671l.058-.374q.053-.19.097-.394c.059-.268.186-.535.278-.81.13-.265.242-.538.414-.791.14-.262.34-.495.52-.734.203-.216.388-.437.617-.618.199-.197.447-.342.646-.5.234-.122.44-.268.658-.353l.07-.031a24.5 24.5 0 0 1 5.76-1.1c.34-.044 1.114-.068 1.678-.068 2.19 0 4.314.214 6.328.754 1.387.324 1.828.707 2.617 1.819 2.645-5.773-2.218-9.182-5.218-9.182 0 0-1.573-2.753-10.303-2.753-4.861 0-8.15 2.534-10.182 3.122-1.99.584-7.816.093-7.816.093 1.449 1.527 2.08 2.6 2.967 3.195q-.565.503-1.167 1.028c-.043.029-.08.058-.132.086q-.137.085-.281.18c-.108.053-.215.102-.327.16-.224.124-.476.192-.74.302-.267.063-.55.16-.846.194-.293.06-.6.066-.904.09-.307-.011-.623-.007-.93-.06-.31-.025-.607-.117-.894-.178-.281-.1-.568-.173-.818-.3a19 19 0 0 0-.38-.17c-.11-.063-.222-.126-.326-.19-.216-.116-.402-.253-.568-.37a8 8 0 0 0-.228-.169q-.099-.087-.18-.161c-.219-.197-.346-.308-.346-.308l.268.38q.068.093.14.204.09.099.196.22c.136.156.29.34.486.51l.3.278q.169.133.352.268c.233.195.516.34.801.526.303.14.61.311.95.425.331.136.685.216 1.046.313.251.04.504.083.76.11-1.879 1.766-3.827 3.83-5.572 6.488-2.24 3.02-4.166 6.279-5.588 9.598-1.418-3.307-3.328-6.556-5.56-9.567-1.749-2.672-3.706-4.746-5.594-6.518.256-.028.512-.07.764-.111.36-.097.715-.177 1.046-.313.34-.114.646-.285.948-.425.282-.185.57-.331.802-.526q.183-.135.35-.268.156-.142.302-.277c.195-.17.346-.355.48-.511q.106-.121.196-.22l.145-.203.27-.381s-.128.11-.347.308l-.185.161q-.103.078-.229.17c-.165.116-.344.253-.563.37q-.162.094-.331.189-.179.084-.374.17c-.243.127-.54.2-.818.3-.296.06-.584.153-.899.178-.302.053-.618.049-.924.06-.31-.024-.613-.03-.909-.09-.297-.034-.575-.131-.842-.194-.263-.11-.515-.178-.739-.302-.112-.058-.219-.107-.326-.16q-.148-.095-.287-.18c-.048-.026-.082-.054-.123-.081q-.605-.528-1.17-1.033c.889-.594 1.517-1.668 2.966-3.195 0 0-5.832.49-7.82-.093-2.029-.588-5.316-3.122-10.18-3.122-8.73 0-10.301 2.753-10.301 2.753-3 0-7.864 3.409-5.218 9.182.787-1.112 1.23-1.495 2.611-1.819 2.024-.54 4.144-.73 6.333-.73.564 0 1.157-.004 1.678.044a24.6 24.6 0 0 1 5.745 1.094l.081.037c.224.085.424.23.661.353.21.158.448.303.647.5.23.18.41.402.623.618.171.239.37.472.515.734.17.253.283.526.414.79.098.276.223.543.272.811q.05.204.103.394c.024.126.038.253.058.374.044.243.053.47.058.67.005.103.014.198.014.288-.004.088-.009.165-.014.243l-.03.465s.069-.158.186-.433c.024-.071.058-.15.092-.231.03-.088.058-.185.093-.287.058-.2.13-.433.174-.695q.036-.2.08-.412c.008-.146.028-.294.038-.45.044-.311.015-.637.015-.987-.045-.34-.064-.707-.157-1.064-.005-.03-.015-.057-.02-.086 6.138 3.205 10.757 8.921 12.46 15.804l.026.263c.01.073.01.155.024.243q.001.084.01.182c.01.129.034.282.005.489l-.015.316q-.03.16-.057.331c-.025.238-.114.469-.177.727-.096.24-.18.513-.32.758-.117.26-.284.499-.437.756-.186.227-.36.478-.58.682-.198.23-.437.408-.66.603-.24.16-.468.35-.711.471q-.188.102-.355.195-.19.077-.35.15c-.224.108-.439.17-.632.23-.103.029-.191.058-.277.082-.082.02-.166.034-.24.049l-.457.092.468.067q.108.013.248.033.138.007.297.012c.209.01.457.022.72-.004.13-.012.272-.02.418-.028.14-.027.292-.051.442-.075.316-.04.617-.15.959-.236.32-.126.67-.241.991-.422.346-.154.653-.363.984-.572q.185-.146.374-.291c.008.265.019.528.019.796 0 11.619-7.486 12.257-8.52 12.257h-.882c-5.071 0-9.187-4.071-9.187-9.148 0-.28.02-.555.039-.828v-.005a9.15 9.15 0 0 1 1.538-4.347 4.26 4.26 0 0 0 .535-2.053c0-.987-.342-1.897-.902-2.622a4.3 4.3 0 0 0-1.434-1.191l-.005-.005a6 6 0 0 0-.413-.183c-.014-.006-.033-.01-.049-.016a4 4 0 0 0-.394-.125c-.023-.007-.047-.011-.063-.018a5 5 0 0 0-.413-.081q-.012 0-.022-.002a2.4 2.4 0 0 0-.563-.047l-.03.002q-.027-.003-.05-.004a22 22 0 0 1-2.836-.19c-.198-.06-.4-.128-.617-.191-.302-.142-.645-.263-.953-.458-.33-.167-.623-.397-.94-.617-.284-.251-.596-.494-.847-.786-.281-.272-.494-.59-.733-.887-.188-.321-.418-.625-.557-.949a6 6 0 0 1-.4-.926c-.122-.296-.189-.58-.252-.832a4 4 0 0 1-.138-.668c-.054-.38-.087-.597-.087-.597l-.119.595a4.4 4.4 0 0 0-.096.699c-.027.273-.061.586-.044.928q-.013.52.071 1.117c.03.405.15.811.24 1.253.109.324.216.669.35 1.007a22 22 0 0 1-8.763-6.265q-.646-.772-1.217-1.61a21.76 21.76 0 0 1-3.301-17.301c.004-.011.004-.02.009-.03v-.01a2.607 2.607 0 0 0-2.077-3.033 2.607 2.607 0 0 0-3.04 2.076c-.018.091-.135.724-.18.958-1.317 7.114.215 14.317 4.31 20.28a27.2 27.2 0 0 0 4.24 4.827c.622.676 1.32 1.627 1.592 3.17l-.66-.28c-.928-.334-1.794-.911-2.752-1.398-.876-.616-1.845-1.179-2.687-1.94-.908-.684-1.684-1.538-2.51-2.35-.725-.895-1.507-1.759-2.106-2.734-.683-.922-1.155-1.947-1.694-2.9-.4-1.012-.902-1.958-1.153-2.933l-.436-1.4q-.146-.695-.278-1.341c-.213-.862-.28-1.657-.348-2.362q-.056-.533-.104-.992l-.003-.872-.002-1.653a.418.418 0 0 0-.835-.022l-.094 1.65-.047.87.046 1.056c.029.757.055 1.615.223 2.52q.1.686.212 1.428l.375 1.5c.209 1.046.673 2.072 1.043 3.176.508 1.043.957 2.17 1.627 3.199.586 1.082 1.366 2.058 2.1 3.07.835.929 1.632 1.903 2.572 2.706.875.88 1.89 1.562 2.823 2.29 1.013.6 1.944 1.285 2.943 1.72l1.426.697.031.012c-.17.41-.348.817-.511 1.23a21.9 21.9 0 0 1-7.075-2.967 21.74 21.74 0 0 1-9.295-12.747c-.04-.15-.067-.305-.112-.457-.165-.57-.57-1.05-1.07-1.371q-.145-.081-.282-.158a2.7 2.7 0 0 0-.763-.231c-1.436-.203-2.764.788-2.961 2.212a1.9 1.9 0 0 0-.016.55c.044.292.137.574.21.857 1.75 6.494 5.782 12.034 11.481 15.703a27 27 0 0 0 8.225 3.541c-.126.444-.23.895-.347 1.345-.985.052-2.007-.142-3.08-.217-1.047-.225-2.157-.364-3.23-.738-1.102-.276-2.15-.76-3.226-1.187-1.017-.542-2.075-1.031-3.007-1.696-.987-.582-1.822-1.345-2.69-2.01-.761-.777-1.592-1.453-2.204-2.253l-.947-1.119-.78-1.128c-.531-.71-.9-1.417-1.24-2.04l-.482-.873-.343-.8c-.41-.97-.647-1.523-.647-1.523a.418.418 0 0 0-.777.305l.559 1.555q.133.373.295.822.209.443.454.953c.32.685.677 1.467 1.185 2.236q.36.592.753 1.232l.928 1.234c.601.882 1.43 1.647 2.2 2.52.876.763 1.728 1.625 2.746 2.31.96.77 2.06 1.364 3.13 2.011 1.13.53 2.245 1.116 3.424 1.49 1.149.468 2.348.7 3.49 1.007 1.003.137 1.972.343 2.916.409-.092.444-.192.885-.271 1.336-2.18.255-4.408.188-6.624-.23a21.76 21.76 0 0 1-13.91-8.982 2.735 2.735 0 0 0-.88-.87 12 12 0 0 1-.289-.145 2.5 2.5 0 0 0-.768-.202 2.61 2.61 0 0 0-2.855 2.325 2.6 2.6 0 0 0 .4 1.664c.038.064.093.122.132.182 4.085 5.858 10.188 9.804 17.215 11.126q1.133.214 2.272.33 2.335.236 4.64.07c-.038.476-.06.956-.084 1.434-.752.227-1.56.367-2.373.584-1.064.125-2.163.353-3.296.345-1.134.096-2.283-.024-3.438-.077-1.14-.184-2.298-.305-3.393-.635-1.124-.23-2.162-.68-3.198-1.03-.972-.49-1.978-.859-2.815-1.418q-.65-.389-1.26-.751-.57-.422-1.101-.816c-.733-.502-1.311-1.048-1.834-1.528l-.74-.67-.584-.647c-.702-.785-1.104-1.232-1.104-1.232a.419.419 0 0 0-.638.54l1.032 1.293q.248.307.545.68l.74.756c.525.544 1.116 1.167 1.845 1.73q.534.445 1.112.923l1.278.868c.854.64 1.887 1.094 2.897 1.672 1.076.438 2.162.979 3.347 1.297 1.157.416 2.39.624 3.612.89 1.242.135 2.485.329 3.723.3 1.237.074 2.448-.095 3.63-.173.654-.13 1.305-.226 1.934-.342q-.002.102-.003.202c0 .413.01.823.016 1.23-.843.368-1.714.686-2.613.944a21.76 21.76 0 0 1-16.667-1.839 22 22 0 0 1-2.718-1.768c-.079-.055-.15-.118-.234-.181-.14-.105-.297-.2-.467-.272q-.145-.054-.292-.114a2.603 2.603 0 0 0-2.495 4.422q.108.086.22.176a27.4 27.4 0 0 0 3.486 2.28c4.192 2.305 8.812 3.442 13.468 3.36a27.2 27.2 0 0 0 7.148-1.081 27 27 0 0 0 1.562-.514c.057.475.138.94.209 1.41-.533.33-1.096.64-1.653.995-.975.44-1.952.99-3.035 1.325-1.053.435-2.183.668-3.3.967-1.14.169-2.282.403-3.425.422-1.142.12-2.265.003-3.358-.017-1.076-.172-2.145-.22-3.112-.5q-.734-.174-1.427-.335-.672-.232-1.297-.444c-.85-.257-1.567-.603-2.21-.904l-.907-.414-.752-.44-1.424-.84a.419.419 0 0 0-.445.709l1.374.918.725.484.933.497c.666.36 1.417.774 2.282 1.091l1.337.544q.719.212 1.483.44c1.006.352 2.127.473 3.265.717 1.157.093 2.355.28 3.58.227 1.23.045 2.468-.128 3.712-.246 1.224-.246 2.468-.438 3.64-.837 1.201-.307 2.305-.833 3.405-1.266.35-.192.701-.37 1.051-.548.098.49.186.983.297 1.468a21.74 21.74 0 0 1-12.568 4.744 21.8 21.8 0 0 1-9.225-1.537c-.132-.05-.262-.109-.395-.162-.019-.01-.044-.014-.063-.025a2.56 2.56 0 0 0-1.327-.052 2.595 2.595 0 0 0-1.974 3.107c.193.876.812 1.55 1.59 1.856a27.05 27.05 0 0 0 11.647 1.996 26.869 26.869 0 0 0 13.823-4.62c.15.438.322.869.483 1.302-.398.412-.825.82-1.233 1.262-.833.676-1.64 1.455-2.602 2.056-.908.686-1.94 1.198-2.947 1.77-1.06.454-2.105.97-3.207 1.278-1.073.407-2.19.58-3.253.837-1.083.108-2.13.332-3.136.307l-1.467.038-1.366-.1c-.889-.031-1.67-.186-2.369-.312l-.982-.17-.837-.235-1.593-.451a.418.418 0 0 0-.25.796s.567.198 1.562.541l.825.285q.477.111 1.028.244c.735.178 1.567.388 2.485.476l1.431.185 1.545.052c1.064.083 2.18-.083 3.344-.138 1.142-.204 2.347-.326 3.52-.69 1.201-.268 2.355-.75 3.528-1.18 1.122-.548 2.276-1.05 3.307-1.735 1.086-.6 2.02-1.39 2.976-2.086q.327-.312.662-.607c.193.445.374.898.58 1.337-.342.442-.692.88-1.067 1.298-3.88 4.378-9.24 6.977-15.082 7.326-1.423.082-2.83.026-4.215-.156l-.312-.045a2.6 2.6 0 0 0-.793.059 2.61 2.61 0 0 0-1.945 3.13c.234.98.987 1.702 1.902 1.93.174.042.345.072.525.074 1.692.22 3.41.283 5.145.185 1.571-.095 3.098-.32 4.577-.666 5.462-1.278 10.247-4.202 13.861-8.186.248.418.518.822.776 1.233-.296.49-.619.982-.919 1.503-.66.842-1.272 1.78-2.076 2.582-.732.87-1.625 1.603-2.479 2.384-.931.679-1.835 1.414-2.84 1.96-.957.637-2.006 1.054-2.985 1.543-1.032.346-2.002.798-2.99.996l-1.42.366q-.702.106-1.356.208c-.872.167-1.668.19-2.377.223l-.997.053q-.475-.025-.87-.042l-1.65-.084a.42.42 0 0 0-.439.372.42.42 0 0 0 .372.46l1.644.179q.394.041.867.093l1.057.008c.756.01 1.616.03 2.529-.09l1.436-.139q.736-.142 1.517-.295c1.057-.155 2.107-.566 3.23-.877 1.067-.454 2.217-.843 3.278-1.46 1.11-.528 2.127-1.255 3.177-1.936.97-.785 1.984-1.531 2.836-2.43.926-.826 1.657-1.805 2.433-2.697q.237-.352.48-.693c.293.418.577.842.883 1.252a22.1 22.1 0 0 1-3.375 5.328 21.74 21.74 0 0 1-14.44 7.55c-.16.014-.316.034-.476.048q-.067.01-.141.028a2.6 2.6 0 0 0-1.883 3.163 2.59 2.59 0 0 0 2.603 1.96l.335-.031a26.5 26.5 0 0 0 4.028-.698c7.323-1.853 13.378-6.673 16.948-13.012.336.366.698.709 1.048 1.063-.252.92-.614 1.794-.912 2.665-.494.97-.868 1.972-1.432 2.807l-.756 1.255-.822 1.099c-.505.73-1.053 1.306-1.538 1.826l-.672.736q-.356.316-.65.58l-1.235 1.098a.42.42 0 0 0-.052.572.42.42 0 0 0 .588.069l1.297-1.026.682-.542q.355-.34.76-.736c.546-.523 1.172-1.11 1.74-1.836l.926-1.106q.423-.619.874-1.274c.645-.852 1.105-1.881 1.687-2.89.257-.624.546-1.253.81-1.902 1.675 2.057 3.332 4.789 3.59 6.933.015.157.055.379.103.616 1.11 7.62 4.756 14.416 10.054 19.506-5.564 4.925-15.289 13.192-19.599 14.773-3.915 1.418-5.99.778-8.377.027-2.87-.905-6.133-1.924-12.412.522v2.907l.828-.33c5.5-2.182 8.062-1.378 10.771-.521 2.578.81 5.253 1.629 9.884.008l.018-.003c3.468-.997 11.731-5.291 16.488-7.719 1.227-.628 2.798-1.402 3.75-1.824 1.572-.697 3.136-1.527 5.068-1.527a7.3 7.3 0 0 1 2.158.326c.074.019.137.049.204.07.152.049.297.098.443.158l.235.105q.196.087.378.185.125.061.234.129c.122.068.244.14.354.214.073.049.151.097.225.148.111.08.222.166.335.25.063.054.131.103.195.159.116.099.227.202.342.308.047.049.106.095.153.144q.474.478.852 1.033.06.09.117.183a6 6 0 0 1 .35.618 5 5 0 0 1 .291.632c.053.129.102.255.141.387.03.09.06.174.083.267.044.13.078.273.107.408q.037.132.058.264c.03.152.054.31.073.466l.03.228q.037.351.039.713c0 .226-.015.455-.035.678q-.015.1-.024.198c-.02.167-.048.328-.073.488-.014.066-.024.129-.039.192a7 7 0 0 1-.16.626c-.01.03-.024.067-.03.094-.063.173-.12.343-.189.508a8.217 8.217 0 0 1-.278.6c-.033.067-.073.138-.106.203-.093.175-.2.345-.31.508-.04.066-.088.124-.132.187a7 7 0 0 1-.438.555 4 4 0 0 1-.195.214q-.022.026-.049.053c-.048.049-.091.097-.14.146-.045.044-.089.083-.132.127-.082.07-.16.145-.244.216a.06.06 0 0 1-.024.024c-.102.08-.199.164-.301.24-.077.059-.15.117-.228.172-.098.065-.19.13-.291.194-.075.048-.146.095-.225.14a9 9 0 0 1-.928.458q-.148.06-.301.115a7 7 0 0 1-.407.137q-.137.04-.279.075-.229.06-.462.107-.121.021-.244.038a8 8 0 0 1-1.133.096l-.098-.003-.075.012c-.148-.004-.3-.015-.46-.02-.49-.061-1.046-.158-1.586-.38a6.2 6.2 0 0 1-1.594-.946q-.181-.16-.37-.325c-.111-.124-.229-.248-.34-.37-.121-.124-.19-.253-.298-.38-.048-.068-.096-.112-.146-.2l-.15-.256-.155-.263-.02-.031-.02-.045-.049-.11c-.076-.143-.12-.298-.18-.452a3.8 3.8 0 0 1-.144-.97 3.53 3.53 0 0 1 .545-1.918c.173-.287.388-.555.646-.773.12-.126.243-.205.37-.304.057-.05.16-.099.234-.148l.125-.071.03-.017.01-.005.047-.019c.183-.092.376-.143.574-.177a2.12 2.12 0 0 0-1.094 1.697 2.115 2.115 0 0 0 4.218.311 2.1 2.1 0 0 0-.028-.495 1.7 1.7 0 0 0-.104-.554l-.02-.065-.01-.032-.005-.01c.014.025-.019-.043-.019-.04l-.005-.011-.052-.101-.113-.21c-.053-.134-.19-.294-.316-.45a2.1 2.1 0 0 0-.428-.408c-.073-.059-.145-.132-.233-.18l-.268-.141a3.1 3.1 0 0 0-2.518-.141l-.083.026-.098.042-.131.058c-.083.044-.165.074-.268.132-.2.116-.409.233-.58.372a4.993 4.993 0 0 0-1.984 3.55c-.047.482-.014.965.069 1.442.059.233.107.477.195.7l.063.17.025.083.009.022a.4.4 0 0 1 .025.05l.005.01.012.035.127.273c.138.333.425.802.673 1.166q.193.267.399.53l.441.487c.14.14.297.253.445.381l-.405.043c-1.57.174-3.288.398-5.078.889-1.775.496-3.671 1.299-5.248 2.64a10.7 10.7 0 0 0-2.063 2.268c-.067.097-.126.172-.193.286l-.214.37c-.141.25-.298.5-.39.742-.097.246-.217.479-.3.73l-.24.758a9.47 9.47 0 0 0 .429 6.067 9.5 9.5 0 0 0 1.6 2.497l.507.528.544.47.135.118c.082.066.033.023.053.042l.017.011.032.023.069.044.262.18c.21.128.468.287.69.386 1.82.868 3.916.674 5.424-.24a5.54 5.54 0 0 0 1.822-1.743 3.6 3.6 0 0 0 .497-2.415 3.5 3.5 0 0 0-.978-1.973c-.052-.066-.12-.12-.19-.178l-.09-.082-.05-.043-.048-.038-.015-.007-.024-.012-.185-.117a1 1 0 0 0-.224-.114c-.174-.073-.35-.15-.52-.169l-.248-.038c-.083-.002-.16.003-.243.005a2.2 2.2 0 0 0-.715.134c-.03.012-.058.027-.093.04q-.067.028-.135.06a2.12 2.12 0 0 0-1.217 1.753 2.114 2.114 0 0 0 1.95 2.264 2.11 2.11 0 0 0 1.945-1.002c-.014.154-.039.307-.087.46a2.3 2.3 0 0 1-.145.394l-.103.187-.106.156c-.385.493-.906.909-1.494 1.191-1.176.574-2.685.545-3.852-.153-.155-.085-.249-.162-.388-.257l-.244-.203-.063-.05-.03-.03-.013-.01.023.017-.098-.102-.387-.399-.35-.442a7 7 0 0 1-1.033-1.985 6.86 6.86 0 0 1 .074-4.394l.217-.506c.07-.17.177-.322.255-.483.083-.173.184-.292.273-.423l.13-.2c.054-.074.142-.167.205-.25a7.6 7.6 0 0 1 1.644-1.508c1.192-.846 2.615-1.308 4.08-1.583 1.473-.262 2.995-.342 4.489-.365 1.494-.031 2.96-.02 4.373-.079 1.41-.057 2.772-.191 4.025-.465.253-.055.497-.119.734-.18-1.413 1.045-2.925 2.222-4.361 3.68-1.42 1.473-2.777 3.286-3.526 5.437a12 12 0 0 0-.702 3.307c-.008.13-.022.24-.022.383v.471c.005.31.005.63.047.91.04.29.059.581.123.867l.188.85c.628 2.237 2 4.222 3.8 5.555a10.5 10.5 0 0 0 2.938 1.505l.782.222c.264.047.524.1.792.148l.2.034.062.008.006.001h.025l.044.005.093.007.354.027c.273.005.608.01.88-.02q.307-.028.599-.082c.039-.008.083-.014.122-.024q.285-.058.563-.141c.03-.01.064-.02.093-.031a6 6 0 0 0 .51-.183c.02-.01.045-.017.064-.027q.261-.11.516-.245c.033-.02.073-.04.106-.059a5 5 0 0 0 .535-.331q.219-.148.423-.314c.02-.021.049-.043.073-.063.14-.116.278-.24.404-.366l.083-.083q.194-.196.369-.406l.01-.005q.359-.446.62-.937c.483-.873.747-1.81.79-2.732 0-.134 0-.273-.01-.402l-.043-.36a4 4 0 0 0-.18-.693 4 4 0 0 0-.669-1.202 4 4 0 0 0-2.094-1.38 1.7 1.7 0 0 0-.292-.066l-.145-.026-.074-.015c-.027-.003.05.004-.072-.01h-.049l-.244-.008-.126-.002c-.044 0-.113.01-.165.017-.22.032-.451.058-.628.139-.088.036-.18.07-.266.106-.089.044-.172.098-.25.144a2.6 2.6 0 0 0-1.184 1.68l-.027.118-.013.055v.015c-.01.096 0 .034-.004.058v.024q-.008.095-.006.195v.026a2.11 2.11 0 0 0 1.766 2.18 2.115 2.115 0 0 0 2.421-1.754 2.1 2.1 0 0 0-.272-1.4c.263.187.5.416.69.69.17.252.307.538.39.84.048.15.072.305.092.464l.01.238-.006.21a4.75 4.75 0 0 1-.73 2.022c-.793 1.25-2.26 2.13-3.822 2.155-.194.005-.34-.013-.54-.02l-.355-.05-.088-.01-.043-.008-.015-.004.024.004-.155-.041c-.209-.05-.413-.103-.623-.154l-.599-.221a8.3 8.3 0 0 1-1.54-.824h-.006a7 7 0 0 1-.262-.19 6 6 0 0 1-.389-.3 7.7 7.7 0 0 1-1.761-2.166 8.656 8.656 0 0 1 1.58-10.768q.199-.179.405-.347l.174-.146q.276-.213.565-.401c.111-.078.238-.146.359-.22q.118-.072.243-.144.214-.112.434-.22c.058-.026.121-.056.18-.085.165-.073.336-.143.5-.205a8.6 8.6 0 0 1 3.054-.563c.516 0 1.017.052 1.503.138a6 6 0 0 1 1.727.487c3 1.198 4.77 4.08 5.441 7.387.491 2.449.948 6.036 1.311 10.07h.025c.364-4.034.826-7.621 1.319-10.07.666-3.307 2.437-6.19 5.437-7.387a6 6 0 0 1 1.721-.487 8.7 8.7 0 0 1 1.508-.138c1.08 0 2.101.204 3.055.563a8 8 0 0 1 .681.29c.145.073.297.144.437.22.083.048.16.096.243.145.117.073.244.14.36.219.188.126.38.258.56.4.058.049.115.098.18.147q.203.168.398.348a8.65 8.65 0 0 1 1.582 10.767 7.8 7.8 0 0 1-1.752 2.166q-.197.158-.395.3c-.087.064-.173.127-.267.19h-.006q-.722.494-1.54.824l-.599.22-.62.155-.157.04c.014-.001.018-.001.026-.003l-.01.004-.057.008-.08.01-.356.05c-.199.007-.341.025-.54.02-1.555-.025-3.034-.905-3.823-2.155a4.74 4.74 0 0 1-.725-2.023l-.013-.209.013-.238c.026-.16.05-.314.092-.465.084-.3.219-.587.39-.839.194-.274.429-.503.69-.69-.236.411-.353.9-.271 1.4a2.115 2.115 0 0 0 2.422 1.753 2.117 2.117 0 0 0 1.77-2.179v-.026c0-.066-.005-.132-.005-.195v-.024c-.006-.024.004.038-.01-.058v-.015l-.01-.055-.035-.118a2.57 2.57 0 0 0-1.175-1.68c-.082-.046-.166-.1-.248-.144-.088-.036-.186-.07-.278-.106-.172-.082-.404-.107-.623-.14a1 1 0 0 0-.16-.016l-.127.002-.248.007h-.043c-.125.015-.049.008-.078.011l-.078.015-.14.026a4.022 4.022 0 0 0-2.389 1.446 4.4 4.4 0 0 0-.67 1.202 5 5 0 0 0-.176.693l-.043.36c-.01.13-.01.268-.01.402.039.921.305 1.859.783 2.732q.268.49.63.937h-.003q.008.002.01.002c.117.144.235.277.365.409q.04.037.082.083.197.19.404.366c.03.02.059.042.077.063.142.11.277.215.423.314.014.013.036.024.053.037a5 5 0 0 0 .594.352 5 5 0 0 0 .574.273c.166.068.34.129.51.183l.094.03c.19.057.369.103.564.142q.062.014.12.024c.196.037.4.063.599.083.273.03.607.024.88.02l.36-.028.088-.007.043-.005h.025l.067-.009.199-.034c.27-.049.531-.1.793-.148q.39-.109.783-.222a10.4 10.4 0 0 0 2.934-1.505c1.804-1.333 3.176-3.319 3.802-5.555l.192-.85c.062-.286.082-.578.119-.867.045-.28.045-.6.05-.91v-.471c0-.143-.015-.252-.025-.383-.062-1.127-.32-2.248-.699-3.307-.754-2.151-2.107-3.964-3.527-5.436-1.436-1.46-2.947-2.636-4.358-3.682.239.062.477.126.725.18 1.26.274 2.621.409 4.031.466 1.407.06 2.88.048 4.373.078 1.493.024 3.016.104 4.49.366 1.463.275 2.887.737 4.085 1.583.596.416 1.168.911 1.637 1.508.07.083.152.176.206.25l.131.2c.088.13.19.25.268.423.088.16.19.314.258.482l.218.507c.5 1.385.54 2.962.073 4.394a6.9 6.9 0 0 1-1.032 1.985l-.343.442-.39.399-.087.091-.006.003-.025.03-.063.05-.242.204c-.147.094-.242.171-.39.256-1.167.699-2.68.728-3.852.154a4.2 4.2 0 0 1-1.496-1.192l-.108-.155-.103-.187a2.2 2.2 0 0 1-.145-.394 2.6 2.6 0 0 1-.088-.46 2.11 2.11 0 0 0 1.946 1.002 2.11 2.11 0 0 0 .734-4.018q-.069-.03-.137-.06c-.029-.012-.058-.027-.097-.04a2.1 2.1 0 0 0-.706-.133c-.082-.002-.164-.007-.246-.005l-.25.038c-.164.019-.343.096-.52.17a.8.8 0 0 0-.222.112l-.185.118-.026.012-.01.007-.052.037-.043.044-.098.082a1.5 1.5 0 0 0-.19.178 3.5 3.5 0 0 0-.978 1.973 3.6 3.6 0 0 0 .496 2.415 5.6 5.6 0 0 0 1.824 1.743c1.502.914 3.604 1.108 5.422.24.225-.1.482-.258.695-.387l.258-.18.07-.043.028-.023.02-.011c.019-.019-.03.024.054-.042l.135-.119.545-.47.506-.528a9.3 9.3 0 0 0 1.6-2.497c.798-1.857.964-4.031.433-6.066l-.244-.757c-.082-.252-.198-.485-.301-.731-.092-.242-.242-.493-.389-.743l-.209-.37c-.072-.113-.133-.188-.195-.285a11 11 0 0 0-2.067-2.267c-1.57-1.342-3.472-2.145-5.248-2.642-1.795-.49-3.505-.714-5.072-.888-.14-.015-.273-.03-.411-.043.147-.129.305-.24.444-.382l.444-.485q.201-.264.398-.531c.254-.364.535-.833.672-1.166l.127-.274.014-.033.004-.01c-.004.007.04-.083.02-.051l.01-.022.028-.082.065-.171c.088-.223.136-.468.193-.7.084-.477.117-.96.074-1.442a5.05 5.05 0 0 0-1.021-2.6 4.7 4.7 0 0 0-.969-.95c-.164-.14-.383-.256-.578-.372-.102-.058-.18-.089-.268-.133l-.13-.057-.098-.043-.078-.026a3.13 3.13 0 0 0-2.528.142l-.263.14c-.09.048-.157.122-.235.18a2.1 2.1 0 0 0-.427.409c-.127.155-.262.316-.317.45l-.111.21-.053.1-.006.013c0-.004-.033.064-.02.04v.009l-.013.032-.026.065c-.069.184-.094.372-.1.557-.025.16-.037.322-.025.492a2.114 2.114 0 0 0 4.217-.311 2.12 2.12 0 0 0-1.093-1.697c.197.034.391.085.572.177l.055.018.004.005.029.018.125.07c.074.05.181.1.234.148.123.1.248.179.37.305a3.542 3.542 0 0 1 1.188 2.692c-.001.332-.06.659-.142.97-.064.152-.097.308-.181.451l-.053.11-.014.045-.021.03-.155.264-.15.256c-.049.088-.098.132-.147.2-.107.127-.173.255-.3.38q-.17.183-.336.37-.18.163-.371.324a6.2 6.2 0 0 1-1.594.948c-.54.22-1.086.317-1.586.38-.157.004-.31.015-.461.018l-.074-.01-.096.002a8 8 0 0 1-1.134-.096c-.082-.013-.165-.023-.246-.04a8 8 0 0 1-.46-.104c-.094-.025-.19-.048-.28-.077a8 8 0 0 1-.403-.135q-.159-.056-.312-.12a7 7 0 0 1-.438-.199 5 5 0 0 1-.477-.255 6 6 0 0 1-.23-.14c-.102-.065-.194-.13-.291-.195-.077-.055-.15-.112-.235-.17-.095-.078-.193-.162-.295-.242-.01-.009-.013-.017-.029-.024-.078-.07-.156-.146-.238-.215l-.133-.127c-.049-.05-.086-.098-.14-.146-.014-.017-.034-.036-.05-.054a4 4 0 0 1-.185-.213c-.076-.079-.145-.16-.217-.245-.074-.102-.156-.204-.228-.31-.05-.064-.088-.122-.133-.188a7 7 0 0 1-.31-.507c-.04-.065-.07-.137-.108-.205a16 16 0 0 1-.186-.384 2 2 0 0 1-.086-.215c-.072-.165-.13-.335-.195-.507-.01-.027-.02-.063-.03-.095-.062-.204-.11-.413-.165-.626a9.406 9.406 0 0 1-.106-.68 3 3 0 0 0-.025-.198c-.014-.223-.033-.451-.033-.677 0-.242.02-.48.039-.714l.03-.227c.025-.155.038-.315.071-.467q.024-.13.055-.264c.033-.134.072-.277.111-.407a6.753 6.753 0 0 1 .223-.654q.051-.132.104-.254a6 6 0 0 1 .19-.379q.048-.113.116-.229c.073-.132.15-.265.235-.388q.056-.093.115-.183c.252-.37.539-.716.85-1.034q.081-.07.158-.144a8 8 0 0 1 .533-.466c.113-.084.224-.17.332-.25.078-.052.15-.1.228-.148q.174-.111.35-.215.122-.067.238-.129c.121-.064.254-.127.38-.185.077-.035.161-.07.232-.105.148-.06.293-.108.44-.156.065-.022.136-.053.208-.072q.323-.102.666-.173c.48-.1.983-.152 1.494-.152 1.933 0 3.477.87 5.067 1.527 0 0 2.521 1.195 3.75 1.824 4.755 2.427 13.023 6.721 16.49 7.718l.006.001c4.637 1.624 7.32.807 9.892-.006 2.715-.856 5.268-1.66 10.774.522l.826.33v-2.908c-6.283-2.445-9.537-1.426-12.412-.522-2.392.752-4.468 1.395-8.395-.034-4.311-1.597-13.998-9.827-19.558-14.746 5.496-5.27 9.221-12.375 10.187-20.334.353-2.11 1.948-4.716 3.556-6.692.259.632.54 1.246.791 1.854.583 1.008 1.042 2.037 1.687 2.89.3.436.591.863.874 1.273l.927 1.106c.568.726 1.193 1.314 1.74 1.837l.758.735q.375.296.683.542l1.298 1.026a.418.418 0 0 0 .537-.641l-1.236-1.097-.65-.58-.674-.737c-.482-.52-1.033-1.096-1.538-1.826l-.819-1.099-.758-1.255c-.563-.834-.937-1.836-1.432-2.807-.295-.863-.655-1.73-.905-2.645.35-.357.702-.715 1.042-1.083 3.57 6.34 9.625 11.16 16.953 13.013q1.951.498 4.024.697c.107.012.222.021.334.031a2.6 2.6 0 0 0 .72-5.123c-.043-.013-.097-.02-.14-.027-.162-.015-.317-.035-.477-.049a21.77 21.77 0 0 1-14.445-7.55 22 22 0 0 1-3.367-5.328c.303-.409.588-.833.88-1.25q.243.34.478.691c.777.892 1.51 1.87 2.434 2.699.852.898 1.866 1.644 2.837 2.428 1.05.681 2.065 1.408 3.176 1.936 1.062.617 2.211 1.006 3.279 1.46 1.122.311 2.172.722 3.228.877l1.518.296 1.436.138c.913.12 1.773.101 2.529.09l1.056-.008.868-.093 1.644-.178a.419.419 0 0 0-.066-.833l-1.652.084-.87.042-.996-.053c-.709-.033-1.506-.056-2.378-.223l-1.355-.208-1.42-.365c-.988-.199-1.958-.652-2.99-.998-.98-.488-2.029-.906-2.985-1.54-1.006-.548-1.908-1.283-2.84-1.962-.854-.782-1.747-1.513-2.478-2.384-.804-.801-1.416-1.74-2.077-2.582-.3-.52-.622-1.012-.918-1.502.26-.41.527-.816.777-1.234 3.613 3.984 8.398 6.908 13.855 8.186q2.225.522 4.58.666c1.739.1 3.46.036 5.143-.185.18-.002.36-.032.53-.073a2.6 2.6 0 0 0 1.902-1.93 2.61 2.61 0 0 0-1.942-3.13c-.267-.059-.535-.083-.798-.059-.102.015-.204.03-.315.044a22.4 22.4 0 0 1-4.213.156 21.77 21.77 0 0 1-15.086-7.325c-.369-.418-.718-.856-1.06-1.299.203-.439.385-.89.577-1.338.223.2.445.4.665.608.955.697 1.889 1.487 2.974 2.087 1.03.685 2.186 1.186 3.306 1.735 1.175.43 2.328.912 3.53 1.18 1.172.363 2.38.487 3.52.691 1.164.053 2.28.22 3.344.136l1.545-.051 1.431-.186c.917-.087 1.75-.298 2.486-.476l1.026-.244.826-.284 1.563-.54a.417.417 0 0 0-.25-.797l-1.592.45-.839.235-.982.17c-.699.127-1.48.281-2.368.313l-1.368.1-1.466-.039c-1.006.026-2.052-.199-3.136-.306-1.064-.258-2.18-.43-3.253-.836-1.103-.309-2.147-.825-3.207-1.278-1.006-.572-2.04-1.086-2.948-1.77-.961-.603-1.768-1.38-2.6-2.056-.41-.442-.837-.851-1.236-1.264.162-.434.335-.864.485-1.302a26.87 26.87 0 0 0 13.818 4.62 27.06 27.06 0 0 0 11.653-1.995 2.61 2.61 0 0 0 1.59-1.857 2.6 2.6 0 0 0-3.303-3.054c-.018.01-.045.015-.069.024-.125.054-.257.113-.394.163a21.8 21.8 0 0 1-9.216 1.537 21.77 21.77 0 0 1-12.577-4.744c.113-.486.201-.98.3-1.47.35.178.7.358 1.051.55 1.101.432 2.204.959 3.407 1.265 1.17.4 2.415.591 3.637.838 1.246.117 2.484.291 3.713.245 1.227.054 2.425-.133 3.581-.226 1.138-.244 2.26-.366 3.267-.717l1.481-.44 1.337-.544c.865-.317 1.617-.732 2.283-1.09q.499-.269.932-.498l.726-.484 1.375-.919a.42.42 0 0 0 .127-.56.417.417 0 0 0-.573-.148" style="fill:#231f20;fill-opacity:1;fill-rule:nonzero;stroke:none"/><path d="M358.936-326.27c.356-.125 1.769-1.16 1.769-4.02 0-2.788-1-3.233-1.77-3.233zm0 5.736h-1.107v-13.794h.838c1.25 0 3.164.5 3.164 4.038 0 3.217-2.039 4.665-2.895 4.895zM364.905-334.328v12.99h2.395v.804h-3.502v-13.794zM368.802-334.328h1.108v11.31c0 1.34.572 1.77.965 1.77s.983-.43.983-1.77v-11.31h1.107v10.972c0 2.196-1.018 2.911-2.09 2.911s-2.073-.715-2.073-2.911zM377.005-333.613c-.607 0-1.197.465-1.197 1.483 0 1.09.626 2.18 1.34 3.342 1.037 1.68 1.84 3.109 1.84 5.056 0 2.519-1.768 3.288-2.823 3.288-.625 0-1.107-.143-1.483-.393l.34-.68c.303.179.714.269 1.143.269.626 0 1.68-.554 1.68-2.466 0-1.52-.77-2.966-1.501-4.145-1.144-1.841-1.644-2.823-1.644-4.253 0-1.465.948-2.305 2.323-2.305.679 0 1.233.304 1.233.304l-.357.714a1.94 1.94 0 0 0-.894-.214M461.93-334.493h1.122v11.446c0 1.356.579 1.79.976 1.79.398 0 .994-.434.994-1.79v-11.446h1.122v11.102c0 2.225-1.03 2.947-2.116 2.947-1.085 0-2.097-.722-2.097-2.947zM468.776-334.493v13.146h2.423v.813h-3.544v-13.959zM472.97-333.68v13.147h-1.12v-13.146h-1.646v-.813h4.395v.813zM476.582-326.338c.361-.126 1.79-1.175 1.79-4.068 0-2.821-1.013-3.273-1.79-3.273zm0 .868v4.936h-1.121v-13.959h.85c1.464 0 3.2.723 3.2 4.087 0 2.712-1.428 4.068-2.097 4.538.434.525.904 1.23 1.266 2.097.47 1.14.669 2.297.669 3.237h-1.05c0-.904-.18-1.989-.505-2.803-.362-.885-.832-1.663-1.212-2.133M481.56-324.041h1.79l-.904-6.348zm1.266-10.452 2.152 13.96h-1.122l-.397-2.696h-2.025l-.38 2.695h-.958l2.151-13.959zM329.584-284.314l-1.572-1.529 6.025-6.203q1.224-1.26 2.03-1.723.808-.46 1.491-.627.684-.163 1.402-.12 2.385.143 4.48 2.18 2.137 2.073 2.35 4.439.056.723-.089 1.412-.144.689-.568 1.477-.424.79-1.708 2.11l-6.01 6.188-1.573-1.526 6.025-6.203q1.497-1.543 1.731-2.486.232-.945-.134-2.008t-1.344-2.011q-1.394-1.354-2.975-1.477a3.14 3.14 0 0 0-1.562.277q-.72.335-1.974 1.625zM310.15-310.542l-1.08-1.769 13.005-7.936.977 1.601-4.71 14.807 10.016-6.112 1.068 1.75-13.006 7.936-.919-1.507 4.75-14.934zM301.846-328.999l-.725-2.057 14.37-5.058.725 2.056zM295.012-358.08l-.315-2.15 16.074 4.151.07.49-14.183 8.717-.32-2.171 9.92-6.087zM294.358-376.835l.584-8.617 1.937.13-.436 6.442 4.636.314.421-6.225 1.947.133-.422 6.223 4.724.32.45-6.647 1.935.13-.596 8.824zM300.557-404.976l-.183.628L304.99-403l.232-.795q.466-1.591.364-2.264a2.14 2.14 0 0 0-.552-1.16 2.5 2.5 0 0 0-1.156-.695 2.33 2.33 0 0 0-1.358.001 2.04 2.04 0 0 0-1.09.802q-.426.597-.874 2.135m12.051 6.472-14.625-4.268 1.07-3.665q.646-2.219 2.127-3.203 1.48-.981 3.354-.435 1.276.373 2.022 1.283.745.911.857 2.238.666-.567 1.658-1.005.99-.436 3.323-1.074 1.47-.399 2.23-.678l1.274-.47-.728 2.492-1.149.356a3 3 0 0 0-.214.075l-.696.24-1.257.335-1.346.368q-1.09.385-1.78.77-.69.383-1.053.75-.363.368-.662 1.394l-.159.544 6.365 1.857zM317.513-428.398l-1.676.977q-1.58.916-2.705 1.058-1.124.14-2.18-.431-1.58-.858-1.973-2.491-.392-1.634.559-3.387a6.13 6.13 0 0 1 2.61-2.567l2.177 1.18q-2.178.692-3.082 2.36-.51.94-.403 1.78.108.838.785 1.207.603.325 1.368.166.766-.16 1.879-.833l1.662-.995q2.79-1.657 5.054-.43 1.61.875 2.032 2.499.423 1.623-.515 3.348-1.075 1.987-3.18 2.955l-2.433-1.321q2.809-.486 3.917-2.529.488-.9.31-1.773-.175-.87-.93-1.28-1.223-.661-3.276.507M321.272-450.144l1.361-1.704 11.906 9.507-1.363 1.704zM333.913-464.253l9.68-8.264 1.259 1.477-4.039 3.449 8.646 10.128-1.668 1.422-8.645-10.127-3.973 3.392zM367.088-476.897l-4.783-3.69.614 5.939zm-7.029-6.282 1.349-.728 13.286 10.243-1.964 1.06-3.931-3.01-5.72 3.086.467 4.877-1.973 1.064zM389.133-485.447l-1.87-.518q-1.759-.492-2.645-1.2-.885-.706-1.212-1.861-.49-1.731.407-3.152.895-1.421 2.816-1.963a6.13 6.13 0 0 1 3.66.077l.673 2.383q-2.016-1.076-3.841-.56-1.029.29-1.555.954t-.317 1.404q.186.659.836 1.096t1.907.764l1.87.496q3.137.843 3.837 3.32.498 1.762-.37 3.198-.87 1.436-2.758 1.97-2.172.615-4.334-.216l-.753-2.666q2.308 1.674 4.544 1.04.987-.278 1.487-1.013t.267-1.56q-.379-1.338-2.65-1.993M421.111-494.243q.491.008.909.2.416.193.726.513.314.324.484.75.175.428.166.92a2.33 2.33 0 0 1-1.447 2.135q-.421.18-.914.17a2.25 2.25 0 0 1-.906-.199 2.419 2.419 0 0 1-1.247-1.264 2.2 2.2 0 0 1-.174-.919q.008-.49.206-.917.197-.43.523-.74a2.36 2.36 0 0 1 1.674-.649M455.738-485.726l4.91 1.43-1.802 6.198q-3.044.387-5.703-.387-3.634-1.058-5.19-3.81t-.65-5.863q.952-3.277 3.838-4.8 2.884-1.523 6.277-.536 1.235.36 2.27.95 1.03.588 2.521 1.795l-.623 2.136q-2.174-2.28-4.752-3.03-2.397-.697-4.516.459t-2.812 3.532q-.724 2.491.459 4.55 1.184 2.061 3.771 2.813 1.257.366 3.172.299l.219-.005.885-3.047-2.817-.82zM479.79-482.049l-.571-.319-2.348 4.197.725.405q1.448.809 2.123.862a2.14 2.14 0 0 0 1.256-.279q.577-.331.935-.97.351-.628.303-1.324a2.04 2.04 0 0 0-.537-1.242q-.486-.549-1.887-1.33m-9.004 10.296 7.434-13.298 3.332 1.862q2.017 1.128 2.644 2.791.627 1.662-.326 3.366-.649 1.16-1.703 1.684-1.055.523-2.373.334.402.776.607 1.84.206 1.065.303 3.48.062 1.522.162 2.327l.172 1.345-2.266-1.266-.09-1.2a4 4 0 0 0-.023-.226l-.078-.73-.047-1.302-.055-1.394q-.134-1.149-.353-1.908t-.494-1.194q-.278-.435-1.211-.957l-.496-.277-3.235 5.787zM501.518-457.98l1.873-5.743-5.391 2.57zm3.562-8.729 1.137 1.028-5.197 15.951-1.657-1.496 1.518-4.712-4.824-4.356-4.438 2.076-1.664-1.502zM528.104-439.572l1.173 1.707-12.55 8.637-1.063-1.545 3.89-15.043-9.665 6.652-1.162-1.689 12.55-8.637 1.002 1.455-3.924 15.171zM531.72-412.144l4.27-4.273-5.969-.149zm7.128-6.17.55 1.43-11.853 11.87-.8-2.083 3.485-3.514-2.33-6.068-4.898-.158-.803-2.092zM544.732-399.242l2.086 12.555-1.914.318-.87-5.24-13.136 2.185-.359-2.162 13.135-2.184-.858-5.154zM547.531-371.666l-.289 8.632-1.94-.065.216-6.452-4.643-.156-.209 6.235-1.951-.065.209-6.235-4.73-.158-.223 6.66-1.94-.065.295-8.84zM542.184-335.397l-.52 2.006-14.75-3.813.47-1.816 13.909-6.925-11.36-2.937.514-1.985 14.75 3.813-.443 1.711-14.027 6.985zM525.688-318.366l1.65-1.02q1.556-.955 2.678-1.126 1.119-.168 2.19.376 1.6.817 2.034 2.44.435 1.623-.472 3.401a6.14 6.14 0 0 1-2.545 2.632l-2.205-1.125q2.16-.747 3.021-2.438.486-.952.357-1.788-.127-.838-.816-1.187-.609-.31-1.371-.132-.762.18-1.857.881l-1.635 1.036q-2.75 1.726-5.041.558-1.634-.832-2.096-2.446-.463-1.613.428-3.36 1.026-2.013 3.103-3.034l2.47 1.259q-2.799.556-3.852 2.626-.466.914-.268 1.78t.965 1.256q1.238.632 3.261-.589M523.395-297.775l-1.297 1.754-12.252-9.056 1.297-1.755zM502.578-287.29l1.893-.43q1.782-.402 2.896-.199 1.116.203 1.951 1.065 1.251 1.291 1.137 2.966t-1.547 3.066a6.16 6.16 0 0 1-3.26 1.667l-1.722-1.779q2.283-.009 3.646-1.329.768-.744.918-1.577.147-.832-.388-1.387-.477-.491-1.256-.568-.78-.078-2.041.233l-1.883.45q-3.162.746-4.951-1.104-1.275-1.316-1.192-2.991.086-1.676 1.494-3.043 1.62-1.571 3.918-1.864l1.928 1.989q-2.828-.378-4.494 1.238-.737.714-.828 1.599-.094.883.504 1.5.969.998 3.277.498M365.242-269.103q.431.235.713.598.28.363.407.792a2.32 2.32 0 0 1-.195 1.778 2.327 2.327 0 0 1-1.385 1.136 2.4 2.4 0 0 1-.886.091 2.2 2.2 0 0 1-.889-.272 2.2 2.2 0 0 1-.712-.597 2.41 2.41 0 0 1-.52-1.695q.035-.465.27-.897.232-.43.606-.719.374-.288.807-.412.435-.126.898-.078.465.048.886.275M390.968-265.432l2.105.567-3.964 14.71-2.107-.567zM407.818-262.06l6.736.587-.169 1.933-4.758-.415-.334 3.835q.23-.001.468.02 2.206.192 3.512 1.658 1.308 1.466 1.125 3.54-.185 2.141-1.71 3.36t-3.763 1.024q-1.846-.162-3.507-1.204l.195-2.238q1.549 1.208 3.113 1.344 1.368.12 2.366-.597 1-.717 1.101-1.88.105-1.207-.835-2.104-.938-.898-2.45-1.029-1.29-.112-1.778.063zM429.572-255.285l.13-.01q1.422-.125 2.116-.774.694-.653.598-1.772-.088-1.01-.864-1.578-.78-.567-1.95-.466-1.185.103-2.567.966l-.18-2.075a6.4 6.4 0 0 1 2.834-.912q2.096-.18 3.403.81 1.306.992 1.47 2.892.1 1.152-.298 1.978-.401.828-1.373 1.48.922.273 1.379.741.454.471.746 1.168.289.697.359 1.503.173 1.99-1.041 3.403t-3.234 1.588q-1.728.15-3.409-.548l-.205-2.369q1.81.929 3.43.787 1.095-.093 1.709-.803.611-.711.52-1.785a2.42 2.42 0 0 0-.692-1.529 2.1 2.1 0 0 0-.771-.497q-.411-.145-1.74-.193l-.198-.006zM448.457-264.796l2.107-.562 3.924 14.722-2.11.562zM476.14-268.876q.435-.233.891-.267.458-.035.885.095.43.128.79.42.357.289.59.72a2.31 2.31 0 0 1 .186 1.782 2.4 2.4 0 0 1-.41.79q-.284.362-.715.593a2.3 2.3 0 0 1-.89.267 2.4 2.4 0 0 1-1.703-.498 2.2 2.2 0 0 1-.6-.717 2.2 2.2 0 0 1-.268-.903 2.4 2.4 0 0 1 .098-.9q.135-.43.43-.793.293-.362.717-.589" style="fill:#231f20;fill-opacity:1;fill-rule:nonzero;stroke:none"/><path d="M421.502-458.214c0-2.045 2.107-3.473 3.873-3.241 2.133.284 3.676 2.26 3.14 4.372-.437 1.775-1.132 3.504-1.886 5.177-.525 1.148-3.717 1.802-4.66 1.021-.305-.247-.467-.817-.467-1.254zM430.598-459.867c1.662-.497 3.816.486 4.814 2.57.957 1.994.404 4.876-1.504 5.66-1.812.743-3.715.838-6.336.838.875-3.21 2.125-5.754 3.026-9.068M420.3-458.214c0-2.045-2.103-3.473-3.868-3.241-2.135.284-3.677 2.26-3.148 4.372.449 1.775 1.14 3.504 1.894 5.177.519 1.148 3.715 1.802 4.662 1.021.303-.247.46-.817.46-1.254zM411.234-459.867c-1.658-.497-3.843.486-4.84 2.57-.958 1.994-.41 4.876 1.507 5.66 1.81.743 3.71.838 6.332.838-.876-3.21-2.095-5.754-2.999-9.068" style="fill:#231f20;fill-opacity:1;fill-rule:evenodd;stroke:none"/><path d="M423.93-466.373h-2.125v-2.127h-1.82v2.127h-2.127v1.821h2.127v2.128h1.82v-2.128h2.125z" style="fill:#231f20;fill-opacity:1;fill-rule:nonzero;stroke:none"/><path d="M412.42-447.476a1.214 1.214 0 1 1-2.428 0 1.213 1.213 0 1 1 2.428 0" style="fill:#231f20;fill-opacity:1;fill-rule:evenodd;stroke:none"/><path d="M414.852-447.476a1.217 1.217 0 0 1-2.433 0 1.216 1.216 0 0 1 2.433 0" style="fill:#231f20;fill-opacity:1;fill-rule:evenodd;stroke:none"/><path d="M417.283-447.476a1.217 1.217 0 0 1-2.432 0 1.216 1.216 0 0 1 2.432 0M419.713-447.476a1.215 1.215 0 1 1-2.43.001 1.215 1.215 0 0 1 2.43 0" style="fill:#231f20;fill-opacity:1;fill-rule:evenodd;stroke:none"/><path d="M422.145-447.476a1.216 1.216 0 1 1-2.433 0 1.216 1.216 0 0 1 2.433 0M424.576-447.476a1.217 1.217 0 0 1-2.431 0 1.216 1.216 0 0 1 2.431 0" style="fill:#231f20;fill-opacity:1;fill-rule:evenodd;stroke:none"/><path d="M427.002-447.476c0 .671-.543 1.216-1.209 1.216a1.217 1.217 0 1 1 0-2.43c.666 0 1.209.544 1.209 1.214M429.44-447.476c0 .671-.544 1.216-1.215 1.216a1.22 1.22 0 0 1-1.223-1.216c0-.67.55-1.214 1.223-1.214.671 0 1.214.544 1.214 1.214" style="fill:#231f20;fill-opacity:1;fill-rule:evenodd;stroke:none"/><path d="M431.867-447.476a1.213 1.213 0 1 1-2.428 0 1.213 1.213 0 1 1 2.428 0" style="fill:#231f20;fill-opacity:1;fill-rule:evenodd;stroke:none"/><path d="M414.702-346.884v-3.87h-19.274a25.6 25.6 0 0 0 1.057 4.274h18.238c-.009-.135-.02-.268-.02-.404M395.206-355.023h25.017v-4.272h-25.017zM424.336-369.467v-21.347h-1.39v18.813a22 22 0 0 0 1.39 2.534M427.12-365.95v-24.863h-1.393v23.288q.66.822 1.392 1.576M429.904-363.526v-27.287h-1.39v26.178q.672.58 1.39 1.109M432.686-361.795v-29.019H431.3v28.23q.676.419 1.385.79M436.854-384.121v-6.692h-1.385v3.353zM435.469-363.98v3.375h1.385v-6.714zM439.643-377.396v-13.417h-1.393v10.06zM438.25-370.686v10.081h1.393v-13.438zM442.424-380.751v-10.063h-1.39v13.417zM441.033-374.043v13.438h1.39v-10.084zM443.82-367.321v6.716h1.389v-3.367zM445.209-387.469v-3.344h-1.389v6.694z" style="fill:#231f20;fill-opacity:1;fill-rule:nonzero;stroke:none"/><path d="M443.021-358.012h3.564M421.565-358.012h3.564" style="fill:none;stroke:#231f20;stroke-opacity:1;stroke-width:2.589;stroke-linecap:butt;stroke-linejoin:miter;stroke-miterlimit:10;stroke-dasharray:none"/><path d="M446.041-349.114h-3.02v2.609h2.291c.289-.85.528-1.723.729-2.61" style="fill:#231f20;fill-opacity:1;fill-rule:nonzero;stroke:none"/><path d="M440.299-352.548a.64.64 0 0 0-1.217.134h.068c.17 0 .313.141.313.311a.31.31 0 0 1-.176.278c.3.257.695.4.695.4a.88.88 0 0 1-.943.193c-.068.379-.37.661-.37.661s-.317-.306-.37-.705a.87.87 0 0 1-1.035-.15s.398-.142.705-.405a.3.3 0 0 1-.17-.272c0-.17.14-.311.31-.311h.05a.4.4 0 0 0-.07-.187.5.5 0 0 0-.1-.144.64.64 0 0 0-1.042.197.736.736 0 0 1 .082-.936.736.736 0 0 1 1.04 0s.054.05.128.131a2.2 2.2 0 0 1-.128-.674c0-.653.552-1.184.552-1.184s.559.531.559 1.184c0 .203-.053.441-.127.677.068-.083.123-.134.123-.134a.734.734 0 0 1 1.123.936m-4.533 0a.6.6 0 0 0-.137-.197.638.638 0 0 0-1.016.144.8.8 0 0 0-.064.187h.064c.17 0 .31.141.31.311a.32.32 0 0 1-.17.278c.298.257.69.4.69.4a.87.87 0 0 1-.943.193c-.066.379-.363.661-.363.661s-.323-.306-.375-.705a.866.866 0 0 1-1.032-.15s.395-.142.702-.405a.31.31 0 0 1-.17-.272c0-.17.14-.311.31-.311h.047a.6.6 0 0 0-.062-.187.8.8 0 0 0-.102-.144.64.64 0 0 0-.91 0 .6.6 0 0 0-.14.197.74.74 0 0 1 1.135-.936c-.001 0 .046.05.114.131a2.3 2.3 0 0 1-.12-.674c0-.653.552-1.184.552-1.184s.55.531.55 1.184c0 .203-.048.441-.12.677.072-.083.12-.134.12-.134a.737.737 0 0 1 1.13.936m-4.54 0a.6.6 0 0 0-.128-.197.64.64 0 0 0-1.086.33h.064a.32.32 0 0 1 .316.312c0 .122-.08.229-.175.278.3.257.69.4.69.4a.86.86 0 0 1-.938.193c-.078.379-.366.661-.366.661s-.322-.306-.369-.705a.88.88 0 0 1-1.04-.15s.398-.142.7-.405a.31.31 0 0 1 .145-.583h.049a.6.6 0 0 0-.176-.331.64.64 0 0 0-.908 0 .8.8 0 0 0-.133.197.74.74 0 0 1 .088-.936.744.744 0 0 1 1.047 0s.047.05.111.131a2.5 2.5 0 0 1-.117-.674c0-.653.554-1.184.554-1.184s.555.531.555 1.184c0 .203-.055.441-.127.677.069-.083.117-.134.117-.134a.74.74 0 0 1 1.045 0 .73.73 0 0 1 .082.936m11.79-1.682v-2.487h-3.58v-2.589h-3.565v2.59h-3.588v-2.59h-3.564v2.59h-3.57v1.699h1.945v5.903h1.625v2.61h3.564v-2.61h3.588v2.61h3.564v-2.61h3.58v-2.49h3.46c.038-.313.083-.623.11-.939v-1.687zM418.467-346.687a1.07 1.07 0 0 1-.494-.897c0-.176.047-.336.119-.482h-.018c-.341 0-.623.28-.623.623 0 .235.131.438.32.545l-.18.232a.753.753 0 0 0-1.387.399h.013l-.012.006.27.267.242-.246.25.246.24-.246.25.246.256-.273zM416.1-350.03h.346v.347h.375a.764.764 0 0 0 0-1.07.75.75 0 0 0-1.061 0v.002h-.006v.374h.346z" style="fill:#231f20;fill-opacity:1;fill-rule:nonzero;stroke:none"/><path d="M416.1-348.412h.35v.351h.37a.8.8 0 0 0 .194-.365l1.016-.005a1.851 1.851 0 0 0 1.736-2.6 1.8 1.8 0 0 0-.463-.639 1.36 1.36 0 0 0-.601-.365 2.5 2.5 0 0 0-.406-.05l-1.37.862.248.396v-.007c0-.126.097-.226.222-.226a.228.228 0 1 1 0 .455.2.2 0 0 1-.102-.032l.099.158h.287c.156 0 .293.044.422.108l-.004.014c-.054-.005-.107-.01-.17-.005a.962.962 0 0 0-.808 1.41h-.17a.742.742 0 0 0-1.19-.179h-.006v.377h.346z" style="fill:#231f20;fill-opacity:1;fill-rule:nonzero;stroke:none"/><path d="M420.504-348.654a.29.29 0 0 0 .137-.246c0-.163-.287-.54-.287-.54s-.293.377-.293.54c0 .109.058.2.146.248v.664a.275.275 0 0 1-.277.277.25.25 0 0 1-.184-.075 1 1 0 0 0-.088-.193v-.01h-.006a.73.73 0 0 0-.601-.33.735.735 0 0 0-.735.734c0 .22.096.41.249.546h-.004l.04.029a.2.2 0 0 0 .05.038l.56.422-.068.423a.8.8 0 0 0-.39-.109.756.756 0 0 0-.753.752v.005l.268.263.243-.244.243.244.248-.244.244.244.256-.263v-.01a.75.75 0 0 0-.073-.35l.346-.71v-.895a.57.57 0 0 0 .723-.545v-.664h.011zM424.225-351.66c.12.17.183.375.183.6 0 .944-.49.845-.533.845-.166 0-.225-.122-.234-.282-.01-.091.078-1.34.078-1.483 0-.375-.01-.769-.599-.769-.393 0-.52.24-.52.336.185 0 .39.218.408.444 0 .008.052 1.376.052 1.472-.017.16-.07.282-.242.282-.045 0-.533.099-.533-.844 0-.226.066-.431.188-.601-.268-.207-.715-.618-.89-.912v7.133l1.63-2.93-.705 3.326c.111.58.447.815.842.822.392-.007.724-.241.841-.822l-.707-3.325 1.625 2.929v-7.133c-.172.294-.617.705-.884.912M434.086-377.441v-2.618c.201.347.732.832 1.047 1.076a1.28 1.28 0 0 0-.223.714c0 1.115.578.998.637.998.193 0 .262-.146.281-.335.01-.114-.058-1.731-.058-1.74-.03-.27-.268-.522-.487-.522 0-.121.147-.406.613-.406.702 0 .706.47.706.915 0 .163-.092 1.646-.088 1.753.015.189.088.335.277.335.059 0 .643.117.643-.998 0-.266-.082-.512-.229-.714.32-.244.852-.73 1.055-1.076v8.44l-1.93-3.468.836 3.94c-.137.69-.53.964-.996.972-.463-.007-.861-.283-1.004-.972l.842-3.94-1.922 3.468zM442.428-377.441v-2.618c.199.347.734.832 1.05 1.076-.14.202-.222.448-.222.714 0 1.115.574.998.633.998.197 0 .265-.146.279-.335.012-.114-.057-1.731-.057-1.74-.025-.27-.263-.522-.48-.522 0-.121.14-.406.611-.406.7 0 .705.47.705.915 0 .163-.091 1.646-.088 1.753.012.189.088.335.278.335.058 0 .636.117.636-.998 0-.266-.076-.512-.224-.714.318-.244.848-.73 1.053-1.076v8.44l-1.926-3.468.836 3.94c-.135.69-.535.964-.998.972-.467-.007-.86-.283-.996-.972l.832-3.94-1.922 3.468zM404.73-345.126h-3.853l15.652 15.654c1.226.21 2.48.337 3.76.367v-.46zM397.13-345.126h-.046a25.78 25.78 0 0 0 14.208 14.163zM412.325-345.126h-3.852l11.816 11.819v-3.853zM404.106-386.93a.29.29 0 0 0-.292.292h-.009v.593h.594v-.593a.293.293 0 0 0-.292-.292M404.088-382.103a.294.294 0 0 0-.297-.294.29.29 0 0 0-.287.294h-.005v.593h.589zM401.456-387.671a.29.29 0 0 0-.292.292h-.005v.593h.589v-.593a.29.29 0 0 0-.292-.292M398.806-386.923a.295.295 0 0 0-.297.29v.593h.593v-.593h-.005a.29.29 0 0 0-.291-.29M399.082-382.397a.293.293 0 0 0-.291.293v.595h.588v-.595a.294.294 0 0 0-.297-.293" style="fill:#231f20;fill-opacity:1;fill-rule:nonzero;stroke:none"/><path d="M406.14-377.986h-9.4v-1.177h9.4zm-8.21-5.875h7.048l.573 4.107h-3.322v-1.583a.79.79 0 0 0-.792-.783.783.783 0 0 0-.784.783h-.01v1.583h-3.322zm-.61-1.756h.605v-2.115h.35v.35h.351v-.35h.354v.35h.351v-.35h.355v2.115h.884v-3.297h.356v.355h.35v-.355h.355v.355h.355v-.355h.35v3.297h.886v-2.12h.354v.35h.351v-.35h.355v.35h.35v-.35h.355v2.12h.564v1.177h-8.23zm-2.138 9.868h12.514v-15.077h-12.514zM409.3-362.9v-1.177h3.31a22 22 0 0 0 2.183-1.98v-.198h-.006a.783.783 0 0 0-.788-.778.776.776 0 0 0-.783.778h-.005v1.585h-3.321l.602-4.105h6.518c.132-.19.257-.384.383-.58h-7.503v-1.178h.593v-2.115h.354v.352h.356v-.352h.35v.352h.355v-.352h.35v2.115h.885v-3.296h.355v.35h.35v-.35h.356v.35h.355v-.35h.35v3.296h.884v-2.12h.356v.352h.349v-.352h.35v.352h.356v-.352h.35v2.12h.56a21.8 21.8 0 0 0 2.1-5.206H407.74v14.609a22 22 0 0 0 3.26-1.77h-1.698z" style="fill:#231f20;fill-opacity:1;fill-rule:nonzero;stroke:none"/><path d="M413.722-372.296v.593h.589v-.593a.294.294 0 0 0-.297-.292c-.16 0-.292.131-.292.292M416.664-371.844c-.16 0-.29.131-.29.292v.594h.587v-.594h-.006a.29.29 0 0 0-.291-.292M411.075-371.547h-.004v.593h.593v-.593a.296.296 0 0 0-.296-.292.29.29 0 0 0-.293.292M411.354-367.02v.595h.587v-.595a.29.29 0 0 0-.295-.292.29.29 0 0 0-.292.292M420.158-366.313c0-1.002.744-1.814.744-1.814s.744.812.744 1.814c0 .997-.744 1.809-.744 1.809s-.744-.812-.744-1.81m2.797 3.088c-.656 0-1.24.29-1.615.54a3.6 3.6 0 0 0 .03-.85c-.02.004-.034.01-.05.01a2.826 2.826 0 0 0 .633-5.423v-1.149l-.51.512-.515-.512-.565.512-.525-.525v1.167a2.85 2.85 0 0 0-1.76 2.623 2.83 2.83 0 0 0 2.377 2.79v.013c.03.268.023.543-.026.81-.373-.24-.94-.518-1.582-.518-1.134 0-2.052.867-2.052.867s.918.865 2.052.865c.481 0 .913-.157 1.262-.336-.127.215-.275.42-.46.607a.457.457 0 0 0 0 .643.45.45 0 0 0 .32.128.45.45 0 0 0 .32-.128c.443-.447.75-.973.926-1.537.36.259 1 .623 1.74.623 1.133 0 2.053-.865 2.053-.865s-.92-.867-2.053-.867M402.113-364.621a1.72 1.72 0 0 1-.794-1.447c0-.28.073-.537.19-.77-.01 0-.019-.006-.024-.006-.559 0-1.002.452-1.002 1.007 0 .374.2.695.511.87l-.292.378a1.206 1.206 0 0 0-2.223.645h.006l-.005.006.428.426.393-.392.39.392.388-.392.404.392.414-.436zM398.032-370.715a1.215 1.215 0 0 0-1.707 0l.005.007h-.01v.606h.56v.555h.553v.559h.604a1.23 1.23 0 0 0-.005-1.727" style="fill:#231f20;fill-opacity:1;fill-rule:nonzero;stroke:none"/><path d="M406.728-369.475a.91.91 0 0 0-.905-.851.91.91 0 0 0-.908.905h-.005v2.71c0 .242-.2.441-.444.441a.46.46 0 0 1-.302-.122 1.2 1.2 0 0 0-.136-.306v-.012l-.013-.002a1.16 1.16 0 0 0-.975-.531c-.65 0-1.17.525-1.17 1.175 0 .348.15.659.394.873l-.005.005.069.047q.033.03.077.06l.899.686-.111.68a1.2 1.2 0 0 0-.627-.18 1.21 1.21 0 0 0-1.207 1.209h.01l-.01.005.429.424.388-.387.398.39.394-.39.395.39.423-.427v-.016a1.2 1.2 0 0 0-.161-.566l.589-1.132v-1.446a.9.9 0 0 0 .253.04c.5 0 .914-.408.914-.91v-2.704c0-.241.2-.441.442-.441.224 0 .405.174.434.393a.47.47 0 0 0-.223.393c0 .259.465.867.465.867s.472-.608.472-.867a.47.47 0 0 0-.243-.403M402.395-373.73l-.409-.417-.384.382-.374-.384-.386.379-.379-.38-.413.41.413.418.38-.38.38.38.379-.38.384.385zM403.256-371.25a2.9 2.9 0 0 0-.744-1.02 2.2 2.2 0 0 0-.978-.59 3.2 3.2 0 0 0-.652-.082l-2.198 1.385.393.638v-.007c0-.206.16-.368.366-.368.205 0 .365.162.365.368a.362.362 0 0 1-.54.313l.16.257h.467c.249 0 .476.065.68.171l-.008.024c-.083-.01-.181-.017-.273-.01a1.55 1.55 0 0 0-1.3 2.271h-.825a1.4 1.4 0 0 0-.215-.299 1.206 1.206 0 0 0-1.707 0l.005.008h-.01v.602h.56v.559h.555v.555h.602c.166-.158.259-.379.317-.583h2.077c.403 0 .957-.083 1.37-.263a2.98 2.98 0 0 0 1.533-3.93M435.469-338.771s-.396-.511-.396-.73c0-.142.08-.257.19-.327-.024-.185-.173-.336-.359-.336a.374.374 0 0 0-.373.375v2.265c0 .42-.347.766-.77.766a.7.7 0 0 1-.208-.035v1.211l-.463.955c.078.14.094.3.094.47l.008.014-.354.362-.33-.331-.332.33-.33-.33-.326.33-.36-.36.004-.005h-.004c0-.56.457-1.012 1.01-1.012.197 0 .375.054.527.15l.096-.573-.758-.573c-.025-.015-.039-.033-.062-.049l-.059-.044h.004a.98.98 0 0 1 .652-1.717c.34 0 .637.175.811.44h.01v.014q.081.118.123.257a.35.35 0 0 0 .248.102.374.374 0 0 0 .375-.372v-2.271h.004a.76.76 0 0 1 1.517-.041c.118.066.21.189.21.336 0 .218-.399.729-.399.729m-5.049 3.934-.33-.33-.332.33-.324-.33-.336.33-.355-.357.006-.008h-.006c0-.554.453-1.011 1.011-1.011.356 0 .676.19.852.472l.246-.317a.83.83 0 0 1-.432-.73c0-.464.375-.843.842-.843.01 0 .02.003.02.003a1.436 1.436 0 0 0 .506 1.86l-1.016.566zm-2.109-2.485h-.508v-.468h-.465v-.466h-.466v-.511a1.017 1.017 0 0 1 1.433 0c.073.076.127.16.176.247h.695a1.3 1.3 0 0 1-.152-.544 1.3 1.3 0 0 1 1.47-1.35l.01-.021a1.26 1.26 0 0 0-.57-.142h-.398l-.13-.213q.065.038.146.039c.17 0 .304-.137.304-.307a.303.303 0 0 0-.304-.306.306.306 0 0 0-.309.306v.01l-.33-.536 1.844-1.161q.287.01.548.067c.317.089.6.268.823.497.258.23.472.515.619.854a2.494 2.494 0 0 1-1.285 3.295c-.347.15-.813.219-1.143.219h-1.75a1.1 1.1 0 0 1-.258.49m-1.377-3.55h.01l-.006-.004a1.015 1.015 0 0 1 1.432 0 1.04 1.04 0 0 1 .004 1.446h-.502v-.464h-.467v-.473h-.47zm3.477-2.886.316.32.32-.318.317.32.322-.32.344.347-.35.349-.316-.321-.32.319-.317-.323-.316.32-.352-.348zm-3.572-1.366a6.21 6.21 0 0 1-5.264 4.403v11.617c10.49-.272 19.4-6.816 23.14-16.02zM415.724-379.705a1.72 1.72 0 0 1-.792-1.447c0-.277.072-.54.189-.77-.003 0-.015-.003-.023-.003-.556 0-1.004.45-1.004 1.005 0 .375.205.697.512.87l-.292.377a1.2 1.2 0 0 0-1.018-.565 1.21 1.21 0 0 0-1.205 1.21h.005l-.005.006.428.425.393-.391.395.394.389-.394.398.394.415-.438zM411.648-385.796a1.213 1.213 0 0 0-1.712 0l.01.004h-.015v.604h.56v.559h.558v.557h.603a1.233 1.233 0 0 0-.004-1.724" style="fill:#231f20;fill-opacity:1;fill-rule:nonzero;stroke:none"/><path d="M420.339-384.557a.91.91 0 0 0-.906-.854c-.5 0-.908.404-.908.903h-.004v2.71c0 .241-.2.442-.442.442a.43.43 0 0 1-.297-.122 1.2 1.2 0 0 0-.146-.307v-.014h-.01a1.16 1.16 0 0 0-.97-.529 1.172 1.172 0 0 0-.777 2.051h-.01l.073.053c.025.02.044.04.078.056l.894.685-.11.682c-.18-.11-.393-.18-.621-.18-.669 0-1.207.54-1.207 1.21v.004l.421.429.396-.394.393.394.394-.394.394.394.428-.429v-.015c0-.207-.029-.399-.127-.567l.554-1.134v-1.446c.077.024.161.04.25.04.503 0 .911-.41.911-.91v-2.7c0-.243.2-.447.443-.447.223 0 .403.179.432.4a.46.46 0 0 0-.222.387c0 .26.47.873.47.873s.467-.613.467-.873a.46.46 0 0 0-.242-.397M416.01-388.816l-.407-.414-.39.378-.374-.381-.385.38-.374-.382-.42.414.414.413.38-.38.38.383.38-.384.385.386zM416.872-386.334a2.95 2.95 0 0 0-.748-1.02 2.13 2.13 0 0 0-.974-.587 3.3 3.3 0 0 0-.656-.088l-2.2 1.386.394.64v-.007c0-.205.161-.37.371-.37.2 0 .36.165.36.37 0 .199-.16.364-.36.364a.35.35 0 0 1-.18-.051l.16.258h.467c.253 0 .476.066.68.17l-.009.024a1.553 1.553 0 0 0-1.751 1.61c.014.236.078.455.18.649h-.827a1.4 1.4 0 0 0-.214-.296 1.2 1.2 0 0 0-1.703 0v.007h-.004v.6h.555v.56h.56v.556h.602c.16-.16.258-.38.311-.587h2.082c.4 0 .954-.08 1.367-.258a2.986 2.986 0 0 0 1.537-3.93M252.402-197.527c-3.517.305-4.969.994-5.198 3.515-.229 1.76-.382 4.204-.382 9.325v4.204c0 5.351-1.07 10.242-4.203 13.376-2.598 2.598-6.42 4.05-10.548 4.05-3.669 0-7.108-.763-9.859-2.828-3.21-2.445-4.969-6.42-4.969-12.84v-12.61c0-5.352-.458-5.657-5.35-6.192v-2.14h17.426v2.14c-4.814.535-5.197.84-5.197 6.191v10.853c0 8.866 3.44 13.452 9.783 13.452 6.65 0 9.86-5.044 9.86-13.988v-3.591c0-5.35-.153-7.643-.383-9.402-.305-2.521-1.604-3.21-5.96-3.515v-2.14h14.98zM297.342-197.451c-3.592.23-5.044.842-5.273 3.21-.23 2.063-.46 4.587-.46 9.86v20.713h-2.828l-23.082-27.592h-.076v11.847c0 5.35.23 8.025.458 9.86.306 2.37 1.759 3.057 5.962 3.363v2.14h-15.056v-2.14c3.515-.306 4.89-.994 5.197-3.364.229-1.834.535-4.508.535-9.86v-10.24c0-6.345-1.3-7.49-6.573-7.797v-2.217h11.006l21.4 24.535h.153v-9.248c0-5.273-.23-7.797-.46-9.707-.227-2.521-1.527-3.134-5.883-3.363v-2.217h14.98zM302.231-164.05v-2.14c4.815-.46 5.352-.764 5.352-6.19v-18.88c0-5.503-.537-5.81-5.352-6.19v-2.217h17.58v2.217c-4.892.38-5.35.687-5.35 6.19v18.88c0 5.426.381 5.73 5.35 6.19v2.14zM365.133-197.451c-4.127.611-4.968 1.223-7.337 6.038-2.293 4.586-7.338 16.738-11.847 28.127h-2.522c-3.975-9.936-9.096-22.089-12.152-29.35-1.682-3.973-2.905-4.432-6.268-4.815v-2.217h16.814v2.217l-2.063.383c-2.063.381-2.37.917-1.376 3.438 1.452 3.9 5.274 12.994 8.56 21.096 2.599-6.268 6.803-16.968 7.95-20.713.993-2.904.687-3.516-2.064-3.975l-1.681-.23v-2.216h13.986zM401.97-173.604c-.458 2.369-1.604 8.025-2.062 9.554h-30.04v-2.14c5.352-.46 5.734-.917 5.734-6.344v-18.726c0-5.503-.382-5.885-5.197-6.191v-2.216h28.05c.077 1.528.306 5.273.612 8.866l-2.141.153c-.687-2.37-1.3-3.593-2.14-4.586-.995-1.3-2.293-1.835-6.267-1.835h-3.821c-2.064 0-2.218.153-2.218 2.217v10.853h5.35c4.586 0 4.969-.459 5.657-4.204h2.216v11.618h-2.216c-.688-3.822-1.07-4.433-5.656-4.433h-5.35v8.637c0 2.98.382 4.433 1.3 4.968.993.611 2.75.84 5.884.84 3.745 0 5.657-.458 7.033-1.987.993-.993 1.986-2.675 2.98-5.35zM422.758-181.782c2.14 0 3.974-.306 5.504-1.299 1.986-1.223 2.98-3.593 2.98-6.344 0-5.58-3.745-7.797-7.949-7.797-3.056 0-3.439.689-3.439 2.906v12.534zm21.63 18.19h-1.91c-6.65 0-9.019-1.758-11.236-4.968-1.758-2.445-3.745-5.961-4.968-8.025-1.3-2.217-2.063-2.75-4.891-2.75h-1.529v7.031c0 5.273.459 5.655 5.425 6.114v2.14h-17.578v-2.14c4.969-.383 5.427-.764 5.427-6.114v-19.108c0-5.503-.458-5.734-5.197-6.038v-2.217h17.579c3.974 0 6.803.459 9.172 1.911 2.293 1.299 3.897 3.82 3.897 7.26 0 4.969-3.516 7.797-7.337 9.172.917 1.681 3.363 5.58 5.121 8.101 1.91 2.753 2.905 4.052 4.28 5.428 1.223 1.299 2.675 1.91 4.051 2.37zM469.379-189.73c-1.528-4.664-3.898-8.409-8.407-8.409-3.516 0-5.657 2.599-5.657 5.503 0 3.899 2.982 5.35 6.497 6.803l1.529.687c5.35 2.14 10.013 4.816 10.013 10.93 0 6.573-5.733 11.16-13.605 11.16-5.045 0-8.714-1.912-10.089-2.675-.459-1.376-1.3-5.809-1.835-9.707l2.217-.536c1.376 4.434 4.892 10.395 10.7 10.395 3.67 0 6.114-2.523 6.192-5.961 0-3.898-2.906-5.58-6.116-6.955l-1.91-.842c-4.204-1.834-9.63-4.662-9.63-10.47 0-6.422 4.89-10.853 12.993-10.853 3.592 0 6.573 1.07 8.025 1.527.459 2.293.765 5.045 1.3 9.02zM479.313-164.05v-2.14c4.816-.46 5.351-.764 5.351-6.19v-18.88c0-5.503-.535-5.81-5.35-6.19v-2.217h17.579v2.217c-4.891.38-5.35.687-5.35 6.19v18.88c0 5.426.382 5.73 5.35 6.19v2.14zM515.54-172.61c0 4.738 1.224 5.962 5.35 5.962 8.637 0 13.453-5.962 13.453-15.364 0-11.006-5.962-15.133-14.064-15.133-2.14 0-3.593.382-4.051.917-.46.46-.688 1.529-.688 3.516zm5.731-27.058c6.575 0 12.307 1.3 16.206 4.893 2.75 2.445 4.738 6.649 4.738 11.693 0 13.07-10.624 19.032-23.312 19.032h-15.745v-2.14c4.969-.383 5.503-.841 5.503-6.192v-18.878c0-5.58-.458-5.885-5.044-6.191v-2.217zM563.155-191.795h-.153l-5.044 13.223h10.165zm5.12 27.745v-2.14l1.453-.23c2.216-.306 2.675-.917 1.681-3.592l-2.14-5.503h-12.381a59 59 0 0 0-1.835 5.274c-.84 2.828-.076 3.44 2.14 3.745l1.834.306v2.14h-13.986v-2.14c3.516-.458 4.969-.917 7.185-6.344l11.463-27.592 2.676-.611 12 29.426c1.68 4.28 3.133 4.815 6.65 5.12v2.141zM601.597-172.61c0 4.738 1.223 5.962 5.35 5.962 8.637 0 13.452-5.962 13.452-15.364 0-11.006-5.962-15.133-14.063-15.133-2.14 0-3.594.382-4.05.917-.46.46-.69 1.529-.69 3.516zm5.732-27.058c6.573 0 12.306 1.3 16.204 4.893 2.75 2.445 4.738 6.649 4.738 11.693 0 13.07-10.624 19.032-23.311 19.032h-15.745v-2.14c4.969-.383 5.503-.841 5.503-6.192v-18.878c0-5.58-.458-5.885-5.044-6.191v-2.217zM224.657-110.61c0 4.738 1.223 5.962 5.351 5.962 8.636 0 13.451-5.962 13.451-15.364 0-11.006-5.961-15.133-14.063-15.133-2.14 0-3.593.382-4.05.917-.46.46-.689 1.529-.689 3.516zm5.732-27.058c6.574 0 12.306 1.3 16.204 4.893 2.751 2.445 4.739 6.649 4.739 11.693 0 13.07-10.624 19.032-23.312 19.032h-15.745v-2.14c4.968-.383 5.503-.841 5.503-6.192v-18.878c0-5.58-.458-5.885-5.044-6.191v-2.217zM287.177-111.604c-.46 2.37-1.605 8.025-2.063 9.554h-30.04v-2.14c5.352-.46 5.734-.917 5.734-6.344v-18.726c0-5.503-.382-5.885-5.197-6.191v-2.216h28.05c.077 1.528.306 5.273.612 8.866l-2.141.153c-.687-2.37-1.299-3.593-2.14-4.586-.994-1.3-2.293-1.835-6.267-1.835h-3.821c-2.064 0-2.217.153-2.217 2.217v10.853h5.35c4.586 0 4.968-.459 5.656-4.204h2.216v11.618h-2.216c-.688-3.822-1.07-4.433-5.656-4.433h-5.35v8.637c0 2.98.382 4.433 1.3 4.968.993.611 2.75.84 5.884.84 3.745 0 5.657-.458 7.033-1.987.993-.993 1.986-2.674 2.98-5.35zM344.65-119.98c-3.906.71-4.172.977-4.172 5.326v5.414c0 2.22.177 4.35.531 5.681-4.259 1.065-10.117 2.662-15 2.662-14.822 0-24.94-8.432-24.94-21.302 0-14.823 12.514-22.19 25.65-22.19 5.593 0 10.653 1.331 12.87 1.864.267 2.13.535 5.858 1.155 11.273l-2.486.266c-1.597-7.723-6.479-10.563-13.225-10.563-8.52 0-15.533 6.657-15.533 18.196 0 9.675 5.326 19.616 16.953 19.616 3.018 0 6.836-.8 6.836-4.349v-6.39c0-4.261-.446-4.794-7.546-5.504v-2.396h18.906zM366.126-122.554c2.485 0 4.615-.355 6.479-1.42 2.308-1.42 3.462-4.35 3.462-7.456 0-6.48-4.35-9.053-9.498-9.053-3.727 0-4.083.798-4.083 3.462v14.467zm24.675 21.036h-2.041c-7.1 0-9.942-1.953-12.604-5.77-2.042-2.84-4.438-7.012-5.68-9.23-1.6-2.663-2.575-3.285-5.948-3.285h-2.042v8.255c0 6.124.534 6.657 6.391 7.102v2.395h-19.793v-2.395c5.858-.445 6.391-.889 6.391-7.102v-22.1c0-6.48-.533-6.747-6.124-7.19v-2.396h19.615c4.438 0 7.723.53 10.386 2.218 2.573 1.508 4.526 4.438 4.526 8.432 0 5.77-4.172 9.054-8.433 10.651.977 1.776 3.818 6.391 5.86 9.23 2.217 3.196 3.372 4.617 4.881 6.215 1.508 1.597 3.284 2.396 4.88 2.93zM413.61-134.536h-.177l-5.858 15.532h11.893zm6.124 32.485v-2.395l1.599-.179c2.662-.354 3.194-1.064 2.041-4.26l-2.575-6.657h-14.466c-.71 1.775-1.42 3.905-2.13 6.303-1.067 3.46-.179 4.17 2.396 4.526l2.13.267v2.395h-16.065v-2.395c4.083-.445 5.769-1.066 8.431-7.545l13.048-31.865 2.752-.622 13.668 33.996c2.042 5.237 3.728 5.77 7.723 6.036v2.395zM488.254-140.839c-4.26.356-5.858 1.066-6.125 3.905-.266 2.309-.532 5.238-.532 11.363v23.965h-2.929l-26.717-32.22-.089.089v13.934c0 6.125.177 9.41.532 11.45.267 2.752 1.954 3.551 6.835 3.907v2.395h-17.308v-2.395c4.083-.356 5.68-1.155 6.036-3.818.266-2.13.532-5.414.532-11.539v-11.893c0-7.367-1.42-8.7-7.545-9.143v-2.395h12.072l25.119 29.024h.177v-11.361c0-6.125-.177-9.054-.443-11.274-.355-2.928-1.775-3.638-6.835-3.994v-2.395h17.22zM509.731-134.536h-.176l-5.859 15.532h11.894zm6.125 32.485v-2.395l1.598-.179c2.663-.354 3.195-1.064 2.041-4.26l-2.573-6.657h-14.469c-.71 1.775-1.42 3.905-2.13 6.303-1.065 3.46-.177 4.17 2.397 4.526l2.13.267v2.395h-16.066v-2.395c4.083-.445 5.77-1.066 8.433-7.545l13.048-31.865 2.75-.622 13.67 33.996c2.042 5.237 3.728 5.77 7.722 6.036v2.395zM551.889-111.991c0 5.68 1.508 7.012 6.478 7.012 10.564 0 16.067-7.012 16.067-17.841 0-12.96-7.101-17.575-16.865-17.575-2.574 0-4.26.444-4.881 1.065-.446.621-.8 1.776-.8 4.173zm6.746-31.243c7.633 0 14.2 1.508 18.64 5.591 3.195 2.928 5.502 7.722 5.502 13.58 0 15.178-12.249 22.012-26.716 22.012H538.22v-2.395c5.858-.445 6.48-.978 6.48-7.279v-21.747c0-6.568-.534-6.923-5.948-7.367v-2.395zM605.32-134.536h-.176l-5.859 15.532h11.894zm6.125 32.485v-2.395l1.598-.179c2.663-.354 3.195-1.064 2.041-4.26l-2.573-6.657h-14.469c-.71 1.775-1.42 3.905-2.13 6.303-1.065 3.46-.178 4.17 2.397 4.526l2.13.267v2.395h-16.066v-2.395c4.083-.445 5.77-1.066 8.433-7.545l13.048-31.865 2.75-.622 13.67 33.996c2.041 5.237 3.728 5.77 7.722 6.036v2.395z" style="fill:#231f20;fill-opacity:1;fill-rule:nonzero;stroke:none"/></g></svg>