<svg xmlns="http://www.w3.org/2000/svg" id="UPM" viewBox="0 0 342.592 184.252"><defs><style>.cls-1{fill:#fff}</style></defs><path d="m171.066 26.762-.06 130.536h1.393l-.005-130.536zM313.621 69.135c0 1.875-.019 3.349-.728 4.133-.574.632-1.34.919-2.316.919h-2.507v-9.913h2.507c.976 0 1.742.287 2.316.919.708.785.728 2.067.728 3.942m2.063 0c0-1.971.096-3.961-1.376-5.434-.86-.86-2.104-1.28-3.52-1.28h-4.782v13.62h4.782c1.416 0 2.66-.42 3.52-1.28 1.471-1.472 1.376-3.654 1.376-5.625m-16.088 2.411h-4.19l2.124-6.046zm3.711 4.494-4.993-13.62h-1.665l-4.993 13.62h2.2l.937-2.736h5.376l.937 2.736h2.2Zm-15.725-6.906c0 1.875-.019 3.349-.727 4.133-.574.632-1.34.919-2.316.919h-2.507v-9.913h2.507c.976 0 1.742.287 2.316.919.708.785.727 2.067.727 3.942m2.064 0c0-1.971.096-3.961-1.376-5.434-.86-.86-2.105-1.28-3.521-1.28h-4.781v13.62h4.781c1.416 0 2.661-.42 3.521-1.28 1.472-1.472 1.376-3.654 1.376-5.625m-14.004-6.715h-2.064V76.04h2.064zm-5.606 9.738c0-1.167-.363-2.143-1.108-2.793-.573-.517-1.281-.823-2.544-1.015l-1.55-.229c-.631-.096-1.186-.325-1.531-.632-.364-.325-.517-.765-.517-1.263 0-1.206.88-2.124 2.489-2.124 1.149 0 2.124.249 2.966 1.052l1.319-1.301c-1.166-1.089-2.428-1.548-4.227-1.548-2.833 0-4.552 1.624-4.552 3.997 0 1.11.325 1.971.994 2.603.592.555 1.472.938 2.582 1.091l1.608.23c.804.115 1.149.248 1.493.574.364.325.536.822.536 1.416 0 1.32-1.033 2.086-2.814 2.086-1.397 0-2.488-.306-3.482-1.301l-1.376 1.359c1.3 1.318 2.772 1.796 4.82 1.796 2.852 0 4.897-1.49 4.897-3.997m-14.368-5.741c0 1.34-.938 2.124-2.316 2.124h-3.063v-4.269h3.063c1.378 0 2.316.804 2.316 2.144m2.485 9.623-3.136-6.026c1.53-.421 2.715-1.663 2.715-3.615 0-2.316-1.643-3.978-4.227-3.978h-5.28v13.62h2.064v-5.739h2.584l2.871 5.739h2.409Zm-13.526 0v-1.853h-6.639v-4.097h5.663v-1.835h-5.663v-3.982h6.639v-1.853h-8.703v13.62zm-11.344-13.62h-2.181l-3.138 9.909-3.138-9.909h-2.143l4.477 13.62h1.607l4.515-13.62Zm-13.24 0h-2.064V76.04h2.064zm-6.39 13.62v-13.62h-2.063v9.564l-6.297-9.564h-1.892v13.62h2.064v-9.583l6.297 9.583h1.892Zm-14.368-4.59v-9.03h-2.064v8.935c0 1.818-1.129 2.946-2.833 2.946s-2.813-1.129-2.813-2.946v-8.935h-2.064v9.03c0 2.812 2.102 4.704 4.877 4.704s4.897-1.892 4.897-4.704M310.003 94.759h-4.19l2.124-6.045zm3.712 4.494-4.993-13.62h-1.665l-4.993 13.62h2.2l.937-2.736h5.376l.937 2.736h2.2ZM300.36 95.18h-2.085c-.325 1.378-1.262 2.335-2.774 2.335-.804 0-1.531-.306-2.009-.823-.669-.727-.822-1.512-.822-4.248s.153-3.521.822-4.249c.478-.516 1.205-.823 2.009-.823 1.512 0 2.43.957 2.755 2.335h2.104c-.478-2.716-2.353-4.188-4.859-4.188-1.416 0-2.64.516-3.577 1.452-1.338 1.339-1.319 2.851-1.319 5.473s-.019 4.133 1.319 5.472c.937.936 2.161 1.452 3.577 1.452 2.468 0 4.4-1.472 4.859-4.188m-13.584-9.547h-2.064v13.619h2.064zm-6.389 13.62v-13.62h-2.064v9.564l-6.296-9.564h-1.892v13.62h2.063V89.67l6.297 9.583zm-13.775-4.073h-2.085c-.325 1.378-1.263 2.335-2.774 2.335-.804 0-1.531-.306-2.009-.823-.67-.727-.823-1.512-.823-4.248s.153-3.521.823-4.249c.478-.516 1.205-.823 2.009-.823 1.511 0 2.429.957 2.755 2.335h2.105c-.478-2.716-2.353-4.188-4.859-4.188-1.416 0-2.64.516-3.577 1.452-1.337 1.339-1.319 2.851-1.319 5.473s-.019 4.133 1.319 5.472c.937.936 2.161 1.452 3.577 1.452 2.468 0 4.4-1.472 4.859-4.188m-14.788-13.966h-2.162l-1.435 3.097h1.473zm1.931 18.039V97.4h-6.639v-4.097h5.663v-1.835h-5.663v-3.982h6.639v-1.853h-8.703v13.62zm-11.823-11.766v-1.853h-9.564v1.853h3.75v11.766h2.064V87.487zm-12.685-1.854h-2.064v13.619h2.064zm-5.184 13.62V97.4h-6.562V85.634h-2.064v13.62h8.626Zm-14.519-6.809c0 2.736-.134 3.502-.804 4.229-.478.517-1.225.842-2.029.842s-1.55-.325-2.029-.842c-.67-.727-.804-1.492-.804-4.229s.134-3.502.804-4.229c.479-.517 1.225-.842 2.029-.842s1.55.325 2.029.842c.67.727.804 1.492.804 4.229m2.064 0c0-2.622.038-4.134-1.299-5.473-.937-.936-2.142-1.452-3.597-1.452s-2.641.516-3.578 1.452c-1.338 1.339-1.319 2.851-1.319 5.473s-.019 4.133 1.319 5.472c.937.936 2.124 1.452 3.578 1.452s2.66-.516 3.597-1.452c1.337-1.339 1.299-2.851 1.299-5.472m-14.633-2.679c0 1.436-.976 2.259-2.412 2.259h-2.986v-4.537h2.986c1.436 0 2.412.842 2.412 2.278m2.064 0c0-2.373-1.701-4.131-4.361-4.131h-5.164v13.62h2.063v-5.357h3.101c2.66 0 4.361-1.758 4.361-4.131M290.529 115.94c0 1.875-.019 3.349-.728 4.133-.574.632-1.34.919-2.316.919h-2.507v-9.913h2.507c.976 0 1.742.287 2.316.919.708.785.728 2.067.728 3.942m2.063 0c0-1.971.096-3.961-1.376-5.434-.86-.86-2.104-1.28-3.521-1.28h-4.781v13.62h4.781c1.417 0 2.661-.42 3.521-1.28 1.471-1.472 1.376-3.654 1.376-5.625m-14.004-6.716h-2.064v13.619h2.064zm-7.918 3.998c0 1.34-.938 2.124-2.316 2.124h-3.063v-4.269h3.063c1.378 0 2.316.804 2.316 2.144m2.485 9.623-3.136-6.026c1.53-.421 2.715-1.663 2.715-3.615 0-2.316-1.643-3.978-4.226-3.978h-5.28v13.62h2.063v-5.739h2.584l2.871 5.739h2.408Zm-15.819-6.905c0 1.875-.019 3.349-.728 4.133-.574.632-1.34.919-2.316.919h-2.507v-9.913h2.507c.976 0 1.742.287 2.316.919.708.785.728 2.067.728 3.942m2.064 0c0-1.971.095-3.961-1.376-5.434-.86-.86-2.104-1.28-3.52-1.28h-4.782v13.62h4.782c1.416 0 2.66-.42 3.52-1.28 1.471-1.472 1.376-3.654 1.376-5.625m-16.089 2.411h-4.19l2.124-6.046zm3.712 4.493-4.993-13.62h-1.665l-4.993 13.62h2.2l.937-2.736h5.376l.937 2.736zm-14.331 0v-13.62h-2.064l-3.904 8.474-3.981-8.474h-2.063v13.62h2.063v-9.105l3.215 6.637h1.531l3.139-6.637v9.105zm-20.968 0v-1.853h-6.639v-4.097h5.663v-1.835h-5.663v-3.982h6.639v-1.853h-8.703v13.62zm-14.595-6.905c0 1.875-.019 3.349-.727 4.133-.575.632-1.34.919-2.316.919h-2.507v-9.913h2.507c.976 0 1.742.287 2.316.919.708.785.727 2.067.727 3.942m2.064 0c0-1.971.096-3.961-1.376-5.434-.861-.86-2.105-1.28-3.521-1.28h-4.781v13.62h4.781c1.416 0 2.66-.42 3.521-1.28 1.472-1.472 1.376-3.654 1.376-5.625M139.917 145.059h3.377l-1.668-3.993zM51.29 138.74c-2.835 0-5.144 2.325-5.144 5.193s2.309 5.201 5.144 5.201 5.144-2.334 5.144-5.201-2.301-5.193-5.144-5.193m-13.838.23h-.156v4.01h.6c1.857 0 2.687-.633 2.687-2.038 0-1.668-1.052-1.972-3.131-1.972m116.105 17.48c-1.745.389-35.325.611-39.227.874-2.349.158-66.233-.5-66.233-.5l-21.085-.305s-.337-24.531-.314-25.21c.043-1.243 20.35-.61 25.368-.61 5.088 0 49.869.234 49.869.234l30.749.519 19.978.583c.033.653 1.524 24.273.895 24.414Zm-69.404-20.866a.4.4 0 0 0 .178.273l.643.415c.15.097.345.083.479-.035l2.286-2.004a.4.4 0 0 0-.113-.67l-1.23-.495a.4.4 0 0 0-.457.117l-1.699 2.084a.4.4 0 0 0-.085.314Zm-41.261 5.391c0-1.397-.641-2.67-1.701-3.41-1.052-.731-2.292-.789-3.583-.789h-2.219a.397.397 0 0 0-.403.394v13.525c0 .222.181.394.403.394h1.504a.397.397 0 0 0 .403-.394v-5.522h.69c1.06 0 2.408-.115 3.468-.986.896-.748 1.438-1.947 1.438-3.213Zm15.85 2.974c0-4.084-3.344-7.412-7.453-7.412s-7.444 3.328-7.444 7.412 3.344 7.379 7.444 7.379 7.453-3.311 7.453-7.379m7.355 5.346a.4.4 0 0 0-.399-.399h-3.332v-11.725a.4.4 0 0 0-.398-.399h-1.507a.4.4 0 0 0-.399.399v13.522c0 .22.178.399.399.399h5.237c.22 0 .399-.178.399-.399v-1.399Zm3.784-12.123a.4.4 0 0 0-.398-.399h-1.507a.4.4 0 0 0-.399.399v13.522c0 .22.178.399.399.399h1.507c.22 0 .398-.178.398-.399zm10.125 0a.4.4 0 0 0-.399-.399h-8.071a.4.4 0 0 0-.399.399v1.399c0 .22.178.399.399.399h2.866v11.725c0 .22.178.399.399.399h1.507a.4.4 0 0 0 .398-.399V138.97h2.902a.4.4 0 0 0 .399-.399v-1.399Zm9.174.044a.4.4 0 0 0-.399-.399h-7.013a.4.4 0 0 0-.399.399v13.523c0 .221.178.399.399.399h7.013c.22 0 .399-.178.399-.399v-1.399a.4.4 0 0 0-.399-.399h-5.107v-4.511h4.946c.22 0 .399-.178.399-.399v-1.399a.4.4 0 0 0-.399-.399h-4.946v-3.221h5.107c.22 0 .399-.178.399-.399v-1.399Zm12.668 1.05a.4.4 0 0 0-.16-.32c-1.269-.947-2.667-1.407-4.274-1.407-4.106 0-7.447 3.341-7.447 7.447 0 4.047 3.341 7.34 7.447 7.34 1.5 0 3.016-.498 4.268-1.403a.4.4 0 0 0 .165-.323v-1.865a.398.398 0 0 0-.68-.282c-1.066 1.066-2.455 1.677-3.808 1.677-2.759 0-5.09-2.38-5.09-5.197s2.315-5.196 5.054-5.196c1.412 0 2.811.609 3.84 1.671a.398.398 0 0 0 .685-.277v-1.864Zm14.649-1.094a.4.4 0 0 0-.399-.399h-1.505a.4.4 0 0 0-.399.399v9.479l-9.859-10.328a.397.397 0 0 0-.687.275v14.096c0 .22.178.399.399.399h1.506a.4.4 0 0 0 .399-.399v-9.426l9.858 10.311a.4.4 0 0 0 .436.095.4.4 0 0 0 .25-.37zm4.568 0a.4.4 0 0 0-.398-.399h-1.507a.4.4 0 0 0-.399.399v13.522c0 .22.178.399.399.399h1.507c.22 0 .398-.178.398-.399zm13.392 1.094a.4.4 0 0 0-.16-.32c-1.268-.947-2.666-1.407-4.274-1.407-4.106 0-7.447 3.341-7.447 7.447 0 4.047 3.341 7.34 7.447 7.34 1.5 0 3.017-.498 4.268-1.403a.4.4 0 0 0 .165-.323v-1.865a.398.398 0 0 0-.68-.282c-1.066 1.066-2.454 1.677-3.809 1.677-2.758 0-5.089-2.38-5.089-5.197s2.316-5.196 5.055-5.196c1.411 0 2.811.609 3.838 1.671a.398.398 0 0 0 .685-.277v-1.864Zm13.653 12.273-6.081-14.174c-.057-.14-.205-.238-.362-.238s-.304.09-.37.238l-6.237 14.166a.39.39 0 0 0 .033.378.39.39 0 0 0 .329.181h1.652c.164 0 .304-.09.37-.238l1.528-3.599h5.242l1.496 3.591a.38.38 0 0 0 .37.246h1.668a.39.39 0 0 0 .362-.551"/><path d="m148.11 150.539-6.081-14.174c-.057-.14-.205-.238-.362-.238s-.304.09-.37.238l-6.237 14.166a.39.39 0 0 0 .033.378.39.39 0 0 0 .329.181h1.652c.164 0 .304-.09.37-.238l1.528-3.599h5.242l1.496 3.591a.38.38 0 0 0 .37.246h1.668a.39.39 0 0 0 .362-.551m-8.193-5.48 1.709-3.993 1.668 3.993zM130.023 136.539c-4.106 0-7.447 3.341-7.447 7.447 0 4.047 3.341 7.34 7.447 7.34 1.5 0 3.017-.498 4.268-1.403a.4.4 0 0 0 .165-.323v-1.865a.398.398 0 0 0-.68-.282c-1.066 1.066-2.454 1.677-3.809 1.677-2.758 0-5.089-2.38-5.089-5.197s2.316-5.196 5.055-5.196c1.411 0 2.811.609 3.838 1.671a.398.398 0 0 0 .685-.277v-1.864a.4.4 0 0 0-.16-.32c-1.268-.947-2.666-1.407-4.274-1.407ZM119.159 136.773h1.507a.4.4 0 0 1 .399.399v13.522a.4.4 0 0 1-.399.399h-1.507a.4.4 0 0 1-.398-.398v-13.524c0-.22.178-.398.398-.398M116.098 136.773h-1.505a.4.4 0 0 0-.399.399v9.479l-9.859-10.328a.397.397 0 0 0-.687.275v14.096c0 .22.178.399.399.399h1.506a.4.4 0 0 0 .399-.399v-9.426l9.858 10.311a.4.4 0 0 0 .436.095.4.4 0 0 0 .25-.37v-14.133a.4.4 0 0 0-.399-.399ZM97.415 136.539c-4.106 0-7.447 3.341-7.447 7.447 0 4.047 3.341 7.34 7.447 7.34 1.5 0 3.016-.498 4.268-1.403a.4.4 0 0 0 .165-.323v-1.865a.398.398 0 0 0-.68-.282c-1.066 1.066-2.455 1.677-3.808 1.677-2.759 0-5.09-2.38-5.09-5.197s2.315-5.196 5.054-5.196c1.412 0 2.811.609 3.84 1.671a.398.398 0 0 0 .685-.277v-1.864a.4.4 0 0 0-.16-.32c-1.269-.947-2.667-1.407-4.274-1.407ZM88.782 136.817h-7.013a.4.4 0 0 0-.399.399v13.523c0 .221.178.399.399.399h7.013c.22 0 .399-.178.399-.399v-1.399a.4.4 0 0 0-.399-.399h-5.107v-4.511h4.946c.22 0 .399-.178.399-.399v-1.399a.4.4 0 0 0-.399-.399h-4.946v-3.221h5.107c.22 0 .399-.178.399-.399v-1.399a.4.4 0 0 0-.399-.399ZM84.33 135.856l.643.415c.15.097.345.083.479-.035l2.286-2.004a.4.4 0 0 0-.113-.67l-1.23-.495a.4.4 0 0 0-.457.117l-1.699 2.084a.396.396 0 0 0 .093.587ZM79.607 136.773h-8.071a.4.4 0 0 0-.399.399v1.399c0 .22.178.399.399.399h2.866v11.725c0 .22.178.399.399.399h1.507a.4.4 0 0 0 .398-.399V138.97h2.902a.4.4 0 0 0 .399-.399v-1.399a.4.4 0 0 0-.399-.399ZM67.977 136.773h1.506a.4.4 0 0 1 .399.399v13.522a.4.4 0 0 1-.399.399h-1.507a.4.4 0 0 1-.398-.398v-13.523a.4.4 0 0 1 .399-.399M65.698 148.897h-3.332v-11.725a.4.4 0 0 0-.398-.399h-1.507a.4.4 0 0 0-.399.399v13.522c0 .22.178.399.399.399h5.237c.22 0 .399-.178.399-.399v-1.399a.4.4 0 0 0-.399-.399ZM51.29 136.538c-4.1 0-7.444 3.328-7.444 7.412s3.344 7.379 7.444 7.379 7.453-3.311 7.453-7.379-3.344-7.412-7.453-7.412m0 12.596c-2.835 0-5.144-2.334-5.144-5.201s2.309-5.193 5.144-5.193 5.144 2.325 5.144 5.193-2.301 5.201-5.144 5.201M41.191 137.565c-1.052-.731-2.292-.789-3.583-.789h-2.219a.397.397 0 0 0-.403.394v13.525c0 .222.181.394.403.394h1.504a.397.397 0 0 0 .403-.394v-5.522h.69c1.06 0 2.408-.115 3.468-.986.896-.748 1.438-1.947 1.438-3.213 0-1.397-.641-2.67-1.701-3.41Zm-3.295 5.415h-.6v-4.01h.156c2.079 0 3.131.304 3.131 1.972 0 1.405-.83 2.038-2.687 2.038M132.07 74.77c0 26.259-18.73 47.547-41.834 47.547S48.402 101.03 48.402 74.77s18.73-47.546 41.834-47.546S132.07 48.511 132.07 74.77" class="cls-1"/><path d="M99.384 90.304V79.066l-.688-.123v10.672h-7.473c-.692 0-1.043.606-1.043.606s-.337-.606-1.026-.606h-7.475V78.943l-.688.123v11.238h8.165c.224.309.621.523 1.032.523s.809-.214 1.032-.523z"/><path d="M82.148 89.187v-10.62h-.193v10.814h7.234v-.194zM91.259 89.187h7.234v.193h-7.234z"/><path d="M98.3 78.567h.194v10.621H98.3zM97.578 88.217h-6.007c-.409 0-.609.305-.609.305V79.49c0-.609.626-.609.626-.609h5.991v9.337Zm.429.656v-10.55h-6.769s-.707 0-.707.688v10.206s.226-.344.688-.344zM83.516 79.821h1.982v.305h-1.982zM83.516 82.385h1.982v.305h-1.982zM83.516 84.947h1.982v.305h-1.982zM85.737 79.821h.359v.305h-.359zM85.737 82.385h.359v.305h-.359zM85.737 84.947h.359v.305h-.359zM83.516 80.675h.359v.305h-.359zM83.516 83.239h.359v.305h-.359zM83.516 85.802h.359v.305h-.359zM87.241 81.529h1.453v.305h-1.453zM87.241 84.094h1.453v.304h-1.453zM87.241 86.657h1.453v.305h-1.453zM86.335 79.821h.854v.305h-.854zM86.335 82.385h.854v.305h-.854zM86.335 84.947h.854v.305h-.854zM84.115 80.675h.854v.305h-.854zM84.115 83.239h.854v.305h-.854zM84.115 85.802h.854v.305h-.854zM86.712 80.675h.854v.305h-.854zM86.712 83.239h.854v.305h-.854zM86.712 85.802h.854v.305h-.854zM85.019 81.529h.854v.305h-.854zM85.019 84.094h.854v.304h-.854zM85.019 86.657h.854v.305h-.854zM87.805 80.675h.888v.305h-.888zM87.805 83.239h.888v.305h-.888zM87.805 85.802h.888v.305h-.888zM86.114 81.529h.888v.305h-.888zM86.114 84.094h.888v.304h-.888zM86.114 86.657h.888v.305h-.888zM87.43 79.821h1.264v.305H87.43zM87.43 82.385h1.264v.305H87.43zM87.43 84.947h1.264v.305H87.43zM85.208 80.675h1.265v.305h-1.265zM85.208 83.239h1.265v.305h-1.265zM85.208 85.802h1.265v.305h-1.265zM83.516 81.529h1.264v.305h-1.264zM83.516 84.094h1.264v.304h-1.264zM83.516 86.657h1.264v.305h-1.264z"/><path d="M91.68 86.657h1.983v.305H91.68zM91.68 84.093h1.983v.305H91.68zM91.68 81.53h1.983v.305H91.68zM93.902 86.657h.359v.305h-.359zM93.902 84.093h.359v.305h-.359zM93.902 81.53h.359v.305h-.359zM91.68 85.803h.359v.305h-.359zM91.68 83.239h.359v.305h-.359zM91.68 80.676h.359v.305h-.359zM95.406 84.948h1.453v.305h-1.453zM95.406 82.385h1.453v.305h-1.453zM95.406 79.821h1.453v.305h-1.453zM94.5 86.657h.854v.305H94.5zM94.5 84.093h.854v.305H94.5zM94.5 81.53h.854v.305H94.5zM92.278 85.803h.854v.305h-.854zM92.278 83.239h.854v.305h-.854zM92.278 80.676h.854v.305h-.854zM94.876 85.803h.854v.305h-.854zM94.876 83.239h.854v.305h-.854zM94.876 80.676h.854v.305h-.854zM93.185 84.948h.854v.305h-.854zM93.185 82.385h.854v.305h-.854zM93.185 79.821h.854v.305h-.854zM95.97 85.803h.888v.305h-.888zM95.97 83.239h.888v.305h-.888zM95.97 80.676h.888v.305h-.888zM94.277 84.948h.888v.305h-.888zM94.277 82.385h.888v.305h-.888zM94.277 79.821h.888v.305h-.888zM95.593 86.657h1.265v.305h-1.265zM95.593 84.093h1.265v.305h-1.265zM95.593 81.53h1.265v.305h-1.265zM93.372 85.803h1.264v.305h-1.264zM93.372 83.239h1.264v.305h-1.264zM93.372 80.676h1.264v.305h-1.264zM91.68 84.948h1.265v.305H91.68zM91.68 82.385h1.265v.305H91.68zM91.68 79.821h1.265v.305H91.68zM91.259 89.187h7.234v.193h-7.234z"/><path d="M91.259 89.187h7.234v.193h-7.234zM97.298 71.069l-.206-.045a.97.97 0 0 1-.482-.271l-.15-.156a.96.96 0 0 0-.616-.29.96.96 0 0 1-.686-.37l-.124-.163a.96.96 0 0 0-.46-.327s-.391-.109-.5-.164c-.109-.066-.076-.232.05-.249l4.658-.65-4.658-.65a.13.13 0 0 1-.116-.133.13.13 0 0 1 .067-.116c.112-.074.413-.373.413-.373a.95.95 0 0 1 .541-.24l.102-.01a.96.96 0 0 0 .673-.386l.062-.086a.95.95 0 0 1 .546-.363l.166-.04a.97.97 0 0 0 .474-.278l.19-.202a.96.96 0 0 1 .418-.263l.482-.147-.548.021a.96.96 0 0 0-.477.15l-.176.112a.95.95 0 0 1-.533.15l-.216-.005h-.014a.96.96 0 0 0-.626.232.96.96 0 0 1-.749.221l-.202-.026a.97.97 0 0 0-.557.095s-.088.05-.19.104a3 3 0 0 1-.278.133c-.123.033-.218-.109-.142-.211l2.834-3.754-3.754 2.834c-.1.078-.254-.016-.211-.14.054-.154.029-.555.029-.555a.95.95 0 0 1 .213-.553l.064-.08a.96.96 0 0 0 .204-.749l-.017-.104a.96.96 0 0 1 .13-.645l.088-.145a.94.94 0 0 0 .14-.533l-.01-.277a.97.97 0 0 1 .111-.481l.237-.446-.372.403a.95.95 0 0 0-.232.443l-.045.206a.97.97 0 0 1-.27.482l-.157.149a.96.96 0 0 0-.289.617.96.96 0 0 1-.372.686l-.163.124a.96.96 0 0 0-.327.46s-.107.391-.164.498v.002c-.064.109-.232.074-.249-.052l-.65-4.656-.659 4.655.002.003c-.019.124-.194.157-.251.048-.055-.109-.163-.498-.163-.498a.98.98 0 0 0-.327-.462l-.163-.124a.96.96 0 0 1-.37-.686.96.96 0 0 0-.291-.616l-.156-.15a.96.96 0 0 1-.27-.482l-.045-.206a.96.96 0 0 0-.232-.443l-.372-.403.237.446a1 1 0 0 1 .111.482l-.01.277a.96.96 0 0 0 .138.533l.09.144a.96.96 0 0 1 .128.645l-.016.104a.96.96 0 0 0 .202.75l.064.078a.96.96 0 0 1 .213.553s.002.425.028.557c.028.13-.109.218-.211.14l-.002-.002-3.743-2.83 2.834 3.752a.134.134 0 0 1-.14.211l-.007.003c-.116-.036-.469-.237-.469-.237a.95.95 0 0 0-.557-.093l-.202.026a.957.957 0 0 1-.748-.221.96.96 0 0 0-.64-.232l-.216.005a1 1 0 0 1-.533-.15l-.178-.114a.96.96 0 0 0-.475-.149l-.548-.021.482.147c.161.048.304.14.418.263l.19.202a.96.96 0 0 0 .474.278l.166.04a.95.95 0 0 1 .546.363l.062.086a.96.96 0 0 0 .673.386l.102.01a.96.96 0 0 1 .541.24s.303.299.413.372l.007-.003c.109.066.076.232-.05.249l-4.656.652 4.656.65c.126.017.159.183.05.249h-.002c-.109.055-.498.164-.498.164a.96.96 0 0 0-.462.325l-.124.163a.95.95 0 0 1-.686.372.97.97 0 0 0-.616.29l-.15.156a.93.93 0 0 1-.482.27l-.204.047a.94.94 0 0 0-.443.232l-.403.372.444-.237a.96.96 0 0 1 .482-.111l.277.009a.96.96 0 0 0 .533-.138l.145-.088a.95.95 0 0 1 .643-.13l.105.016a.96.96 0 0 0 .749-.202l.08-.064a.97.97 0 0 1 .553-.214s.424 0 .555-.028l.002-.002c.123-.031.216.111.138.213l-2.83 3.752 3.752-2.834c.102-.076.244.019.211.142v.002c-.036.116-.237.469-.237.469a.95.95 0 0 0-.093.557l.026.202q.008.063.009.126a.95.95 0 0 1-.232.622.96.96 0 0 0-.23.64l.003.216a.97.97 0 0 1-.149.533l-.114.178a.96.96 0 0 0-.149.475l-.021.548.147-.482a.94.94 0 0 1 .263-.418l.202-.19a.95.95 0 0 0 .277-.474l.041-.166a.95.95 0 0 1 .363-.546l.086-.062a.96.96 0 0 0 .386-.673l.01-.102a.96.96 0 0 1 .24-.541s.299-.303.372-.413c.073-.112.23-.078.249.047l.652 4.658.648-4.658a.134.134 0 0 1 .135-.116c.043 0 .088.021.116.067.074.112.372.413.372.413.137.15.22.341.24.541l.012.102a.96.96 0 0 0 .384.673l.086.062a.96.96 0 0 1 .363.548l.04.164a.97.97 0 0 0 .278.475l.202.188a.94.94 0 0 1 .261.42l.149.482-.022-.548a.93.93 0 0 0-.149-.477l-.112-.176a.95.95 0 0 1-.15-.533l.005-.216v-.014a.97.97 0 0 0-.23-.628.96.96 0 0 1-.223-.747l.028-.204a.98.98 0 0 0-.095-.557s-.199-.351-.237-.469h-.002a.136.136 0 0 1 .213-.142l3.752 2.834-2.834-3.754c-.076-.1.017-.24.14-.211.131.028.557.029.557.029a.95.95 0 0 1 .553.213l.078.064a.96.96 0 0 0 .749.202l.105-.016a.95.95 0 0 1 .643.13l.145.088a.96.96 0 0 0 .533.138l.277-.009a.95.95 0 0 1 .482.111l.444.237-.401-.372a.96.96 0 0 0-.443-.232Zm-7.095.502a3.186 3.186 0 1 1 0-6.372 3.186 3.186 0 0 1 0 6.372m2.061-3.244c-.123.185-.014.261.029.453.076.33-.342.673-.161.683s.278-.213.313-.306c.021-.057.147-.437.131-.539-.012-.071-.149-.214-.218-.296-.021-.024-.078-.022-.095.005Zm-1.444-1.195a.14.14 0 0 0 .055.007q.254-.004.508-.009c.061-.002.119-.002.178-.012.086-.014.173-.047.259-.031.163.031.242.207.425.128.149-.064-.028-.251-.093-.306-.062-.052-.13-.066-.206-.095a.64.64 0 0 0-.289-.052c-.102.009-.195.057-.292.088a1.6 1.6 0 0 1-.527.061c-.036 0-.119-.003-.142.036l-.003.005c-.019.047.059.119.088.149q.014.02.038.031Zm1.28.422c-.33-.325-.737-.192-1.112-.159a.2.2 0 0 0-.142.076c-.074.09-.097.353.028.41.128.057.08-.055.332.054.074.031.209.073.292.076.206.009.353-.116.496-.27.061-.064.207-.086.105-.187Zm-.787 1.717c-.09.036-.099.259-.403.296-.306.036-1.075.01-1.264-.036a1.5 1.5 0 0 1-.446-.175c-.195-.119-.313.166-.301.256.003.029.031.052.062.052.067-.003.135-.071.266-.064.061.003.28.099.337.123.135.059.408.171.565.183.214.019.636-.043.699-.08.1-.059.209-.23.304-.242.107-.014.367.054.431.045.062-.009.088-.144.035-.206-.054-.062-.195-.188-.285-.152m-1.98-.6c-.062.126-.028.332.116.394.143.062.332.028.422.054.09.028.251.144.358.135a.7.7 0 0 0 .304-.126c.099-.062.135-.017.287-.054.152-.035.268-.124.251-.294-.019-.171-.206-.349-.206-.349s.017.133-.019.277c-.035.144-.161.116-.259.135-.099.017-.107.161-.332.169-.223.009-.178-.116-.251-.169-.071-.054-.304-.009-.403-.081-.093-.067.08-.41.097-.443-.017.01-.304.232-.365.353Zm1.397 1.567c-.296 0-.645.071-.825.026-.178-.045-.339-.206-.339-.206s.009.225.062.304c.054.081.169.233.259.322.09.09.501.009.673 0 .169-.009.152-.124.178-.24.028-.116.287-.206-.009-.206Zm-1.462-2.905c-.059-.024-.1-.062-.105-.159s.169-.069.296-.033.111.016.118-.002a.4.4 0 0 0-.055-.176.6.6 0 0 0-.183-.1c-.226-.074-.335-.135-.474-.092-.335.104-.437.102-.552.202a.55.55 0 0 0-.143.237c-.01.024-.002.062.067.031.154-.066.394-.157.493-.176.116-.022.218-.028.278.069.067.102-.024.119-.092.124-.394.04-.593.315-.638.377-.014.017.095.055.133.099.064.071.097.131.201.207.275.204.852-.154 1.003-.154.204 0-.164-.387-.346-.455Zm-1.122 1.024c-.016 0-.041.012-.062.019-.1.038-.228.448-.157.598q.072.15.169.456c.029.092.199.199.266.23.028.012.08.024.088-.002.038-.114-.126-.32-.265-.659-.118-.292.062-.647-.04-.643ZM112.373 97.537a43 43 0 0 1-2.688-.998 41 41 0 0 0-1.441-2.484l-.193-.307-.234.277c-.514.61-1.198 1.307-2.089 2.127l-1.199-1.332c-.357-.393-.885-.49-1.204-.22a20.1 20.1 0 0 1-13.117 4.839 20.093 20.093 0 0 1-13.109-4.84c-.318-.27-.846-.174-1.203.221l-1.201 1.334c-.869-.801-1.571-1.517-2.088-2.13l-.234-.277-.193.307c-.51.812-.994 1.647-1.441 2.484-.872.358-1.777.694-2.689.998l-.37.123.251.298a29.4 29.4 0 0 0 5.449 5.019c.459.319.825.226 1.003.142a.85.85 0 0 0 .287-.223h.002l1.125-1.647a26.2 26.2 0 0 0 5.307 2.678 26.1 26.1 0 0 0 9.093 1.622h.027a26.208 26.208 0 0 0 14.402-4.3l1.071 1.578.058.084.005-.003q.119.136.278.213c.177.084.543.178 1.005-.144a29.3 29.3 0 0 0 5.446-5.017l.251-.298-.369-.123Zm-40.085 1.294a1.15 1.15 0 0 0-.299.843c.018.294.152.562.378.756.252.216.474.432.695.647.356.347.691.675 1.149.996a.3.3 0 0 1 .14.282.36.36 0 0 1-.191.286c-.128.06-.297.025-.473-.097a28.9 28.9 0 0 1-5.095-4.63 43 43 0 0 0 2.44-.922l.088-.036.045-.084c.398-.75.827-1.5 1.277-2.231.5.565 1.139 1.206 1.901 1.908zm.423 1.197a.54.54 0 0 1-.194-.386c-.012-.203.034-.341.144-.436a.28.28 0 0 1 .187-.067c.116 0 .229.059.284.105.71.608 1.459 1.183 2.228 1.711l-.621.912a.9.9 0 0 0-.227-.228c-.419-.294-.74-.607-1.083-.942a15 15 0 0 0-.718-.669m34.563-1.358a.9.9 0 0 0-.323.172 25.6 25.6 0 0 1-7.815 4.588 25.6 25.6 0 0 1-8.909 1.589h-.026c-3.064 0-6.062-.535-8.91-1.589a25.6 25.6 0 0 1-7.815-4.589.8.8 0 0 0-.33-.172l3.145-3.495c.178-.197.395-.233.467-.173a20.63 20.63 0 0 0 13.461 4.966c2.478 0 4.881-.429 7.168-1.276a20.6 20.6 0 0 0 6.283-3.69c.07-.06.292-.021.468.172.659.732 1.482 1.646 2.166 2.408l.972 1.087Zm.021.574c.094-.08.285-.163.414-.092a.55.55 0 0 1 .24.229.77.77 0 0 1 .065.391.53.53 0 0 1-.194.384c-.675.577-1.208.993-1.902 1.48a.9.9 0 0 0-.229.23l-.619-.913a26 26 0 0 0 2.226-1.709Zm-1.076 2.827a24 24 0 0 0 1.945-1.512c.226-.194.361-.462.379-.756a1.15 1.15 0 0 0-.297-.84l-.465-.52-.274-.308-.814-.908-.61-.682a27 27 0 0 0 1.902-1.904c.451.733.881 1.483 1.277 2.231l.045.084.088.036c.793.328 1.613.638 2.44.922a28.8 28.8 0 0 1-5.094 4.63c-.178.123-.346.158-.474.097a.35.35 0 0 1-.19-.286.3.3 0 0 1 .143-.284Zm-31.561.702"/><path d="m105.664 98.504-.098-.133q-.156.115-.299-.077l-1.021-1.381q-.184-.25-.036-.359l-.103-.139-.582.43.103.139q.162-.12.346.13l1.021 1.381q.142.192-.012.307l.098.133.584-.432Zm-.916.69-1.144-1.699q-.222-.329-.066-.434l-.097-.144-.426.287.097.143q.173-.117.395.213l.564.838-1.526-.877-.324.218.096.144q.168-.113.241-.006l.953 1.415q.241.359.098.456l.092.137.427-.288-.092-.137q-.175.118-.417-.241l-.621-.923 1.711.966zm-2.233-.804q-.177-.185-.348-.278c-.171-.093-.223-.094-.329-.097a.536.536 0 0 0-.492.286.65.65 0 0 0-.07.327q.003.193.088.442c.085.249.146.351.268.556q.181.305.359.495t.345.281a.7.7 0 0 0 .318.09.53.53 0 0 0 .483-.303.76.76 0 0 0 .064-.346q-.005-.2-.087-.449c-.082-.249-.14-.344-.253-.535a2.6 2.6 0 0 0-.346-.469m.128 1.866a.7.7 0 0 1-.227-.156 2 2 0 0 1-.243-.293 6.857 6.857 0 0 1-.464-.771 2 2 0 0 1-.146-.339.7.7 0 0 1-.04-.272.21.21 0 0 1 .108-.174.24.24 0 0 1 .224-.016.7.7 0 0 1 .238.168q.122.12.243.295a6.5 6.5 0 0 1 .454.763q.094.19.139.343.045.155.03.266a.22.22 0 0 1-.109.168.22.22 0 0 1-.206.017Zm-.535.566-.077-.146q-.172.091-.284-.121l-.803-1.519q-.145-.274.018-.361l-.081-.153-.64.338.081.153q.177-.093.322.181l.803 1.519q.112.212-.058.302l.077.146zm-1.082.558-.071-.149q-.198.095-.34-.204l-.763-1.604q-.043-.093.036-.131.13-.062.25.051.119.114.262.389l.1-.069-.37-.777a.8.8 0 0 1-.196.128l-.738.351a1 1 0 0 1-.095.036 1 1 0 0 1-.117.029l.322.813.131-.023a4 4 0 0 1-.086-.279 1 1 0 0 1-.036-.211.3.3 0 0 1 .02-.146.17.17 0 0 1 .082-.085q.076-.036.127.07l.763 1.605q.142.298-.053.391l.071.149.699-.332Zm-2.146-.524q.11.163.117.182.006.015-.04.033l-.235.096q-.06.025-.071-.005a1 1 0 0 1-.024-.118l-.133-.757.387.568Zm1.18.978-.061-.149a.25.25 0 0 1-.104 0 .17.17 0 0 1-.108-.079l-1.318-1.949-.197.026.387 2.241q.044.254-.058.312l.068.167.446-.183-.068-.167q-.163.066-.221-.075l-.017-.048q-.007-.022-.011-.042l-.09-.396q-.017-.079.045-.103l.28-.114a.15.15 0 0 1 .07-.01.08.08 0 0 1 .061.041l.266.409.032.048q.015.022.022.04.006.015-.004.034c-.01.019-.017.025-.03.038s-.029.025-.047.038l-.05.038.061.149zm-1.639.662-.64-1.945q-.124-.377.055-.436l-.054-.164-.487.16.054.164q.198-.066.323.312l.316.959-1.231-1.258-.371.122.054.164q.192-.063.233.06l.533 1.62q.135.411-.03.465l.052.157.489-.161-.052-.157q-.2.066-.336-.345l-.348-1.057 1.384 1.394.056-.056Zm-2.116.628-.04-.16q-.189.047-.247-.186l-.415-1.667q-.076-.301.104-.346l-.042-.168-.703.175.042.168q.195-.048.27.253l.415 1.667q.058.233-.129.279l.04.16zm-2.228-1.758a1 1 0 0 1-.015-.113.14.14 0 0 1 .009-.068.07.07 0 0 1 .037-.035.3.3 0 0 1 .066-.018q.233-.042.38.207c.147.249.18.433.247.802q.102.561.05.84t-.25.315a.4.4 0 0 1-.08.009.08.08 0 0 1-.058-.024.2.2 0 0 1-.043-.072 1 1 0 0 1-.034-.142l-.31-1.702Zm.578 2.12a.7.7 0 0 0 .316-.135.56.56 0 0 0 .175-.272q.055-.172.049-.42a4 4 0 0 0-.067-.581 3.6 3.6 0 0 0-.152-.588 1.4 1.4 0 0 0-.201-.379.57.57 0 0 0-.249-.188.55.55 0 0 0-.295-.02 4 4 0 0 0-.453.106 2 2 0 0 1-.206.038 1 1 0 0 1-.099.002l.031.17a.5.5 0 0 0 .098.014.1.1 0 0 1 .066.02q.027.019.048.077t.045.19l.286 1.574q.02.104.024.17c.004.066 0 .078-.01.104a.1.1 0 0 1-.05.057.4.4 0 0 1-.095.029l.03.162zm-1.143.198-.233-2.034q-.045-.395.142-.416l-.02-.172-.51.058.02.172q.207-.024.253.371l.115 1.004-.951-1.481-.388.044.02.172q.201-.023.216.106l.195 1.695q.05.43-.123.449l.019.164.512-.059-.019-.164q-.21.024-.259-.405l-.127-1.105 1.074 1.645.066-.043Zm-1.534.147.019-.815-.119-.026q-.023.167-.047.285a.6.6 0 0 1-.067.198.3.3 0 0 1-.118.12.5.5 0 0 1-.2.047q-.155.007-.164-.181l-.035-.734q-.004-.094.065-.109.055 0 .096.015a.13.13 0 0 1 .068.056.4.4 0 0 1 .046.124q.018.081.031.215l.12-.006-.05-1.048-.12.006q0 .141-.016.225a.3.3 0 0 1-.047.126q-.03.042-.071.056a.3.3 0 0 1-.09.016q-.048.003-.052-.092l-.033-.688q-.003-.07.032-.109a.14.14 0 0 1 .104-.042 1 1 0 0 1 .143.003.2.2 0 0 1 .117.057.4.4 0 0 1 .093.165q.04.114.069.329l.125-.026-.053-.769-1.186.056.008.173q.2-.009.214.285l.082 1.743q.01.228-.175.237l.008.165 1.2-.057Zm-2.14-2.203q0-.177.076-.176a.25.25 0 0 1 .14.036.24.24 0 0 1 .087.107.6.6 0 0 1 .043.179q.011.108.011.254 0 .107-.006.206a1 1 0 0 1-.023.175.3.3 0 0 1-.055.119.12.12 0 0 1-.101.045.379.379 0 0 1-.179-.036l.006-.908Zm.188 2.258v-.165a.17.17 0 0 1-.149-.072.33.33 0 0 1-.05-.201l.005-.711q.037.017.077.024a.5.5 0 0 0 .102.008.5.5 0 0 0 .248-.055.5.5 0 0 0 .167-.154.7.7 0 0 0 .094-.231 1.4 1.4 0 0 0 .03-.283q.003-.393-.122-.585t-.398-.193q-.068 0-.121.005a1 1 0 0 1-.131.005l-.468-.003v.173q.191.001.19.206l-.012 1.808q-.001.255-.186.254v.165zm-1.013-.009.015-.164q-.18-.016-.158-.302l.131-1.772a.4.4 0 0 1 .013-.074.14.14 0 0 1 .034-.062.2.2 0 0 1 .063-.042.2.2 0 0 1 .1-.009l.015-.172-.486-.043-.55 1.861-.231-1.93-.552-.049-.015.172a.3.3 0 0 1 .114.026.14.14 0 0 1 .057.047q.017.027.017.065 0 .037-.004.084l-.167 1.71a.55.55 0 0 1-.074.256.16.16 0 0 1-.15.072l-.015.164.513.045.014-.164q-.203-.018-.174-.331l.146-1.569.261 2.087.185.016.589-2.023-.128 1.638q-.022.258-.202.243l-.014.164.653.058Zm-2.104-.211.023-.163q-.192-.027-.159-.265l.241-1.701q.043-.308.226-.282l.024-.171-.717-.102-.024.171q.198.028.155.336l-.241 1.701q-.033.237-.224.21l-.023.163.719.102Zm-1.959-1.735a2 2 0 0 1-.011.216q-.003.016-.052.004l-.248-.058q-.063-.015-.055-.045a1 1 0 0 1 .049-.11l.332-.693-.016.687Zm.392 1.482.037-.157a.2.2 0 0 1-.084-.06.14.14 0 0 1-.031-.052.2.2 0 0 1-.01-.075l.06-2.353-.175-.094-.987 2.049q-.112.232-.229.221l-.041.176.469.111.041-.176q-.17-.04-.136-.19a.5.5 0 0 1 .03-.09l.156-.375q.032-.073.097-.058l.294.069a.14.14 0 0 1 .062.033q.028.024.026.069l-.022.488-.002.058a.2.2 0 0 1-.005.045q-.003.015-.023.025a.1.1 0 0 1-.047.013l-.061.004-.063.001-.037.157zm-1.406-1.202q-.175.32-.316.442-.141.121-.285.078a.23.23 0 0 1-.154-.149.8.8 0 0 1-.035-.29q.007-.175.058-.398a6 6 0 0 1 .251-.835 2 2 0 0 1 .146-.301.7.7 0 0 1 .167-.192.2.2 0 0 1 .19-.035q.144.044.181.235.036.192-.031.59l.138.042q.173-.572.199-.913-.106.021-.2.153a.4.4 0 0 0-.047-.119.46.46 0 0 0-.261-.201.4.4 0 0 0-.296.019.8.8 0 0 0-.264.222 2 2 0 0 0-.23.39 4.3 4.3 0 0 0-.31 1.036 1.6 1.6 0 0 0-.008.433.7.7 0 0 0 .123.327.5.5 0 0 0 .276.188q.098.03.198-.002a.6.6 0 0 0 .202-.115 1.2 1.2 0 0 0 .196-.216q.094-.132.177-.304l-.067-.086Zm-1.55.395.056-.155q-.183-.066-.103-.291l.576-1.618q.105-.292.278-.231l.058-.163-.682-.243-.058.163q.189.068.085.36l-.576 1.618q-.08.226-.262.161l-.056.155zm-1.081-.382.776-1.895q.15-.368.325-.296l.066-.16-.475-.194-.066.16q.193.08.043.446l-.383.935-.119-1.756-.362-.148-.066.16q.188.077.138.197l-.646 1.579q-.164.4-.325.334l-.063.153.477.195.063-.153q-.196-.08-.031-.48l.422-1.029.148 1.959zm-1.393-.595.074-.147q-.168-.084-.061-.299l.771-1.535q.14-.277.308-.193l.078-.155-.653-.328-.078.155q.182.092.041.369l-.29.578q-.046.012-.142-.036l-.222-.112a.212.212 0 0 1-.104-.092l.289-.575q.14-.279.306-.195l.078-.155-.656-.33-.077.155q.186.094.047.371l-.771 1.535q-.108.214-.294.121l-.074.147.656.33.074-.147q-.167-.084-.059-.298l.356-.71a.2.2 0 0 1 .141.018l.222.111a.3.3 0 0 1 .071.051.2.2 0 0 1 .036.056l-.356.709q-.108.215-.289.123l-.074.148.653.328Zm-1.273-1.592q-.244.272-.409.358t-.295.01a.23.23 0 0 1-.115-.181.7.7 0 0 1 .033-.291q.048-.168.148-.374t.233-.434a5 5 0 0 1 .204-.321q.107-.154.212-.259c.105-.105.139-.119.207-.148a.2.2 0 0 1 .193.01q.13.076.121.271t-.166.567l.125.073q.3-.516.404-.843-.108-.003-.23.103a.4.4 0 0 0-.018-.127.45.45 0 0 0-.125-.194.5.5 0 0 0-.082-.061.4.4 0 0 0-.293-.05.8.8 0 0 0-.308.155 1.8 1.8 0 0 0-.313.327 4.3 4.3 0 0 0-.541.936q-.089.225-.107.419a.7.7 0 0 0 .044.346.5.5 0 0 0 .225.247q.088.051.193.044a.5.5 0 0 0 .224-.066q.118-.059.241-.165t.243-.255l-.045-.099Zm-1.67-.009.497-.647-.081-.091q-.117.12-.206.203a.7.7 0 0 1-.171.12.3.3 0 0 1-.166.027.5.5 0 0 1-.189-.08q-.13-.086-.026-.243l.405-.613q.052-.079.117-.05.045.035.069.069c.024.034.023.052.022.085a.4.4 0 0 1-.036.127 2 2 0 0 1-.102.192l.1.066.578-.876-.1-.066a1 1 0 0 1-.146.172.3.3 0 0 1-.112.074.15.15 0 0 1-.091.004.3.3 0 0 1-.082-.04q-.039-.026.012-.105l.379-.575q.039-.058.09-.069a.14.14 0 0 1 .109.027 1 1 0 0 1 .114.087q.048.043.06.115c.012.072 0 .11-.022.188q-.034.116-.138.307l.116.053.41-.652-.991-.654-.095.144q.168.111.005.357l-.961 1.456q-.126.19-.281.088l-.091.138zm-1.408-.95.097-.134q-.177-.129.016-.396l1.043-1.438q.06-.082.132-.031.117.085.075.244t-.216.416l.109.054.506-.697a.915.915 0 0 1-.206-.11l-.661-.48a1 1 0 0 1-.077-.066 1 1 0 0 1-.082-.088l-.559.672.083.104q.113-.122.204-.209.092-.087.168-.133a.34.34 0 0 1 .138-.053.16.16 0 0 1 .114.031q.068.05 0 .145l-1.043 1.438q-.194.267-.368.141l-.097.133.626.454ZM65.637 109.859l.581.351a.65.65 0 0 0 .814-.112l2.662-2.827s.088-.461-.385-.949c-.104-.107-.24-.184-.394-.3-.114-.086.031-.322.15-.234l1.757 1.469c.067.05.103.132.093.216l-.415 3.519 3.182-1.558a.31.31 0 0 1 .315.022l2.051 1.158c.19.095.042.425-.177.319l-.646-.331a.576.576 0 0 0-.758.243l-1.809 3.328a.64.64 0 0 0 .164.806l.497.394c.084.113-.05.258-.169.184l-3.127-1.912c-.13-.082-.055-.283.097-.26l.729.301a.527.527 0 0 0 .663-.233l1.898-3.46-3.942 1.944a.21.21 0 0 1-.302-.216l.48-3.774-2.171 2.34a.68.68 0 0 0-.014.911l.544.623c.106.135-.067.31-.203.206l-2.284-1.953c-.113-.087-.013-.265.12-.213ZM82.749 118.851l-.159-.068a1.6 1.6 0 0 1-.946-1.202l-.854-5.015a.253.253 0 0 0-.419-.146l-3.912 3.505a1.43 1.43 0 0 1-1.248.334l-.465-.098c-.134-.035-.2.155-.074.211l2.72 1.165c.142.059.248-.137.122-.224l-.494-.334a.628.628 0 0 1-.061-.994l.912-.794 2.151.73.187 1.313a.616.616 0 0 1-.719.693l-.49-.088c-.153.001-.182.218-.034.259l3.663 1.031c.169.045.269-.184.121-.277Zm-4.596-3.915 1.481-1.33.316 1.94-1.798-.61ZM88.755 113.993c-1.028-.093-2.51-.197-3.982-.43-.153-.024-.203.201-.059.257l.573.221a.54.54 0 0 1 .321.5l-.253 4.071a.504.504 0 0 1-.421.466l-.497.082c-.181.03-.177.291.004.314 1.287.164 3.377.415 4.14.415 1.135 0 3.03-.994 3.03-3.074 0-1.949-2.257-2.768-2.856-2.822m-.322 5.5c-.241 0-.782-.035-1.204-.065a.583.583 0 0 1-.54-.618l.243-3.962a.647.647 0 0 1 .7-.606c.389.033.845.076 1.06.11.413.066 1.52.692 1.52 2.461 0 1.745-1.265 2.68-1.779 2.68M100.87 118.162c-.395.136-.821.515-1.921-.838-.873-1.073-1.545-1.109-1.545-1.109s2-.395 1.71-1.738-2.572-1.167-2.572-1.167l-3.763.578c-.159.025-.168.251-.011.288l.386-.045a.587.587 0 0 1 .646.478l.748 4.096a.484.484 0 0 1-.33.55l-.578.181c-.165.083-.085.333.098.305l3.245-.507c.159-.026.164-.252.007-.285l-.656.007a.47.47 0 0 1-.468-.387l-.361-2.015.536-.098c.285-.021.594.047.778.265.396.47.97 1.222 1.532 1.66.549.428 1.41.48 1.783.384.18-.046.637-.17.865-.324.138-.093.029-.332-.128-.278Zm-4.026-2.197c-.399.073-1.398.252-1.398.252l-.284-1.766a.567.567 0 0 1 .491-.652l.723-.103c.752-.067 1.408.579 1.285 1.324-.045.277-.418.871-.817.944ZM100.415 112.201l3.017-1.255c.124-.05.226.109.128.201l-.549.379a.44.44 0 0 0-.152.538c.349.81 1.22 2.883 1.622 3.819a.52.52 0 0 0 .656.297l.431-.153c.209-.074.278.151.142.217l-2.986 1.341c-.154.068-.277-.176-.071-.259.238-.097.364-.158.364-.158a.56.56 0 0 0 .242-.708l-1.681-3.951a.4.4 0 0 0-.472-.229l-.625.165c-.148.021-.205-.186-.067-.243ZM111.888 108.689c-1.159-1.474-3.37-.739-3.86-.42-.841.547-2.035 1.358-3.298 2.066-.131.073-.036.274.108.23l.569-.177a.52.52 0 0 1 .542.185l2.227 3.232a.486.486 0 0 1-.045.605l-.331.361c-.12.131.038.327.19.235 1.081-.649 2.801-1.74 3.384-2.199.867-.682 1.751-2.544.515-4.118Zm-.832 3.947c-.17.162-.618.443-.959.674a.563.563 0 0 1-.78-.143l-2.173-3.156a.627.627 0 0 1 .175-.879c.317-.208.691-.45.875-.553.355-.198 1.572-.389 2.624.949 1.037 1.32.625 2.74.238 3.108M68.258 40.305c-1.354-1.042-3.251.344-3.695.744-.601.542-1.423 1.459-2.655 2.935-.098.118.016.268.143.184l.416-.349c.165-.11.409-.104.542.014l2.616 2.579c.154.137.182.378.068.581l-.327.443c-.089.159.104.304.221.165 1.199-1.42 2.504-2.66 2.967-3.262.689-.896 1.15-2.922-.295-4.034Zm-.179 4.113c-.157.183-.531.573-.826.876-.223.229-.565.253-.767.054l-2.509-2.469c-.23-.226-.209-.624.047-.881.275-.276.6-.598.763-.74.313-.275 1.453-.754 2.644.266 1.174 1.006.982 2.504.648 2.894M77.021 38.093c-.088.036-.239.102-.396.171a1.39 1.39 0 0 1-1.19-.036l-4.602-2.358a.218.218 0 0 0-.318.203l.225 5.087c.021.485-.151.959-.479 1.318l-.344.376c-.08.118.068.256.18.169l2.33-1.804c.111-.111-.002-.28-.116-.219-.172.092-.484.271-.484.271a.494.494 0 0 1-.734-.408c-.026-.559-.056-1.207-.059-1.218-.006-.018 1.898-1.249 1.898-1.249l1.105.578a.452.452 0 0 1 .025.787l-.458.277c-.143.085-.015.38.188.252 1.398-.878 1.603-1.048 3.32-1.829.196-.089.132-.459-.088-.368Zm-6.003 1.19-.082-1.897 1.667.853zM83.485 32.829c-.733-1.605-3.028-1.428-3.613-1.27-.792.213-1.91.646-3.704 1.42-.143.062-.11.255.043.237 0 0 .255-.067.536-.123s.416.099.481.271l1.153 3.71c.075.199-.012.435-.209.568l-.5.252c-.154.104-.048.329.122.257 1.738-.737 3.486-1.258 4.182-1.592 1.036-.497 2.291-2.016 1.509-3.729Zm-1.991 3.527c-.221.106-.744.275-1.149.414-.307.105-.624-.033-.712-.31l-1.093-3.432c-.1-.314.003-.643.352-.759.375-.124.801-.269 1.015-.313.681-.141 1.974.297 2.368 1.591.419 1.376-.142 2.501-.782 2.808ZM59.674 56.334c-.02.818-.697 1.088-1.891 1.392a2.7 2.7 0 0 0-1.197.704s.713-1.915-.637-2.229c-.811-.189-1.595.843-1.983 1.871-.34.899-.618 1.864-1.077 3.456-.087.301.19.37.272.139.049-.139.248-.787.772-.6.567.203 2.892 1.051 3.161 1.147.429.153.39.556.234.941-.113.278.189.394.278.121.387-1.185.514-1.955.934-3.047.08-.207-.213-.276-.282-.077-.13.379-.299.903-.704.752a57 57 0 0 0-1.649-.574s.187-.519.224-.618c.082-.222.169-.346.63-.51 1.035-.368 2.977-.356 3.219-2.882.024-.247-.298-.24-.304.015Zm-3.597 2.596c-.15.468-.329.971-.453 1.28l-1.394-.493s-.493-.101-.313-.722c.12-.413.281-.839.464-1.054.344-.402.74-.45.979-.41.595.099.892.851.716 1.4ZM51.402 69.487c.198-1.844.581-4.024.856-5.52.046-.248.096-.302.225-.286.384.049.795.117 1.233 0 .123-.033.298.233.038.376-.549.303-.923.614-1.169 1.192-.507 1.191-.803 2.159-.202 2.266.707.126 1.38.225 1.38.225s.578-2.237-.55-2.261c-.202-.004-.154-.43.056-.394.19.033 2.07.336 2.259.377.169.037.14.456-.1.402-.414-.092-1.047-.155-1.338 1.932-.036-.013 1.109.204 1.769.3.908.132.767-2.933-.278-4.299-.153-.2.06-.429.228-.267.142.137.869.703 1.237.696.298-.006.222.288.172.559-.364 1.99-.668 3.105-.91 5.566-.023.232-.302.162-.288-.053.017-.266.11-.737-.342-.837s-3.06-.505-3.436-.577c-.31-.059-.518.274-.551.654-.023.262-.319.228-.289-.052ZM57.937 49.459c.022.011 1.104.327 1.242.393s.212.396-.315.376c-.194-.007-1.289-.057-1.823 1.036-.438.895.078 1.951 1.187.917.899-.838 1.801-2.269 3.148-1.404.832.535.613 2.055.27 2.747-.38.767-1.273 2.156-1.523 2.052a68 68 0 0 0-1.469-.585c-.179-.066-.074-.499.272-.428.794.163 1.931-.122 2.478-1.224.484-.975-.269-2.068-1.25-1.438-.604.388-1.701 1.802-2.424 1.932-.526.095-1.453-.04-1.283-1.621.122-1.139.909-2.007 1.041-2.363.09-.241.15-.542.449-.391ZM54.139 92.875c-.087-.216.169-.366.285-.141.233.452.581.967 1.019.762.807-.377 1.532-.76 1.812-.864.616-.23 2.198-.625 3.316 1.531.792 1.528.039 3.135-.525 3.433-.431.228-2.098 1.006-2.441 1.187-.35.184-.078.534.116 1.027.066.168-.165.37-.315.076-.503-.983-.981-1.773-1.468-2.839-.097-.212.174-.339.279-.151.093.167.409.862.859.628.607-.316 1.944-.923 2.498-1.197.441-.218 1.059-.893.471-2.274-.554-1.301-1.947-1.383-2.53-1.088-.541.274-1.13.531-1.813.877s-.372 1.289-.15 1.671c.107.185-.198.367-.298.116-.391-.983-.844-2.082-1.116-2.755ZM51.762 83.776c-.04-.204.221-.315.289-.046.117.461.473 1.01 1.002.841.745-.238 3.657-.966 3.772-1.002.097-.031.257.187.171.394l-2.736 6.53s1.999-.515 2.863-.743c.797-.21.65-1.295.553-1.669-.086-.333.216-.373.272-.134.26 1.112.577 1.885.959 2.876.093.241-.2.35-.282.089-.114-.363-.494-1.009-1.129-.837-.898.243-3.403.883-3.403.883s-.152.493-.011 1.024c.061.231-.192.383-.275.106-.064-.215-.559-1.929-.559-1.929s-.029-.072.043-.235c.076-.171 2.374-5.607 2.374-5.607s-1.755.451-2.512.654c-.65.175-.674 1.157-.543 1.589.069.226-.208.396-.282.089s-.529-2.683-.567-2.875ZM51.889 82.795c-.017-.254-.131-.879.384-.934.585-.063 2.459-.304 3.423-.417.568-.067.628.612.656.856.018.154.288.175.273-.069-.016-.265-.321-2.267-.385-3.156-.013-.181-.324-.186-.285.053.077.466.013.894-.336.945-.589.087-2.173.26-3.445.419-.312.039-.648-.434-.64-.805.006-.263-.295-.2-.285-.002.039.735.191 1.759.356 3.154.031.259.298.184.284-.043ZM51.405 73.319c0-.068.013-.234.041-.417.053-.355.439-.516.747-.33l2.852 1.808-2.733 1.563c-.592.338-.933.061-.947-.456-.005-.17-.014-.242-.015-.338-.005-.298-.314-.291-.311-.003.01 1.124.065 2.452.129 3.559.014.245.299.242.311-.001q.005-.101.013-.206c.024-.319.159-.668.435-.83l4.293-2.561a.24.24 0 0 0 .004-.413l-3.912-2.504c-.559-.342-.728-.979-.718-1.633.005-.257-.295-.247-.311-.015-.084 1.296-.119 1.578-.179 2.711-.014.266.302.284.301.067ZM59.269 48.068c.13-.192.499-.661.947-.345.501.353 1.863 1.349 2.693 1.925.503.349.077.936-.05 1.145a.147.147 0 0 0 .264.13 70 70 0 0 1 1.895-2.608c.114-.15-.142-.304-.232-.176-.281.401-.698.636-.923.492-.557-.358-1.802-1.268-3.026-2.146-.302-.216.036-.744.202-.963.165-.217-.117-.348-.228-.189-.866 1.229-1.326 1.795-1.797 2.578-.127.211.117.359.255.157M100.715 31.661c-.371-.129-2.559-.673-3.817-1-.263-.068-.399.232-.03.32.477.114.745.366.673.653-.078.309-.895 3.061-1.089 3.694-.155.505-.73.429-.982.345-.335-.111-.346.24-.173.273.955.181 2.725.622 3.095.737.255.079.366-.248.094-.304-.39-.08-.82-.345-.706-.742.154-.536.424-1.43.424-1.43 1.679 1.119 3.826 1.253 4.342-.185.505-1.408-1.499-2.246-1.83-2.361Zm.395 2.242c-.515.775-1.49 1.003-2.799-.039 0 0 .467-1.622.561-1.895.063-.184.337-.38.68-.282.3.086.489.121.886.257.788.27 1.113 1.295.672 1.958ZM107.796 34.821c-2.14-1.393-4.141-.793-4.829.484-.603 1.12-.222 2.693 1.421 3.892 1.83 1.336 3.887.905 4.634-.004 1.041-1.266.516-3.237-1.226-4.372m.153 3.403c-.267.392-1.422 1.958-3.159.883-1.698-1.05-.792-2.93-.592-3.228.31-.462 1.46-1.985 3.155-.96 1.753 1.061.881 2.888.597 3.305ZM111.358 37.716c-.139-.118.032-.386.205-.231.464.414 1.657 1.269 2.508 2.094.195.189-.075.382-.228.272-.337-.241-.656-.585-1.03-.157-.391.446-1.575 1.775-2.322 2.605-.793.881 2.157 2.304 3.759 2.088.147-.02.389.254.047.371-.375.128-.648.224-1.062.545-.155.12-.224.533-.615.14-.662-.667-3.16-3.073-4.577-3.985-.228-.147.056-.416.224-.245.268.273.84.57 1.181.201.533-.577 1.97-2.185 2.318-2.585.354-.407-.104-.856-.408-1.113M119.192 47.896c-.161-.085-.162-.343.048-.345.433-.003.888-.296 1.106-.417s.281.008.347.116c.997 1.636 2.201 3.327 3.241 5.532.03.063.111.184-.06.282-.207.119-.641.306-.918.766-.125.208-.445.021-.291-.302.28-.585.393-1.534-.012-2.279-.318-.587-.677-.32-1.108-.054-.356.22-2.127 1.26-2.472 1.463-.457.27-.103.909.013 1.103.132.222-.14.37-.262.15a44 44 0 0 0-1.648-2.779c-.095-.149.166-.34.279-.111.137.277.475.713.911.461.709-.409 2.373-1.41 2.9-1.713.349-.2.208-.907-.465-1.3-1-.583-1.412-.472-1.609-.575ZM115.864 48.763c-.195-.206-.539-.736-.144-1.065.442-.367 1.834-1.502 2.659-2.162.428-.342.82.113 1.004.358.131.174.389.029.23-.202-.474-.689-1.433-1.789-2.001-2.478-.134-.163-.35.049-.214.206.343.393.427.794.237.958-.519.448-1.8 1.47-2.87 2.331-.265.213-.687-.05-.904-.385-.153-.238-.392-.002-.258.164.618.769 1.29 1.418 2.026 2.465.162.23.39-.027.235-.19M121.303 96.331l.846-1.699.988 1.58-1.833.119Zm-3.794 2.403c.175-.134.31-.297.372-.354.215-.196.317-.524 1.397-.617a310 310 0 0 1 4.719-.342c.069-.002.125-.055.155-.113s.045-.15.006-.208l-2.406-3.838c-.277-.402-.54-1.236-.315-1.827.091-.238.129-.369-.042-.445-.107-.048-.189-.036-.275.165-.357.842-.494 1.26-1.072 2.479-.045.095-.047.21.046.262.146.081.23-.104.264-.165.1-.179.139-.489.435-.554.272-.06.441.036.569.199.23.294.599.954.599.954l-1.014 2.032s-1.095.039-1.153.032a.58.58 0 0 1-.437-.347c-.099-.257-.006-.356.095-.558.041-.082.126-.221.091-.315-.047-.125-.224-.104-.29.018-.59 1.075-1.07 2.023-1.698 2.982-.112.171-.247.344-.211.47.023.08.091.147.166.089ZM122.625 91.273c-.382-.435-1.27-2.314-.049-4.539.938-1.71 2.017-2.034 3.131-1.811 1.485.297 2.135 2.291 1.707 3.933-.37 1.421-.449 1.099-.781 2.675-.04.192.018.407-.306.307-.373-.114-1.012-.086-1.495.06-.19.057-.344-.304.013-.381.352-.075 2.247-.975 2.242-3.112-.003-1.11-.99-1.942-1.681-2.147-.825-.245-2.321-.182-2.985 1.612-.567 1.533.331 2.926.474 3.164.113.187-.15.375-.27.239M123.657 83.297c.038-.457.305-.853.666-.798.577.088 2.428.338 3.357.494.544.091.409.723.374.975-.025.179.263.265.31.031.051-.254.356-2.435.455-3.124.039-.272-.281-.279-.306-.063-.056.473-.164.86-.562.815-.604-.068-2.155-.294-3.391-.478-.424-.063-.522-.445-.43-.859.086-.386-.296-.361-.317-.163-.123 1.183-.227 1.629-.467 3.129-.038.237.292.285.312.041ZM128.955 78.99c-.011.213-.293.249-.299-.036-.011-.488-.127-.98-.776-.98-.914 0-3.662.051-3.791.058-.108.006-.225-.232-.085-.416.218-.287 4.233-5.693 4.233-5.693s-2.113.021-2.839.042c-.837.024-1.065 1.046-1.035 1.412.029.353-.301.312-.304.06-.011-1.077-.094-1.719-.196-2.938-.018-.213.279-.343.301-.013.026.39.243 1.1.884 1.068.699-.035 3.386-.05 3.386-.05s.173-.356.141-.913c-.014-.245.286-.331.305-.035.015.23.113 1.732.117 1.934.002.103.022.218-.075.348l-3.533 4.743s1.603-.02 2.461-.034c.814-.013.952-.948.919-1.411-.017-.242.311-.341.314-.018s-.106 2.426-.129 2.87ZM125.158 69.747c-1.069-.45-2.194-2.019-2.056-4.113.126-1.922 1.042-2.769 2.09-2.958 1.479-.267 2.953 1.164 3.335 3.106.155.788-.052.64.311 2.186.044.189.343.598-.055.647-.472.058-.943.385-1.305.712-.142.129-.409-.122-.179-.352.282-.282 1.513-1.614.808-3.448-.402-1.047-1.461-1.708-2.631-1.514-.934.155-2.151.979-2.023 2.684.121 1.608 1.439 2.55 1.838 2.722.192.083.027.395-.132.329ZM124.721 54.459c.938 2.116 1.167 2.917 1.983 5.251.087.25.085.322-.033.375-.354.157-.73.248-1.117.649-.089.092-.337-.026-.215-.301.263-.592.582-.993.372-2.221-.186-1.088-.517-1.586-.968-1.417l-1.338.502s.66 2.25 1.596 1.662c.171-.108.375.32.176.397-.181.07-1.981.733-2.161.803-.171.066-.341-.315-.143-.387.356-.129.593-.24.617-.729.025-.509-.129-.981-.36-1.642 0 0-1.16.423-1.682.646-.838.358.842 2.816 2.442 3.524.165.073.211.426-.109.352-.188-.044-.974-.173-1.317.041-.253.157-.316-.143-.419-.431-.678-1.887-1.082-3.118-2.056-5.323-.099-.224.206-.295.275-.103.076.213.369.77.833.591.433-.167 2.827-1.052 3.188-1.184.297-.109.319-.562.163-.925-.109-.255.154-.398.275-.127Z"/><path d="M132.038 74.781c0 26.259-18.73 47.547-41.834 47.547S48.37 101.041 48.37 74.781 67.1 27.235 90.204 27.235s41.834 21.287 41.834 47.546m.427 0c0-26.527-18.921-48.032-42.261-48.032S47.943 48.254 47.943 74.781s18.921 48.032 42.261 48.032 42.261-21.505 42.261-48.032"/><path d="M130.992 74.781c0 25.603-18.262 46.358-40.788 46.358s-40.788-20.755-40.788-46.358 18.262-46.358 40.788-46.358 40.788 20.755 40.788 46.358m.417 0c0-25.864-18.448-46.831-41.205-46.831S48.999 48.917 48.999 74.781s18.448 46.831 41.205 46.831 41.205-20.967 41.205-46.831"/><path d="M120.923 74.797c0 19.812-13.753 35.855-30.72 35.855s-30.72-16.06-30.72-35.872 13.754-35.872 30.72-35.872 30.72 16.06 30.72 35.872v.016Zm.463-.016c0-20.109-13.96-36.411-31.182-36.411S59.022 54.672 59.022 74.781s13.961 36.411 31.182 36.411 31.182-16.302 31.182-36.411"/><path d="M121.976 74.781c0 20.49-14.225 37.1-31.772 37.1s-31.772-16.61-31.772-37.1 14.225-37.1 31.772-37.1 31.772 16.61 31.772 37.1m.478 0c0-20.798-14.439-37.659-32.25-37.659s-32.25 16.861-32.25 37.659 14.439 37.659 32.25 37.659 32.25-16.861 32.25-37.659M92.116 30.985c.07-.178-.017-.265-.195-.195l-.803.316a.36.36 0 0 1-.46-.19l-.344-.791c-.076-.175-.2-.175-.276 0l-.344.791a.36.36 0 0 1-.46.19l-.803-.316c-.178-.07-.265.017-.195.195l.316.803a.36.36 0 0 1-.19.46l-.791.344c-.175.076-.175.2 0 .276l.791.344a.36.36 0 0 1 .19.46l-.316.803c-.07.178.017.265.195.195l.803-.316a.36.36 0 0 1 .46.19l.344.791c.076.175.2.175.276 0l.344-.791a.36.36 0 0 1 .46-.19l.803.316c.178.07.265-.017.195-.195l-.316-.803a.36.36 0 0 1 .19-.46l.791-.344c.175-.076.175-.2 0-.276l-.658-.286a.51.51 0 0 1-.27-.652z"/><path d="M118.591 101.893c.054-.183-.04-.263-.211-.177l-.772.385a.36.36 0 0 1-.475-.15l-.411-.758c-.091-.168-.214-.157-.275.024l-.274.818a.36.36 0 0 1-.441.23l-.827-.245c-.183-.054-.262.04-.177.211l.385.772a.36.36 0 0 1-.15.474l-.758.412c-.168.091-.157.214.024.275l.818.274a.36.36 0 0 1 .23.441l-.245.827c-.054.183.04.263.211.177l.772-.385a.36.36 0 0 1 .474.15l.412.758c.091.168.214.157.275-.024l.274-.818a.36.36 0 0 1 .441-.23l.827.245c.183.054.263-.04.177-.211l-.385-.772a.36.36 0 0 1 .15-.475l.758-.412c.168-.091.157-.214-.024-.275l-.681-.228a.51.51 0 0 1-.326-.626zM65.441 102.222c.088-.169.011-.265-.173-.215l-.832.23a.36.36 0 0 1-.437-.238l-.259-.823c-.057-.182-.18-.195-.274-.029l-.426.751a.36.36 0 0 1-.477.141l-.765-.399c-.169-.088-.265-.011-.215.173l.23.832a.36.36 0 0 1-.238.437l-.823.259c-.182.057-.195.18-.029.274l.751.426a.36.36 0 0 1 .141.477l-.399.765c-.088.169-.011.265.173.215l.832-.23a.36.36 0 0 1 .437.238l.259.823c.057.182.18.195.274.029l.425-.751a.36.36 0 0 1 .477-.141l.765.399c.169.088.265.011.215-.173l-.23-.832a.36.36 0 0 1 .238-.437l.823-.259c.182-.057.195-.18.029-.274l-.625-.354a.51.51 0 0 1-.2-.677l.332-.637ZM103.729 51.48c.325-.021.631-.175.821-.453 0 0 .481-.695.782-.946.548-.431 1.207-.318 1.207-.318s-.289-.823-1.05-.816c.348-.003-.187-1.036-.187-1.036h-.003v-.003s-.839-.097-1.036.19c-.263-.716-1.136-.697-1.136-.697s.339.577.126 1.243a2 2 0 0 1-.114.256 3 3 0 0 1-.228-.221c-.432-.546-.318-1.207-.318-1.207s-.823.29-.814 1.051c-.287-.197-1.036.19-1.036.19v.003h-.003s-.093.839.194 1.036c-.648.239-.692.977-.693 1.112 0 0-.003.01 0 .01v.014s.021-.012.057-.029a.4.4 0 0 1 .258.033c.207.1.29.356.187.569a.423.423 0 0 1-.564.202c-.118-.055-.197-.173-.216-.278s-.022-.311-.022-.311c-.017-.349.102-.595.102-.595q.004-.005.005-.01a.42.42 0 0 0-.187-.569.424.424 0 0 0-.564.202q-.002.005-.003.01h-.002s-.135.256-.422.458q-.002.003-.005.003l-.192.13a.42.42 0 0 1-.405.028.427.427 0 0 1-.189-.571.425.425 0 0 1 .565-.202.44.44 0 0 1 .144.119c.042.083.036.131.036.131l.038-.035c.15-.13.617-.597.418-1.209.334.104.934-.488.934-.488v-.003l.002-.002s-.157-.828-.489-.932c.603-.463.323-1.29.323-1.29s-.45.496-1.146.493a2 2 0 0 1-.278-.033c.05-.109.102-.211.149-.285.394-.576 1.058-.664 1.058-.664s-.522-.7-1.247-.465c.104-.334-.488-.934-.488-.934q-.001 0-.003.002-.001-.003-.002-.003s-.828.159-.934.491c-.462-.603-1.288-.325-1.288-.325s.496.45.493 1.148a3 3 0 0 1-.042.318 2 2 0 0 1-.244-.13c-.576-.392-.664-1.056-.664-1.056s-.7.522-.465 1.247c-.332-.104-.934.488-.934.488l.002.003q-.003.001-.003.002s.159.828.491.932c-.603.463-.325 1.29-.325 1.29l.04-.022a.42.42 0 0 1 .313-.08.424.424 0 0 1 .347.488.424.424 0 0 1-.811.105l-.109-.235c-.121-.329-.081-.598-.081-.598v-.002l.005-.01a.427.427 0 0 0-.351-.488.423.423 0 0 0-.477.361v.01s-.054.285-.268.564q-.002.003-.002.005l-.161.197-.002.002c-.09.111-.249.156-.399.133a.423.423 0 0 1-.349-.488.424.424 0 0 1 .477-.361.4.4 0 0 1 .281.18s.51-.707.071-1.328c.349 0 .747-.743.747-.743l-.003-.003.003-.002s-.398-.743-.747-.743c.439-.622-.071-1.328-.071-1.328s-.284.607-.949.811a2 2 0 0 1-.273.05c.016-.118.033-.227.055-.309.204-.667.813-.949.813-.949s-.707-.514-1.328-.074c0-.348-.745-.745-.745-.745l-.002.002-.003-.002s-.742.398-.742.745c-.622-.439-1.33.074-1.33.074s.607.282.813.949c.023.083.042.192.054.309a2 2 0 0 1-.27-.05c-.667-.204-.949-.811-.949-.811s-.515.705-.074 1.328c-.349 0-.747.743-.747.743l.003.002-.003.003s.398.743.747.743c-.441.621.074 1.328.074 1.328q-.001-.002.031-.059a.4.4 0 0 1 .242-.133.423.423 0 0 1 .477.363.426.426 0 0 1-.349.488c-.149.022-.315-.021-.406-.133h.002l-.166-.206c-.213-.277-.256-.548-.256-.548v-.01a.423.423 0 0 0-.479-.361.423.423 0 0 0-.349.488l.003.01s.005.038.005.102c0 .112-.014.304-.092.515q0 .002-.003.005l-.088.228c-.054.135-.197.225-.348.249a.424.424 0 0 1-.479-.361.423.423 0 0 1 .348-.488.4.4 0 0 1 .29.066l.031.031s.278-.826-.327-1.29c.332-.104.489-.932.489-.932l-.003-.002v-.003s-.602-.59-.932-.486c.233-.724-.467-1.247-.467-1.247s-.088.664-.664 1.06a2 2 0 0 1-.246.13 2 2 0 0 1-.04-.315c-.005-.697.489-1.148.489-1.148s-.826-.278-1.29.327c-.102-.332-.932-.488-.932-.488q0 .001-.002.002l-.002-.002s-.591.602-.489.934c-.723-.232-1.243.469-1.243.469s.664.086 1.058.662c.047.074.097.173.145.28-.1.017-.195.031-.272.033-.698.005-1.15-.491-1.15-.491s-.277.828.328 1.29c-.332.104-.489.934-.489.934q.001 0 .002.002v.002s.602.591.934.488c-.233.724.465 1.245.465 1.245s.005-.041.024-.112c.04-.071.1-.131.18-.169.207-.1.46-.01.564.204a.426.426 0 0 1-.188.569.42.42 0 0 1-.417-.021l-.194-.13a1.3 1.3 0 0 1-.406-.448l-.003-.01a.425.425 0 0 0-.565-.202.425.425 0 0 0-.187.569l.007.01h-.002s.119.265.1.616l.002.005-.017.232a.42.42 0 0 1-.228.335c-.207.1-.46.01-.565-.202a.43.43 0 0 1 .188-.571.42.42 0 0 1 .322-.016l.003.002s.022-.873-.692-1.136c.287-.197.192-1.036.192-1.036h-.002v-.003s-.752-.387-1.036-.19c.009-.761-.814-1.051-.814-1.051s.109.66-.323 1.207a2 2 0 0 1-.225.221 2 2 0 0 1-.116-.256c-.211-.666.128-1.243.128-1.243s-.873-.019-1.136.697c-.197-.287-1.034-.19-1.034-.19q0 0-.003.003s-.244.474-.244.811a.4.4 0 0 0 .057.225c-.764-.007-1.051.816-1.051.816s.66-.112 1.209.318c.296.251.78.946.78.946.192.278.496.432.821.453a.46.46 0 0 1 .251.128c.164.157.15.339.15.339v.009c0 .173.048.348.154.5a.85.85 0 0 0 1.119.263.98.98 0 0 0-.161.545c0 .472.32.854.718.854h.064a1.8 1.8 0 0 0-.14.702c0 .349.092.664.235.88-.247.213-.413.595-.413 1.032v.353h-3.066a.82.82 0 0 0-.581.254.87.87 0 0 0-.24.603s-.009 30.211 0 30.26a5.38 5.38 0 0 0 5.41 5.363c3.811 0 4.099-.005 5.284.005 1.662 0 3.681.842 4.738 2.82 1.056-1.98 3.071-2.82 4.736-2.82l5.325-.005c2.747 0 5.376-2.251 5.376-5.363v-30.26a.846.846 0 0 0-.835-.858h-3.055v-.353c0-.437-.166-.82-.413-1.032.142-.216.232-.531.232-.88 0-.263-.052-.505-.137-.702h.064v-.005c.375-.026.674-.394.674-.849a.93.93 0 0 0-.192-.579l.007-.01q.007.006.016.012a.845.845 0 0 0 1.172-.23.86.86 0 0 0 .156-.508h.002s-.014-.182.149-.339a.46.46 0 0 1 .251-.128Zm-4.88-1.831s-.237-.456-.578-.674c.344-.24.692.026.692.026.1.306-.114.648-.114.648m-.454-4.048c.306-.1.648.111.648.111s-.458.239-.674.579c-.24-.344.026-.69.026-.69m-.08 1.964s.066-.211.159-.463c.145.035.299.066.406.069.475.002.859-.225.859-.225s.022.379-.389.695c.358.111.444.607.465.704l-1.632-.508q.083-.121.131-.271Zm-21.58.405s-.093.508.041.889c-.418-.022-.529-.446-.529-.446.111-.303.488-.443.488-.443m-.8 2.488s-.33-.475-.533-.647c-.375-.294-.818-.351-.818-.351s.216-.313.735-.308c-.214-.311.024-.752.067-.844l1.606 2.32c-.358.237-.828.163-1.058-.171Zm26.424-2.417s.09.508.351.816c-.403.126-.652-.23-.652-.23-.003-.323.301-.586.301-.586m-1.639 3.921c.149-.048.277-.017.277-.017s.118.024.031.114c-.019.021-.041.028-.142.1s-.073.233.102.259c.208.029.171.258.005.334-.242.107-.569-.093-.607-.278-.062-.304.183-.462.334-.512m-3.479-6.638c.112-.361.605-.446.705-.467l-.84 2.696c-.406-.137-.636-.553-.515-.941 0 0 .171-.553.178-.818a1.86 1.86 0 0 0-.223-.861s.379-.022.695.391m.204 4.99c.019-.123.111-.045.111-.045s.104.081.156.228.081.439-.197.578c-.168.083-.529-.052-.591-.306-.045-.18.111-.348.265-.202.128.121.273.045.268-.08-.005-.124-.014-.147-.01-.173Zm-1.184-1.86a.637.637 0 0 1 .792-.424.62.62 0 0 1 .411.448.6.6 0 0 0-.249-.152.655.655 0 0 0-.818.437.7.7 0 0 0-.026.29.65.65 0 0 1-.111-.6Zm-.939-3.057s.239.458.579.674c-.344.24-.692-.026-.692-.026-.1-.306.112-.648.112-.648Zm-.714 2.702s-.023-.379.389-.695c-.36-.112-.444-.607-.467-.705l1.634.51q-.083.121-.133.271s-.066.211-.157.463a2 2 0 0 0-.406-.069 1.85 1.85 0 0 0-.859.225Zm.323 1.532c.126-.092.259-.099.259-.099s.119-.014.062.099c-.01.024-.029.038-.104.137-.074.1 0 .246.175.218.208-.033.239.195.102.318-.194.175-.569.08-.659-.085-.15-.271.038-.496.164-.588Zm-2.438-1.646s-.363-.367-.754-.472c.258-.332.667-.182.667-.182.188.263.086.654.086.654Zm-.708-2.375c.455-.138.752-.47.752-.47s.137.354-.164.78c.377 0 .607.446.655.534h-1.71q.044-.143.045-.297s0-.223.014-.491c.149-.01.304-.026.408-.055Zm-.932-1.356c.265-.187.654-.086.654-.086s-.365.365-.47.756c-.332-.258-.183-.669-.183-.669Zm.147 5.21c.202.099.347-.048.294-.197-.054-.149-.071-.171-.076-.206-.024-.157.116-.097.116-.097s.157.059.275.218.263.501-.022.775c-.173.166-.659.138-.832-.147-.119-.201.007-.465.246-.346Zm-.294-2.188a.6.6 0 0 0-.287-.069.656.656 0 0 0-.647.664c0 .102.024.199.064.285a.65.65 0 0 1-.285-.539c0-.354.28-.643.626-.643.223 0 .417.121.529.303Zm-1.401 2.188c.24-.119.366.145.246.346-.173.285-.661.313-.832.147-.287-.273-.142-.616-.022-.775a.7.7 0 0 1 .277-.218s.14-.061.116.097c-.005.035-.024.057-.078.206-.052.149.093.296.294.197Zm-.413-5.296s.353-.133.778.166c0-.377.446-.605.534-.654v2.822c-.427-.01-.771-.339-.771-.745 0 0 0-.577-.071-.833a1.9 1.9 0 0 0-.47-.756m-1.031.807s.363.365.754.47c-.258.332-.667.182-.667.182-.187-.263-.086-.652-.086-.652Zm.121 2.792s-.135-.354.164-.78c-.377 0-.605-.446-.654-.534H89.2a1 1 0 0 0-.043.299s0 .221-.014.489c-.15.01-.304.026-.41.055-.455.14-.752.47-.752.47Zm-2.361 2.452c-.09.164-.463.259-.659.085-.138-.123-.105-.351.104-.318.175.028.249-.118.175-.218-.074-.099-.095-.112-.107-.137-.054-.112.066-.099.066-.099s.131.007.258.099c.128.092.316.316.164.588Zm.271-1.924s-.456-.24-.859-.225c.145-.394.581-.373.581-.373.258.195.278.598.278.598m-1.387-2.054c.392-.27.579-.674.579-.674s.233.297.074.794c.36-.114.712.246.785.313l-1.632.512a1 1 0 0 0-.047-.297s-.066-.213-.133-.472c.14-.054.284-.116.373-.175Zm-.492 1.9a.66.66 0 0 0-.294.019.657.657 0 0 0-.42.828.7.7 0 0 0 .145.252.63.63 0 0 1-.432-.429.634.634 0 0 1 .405-.801.62.62 0 0 1 .597.13Zm-.813 2.426c.152-.145.31.022.266.202-.062.254-.424.389-.591.306-.28-.138-.251-.431-.201-.578a.56.56 0 0 1 .159-.228s.09-.078.107.045c.007.026-.003.048-.007.173-.005.124.137.201.266.08Zm.012-5.341c.195-.258.595-.278.595-.278s-.239.456-.221.861c-.394-.147-.373-.583-.373-.583Zm-1.898.505s.299-.235.794-.076c-.112-.36.246-.711.315-.785l.844 2.694c-.411.119-.839-.092-.96-.479 0 0-.175-.552-.32-.776-.268-.392-.673-.578-.673-.578m-.742 1.077s.456.24.858.223c-.144.394-.581.373-.581.373-.256-.195-.277-.597-.277-.597Zm1.528 1.954c-.392.27-.579.674-.579.674s-.233-.297-.074-.792c-.36.112-.714-.246-.785-.315l1.63-.512q.002.15.048.297s.066.213.133.472a2.2 2.2 0 0 0-.373.175Zm-2.432 3.2c.149.05.396.207.334.512-.036.185-.367.386-.605.278-.168-.076-.204-.304.002-.334.178-.026.206-.187.104-.259-.1-.073-.123-.08-.142-.1-.085-.09.033-.114.033-.114s.126-.031.275.017Zm.051-1.43s-.507-.093-.889.043c.022-.42.446-.529.446-.529h.003c.304.111.439.486.439.486Zm-1.926 1.748q.085.117.202.185a.6.6 0 0 1-.505-.261.59.59 0 0 1 .138-.825.58.58 0 0 1 .565-.05.6.6 0 0 0-.256.099.613.613 0 0 0-.145.852Zm.087-2.324a1 1 0 0 0-.133-.27s-.126-.183-.266-.412c.116-.093.235-.195.304-.277.294-.375.351-.818.351-.818s.311.216.306.735c.311-.214.754.024.845.067l-1.407.973Zm26.653 7.924a.27.27 0 0 1 .271.27v30.059c0 2.5-2.03 4.528-4.54 4.544h-5.376v.002a6.19 6.19 0 0 0-4.684 2.199 6.18 6.18 0 0 0-4.682-2.199v-.002h-5.384c-2.523 0-4.57-2.033-4.57-4.544V58.15c0-.149.123-.27.273-.27h28.691Zm-22.859-3.916a.7.7 0 0 0-.018.169.47.47 0 0 0-.177.521.46.46 0 0 0 .324.304.5.5 0 0 0 .07.151c-.345.062-.467.079-.76.14-.131.027-.158-.13-.072-.174.108-.055.266-.188.217-.405-.053-.238-.227-.266-.388-.318-.096-.031-.098-.219.103-.257.159-.03.447-.078.701-.132Zm-.462-.709a.13.13 0 0 1 .254-.05l.04.205a.13.13 0 0 1-.254.05zm17.75 1.4a.47.47 0 0 0-.177-.521.7.7 0 0 0-.018-.169c.254.054.542.102.701.132.201.038.199.226.103.257-.16.052-.334.08-.387.318-.049.217.109.35.217.405.086.044.059.201-.072.174-.293-.061-.415-.078-.76-.14a.5.5 0 0 0 .07-.151.46.46 0 0 0 .324-.304Zm-.25-1.293.04-.205a.13.13 0 0 1 .254.05l-.04.205a.13.13 0 0 1-.254-.05m1.312 3.01c-.512-.159-2.481-.597-3.823-.774-.274-.023-.16.416-.32.393-.387-.046-2.631-.387-5.692-.387-2.223 0-5.464.221-8.768.963-.346.086-.687.164-1.291.328 0 0-.044-.074.03-.129.214-.107.291-.158.312-.29.014-.093-.08-.278.08-.323 1.725-.419 4.951-1.157 9.605-1.157 4.877 0 8.359.863 8.488.881s1.695.418 1.823.473c.182.063.148.165.108.33s-.103.279-.199.25c-.45-.102-1.227-.341-1.337-.341s-.114-.199.04-.171c.279.045.603.154.797.199.205.068.267-.199.148-.245Zm-5.297.042v.553c0 .069-.055.124-.125.124s-.124-.055-.124-.124v-.553c0-.069.055-.124.124-.124s.125.055.125.124m-1.338 0v.47a.207.207 0 1 1-.413 0v-.47a.206.206 0 0 1 .413 0m-.738-.064v.534a.207.207 0 0 1-.415 0v-.534c0-.114.093-.206.208-.206s.207.092.207.206m-.74-.041v.576c0 .114-.092.207-.206.207s-.206-.093-.206-.207v-.576c0-.114.092-.207.206-.207s.206.093.206.207m-.739-.045v.621a.208.208 0 0 1-.415 0v-.621a.208.208 0 0 1 .415 0m-.753 0v.621a.205.205 0 1 1-.41 0v-.621a.205.205 0 1 1 .41 0m-.739 0v.621c0 .114-.09.207-.204.207s-.208-.093-.208-.207v-.621c0-.114.093-.207.208-.207s.204.093.204.207m-.738.045v.576a.207.207 0 0 1-.207.207.206.206 0 0 1-.204-.207v-.576c0-.114.092-.207.204-.207.116 0 .207.093.207.207m-.738.041v.534a.207.207 0 1 1-.414 0v-.534a.207.207 0 0 1 .414 0m-.739.064v.47a.206.206 0 1 1-.413 0v-.47a.207.207 0 0 1 .413 0m-.99-.04v.593a.124.124 0 0 1-.126.124.124.124 0 0 1-.123-.124v-.593c0-.069.055-.124.123-.124.071 0 .126.055.126.124m-.804.175v.418a.125.125 0 0 1-.125.124.123.123 0 0 1-.124-.124v-.418c0-.067.055-.124.124-.124.067 0 .125.057.125.124m-1.162.225v.194c0 .069-.055.124-.124.124s-.125-.055-.125-.124v-.194c0-.069.055-.124.125-.124s.124.055.124.124m-2.43-1.96c.015-.094.104-.159.198-.144s.158.103.144.198a.173.173 0 0 1-.342-.054m.491-.84a.5.5 0 0 0-.072-.151c.249-.04.563-.086.723-.112.201-.033.243.139.163.201-.133.104-.286.19-.255.431.028.22.225.309.345.323.096.012.135.165.003.184-.296.043-.436.067-.778.117a.4.4 0 0 0 .017-.168.47.47 0 0 0 .196-.404.46.46 0 0 0-.341-.422Zm1.136.305c-.026-.24.164-.457.423-.485l1.069-.114c.259-.028.49.144.515.384s-.164.457-.422.485l-1.069.114c-.259.028-.49-.144-.516-.384m2.794-.3a.48.48 0 0 0 .306.353.5.5 0 0 0 .055.162l-.806.061c-.14.01-.154-.146-.059-.183.119-.045.298-.168.271-.4-.03-.254-.209-.303-.371-.374-.097-.043-.092-.201.122-.219l.743-.057a1 1 0 0 0-.02.131.5.5 0 0 0-.242.526Zm2.084.229c.099.022.118.19-.022.195-.314.013-.458.019-.822.036a.6.6 0 0 0 .036-.174.5.5 0 0 0 .249-.401.48.48 0 0 0-.311-.478c-.015-.064-.02-.087-.035-.122.275-.014.565-.03.742-.03.215 0 .24.119.15.175-.15.094-.32.167-.314.423.006.233.202.347.326.375Zm-.872-.322a.181.181 0 1 1-.35-.093.181.181 0 0 1 .35.093m-.251.418a.181.181 0 1 1-.35-.093.181.181 0 0 1 .35.093m-.059-.785a.181.181 0 1 1-.35-.093.181.181 0 0 1 .35.093m-.249.406a.181.181 0 1 1-.35-.093.181.181 0 0 1 .35.093m1.739-.342 1.038-.416c.222-.086.382-.096.619.022l1.06.427c.09.039.134.166 0 .241l-1.1.452a.71.71 0 0 1-.615-.017l-1.035-.473c-.096-.064-.058-.196.032-.235Zm2.977-.173c-.09-.056-.064-.176.15-.175.177 0 .467.016.742.03a1 1 0 0 0-.035.122.485.485 0 0 0-.062.879c.001.053.02.125.036.174a59 59 0 0 0-.822-.036c-.141-.006-.122-.173-.022-.195.124-.028.32-.142.326-.375.007-.256-.163-.33-.313-.423Zm1.83.044a.6.6 0 0 0-.02-.131c.285.022.574.043.743.057.214.018.219.176.122.219-.162.071-.341.12-.371.374-.027.232.152.355.271.4.095.036.082.193-.059.183l-.806-.061a.5.5 0 0 0 .055-.162.48.48 0 0 0 .306-.353.5.5 0 0 0-.242-.526Zm-.193.601a.181.181 0 1 1-.093-.35.181.181 0 0 1 .093.35m-.308.379a.181.181 0 1 1-.093-.35.181.181 0 0 1 .093.35m.059-.785a.181.181 0 1 1-.093-.35.181.181 0 0 1 .093.35m-.181.145a.181.181 0 1 1-.35.093.181.181 0 0 1 .35-.093m1.652.272c.026-.24.256-.412.515-.384l1.069.114c.259.028.448.244.423.485-.026.24-.256.412-.516.384l-1.069-.114c-.259-.028-.448-.244-.422-.485m3.289.803a.173.173 0 1 1 .342-.054.173.173 0 0 1-.342.054m2.54.539-1.022-.603c-.048-.035-.029-.11.029-.12l1.225-.14a.07.07 0 0 1 .069.033l.27.471a.067.067 0 0 1-.025.091l-.473.272a.07.07 0 0 1-.073-.004m-2.014-.724a.173.173 0 1 1-.054-.342.173.173 0 0 1 .054.342m-.196-.409a.173.173 0 1 1-.054-.342.173.173 0 0 1 .054.342m.037-.962a.13.13 0 0 1-.254-.05l.04-.205a.13.13 0 0 1 .254.05zm-.222 1.081a.173.173 0 1 1-.342.054.173.173 0 0 1 .342-.054m-.291-.419a.46.46 0 0 0-.341.422.47.47 0 0 0 .196.404c-.008.059.004.11.017.168-.343-.05-.482-.074-.778-.117-.133-.019-.094-.172.003-.184.12-.014.317-.103.345-.323.031-.242-.122-.328-.255-.431-.08-.062-.038-.235.163-.201.16.026.474.072.723.112a.5.5 0 0 0-.072.151Zm-.114-.823c-.046.185-.139.145-.429.095-1.878-.327-4.923-.613-7.105-.603-3.829.017-6.443.528-7.492.689-.353.071-.383-.394-.142-.432 1.23-.193 4.96-.708 7.635-.706 1.757.001 6.485.494 6.969.572.291.042.119.3.227.327.148.044.124-.095.18-.204.056-.11.204-.04.194.051-.007.06-.021.154-.036.212ZM82.473 54.25a.173.173 0 1 1-.054.342.173.173 0 0 1 .054-.342m-.384.024a.173.173 0 1 1 .054-.342.173.173 0 0 1-.054.342m-.103-.81a.13.13 0 0 1-.152-.102l-.04-.205a.13.13 0 0 1 .254-.05l.04.205a.13.13 0 0 1-.102.152m-.039.877a.173.173 0 1 1-.054.342.173.173 0 0 1 .054-.342m-1.07.343c.058.009.076.084.029.12l-1.022.603a.07.07 0 0 1-.073.004l-.473-.272a.067.067 0 0 1-.025-.091l.27-.471a.07.07 0 0 1 .069-.033zM79.4 56.573a.203.203 0 0 1 .249.144l.024.091a.203.203 0 0 1-.393.106l-.024-.091a.203.203 0 0 1 .144-.249Zm21.545-2.984c-.974 0-1.662-.646-2.023-1.483-1.084.694-2.378.354-2.989-.633a2.32 2.32 0 0 1-2.329.015 1.7 1.7 0 0 1-.476-.451c-.187.135-.38.248-.596.332-.818.352-1.727.089-2.318-.548-.758.834-2.068.884-2.967.212a1.7 1.7 0 0 1-.473.448 2.21 2.21 0 0 1-2.293-.022c-.119.216-.252.42-.446.576-.69.556-1.718.593-2.52.094-.303 1.126-2.186 1.962-2.701 1.272a.6.6 0 0 1-.048-.566.084.084 0 0 1 .11-.047.09.09 0 0 1 .051.061c.082.321.189.436.45.434.807-.059 1.655-.783 1.802-1.585.027-.19.278-.259.4-.115.192.164.418.326.667.4.763.26 1.67-.252 1.94-1.006a.238.238 0 0 1 .37-.101c.35.277.857.522 1.309.442.502-.075.87-.338 1.133-.792a.23.23 0 0 1 .317-.068c.191.167.439.382.696.475.746.304 1.529.018 2.017-.651a.228.228 0 0 1 .357 0c.639.936 1.869.873 2.643.156.146-.114.276-.074.371.079.152.246.266.45.448.581.591.364 1.408.292 2.042-.116.11-.071.289-.133.396.138.527 1.023 1.555 1.272 2.575.431.13-.107.338-.063.381.099.245.829.821 1.515 1.708 1.531.264.009.459-.041.517-.323.014-.117.199-.113.215 0 .094.412-.347.759-.735.732Zm.811-3.142c-.453-.144-.887-.041-.887-.041s.09-.368.579-.546c-.31-.214-.244-.712-.233-.813l1.406.973a1 1 0 0 0-.207.22s-.126.183-.289.394a2.6 2.6 0 0 0-.368-.187Zm1.151 1.752a.57.57 0 0 1-.51.246.6.6 0 0 0 .204-.182.613.613 0 0 0-.166-.851.6.6 0 0 0-.252-.102.6.6 0 0 1 .565.067.59.59 0 0 1 .159.821Zm2.322-3.047c.323-.003.586.301.586.301s-.508.092-.816.353c-.126-.401.23-.654.23-.654m-2.024.427s.33-.475.418-.726c.144-.455.041-.889.041-.889s.367.092.545.581c.214-.311.714-.244.813-.235l-1.605 2.32c-.348-.251-.443-.718-.213-1.051Zm-23.516 5.139.714.106-.794.179a.048.048 0 0 1-.056-.066l.089-.192a.05.05 0 0 1 .048-.027Zm5.164-.678c.012.115-.079.22-.203.233l-.514.055c-.125.013-.235-.069-.248-.185-.012-.115.079-.22.203-.233l.514-.055c.124-.013.235.069.248.185m6.351-.361-1.827-.007c-.051 0-.066-.069-.019-.09l.747-.279a.27.27 0 0 1 .198-.007l.918.292c.049.018.037.091-.016.091Zm5.349.465c-.012.115-.123.198-.248.185l-.514-.055c-.124-.013-.215-.117-.203-.233.012-.115.123-.198.248-.185l.514.055c.125.013.215.117.203.233m4.28.86-.794-.179.714-.106a.05.05 0 0 1 .048.027l.089.192a.048.048 0 0 1-.056.066Z"/><path d="M82.797 78.88h5.991s.626 0 .626.609v9.032s-.2-.305-.609-.305h-6.007v-9.337Zm6.359 9.993c.462 0 .688.344.688.344V79.011c0-.688-.707-.688-.707-.688h-6.769v10.55z"/></svg>