<svg xmlns="http://www.w3.org/2000/svg" viewBox="0 0 89.57 28.35"><defs><style>.cls-1,.cls-2{fill:#1f1e21}.cls-1{fill-rule:evenodd}</style></defs><g id="Capa_2" data-name="Capa 2"><g id="Capa_1-2" data-name="Capa 1"><path d="M9.19 9.4a.68.68 0 0 1 0-.46.41.41 0 0 1 .49.17c.09.2 0 .38-.23.52a.75.75 0 0 1-.26-.23M16.13 21.26 14.7 22.4l-.01-11.8h1.44zM17.06 20.23V10.6h1.17V18a8.3 8.3 0 0 1-1.17 2.23M12.34 21.37l1.45 1.14V10.6h-1.45zM11.53 20.56v-10h-1.3v7.84a5.7 5.7 0 0 0 1.3 2.16" class="cls-1"/><path d="M14.17 24A9.86 9.86 0 1 1 24 14.17 9.86 9.86 0 0 1 14.17 24v.34A10.2 10.2 0 1 0 4 14.17a10.21 10.21 0 0 0 10.2 10.2Z" class="cls-2"/><path d="M14.17 27.9A13.73 13.73 0 1 1 27.9 14.17 13.74 13.74 0 0 1 14.17 27.9v.45A14.18 14.18 0 1 0 0 14.17a14.19 14.19 0 0 0 14.17 14.18Z" class="cls-2"/><path d="M2.49 18.19a2.4 2.4 0 0 1 .64.91 2.4 2.4 0 0 1 .2 1l.7-.31a2.8 2.8 0 0 1-.56-.82 2.7 2.7 0 0 1-.26-1.07Z" class="cls-1"/><path d="M2.44 19.74a2.3 2.3 0 0 1 .91-.63 2.7 2.7 0 0 1 1-.21L4 18.2a2.8 2.8 0 0 1-.82.56 2.6 2.6 0 0 1-1.06.24ZM25.83 18.19a2.6 2.6 0 0 0-.83 1.88l-.7-.31a3 3 0 0 0 .56-.82 2.7 2.7 0 0 0 .26-1.07Z" class="cls-1"/><path d="M25.87 19.74a2.3 2.3 0 0 0-.9-.63 2.7 2.7 0 0 0-1-.21l.31-.7a2.7 2.7 0 0 0 .82.56 2.6 2.6 0 0 0 1.1.24ZM8.64 24c.19-.1.28 0 .32-.07s0-.06-.05-.1-.15-.1-.22-.15l-.2-.18s-.09-.08-.13 0 .25.19.06.43a.9.9 0 0 1-.31.24l-.95.52h-.07c-.01 0 0-.05 0-.08l.33-1.07a1.4 1.4 0 0 1 .18-.43c.08-.11.2 0 .26 0s0 0-.06-.11l-.28-.2-.23-.2s-.1-.11-.15-.05 0 .06 0 .07a.27.27 0 0 1 .06.29l-.56 2v.2c0 .02 0 0 .12 0ZM11.1 25c.06-.24.24-.07.27-.19s0 0-.07-.06l-.3-.06-.4-.12h-.11s.33.11.26.38l-.37 1.5c-.1.38-.28.16-.32.3s0 0 .05 0l.39.08c.15 0 .32.1.78.21a.49.49 0 0 0 .55-.4v-.08c0-.01-.17.4-.92.21-.21-.05-.17-.16-.12-.36ZM12.89 25.39c0-.22 0-.22.4-.2.6 0 .33.41.48.42s.06-.11.06-.15v-.32a.07.07 0 0 0-.06-.07h-.7l-.81-.07s-.07 0-.07.06.34.05.32.34l-.1 1.52c0 .4-.25.2-.27.35s0 0 .06 0h.4c.1 0 .34 0 .81.07.25 0 .45-.24.47-.49v-.08c0-.01-.11.42-.87.37-.22 0-.2-.13-.19-.33v-.42c0-.19 0-.23.15-.22h.22c.32 0 .21.36.31.37s.07-.12.07-.16v-.58c0-.09 0-.08-.06-.08s-.09.29-.36.27H13c-.13 0-.13 0-.12-.17ZM14.54 27c0 .33-.27.29-.26.42s.07 0 .1 0h.63s.12 0 .11-.05-.39.1-.44-.52l-.1-1.11v-.05a.07.07 0 0 1 .06 0l1.63 1.55s0 .05.09 0 0 0 0-.1l-.16-1.82c0-.34.24-.28.23-.38s0 0-.07 0a3 3 0 0 1-.32 0h-.36a.05.05 0 0 0 0 .06c0 .11.38 0 .4.31l.1 1.08v.12s-.06 0-.11-.07l-1.36-1.32c-.06-.06 0-.09-.13-.08s-.24 0-.32 0h-.17s-.05 0-.05.06.34-.09.39.53ZM18.37 24.46s0 .12-.07.14a1.9 1.9 0 0 0-.73 0 1.17 1.17 0 0 0-.68 1.54 1 1 0 0 0 1.32.73 1 1 0 0 0 .76-.88s0 0-.05 0-.16.49-.62.63-1-.37-1.12-.81a.8.8 0 0 1 .41-1.06 1 1 0 0 1 .93.34s.07.09.12.08 0-.08 0-.11ZM19.26 24.27c-.14-.28.12-.28.07-.38s0 0-.12 0-.25.14-.35.2-.21.09-.31.15-.1 0-.07.09.31-.14.45.12l.74 1.38c.14.27-.09.3 0 .4s0 0 .05 0l.3-.17c.21-.12.32-.16.42-.21s.08-.06.06-.09-.28.2-.47-.15ZM1.55 12.85c-.19-.09-.16-.19-.24-.2s-.05 0-.05.08v.45c0 .08 0 .1.05.11s0-.26.32-.23a1 1 0 0 1 .38.12l1 .45h.07H3l-1.08.24a1.8 1.8 0 0 1-.46.05c-.13 0-.07-.16-.16-.17s-.05 0-.06.09 0 .12 0 .28a3 3 0 0 0 0 .27v.12c0 .01 0 0 .05 0s.08-.13.21-.16l2-.46c.14 0 .18-.06.18-.09s0 0-.1-.08ZM3.1 12.64c.32.08.21.31.33.34s0-.05.06-.07 0-.14 0-.23.05-.17.08-.29 0-.1 0-.11 0 .34-.62.2l-1.08-.25 1.93-.84.06-.05c.06-.05 0 0-.09 0L2 10.8c-.33-.07-.21-.27-.3-.29s0 0-.05 0 0 .11 0 .27-.07.25-.08.29 0 0 0 .05.12-.3.41-.23l1.06.24c.08 0 .11 0 .11.05l-.1.06-1.63.76c-.07 0-.08 0-.1.07s0 .21-.05.27a1 1 0 0 1-.05.14.06.06 0 0 0 .05.06c.15 0 0-.3.62-.16ZM2.26 9.9C2 9.81 2.13 9.66 2 9.62s0 0-.07.08a2.4 2.4 0 0 0-.09.32c0 .09-.08.18-.11.28s0 .08 0 .1.11-.28.39-.19l1.49.49c.29.09.16.24.26.28S4 11 4 11s0-.17.08-.28.1-.28.13-.37 0-.08 0-.09 0 .29-.43.16ZM3 8.05c-.15-.14-.09-.23-.16-.26s-.05 0-.08.06 0 .14-.07.21-.08.13-.11.2 0 .09 0 .12.1-.25.38-.12a1.1 1.1 0 0 1 .32.23l.72.73v.06l-1.1-.11a2 2 0 0 1-.45-.1c-.13-.05 0-.18-.1-.21s0 0-.08.07 0 .11-.11.26-.08.16-.12.24-.07.1 0 .13.05 0 .06 0 .12-.11.26-.09l2 .17h.2c.01 0 0 0-.07-.1ZM3.54 7.38c-.19-.13-.19-.14 0-.4.28-.42.49-.05.55-.15S4 6.73 4 6.71l-.3-.16h-.08c-.13.19-.22.35-.32.5-.21.34-.33.49-.39.58v.07c.11.08.18-.23.43-.07l1.28.83c.33.22.07.29.2.37s0 0 .06 0 .12-.22.17-.29l.4-.54c.12-.18 0-.46-.24-.6h-.07s.32.28 0 .82c-.1.16-.2.09-.36 0l-.38-.29c-.16-.1-.2-.11-.14-.21l.11-.17c.15-.22.4 0 .44 0s-.07-.11-.11-.13l-.49-.3h-.1c-.01 0 .22.21.1.4l-.09.14c-.06.09-.08.08-.2 0ZM6.78 6.12c.06 0 .08.08.14 0A2 2 0 0 0 7.34 6a.63.63 0 0 0 0-.93.7.7 0 0 0-.8-.25c-.39.08-.52.14-.67 0a.3.3 0 0 1 0-.45c.34-.28.76.15.81.12s0-.08 0-.13L6.34 4c0-.06-.08-.1-.11-.07s0 .1-.07.12-.22 0-.39.16A.57.57 0 0 0 5.8 5a.59.59 0 0 0 .67.21c.47-.09.62-.17.8 0a.37.37 0 0 1 0 .55c-.22.18-.54.06-.8-.13h-.09c-.03 0 0 .1.07.13ZM7.12 3.66c-.17-.26 0-.27 0-.36s0 0-.1 0l-.27.2a3 3 0 0 1-.25.16s-.07.05 0 .09.25-.15.42.09l.9 1.28c.18.26 0 .3 0 .39s0 0 .05 0 .14-.12.23-.18.25-.16.33-.22.06-.06 0-.09-.21.21-.44-.12ZM16.19 1.68c0-.14.08-.2.19-.18.4.07.34.55.32.63s-.1.44-.41.38h-.12l-.05.06c-.05.06 0 .09.25.14a.58.58 0 0 0 .63-.59.59.59 0 0 0-.54-.74l-.4-.06-.35-.07c-.06 0-.08 0-.08.05s.26 0 .2.37l-.24 1.41c-.08.4-.27.3-.28.39s0 .06 0 .06h.32l.35.08h.07c.01 0-.26 0-.19-.44ZM18.35 1.83c-.59-.2-1.09.19-1.32.87A1 1 0 0 0 17.5 4c.78.27 1.19-.44 1.34-.87.22-.62-.01-1.13-.49-1.3m.15 1.35c-.18.51-.46.87-.89.74s-.38-.84-.22-1.29.42-.83.84-.7.5.57.27 1.25M19.79 2.77c.11-.22.22 0 .28-.14s0 0 0-.07a3 3 0 0 1-.27-.12l-.31-.17h-.1c-.02 0 .25.16.13.4l-.7 1.38c-.18.35-.28.1-.35.24l.3.14.61.32c.19.1.44-.07.56-.3v-.07s-.25.35-.83.06c-.17-.09-.1-.19 0-.37ZM21.2 3.65c.17-.26.27 0 .33-.14s0 0-.05-.09l-.28-.18-.2-.17s-.07-.06-.1 0 .23.19.07.43l-.88 1.3c-.17.26-.28.08-.34.18l.25.16c.17.11.24.18.32.23s.08 0 .09 0-.26-.13 0-.46ZM21.1 5.47c-.24.31-.37 0-.45.1s0 .08 0 .11.16.11.3.22l.27.23c.06 0 .1.09.15 0s-.27-.21 0-.52l.91-1.16c.09-.12.12-.12.21-.06l.17.14c.25.17 0 .41 0 .47s.11-.07.13-.11l.21-.22s.05-.06 0-.09l-.64-.48c-.3-.23-.43-.35-.62-.5h-.08l-.3.31s-.09.08 0 .11.29-.31.52-.13l.17.13c.09.07.1.1 0 .22ZM23.35 5.5c.16-.15.17-.15.39.08s-.08.48 0 .57.12 0 .14-.07l.23-.22v-.08c-.15-.17-.29-.29-.41-.43l-.47-.52h-.07c-.1.09.18.23 0 .43L22 6.3c-.29.27-.3 0-.41.11v.06c.1.11.18.18.24.24s.18.22.45.51.45.08.63-.09 0-.06 0-.07-.36.24-.8-.23c-.13-.14 0-.21.11-.35l.31-.28c.14-.13.16-.16.24-.08l.13.15c.19.19-.12.38-.06.44s.12 0 .15-.08l.41-.41c.06-.06 0-.08 0-.09s-.26.16-.42 0L23 6c-.08-.09-.06-.1 0-.2ZM25.28 7.52h-.13c-.02 0 0-.34-.17-.6-.37-.55-1.12-.37-1.57-.06-.21.14-.84.71-.41 1.34a.84.84 0 0 0 1 .34s0 0 0-.05-.49 0-.72-.3.14-.94.52-1.2.86-.32 1.07 0a.83.83 0 0 1-.12.89s-.07.09-.05.12.08 0 .11 0Z" class="cls-1"/><path d="M24 8.81c-.3.14-.35-.11-.47-.06s0 .07 0 .09l.1.2c0 .08.07.17.12.28s0 .1.08.08-.2-.28.37-.54l1-.47h.06v.06l-1 1.85v.08c0 .08 0 0 .1 0L26 9.6c.31-.15.33.08.42 0s0 0 0-.06-.06-.1-.13-.25-.1-.23-.12-.27h-.06c-.1.05.09.31-.18.44l-1 .46h-.11v-.11l.88-1.51c0-.07.07-.05 0-.12s-.1-.18-.13-.24 0-.1 0-.14a.05.05 0 0 0-.07 0c-.15.07.17.24-.4.51ZM26.3 10.53c.29-.1.24.12.35.09s0 0 0-.1-.09-.23-.12-.32 0-.18-.07-.28 0-.09-.07-.07.06.29-.22.38l-1.48.48c-.3.1-.28-.11-.38-.07s.07.16.1.27.08.29.11.38 0 .08.07.07-.13-.27.25-.39Z" class="cls-1"/><path d="M27 12.46s-.11 0-.12-.07.14-.31.09-.62c-.12-.65-.87-.78-1.41-.69-.25 0-1.05.31-.92 1.06a.87.87 0 0 0 .75.71s-.46-.17-.53-.57.51-.81 1-.89.91.06 1 .43a.84.84 0 0 1-.47.76s-.11.05-.1.1.08 0 .11 0ZM12.73 5.8a.3.3 0 0 1 .31.3.31.31 0 0 1-.62 0 .3.3 0 0 1 .31-.3" class="cls-1"/><circle cx="9.96" cy="6.72" r=".31" class="cls-2"/><path d="M19.08 7.58c-.07.17-.15.2-.44.15s-.24-.36-.23-.5L18 7.11c-.17.35-.38.37-.54.35s-.31-.53-.3-.82l-.42-.08c-.2.57-.29.66-.55.71a.35.35 0 0 1-.31-.12.6.6 0 0 1-.15-.36 1 1 0 0 0 0-.19l-.42-.07a1 1 0 0 0 0 .23.7.7 0 0 1-.22.39.26.26 0 0 1-.23 0c-.2-.06-.47-.22-.47-1h-.44v.07c0 .58-.14.87-.47 1a.26.26 0 0 1-.24-.06.63.63 0 0 1-.24-.42 1 1 0 0 0 0-.19h-.43a.6.6 0 0 0 0 .18.64.64 0 0 1-.18.4.27.27 0 0 1-.27.1c-.26 0-.39-.16-.59-.73l-.42.08c0 .3 0 .81-.27.85s-.33 0-.53-.41l-.41.12c0 .27-.08.54-.24.58s-.27.06-.4-.16V7.5l-.37.22v.06c.2.34.35.49.89.36a.74.74 0 0 0 .49-.47.78.78 0 0 0 .64.19.67.67 0 0 0 .57-.52.93.93 0 0 0 .57.32.73.73 0 0 0 .66-.22.8.8 0 0 0 .11-.14 1 1 0 0 0 .14.13.67.67 0 0 0 .62.14 1 1 0 0 0 .59-.43.92.92 0 0 0 .57.43.68.68 0 0 0 .6-.11 1 1 0 0 0 .15-.15l.07.09a.79.79 0 0 0 .71.26.88.88 0 0 0 .55-.31.7.7 0 0 0 .58.5.83.83 0 0 0 .65-.16.68.68 0 0 0 .51.43.73.73 0 0 0 .92-.42Z" class="cls-2"/><path d="M15.55 5.81a.31.31 0 1 1 0 .62.31.31 0 0 1 0-.62M18.36 6.38a.3.3 0 0 1 .31.3.31.31 0 1 1-.62 0 .3.3 0 0 1 .31-.3M9.97 9.1l.32-.32.41.16-.31.31z" class="cls-1"/><path d="M9.24 8.85a14 14 0 0 1 4.94-.76 14 14 0 0 1 4.95.76.18.18 0 0 0 .21-.14.2.2 0 0 0-.09-.25 14.4 14.4 0 0 0-5.07-.78 14.4 14.4 0 0 0-5.06.78.19.19 0 0 0-.12.25.18.18 0 0 0 .24.14M9.64 10.05l.52-.12a16.2 16.2 0 0 1 4-.47 18.2 18.2 0 0 1 4.05.49l.51.1s.15 0 .19-.16a.19.19 0 0 0-.11-.24l-.51-.1a18.8 18.8 0 0 0-4.13-.5 16.6 16.6 0 0 0-4.09.48l-.51.12a.21.21 0 0 0-.12.24.19.19 0 0 0 .2.16" class="cls-2"/><path d="m12.47 8.62.37-.26.4.21-.37.26zM19.13 9.38a.68.68 0 0 0 0-.46c-.14-.05-.43 0-.5.17a.41.41 0 0 0 .24.52.75.75 0 0 0 .26-.23M18.37 9.1l-.33-.32-.4.16.31.31zM15.85 8.62l-.37-.26-.41.21.38.26zM17.37 8.85c0-.22-.21-.38-.53-.43s-.62 0-.65.24.2.38.52.43.63-.02.66-.24" class="cls-1"/><path d="M9.83 20.66a1.4 1.4 0 0 0-.16-.37 5 5 0 0 0-.48-.66v-.06l.26-.29h.06L9.35 19a5.3 5.3 0 0 1-.44-.75A5.8 5.8 0 0 1 8.48 17h-.16l-.41.11a7.8 7.8 0 0 1-.54-4.49l.93.4h.11v-.11l.44-1.66v-.05h-.08l-.39-.2.18-.79.06-.07-.1-.06-1.81-1.15-.06.07h-.08A9 9 0 0 0 5 13.84a8.7 8.7 0 0 0 1.44 5.08l.06.08h.05l.57-.35.18.35.11.16-.53.34.06.08-.09.06.06.09c.35.61 1.19 2 2 1.74a1.8 1.8 0 0 0 .56-.33 3 3 0 0 1 .31-.24h.07v-.08ZM9 19.4c-.12-.16-.24-.34-.35-.52l.5.35Zm-.83-2.11-.09.34-.08-.29Zm.07-4.47-.86-.37v-.17l.54.06h.06l.46-.58Zm-.74-.74a6 6 0 0 1 .74-1.47l-.33 1.52Zm1.07-.73-.39.48.14-.61Zm-2.04 7.37a8.46 8.46 0 0 1-1.35-4.87 8.73 8.73 0 0 1 1.5-4.69l1.63 1C6.7 12.25 6.59 14.75 8 17.85Zm.77-.23.85-.49h.08l.13-.52a6 6 0 0 0 .36.93 4 4 0 0 0 .3.55l-.59-.41-.09.06-.76.39a1 1 0 0 1-.1-.14 3 3 0 0 1-.18-.37m2.06 2.44a1.4 1.4 0 0 1-.48.3c-.69.23-1.49-1.14-1.8-1.65l1.27-.83a8 8 0 0 0 .68 1 5 5 0 0 1 .46.64 2 2 0 0 1 .15.32 3 3 0 0 0-.28.22m14-7.09A9 9 0 0 0 21.75 9h-.08l-.06-.09-1.81 1.18-.1.06.06.07.18.79-.42.22h-.08v.05l.45 1.72v.11H20l.93-.4a7.8 7.8 0 0 1-.54 4.49L20 17h-.16a5.8 5.8 0 0 1-.43 1.23A5.4 5.4 0 0 1 19 19l-.14.21.09.09.24.28v.05a3.5 3.5 0 0 1-.41.46l-.13.12a.56.56 0 0 0-.26.47.24.24 0 0 0 .15.19 2 2 0 0 0 .32.11h.31a1.34 1.34 0 0 0 .8-.07 2.37 2.37 0 0 0 1.25-1.31h-.1l.05-.09-.37-.22c.08-.11.19-.27.27-.4l.18-.35.57.35.08.05.06-.08a8.7 8.7 0 0 0 1.39-5.02ZM20 11.22l.14.61-.39-.48Zm.08-.61a6 6 0 0 1 .74 1.47l-.41.05Zm0 2.21-.29-1.1.46.58h.06l.54-.06a1 1 0 0 0 .05.17Zm.28 4.52-.12.29-.09-.34Zm-1.19 1.93.39-.21-.25.37Zm1.79.43a2.13 2.13 0 0 1-1.08 1.09 1.14 1.14 0 0 1-.71.07h-.31a1.3 1.3 0 0 1-.29-.1.39.39 0 0 1 .19-.28l.13-.12a4 4 0 0 0 .43-.48 4.4 4.4 0 0 0 .48-.88Zm-.1-.85c-.07.12-.19.29-.26.39l-.76-.46-.09-.06-.55.28a5 5 0 0 0 .39-.68 6 6 0 0 0 .41-.92l.13.52h.07l.86.52a3 3 0 0 1-.22.41Zm.95-.13-1.44-.87c1.38-3.1 1.27-5.6-.34-7.65l1.63-1a8.73 8.73 0 0 1 1.5 4.69 8.46 8.46 0 0 1-1.37 4.83Z" class="cls-2"/><path d="M14.78 8.56c0-.22-.25-.35-.58-.35s-.61.11-.61.33.24.34.58.35.61-.11.61-.33M10.93 8.85c0-.22.21-.38.53-.43s.62 0 .65.24-.19.38-.52.43-.59-.02-.66-.24M9.6 24.2v-.13c0-.01-.07 0-.12.07l-1.66 1.37c-.15.13-.28 0-.32.11s0 .05.07.07l.25.11.25.15c.06 0 .13.09.17 0s-.29-.18-.18-.39a.9.9 0 0 1 .18-.2c.16-.16.22-.14.27-.12l.54.28c.07 0 .07.07 0 .34a.6.6 0 0 1 0 .22c-.09.18-.27.05-.32.13s0 .05.07.08l.31.14.35.19c.08 0 .1.06.12 0s-.16-.06-.14-.31Zm-.43 1a.25.25 0 0 1 0 .12s-.06 0-.11 0l-.37-.2c-.05 0-.09 0-.08-.07s.06-.06.09-.09l.47-.4ZM22.66 24.19c-.07-.09-.12.11-.34 0l-1.89-1.05c-.09-.06-.1-.06-.12 0s0 .08 0 .14l.55 2.07c.05.19-.08.27 0 .33s.06 0 .1 0l.2-.18.24-.17c.05 0 .14-.08.1-.13s-.29.18-.43 0a.9.9 0 0 1-.11-.24c-.07-.22 0-.27 0-.3l.48-.37c.06-.05.1 0 .33.1a.5.5 0 0 1 .18.14c.12.15-.07.26 0 .34s0 0 .1 0 .15-.14.26-.22.23-.17.32-.24.06-.18.03-.22m-1.42-.07-.34.26s-.07.06-.09 0a.2.2 0 0 1 0-.11l-.17-.6v-.05l.57.31.1.07s-.03.08-.07.12M12.13 6l-.06-.3a.23.23 0 0 0-.27-.18l-.26.06-.06-.28a.23.23 0 0 0-.27-.17l-.3.06a.22.22 0 0 0-.18.27l.06.27-.26.06a.24.24 0 0 0-.18.27l.07.3a.22.22 0 0 0 .27.18L12 6.3a.23.23 0 0 0 .13-.3m-.81.38a.32.32 0 0 1-.39-.25.33.33 0 1 1 .39.25M14.8 5.23h-.27V5a.23.23 0 0 0-.23-.23H14a.23.23 0 0 0-.23.23v.28h-.27a.23.23 0 0 0-.23.23v.31a.23.23 0 0 0 .23.18h1.3a.23.23 0 0 0 .2-.23v-.31a.23.23 0 0 0-.2-.23m-.65.77a.33.33 0 0 1-.33-.33.33.33 0 0 1 .66 0 .33.33 0 0 1-.33.33M17.79 5.82l-.26-.06.06-.27a.23.23 0 0 0-.18-.27l-.3-.06a.23.23 0 0 0-.27.17l-.06.28-.26-.06a.23.23 0 0 0-.27.18l-.06.3a.23.23 0 0 0 .17.27l1.27.27a.23.23 0 0 0 .27-.18l.07-.3a.24.24 0 0 0-.18-.27m-.4.34a.33.33 0 1 1-.25-.39.32.32 0 0 1 .25.39M20 6.39a.23.23 0 0 0-.31.07l-.14.25-.23-.14a.24.24 0 0 0-.32.07l-.16.27a.23.23 0 0 0 .08.31l.5.32a.22.22 0 0 0 .31-.08l.16-.26c.04-.11.11-.2.11-.2l.26-.45Zm-.55 1.11a.33.33 0 0 1-.12-.45.34.34 0 0 1 .46-.12ZM9.51 6.91l-.16-.27A.24.24 0 0 0 9 6.57l-.23.14-.14-.25a.24.24 0 0 0-.32-.07l-.26.15.29.46s.05.1.12.21l.16.26a.22.22 0 0 0 .31.08l.5-.32a.23.23 0 0 0 .08-.32m-.64.59-.34-.57a.34.34 0 0 1 .47.12.33.33 0 0 1-.13.45M6.68 6.22h-.06v.07a.11.11 0 0 1-.1 0c-.44-.13-.94-.27-1-.29s0-.09 0-.2a.57.57 0 0 0-.2-.38.57.57 0 0 0-.87.07c-.12.13-.22.27-.34.41l-.21.22v.07c.09.08.18-.21.46 0l1.08.94c.31.26.09.35.17.42s.08 0 .1 0L6 7.28l.16-.16v-.09c0-.02-.16.21-.44-.03l-.42-.36c-.09-.08-.12-.08 0-.18s.13-.12.28-.07l.53.17c.2.06.41.14.54 0s.11-.27.03-.34m-1.48.1c0 .06-.12.13-.18.08l-.5-.4c-.14-.12-.09-.19 0-.26s.45-.15.69.06.25.2-.01.52M11.88 3.62c0-.1-.13.06-.28-.13l-1.28-1.68c-.07-.09-.07-.09-.09-.08s0 .07 0 .13L10.14 4c0 .19-.14.21-.12.29s.05 0 .09 0l.21-.09.24-.06s.13 0 .11-.09-.28.06-.35-.17a2 2 0 0 1 0-.26c0-.22 0-.25.09-.26l.48-.16c.07 0 .09 0 .25.22a.6.6 0 0 1 .11.19c.06.19-.12.21-.09.3s0 0 .09 0l.26-.11.33-.09c.03-.04.06-.04.04-.09M10.73 3l-.33.11h-.09a.25.25 0 0 1 0-.12v-.65l.39.5a.3.3 0 0 1 .06.1s.02.06-.03.06M27.23 13.58s-.07 0-.12-.05l-2-.51c-.19 0-.19-.18-.26-.18s0 .05 0 .08v.23a2 2 0 0 0 0 .25s0 .14.06.13 0-.29.24-.31a1 1 0 0 1 .26 0c.22 0 .24.09.25.14l.05.51c0 .07 0 .08-.27.19a.5.5 0 0 1-.22.07c-.19 0-.18-.17-.27-.16s0 0 0 .09v.62c0 .09 0 .1.06.09s0-.14.19-.24l1.92-.91c.1-.01.11-.02.11-.04m-.65 0-.57.27a.25.25 0 0 1-.12 0s0 0 0-.08v-.44h.12l.6.14s-.01.08-.03.1Z" class="cls-1"/><path d="M18.69 10.05H9.31v5.13c0 2.26.14 4.14 1.87 5.9a16 16 0 0 0 2.87 2.3l.07.05.13.09.11-.1c.36-.29.67-.52 1-.73a8.8 8.8 0 0 0 1.8-1.69 7.8 7.8 0 0 0 1.94-5.87v-5.08Zm-1.84 10.73a8.4 8.4 0 0 1-1.76 1.57c-.3.22-.5.35-.87.65a16.3 16.3 0 0 1-2.75-2.21c-1.63-1.66-1.76-3.38-1.76-5.62v-4.72h9v4.72a7.37 7.37 0 0 1-1.86 5.61" class="cls-2"/><path d="m24.06 5.03-.16-.3-.15.47.1.18zM12.39 3.15c.09.38-.24.29-.21.41s.06.06.1 0l.36-.09c.17 0 .26 0 .36-.06s.13 0 .11-.1-.33.08-.41-.32l-.31-1.39c0-.16 0-.18.1-.2h.22c.29-.07.28.3.38.28s0-.14 0-.17L13 1.17s0-.08-.06-.07l-.78.18-.78.15v.09l.02.48s0 .12.06.1-.05-.42.24-.48l.21-.05c.11 0 .14 0 .17.14ZM9 4.35c.18.35-.16.35-.1.46s.07 0 .11 0l.32-.18c.16-.09.24-.11.33-.16s.12 0 .08-.12-.29.16-.48-.2l-.71-1.29c-.07-.14-.06-.17 0-.22l.19-.1c.26-.15.36.21.45.16s0-.13-.05-.16L9 2.28s0-.06-.07 0l-.71.39-.69.33v.09l.16.41s0 .11.08.08-.16-.4.1-.53l.19-.1c.1 0 .13 0 .2.09ZM12.86 24.64l-.33.03.35.33.21-.02z" class="cls-1"/><path d="M37.68 2.5a1.3 1.3 0 0 0 .35 0 .8.8 0 0 0 .26 0c-.07.8-.14 2.31-.15 3.56a2.27 2.27 0 0 1-2.45 2.46c-1.69 0-2.44-.79-2.44-2.45V2.5a2 2 0 0 0 .44 0 1.5 1.5 0 0 0 .37 0C34 3 34 4.17 34 5.44s0 2.68 1.91 2.68 1.87-1.76 1.87-2.83c-.05-1.63-.05-2.45-.1-2.79M45.3 8.52C44 7 42.44 5.34 41 3.79v1.74c0 .73 0 2.54.08 2.88a1.5 1.5 0 0 0-.3 0 2 2 0 0 0-.32 0c.07-.4.18-2.59.18-3.72v-2.3h.14C42.1 3.91 44 6 45 7c0-1.53 0-3.2-.07-4.52a1 1 0 0 0 .29 0 .9.9 0 0 0 .28 0c-.06.51-.14 2.2-.14 2.87V8.5ZM47.8 4.72c0-.74 0-1.48-.07-2.22a2 2 0 0 0 .42 0 2 2 0 0 0 .42 0c0 .74-.07 1.48-.07 2.22v1.47c0 .74 0 1.48.07 2.22a3 3 0 0 0-.42 0 3 3 0 0 0-.42 0c0-.74.07-1.48.07-2.22ZM50 2.5a2.2 2.2 0 0 0 .44 0 2.3 2.3 0 0 0 .45 0c.5 1.52 1.23 3.33 2 5.06.63-1.38 1.59-3.94 2-5.06a1.1 1.1 0 0 0 .31 0 1.1 1.1 0 0 0 .32 0q-1.34 3-2.47 5.91a1.4 1.4 0 0 0-.28 0 1.2 1.2 0 0 0-.28 0C51.89 7 50.85 4.47 50 2.5M56.94 4.71c0-.73 0-1.48-.07-2.21h3.05a2 2 0 0 0 0 .26 3 3 0 0 0 0 .26 20 20 0 0 0-2.25-.12v2.22c1 0 1.57 0 2.08-.08a1.14 1.14 0 0 0 0 .52c-.59-.06-1.67-.08-2.08-.08v2.53A16 16 0 0 0 60 7.9a1.2 1.2 0 0 0 0 .26 1 1 0 0 0 0 .25h-3.1c0-.74.07-1.49.07-2.23ZM61.75 4.72c0-.74 0-1.48-.07-2.22h2c1 0 1.79.34 1.79 1.35s-1.11 1.56-1.76 1.64c.37.51 1.8 2.36 2.29 2.92a5 5 0 0 0-.52 0 4 4 0 0 0-.49 0 26 26 0 0 0-2.22-2.84h-.33v.62c0 .74 0 1.48.07 2.22a2.2 2.2 0 0 0-.84 0c0-.74.07-1.48.07-2.22Zm.7.49a3 3 0 0 0 .58 0c.7 0 1.63-.29 1.63-1.31s-.74-1.12-1.33-1.12a7 7 0 0 0-.83 0v1.86ZM67.39 7.27a1.46 1.46 0 0 0 1.35.89A1.18 1.18 0 0 0 70 6.92C70 5.34 67.27 6 67.27 4a1.65 1.65 0 0 1 1.85-1.62 1.9 1.9 0 0 1 1.27.4 3 3 0 0 0-.23.72h-.1a1.08 1.08 0 0 0-1-.8 1 1 0 0 0-1.11 1.06c0 1.6 2.7.93 2.7 2.83a1.93 1.93 0 0 1-2.1 1.92A2.08 2.08 0 0 1 67.12 8a2.4 2.4 0 0 0 .16-.76ZM72.55 4.72c0-.74 0-1.48-.07-2.22a2.2 2.2 0 0 0 .84 0c0 .74-.07 1.48-.07 2.22v1.47c0 .74 0 1.48.07 2.22a2.2 2.2 0 0 0-.84 0c0-.74.07-1.48.07-2.22ZM33.25 13.45c0-.73 0-1.48-.07-2.21h1.89c.52 0 1.88 0 1.88 1.44s-1.48 1.8-2.31 1.8h-.69v.47c0 .73 0 1.48.07 2.22a2 2 0 0 0-.42 0 2 2 0 0 0-.42 0c0-.74.07-1.49.07-2.22Zm.7.65a3 3 0 0 0 .61.07c.7 0 1.6-.27 1.6-1.43 0-1-.56-1.19-1.44-1.19H34ZM41.11 11.13a2.93 2.93 0 0 1 3.21 3.06 2.93 2.93 0 0 1-3.21 3.07 2.93 2.93 0 0 1-3.21-3.07 2.93 2.93 0 0 1 3.21-3.06m0 .31c-1.34 0-2.37.85-2.37 2.75s1 2.75 2.37 2.75 2.37-.85 2.37-2.75-1.03-2.75-2.37-2.75M45.74 13.45c0-.73 0-1.48-.07-2.21a3 3 0 0 0 .42 0 3 3 0 0 0 .42 0c0 .73-.07 1.48-.07 2.21v3.29a17 17 0 0 0 2.36-.11.8.8 0 0 0 0 .26.8.8 0 0 0 0 .26h-3.16c0-.74.07-1.49.07-2.22ZM50.4 13.45c0-.73 0-1.48-.07-2.21a3 3 0 0 0 .42 0 3 3 0 0 0 .42 0c0 .73-.07 1.48-.07 2.21v1.48c0 .73 0 1.48.07 2.22a2 2 0 0 0-.42 0 2 2 0 0 0-.42 0c0-.74.07-1.49.07-2.22ZM54.4 13.45v-1.77a17 17 0 0 0-1.84.1.9.9 0 0 0 .05-.28.9.9 0 0 0-.05-.26h4.42a.93.93 0 0 0 0 .54 17 17 0 0 0-1.83-.1v3.25c0 .73 0 1.48.06 2.22a2 2 0 0 0-.42 0 2 2 0 0 0-.42 0c0-.74.07-1.49.07-2.22ZM67.41 16.77a3.26 3.26 0 0 1-1.78.49 2.9 2.9 0 0 1-3.12-3.07 2.93 2.93 0 0 1 3.21-3.06 4.6 4.6 0 0 1 1.86.39 2.5 2.5 0 0 0-.18.67h-.05a2.3 2.3 0 0 0-1.63-.76c-1.35 0-2.37.85-2.37 2.75s1 2.75 2.37 2.75a2.88 2.88 0 0 0 1.74-.71ZM73.88 17.26c-1.3-1.54-2.86-3.18-4.32-4.74v1.74c0 .74 0 2.54.08 2.89a1 1 0 0 0-.3 0 1.2 1.2 0 0 0-.32 0c.07-.41.18-2.6.18-3.73v-2.29h.14c1.4 1.51 3.29 3.58 4.33 4.63 0-1.53 0-3.2-.06-4.52a1.4 1.4 0 0 0 .29 0 1.3 1.3 0 0 0 .27 0c0 .5-.14 2.2-.14 2.87v3.15ZM76 13.45c0-.73 0-1.48-.07-2.21a3 3 0 0 0 .42 0 3 3 0 0 0 .42 0c0 .73-.07 1.48-.07 2.21v1.48c0 .73 0 1.48.07 2.22a2 2 0 0 0-.42 0 2 2 0 0 0-.42 0c0-.74.07-1.49.07-2.22ZM83.19 16.77a3.33 3.33 0 0 1-1.79.49 2.9 2.9 0 0 1-3.12-3.07 2.93 2.93 0 0 1 3.21-3.06 4.6 4.6 0 0 1 1.86.39 2.5 2.5 0 0 0-.18.67 2.3 2.3 0 0 0-1.63-.76c-1.34 0-2.37.85-2.37 2.75s1 2.75 2.37 2.75a2.88 2.88 0 0 0 1.74-.71ZM33.31 22.19c0-.74 0-1.48-.06-2.22h2.58a2.5 2.5 0 0 1 2.83 2.84 3 3 0 0 1-3.12 3.07h-2.29c0-.74.06-1.48.06-2.22Zm.69 1.47v1.82a6.5 6.5 0 0 0 1.12.08c1.26 0 2.63-.49 2.63-2.75 0-2-1-2.48-2.43-2.48a9.5 9.5 0 0 0-1.32.09v1.77ZM39.73 22.18c0-.74 0-1.48-.07-2.21h3.06a1.1 1.1 0 0 0 0 .26 1.2 1.2 0 0 0 0 .26 21 21 0 0 0-2.25-.12v2.22c1 0 1.58 0 2.08-.08a1.7 1.7 0 0 0 0 .52c-.62-.03-1.69-.03-2.11-.03v2.53a16 16 0 0 0 2.31-.11 1.6 1.6 0 0 0 0 .51h-3.1c0-.74.07-1.49.07-2.23ZM48.31 20a2.6 2.6 0 0 0 .9 0c.5 1.52 1.23 3.33 1.95 5.06.62-1.38 1.58-3.94 1.94-5.06a1.2 1.2 0 0 0 .32 0 1.2 1.2 0 0 0 .32 0c-.89 2-1.72 3.94-2.47 5.91a.9.9 0 0 0-.28 0 .9.9 0 0 0-.29 0c-.51-1.44-1.55-3.97-2.39-5.91M60.28 22.19c0-.74 0-1.48-.07-2.22a2 2 0 0 0 .42 0 2 2 0 0 0 .42 0c0 .74-.07 1.48-.07 2.22v3.29a17.5 17.5 0 0 0 2.37-.11.7.7 0 0 0 0 .25.8.8 0 0 0 0 .26h-3.16c0-.74.07-1.48.07-2.22ZM74.22 26c-1.3-1.53-2.86-3.18-4.32-4.73V23c0 .74 0 2.55.08 2.89a1 1 0 0 0-.3 0 1.3 1.3 0 0 0-.32 0c.07-.4.18-2.59.18-3.72v-2.3h.13c1.4 1.52 3.29 3.58 4.34 4.63 0-1.53 0-3.2-.07-4.52a1 1 0 0 0 .29 0 .8.8 0 0 0 .27 0c0 .51-.13 2.2-.13 2.87V26ZM80.62 25.5a3.3 3.3 0 0 1-1.78.49 2.91 2.91 0 0 1-3.13-3.06 2.93 2.93 0 0 1 3.21-3.07 4.6 4.6 0 0 1 1.86.39 3.7 3.7 0 0 0-.18.67 2.25 2.25 0 0 0-1.63-.76c-1.34 0-2.37.84-2.37 2.75s1 2.74 2.37 2.74a2.82 2.82 0 0 0 1.69-.65ZM82.12 22.19c0-.74 0-1.48-.07-2.22a2.2 2.2 0 0 0 .84 0c0 .74-.07 1.48-.07 2.22v1.47c0 .74 0 1.48.07 2.22a2.2 2.2 0 0 0-.84 0c0-.74.07-1.48.07-2.22ZM85.43 16.41a.68.68 0 1 1 .67.67.67.67 0 0 1-.67-.67" class="cls-2"/><path d="m87.75 14.78-1.07-2.57-1.09 2.57a21 21 0 0 0-.83 2.29 1.3 1.3 0 0 0-.64 0c.92-2 1.81-4 2.68-6h.2c.84 2 2.12 5.11 2.57 6a2.6 2.6 0 0 0-.9 0c-.2-.59-.61-1.53-.92-2.29M85.46 25.15a.67.67 0 0 1 .67-.67.68.68 0 1 1-.67.67" class="cls-2"/><path d="M87.78 23.52 86.71 21l-1.09 2.57a22 22 0 0 0-.83 2.3 1.3 1.3 0 0 0-.32 0 1.2 1.2 0 0 0-.32 0c.92-2 1.81-4 2.68-6H87c.84 2 2.13 5.1 2.58 6a2.3 2.3 0 0 0-.45 0 2.4 2.4 0 0 0-.46 0c-.17-.64-.58-1.58-.89-2.35M55 25.15a.68.68 0 1 1 .68.68.67.67 0 0 1-.68-.68" class="cls-2"/><path d="M57.34 23.52 56.26 21l-1.09 2.57a22 22 0 0 0-.83 2.3 1.2 1.2 0 0 0-.32 0 1.3 1.3 0 0 0-.32 0c.92-2 1.81-4 2.68-6h.17c.84 2 2.12 5.1 2.57 6a2.2 2.2 0 0 0-.45 0 2.3 2.3 0 0 0-.45 0c-.17-.64-.58-1.58-.88-2.35M76.63 4.79V3.01a17 17 0 0 0-1.84.1.9.9 0 0 0 0-.28.9.9 0 0 0 0-.26h4.42a1.3 1.3 0 0 0 0 .27 1.3 1.3 0 0 0 0 .27A17 17 0 0 0 77.36 3v3.26c0 .74 0 1.48.07 2.22a2 2 0 0 0-.43-.05 2 2 0 0 0-.42.05c0-.74.07-1.48.07-2.22ZM87 4.79V3a17 17 0 0 0-1.84.1.9.9 0 0 0 0-.28.9.9 0 0 0 0-.26h4.42a1.3 1.3 0 0 0 0 .27 1.3 1.3 0 0 0 0 .27 17 17 0 0 0-1.87-.1v3.26c0 .74 0 1.48.06 2.22a2 2 0 0 0-.42-.05 2 2 0 0 0-.42.05C87 7.74 87 7 87 6.26Z" class="cls-2"/><path d="m67 19.49-1.09-1.08a3 3 0 0 0-.33-.31.2.2 0 0 0-.12-.06.29.29 0 0 0-.35.18.27.27 0 0 0 0 .23.64.64 0 0 0 .21.19l1.36.85Zm-1.45.9h1.54a7 7 0 0 1 .78.1 2 2 0 0 1 0-.26 3 3 0 0 1 0-.26h-3.12v5.88h3.13a2 2 0 0 1 0-.26v-.26a5.4 5.4 0 0 1-.8.08h-1.57v-2.48h1.34c.27 0 .52 0 .78.05v-.25a2 2 0 0 1 0-.22h-2.12ZM60.43 10.78l-1.1-1.08a2.5 2.5 0 0 0-.33-.31.4.4 0 0 0-.11-.06.32.32 0 0 0-.36.18.4.4 0 0 0 0 .24.8.8 0 0 0 .22.19l1.36.84Zm-1.45.9h1.53a5 5 0 0 1 .78.09v-.52h-3.08v5.88h3.14a2 2 0 0 1 0-.25 2 2 0 0 1 0-.26 5.4 5.4 0 0 1-.8.07c-.52 0-1 .06-1.57 0v-2.46h2.12v-.24a2 2 0 0 1 0-.23H59Z" class="cls-1"/><path d="M80.81 7.69a.67.67 0 0 1 .67-.69.68.68 0 0 1 .68.67.69.69 0 0 1-.68.68.68.68 0 0 1-.67-.66m1.24-5.3h.18l2.46 5.7.14.31a3 3 0 0 0-.44 0 2.5 2.5 0 0 0-.47 0l-.08-.25-.39-1L83 6.1l-1.07-2.6-1.11 2.6c-.3.75-.61 1.51-.85 2.3a1 1 0 0 0-.3 0 1.7 1.7 0 0 0-.32 0Z" class="cls-2"/></g></g></svg>